G04*
G04 #@! TF.GenerationSoftware,Altium Limited,Altium Designer,26.8.1 (31)*
G04*
G04 Layer_Color=32896*
G04 Board_Origin=13779528|15748031*
%FSLAX43Y43*%
%MOMM*%
G71*
G04*
G04 #@! TF.SameCoordinates,D528AD27-129B-4EB7-BE98-D6C5A5286594*
G04*
G04*
G04 #@! TF.FilePolarity,Positive*
G04*
G01*
G75*
%ADD11C,0.250*%
%ADD14C,0.150*%
%ADD15C,0.200*%
%ADD16C,0.500*%
G36*
X19034Y3341D02*
X18916D01*
Y3476D01*
X19034D01*
Y3341D01*
D02*
G37*
G36*
X23355Y3477D02*
X23393Y3470D01*
X23425Y3459D01*
X23452Y3448D01*
X23465Y3441D01*
X23475Y3436D01*
X23484Y3430D01*
X23491Y3425D01*
X23497Y3420D01*
X23501Y3418D01*
X23504Y3416D01*
X23505Y3415D01*
X23532Y3389D01*
X23552Y3359D01*
X23569Y3329D01*
X23583Y3298D01*
X23591Y3272D01*
X23595Y3261D01*
X23598Y3251D01*
X23599Y3243D01*
X23601Y3237D01*
X23602Y3233D01*
Y3232D01*
X23484Y3211D01*
X23479Y3242D01*
X23471Y3268D01*
X23461Y3290D01*
X23451Y3308D01*
X23441Y3322D01*
X23433Y3332D01*
X23428Y3339D01*
X23426Y3340D01*
X23408Y3354D01*
X23389Y3365D01*
X23371Y3372D01*
X23353Y3378D01*
X23336Y3380D01*
X23323Y3383D01*
X23312D01*
X23287Y3382D01*
X23265Y3376D01*
X23246Y3369D01*
X23229Y3362D01*
X23217Y3354D01*
X23207Y3347D01*
X23200Y3341D01*
X23199Y3340D01*
X23183Y3323D01*
X23172Y3305D01*
X23165Y3287D01*
X23160Y3271D01*
X23157Y3255D01*
X23154Y3244D01*
Y3236D01*
Y3235D01*
Y3233D01*
Y3218D01*
X23157Y3204D01*
X23164Y3181D01*
X23174Y3160D01*
X23185Y3142D01*
X23196Y3129D01*
X23206Y3120D01*
X23213Y3114D01*
X23214Y3113D01*
X23215D01*
X23239Y3100D01*
X23261Y3090D01*
X23285Y3083D01*
X23305Y3079D01*
X23323Y3077D01*
X23339Y3074D01*
X23357D01*
X23362Y3075D01*
X23369D01*
X23383Y2971D01*
X23365Y2975D01*
X23348Y2978D01*
X23335Y2981D01*
X23322Y2982D01*
X23312Y2984D01*
X23300D01*
X23271Y2981D01*
X23244Y2975D01*
X23221Y2967D01*
X23201Y2957D01*
X23186Y2948D01*
X23175Y2939D01*
X23168Y2934D01*
X23165Y2931D01*
X23147Y2910D01*
X23133Y2888D01*
X23124Y2866D01*
X23118Y2844D01*
X23114Y2826D01*
X23113Y2810D01*
X23111Y2805D01*
Y2801D01*
Y2798D01*
Y2796D01*
X23114Y2766D01*
X23121Y2738D01*
X23129Y2715D01*
X23140Y2694D01*
X23152Y2677D01*
X23160Y2665D01*
X23167Y2656D01*
X23170Y2654D01*
X23192Y2634D01*
X23215Y2620D01*
X23239Y2611D01*
X23261Y2604D01*
X23281Y2599D01*
X23296Y2598D01*
X23301Y2597D01*
X23310D01*
X23335Y2598D01*
X23358Y2604D01*
X23379Y2611D01*
X23396Y2619D01*
X23409Y2626D01*
X23421Y2633D01*
X23426Y2638D01*
X23429Y2640D01*
X23446Y2659D01*
X23459Y2681D01*
X23472Y2705D01*
X23482Y2730D01*
X23489Y2751D01*
X23491Y2760D01*
X23493Y2769D01*
X23494Y2776D01*
X23495Y2781D01*
X23497Y2784D01*
Y2785D01*
X23615Y2770D01*
X23612Y2748D01*
X23608Y2727D01*
X23595Y2688D01*
X23580Y2655D01*
X23572Y2641D01*
X23563Y2627D01*
X23555Y2615D01*
X23547Y2605D01*
X23540Y2595D01*
X23533Y2588D01*
X23529Y2583D01*
X23525Y2579D01*
X23522Y2576D01*
X23520Y2575D01*
X23504Y2562D01*
X23487Y2550D01*
X23471Y2540D01*
X23452Y2532D01*
X23418Y2518D01*
X23385Y2509D01*
X23369Y2507D01*
X23355Y2504D01*
X23343Y2502D01*
X23332Y2501D01*
X23323Y2500D01*
X23311D01*
X23285Y2501D01*
X23261Y2504D01*
X23238Y2508D01*
X23215Y2513D01*
X23195Y2520D01*
X23176Y2527D01*
X23158Y2536D01*
X23143Y2544D01*
X23128Y2551D01*
X23115Y2559D01*
X23104Y2566D01*
X23096Y2573D01*
X23089Y2579D01*
X23084Y2583D01*
X23081Y2586D01*
X23079Y2587D01*
X23063Y2604D01*
X23049Y2622D01*
X23036Y2640D01*
X23025Y2658D01*
X23017Y2674D01*
X23009Y2692D01*
X22998Y2726D01*
X22995Y2741D01*
X22992Y2755D01*
X22989Y2767D01*
X22988Y2778D01*
X22986Y2787D01*
Y2794D01*
Y2798D01*
Y2799D01*
X22988Y2832D01*
X22993Y2863D01*
X23002Y2889D01*
X23010Y2912D01*
X23018Y2930D01*
X23027Y2943D01*
X23032Y2952D01*
X23034Y2955D01*
X23053Y2975D01*
X23074Y2993D01*
X23096Y3007D01*
X23118Y3018D01*
X23138Y3027D01*
X23153Y3032D01*
X23158Y3034D01*
X23163Y3035D01*
X23165Y3036D01*
X23167D01*
X23143Y3049D01*
X23124Y3061D01*
X23107Y3075D01*
X23093Y3088D01*
X23082Y3099D01*
X23074Y3108D01*
X23070Y3114D01*
X23068Y3117D01*
X23057Y3136D01*
X23049Y3156D01*
X23042Y3175D01*
X23038Y3193D01*
X23035Y3208D01*
X23034Y3219D01*
Y3228D01*
Y3230D01*
X23035Y3254D01*
X23039Y3278D01*
X23045Y3298D01*
X23052Y3316D01*
X23059Y3332D01*
X23064Y3344D01*
X23068Y3351D01*
X23070Y3354D01*
X23084Y3375D01*
X23100Y3393D01*
X23117Y3408D01*
X23133Y3422D01*
X23147Y3432D01*
X23160Y3440D01*
X23168Y3444D01*
X23170Y3445D01*
X23171D01*
X23196Y3457D01*
X23221Y3465D01*
X23246Y3472D01*
X23268Y3476D01*
X23286Y3479D01*
X23301Y3480D01*
X23336D01*
X23355Y3477D01*
D02*
G37*
G36*
X24816Y3479D02*
X24839Y3477D01*
X24861Y3473D01*
X24882Y3469D01*
X24902Y3463D01*
X24920Y3458D01*
X24936Y3451D01*
X24952Y3444D01*
X24966Y3437D01*
X24977Y3430D01*
X24986Y3425D01*
X24995Y3419D01*
X25002Y3415D01*
X25006Y3411D01*
X25008Y3409D01*
X25010Y3408D01*
X25024Y3394D01*
X25036Y3379D01*
X25049Y3362D01*
X25058Y3346D01*
X25075Y3312D01*
X25086Y3279D01*
X25090Y3264D01*
X25094Y3249D01*
X25097Y3236D01*
X25100Y3225D01*
X25101Y3215D01*
Y3208D01*
X25103Y3204D01*
Y3203D01*
X24982Y3190D01*
X24979Y3222D01*
X24974Y3250D01*
X24966Y3275D01*
X24956Y3294D01*
X24947Y3311D01*
X24939Y3322D01*
X24934Y3329D01*
X24931Y3332D01*
X24910Y3348D01*
X24888Y3361D01*
X24864Y3371D01*
X24843Y3376D01*
X24824Y3380D01*
X24807Y3382D01*
X24802Y3383D01*
X24794D01*
X24764Y3382D01*
X24738Y3376D01*
X24716Y3368D01*
X24696Y3359D01*
X24681Y3350D01*
X24671Y3343D01*
X24665Y3337D01*
X24662Y3335D01*
X24645Y3315D01*
X24633Y3296D01*
X24623Y3276D01*
X24617Y3257D01*
X24613Y3242D01*
X24612Y3228D01*
X24610Y3219D01*
Y3218D01*
Y3217D01*
X24613Y3192D01*
X24619Y3165D01*
X24629Y3142D01*
X24638Y3120D01*
X24649Y3102D01*
X24659Y3086D01*
X24662Y3081D01*
X24665Y3077D01*
X24667Y3075D01*
Y3074D01*
X24678Y3059D01*
X24692Y3043D01*
X24708Y3027D01*
X24724Y3010D01*
X24759Y2977D01*
X24794Y2943D01*
X24812Y2928D01*
X24827Y2914D01*
X24842Y2902D01*
X24855Y2891D01*
X24864Y2882D01*
X24873Y2875D01*
X24878Y2871D01*
X24880Y2870D01*
X24914Y2841D01*
X24946Y2813D01*
X24972Y2788D01*
X24993Y2767D01*
X25011Y2749D01*
X25024Y2737D01*
X25031Y2728D01*
X25033Y2727D01*
Y2726D01*
X25053Y2702D01*
X25068Y2680D01*
X25082Y2658D01*
X25093Y2638D01*
X25101Y2622D01*
X25107Y2609D01*
X25110Y2601D01*
X25111Y2599D01*
Y2598D01*
X25117Y2583D01*
X25119Y2569D01*
X25122Y2555D01*
X25124Y2543D01*
X25125Y2532D01*
Y2523D01*
Y2518D01*
Y2516D01*
X24488D01*
Y2630D01*
X24961D01*
X24945Y2654D01*
X24936Y2663D01*
X24929Y2673D01*
X24923Y2681D01*
X24917Y2687D01*
X24913Y2691D01*
X24911Y2692D01*
X24904Y2699D01*
X24896Y2706D01*
X24877Y2724D01*
X24855Y2745D01*
X24831Y2766D01*
X24809Y2784D01*
X24799Y2792D01*
X24791Y2801D01*
X24784Y2806D01*
X24778Y2810D01*
X24776Y2813D01*
X24774Y2814D01*
X24752Y2834D01*
X24730Y2852D01*
X24710Y2870D01*
X24692Y2885D01*
X24676Y2900D01*
X24662Y2914D01*
X24648Y2927D01*
X24637Y2938D01*
X24626Y2949D01*
X24617Y2957D01*
X24610Y2964D01*
X24604Y2971D01*
X24597Y2979D01*
X24594Y2982D01*
X24574Y3006D01*
X24558Y3027D01*
X24544Y3047D01*
X24533Y3064D01*
X24524Y3079D01*
X24519Y3090D01*
X24516Y3097D01*
X24515Y3100D01*
X24506Y3121D01*
X24501Y3142D01*
X24495Y3161D01*
X24493Y3178D01*
X24491Y3193D01*
X24490Y3204D01*
Y3211D01*
Y3214D01*
X24491Y3235D01*
X24494Y3254D01*
X24497Y3273D01*
X24502Y3290D01*
X24516Y3323D01*
X24530Y3350D01*
X24538Y3362D01*
X24545Y3372D01*
X24552Y3382D01*
X24559Y3389D01*
X24565Y3394D01*
X24567Y3400D01*
X24570Y3401D01*
X24572Y3402D01*
X24587Y3416D01*
X24604Y3429D01*
X24622Y3439D01*
X24640Y3447D01*
X24676Y3461D01*
X24712Y3470D01*
X24727Y3473D01*
X24742Y3476D01*
X24756Y3477D01*
X24767Y3479D01*
X24777Y3480D01*
X24791D01*
X24816Y3479D01*
D02*
G37*
G36*
X22403Y2970D02*
X22292Y2955D01*
X22282Y2970D01*
X22270Y2982D01*
X22258Y2995D01*
X22247Y3004D01*
X22236Y3011D01*
X22228Y3018D01*
X22222Y3021D01*
X22221Y3022D01*
X22203Y3031D01*
X22185Y3038D01*
X22168Y3042D01*
X22152Y3046D01*
X22138Y3047D01*
X22127Y3049D01*
X22100D01*
X22084Y3046D01*
X22055Y3039D01*
X22030Y3029D01*
X22007Y3020D01*
X21991Y3009D01*
X21978Y2999D01*
X21971Y2992D01*
X21969Y2991D01*
Y2989D01*
X21949Y2966D01*
X21935Y2941D01*
X21926Y2914D01*
X21919Y2888D01*
X21914Y2866D01*
X21913Y2856D01*
Y2848D01*
X21912Y2841D01*
Y2835D01*
Y2832D01*
Y2831D01*
Y2812D01*
X21914Y2794D01*
X21921Y2759D01*
X21931Y2730D01*
X21941Y2706D01*
X21952Y2687D01*
X21962Y2672D01*
X21966Y2667D01*
X21969Y2663D01*
X21970Y2662D01*
X21971Y2661D01*
X21982Y2649D01*
X21994Y2640D01*
X22018Y2623D01*
X22042Y2612D01*
X22066Y2605D01*
X22085Y2599D01*
X22102Y2598D01*
X22107Y2597D01*
X22116D01*
X22142Y2598D01*
X22165Y2604D01*
X22186Y2611D01*
X22203Y2619D01*
X22218Y2627D01*
X22229Y2634D01*
X22235Y2640D01*
X22238Y2641D01*
X22254Y2661D01*
X22268Y2681D01*
X22279Y2705D01*
X22288Y2726D01*
X22293Y2746D01*
X22297Y2762D01*
X22299Y2769D01*
X22300Y2773D01*
Y2776D01*
Y2777D01*
X22423Y2767D01*
X22421Y2745D01*
X22417Y2724D01*
X22404Y2685D01*
X22389Y2652D01*
X22380Y2637D01*
X22372Y2624D01*
X22365Y2612D01*
X22357Y2601D01*
X22350Y2593D01*
X22343Y2586D01*
X22337Y2580D01*
X22335Y2575D01*
X22332Y2573D01*
X22331Y2572D01*
X22314Y2559D01*
X22297Y2548D01*
X22279Y2538D01*
X22261Y2530D01*
X22226Y2518D01*
X22192Y2509D01*
X22177Y2505D01*
X22161Y2504D01*
X22149Y2502D01*
X22138Y2501D01*
X22128Y2500D01*
X22116D01*
X22086Y2501D01*
X22059Y2505D01*
X22032Y2511D01*
X22009Y2518D01*
X21987Y2527D01*
X21966Y2537D01*
X21946Y2547D01*
X21930Y2558D01*
X21914Y2569D01*
X21901Y2579D01*
X21889Y2590D01*
X21880Y2598D01*
X21873Y2605D01*
X21867Y2611D01*
X21865Y2615D01*
X21863Y2616D01*
X21849Y2634D01*
X21838Y2654D01*
X21827Y2672D01*
X21819Y2691D01*
X21805Y2728D01*
X21797Y2765D01*
X21794Y2780D01*
X21791Y2795D01*
X21790Y2808D01*
X21788Y2819D01*
X21787Y2828D01*
Y2835D01*
Y2839D01*
Y2841D01*
X21788Y2866D01*
X21791Y2889D01*
X21795Y2913D01*
X21801Y2934D01*
X21808Y2953D01*
X21815Y2973D01*
X21823Y2989D01*
X21830Y3004D01*
X21838Y3018D01*
X21847Y3031D01*
X21853Y3040D01*
X21860Y3050D01*
X21866Y3057D01*
X21870Y3061D01*
X21873Y3064D01*
X21874Y3065D01*
X21891Y3081D01*
X21908Y3095D01*
X21926Y3106D01*
X21944Y3115D01*
X21962Y3125D01*
X21980Y3132D01*
X22013Y3142D01*
X22028Y3146D01*
X22042Y3149D01*
X22055Y3150D01*
X22066Y3151D01*
X22074Y3153D01*
X22104D01*
X22121Y3150D01*
X22154Y3143D01*
X22185Y3133D01*
X22213Y3122D01*
X22235Y3111D01*
X22245Y3106D01*
X22253Y3102D01*
X22260Y3097D01*
X22264Y3095D01*
X22267Y3093D01*
X22268Y3092D01*
X22217Y3351D01*
X21833D01*
Y3463D01*
X22310D01*
X22403Y2970D01*
D02*
G37*
G36*
X21471Y2877D02*
X21724Y2516D01*
X21582D01*
X21394Y2783D01*
X21361Y2731D01*
X21217Y2516D01*
X21073D01*
X21326Y2877D01*
X21089Y3212D01*
X21232D01*
X21350Y3047D01*
X21368Y3021D01*
X21376Y3009D01*
X21385Y2996D01*
X21392Y2986D01*
X21397Y2978D01*
X21401Y2973D01*
X21403Y2971D01*
X21410Y2984D01*
X21418Y2996D01*
X21426Y3009D01*
X21433Y3021D01*
X21440Y3031D01*
X21446Y3040D01*
X21450Y3046D01*
X21451Y3047D01*
X21561Y3212D01*
X21705D01*
X21471Y2877D01*
D02*
G37*
G36*
X20799D02*
X21053Y2516D01*
X20910D01*
X20723Y2783D01*
X20690Y2731D01*
X20546Y2516D01*
X20401D01*
X20655Y2877D01*
X20418Y3212D01*
X20561D01*
X20679Y3047D01*
X20697Y3021D01*
X20705Y3009D01*
X20713Y2996D01*
X20720Y2986D01*
X20726Y2978D01*
X20730Y2973D01*
X20731Y2971D01*
X20738Y2984D01*
X20747Y2996D01*
X20755Y3009D01*
X20762Y3021D01*
X20769Y3031D01*
X20774Y3040D01*
X20779Y3046D01*
X20780Y3047D01*
X20890Y3212D01*
X21034D01*
X20799Y2877D01*
D02*
G37*
G36*
X22884Y2805D02*
X22519D01*
Y2923D01*
X22884D01*
Y2805D01*
D02*
G37*
G36*
X18783D02*
X18418D01*
Y2923D01*
X18783D01*
Y2805D01*
D02*
G37*
G36*
X16413Y2516D02*
X16291D01*
Y3269D01*
X15789Y2516D01*
X15657D01*
Y3476D01*
X15779D01*
Y2722D01*
X16283Y3476D01*
X16413D01*
Y2516D01*
D02*
G37*
G36*
X12541D02*
X12419D01*
Y3333D01*
X12141Y2516D01*
X12028D01*
X11748Y3319D01*
Y2516D01*
X11625D01*
Y3476D01*
X11796D01*
X12026Y2808D01*
X12039Y2771D01*
X12048Y2741D01*
X12058Y2715D01*
X12065Y2692D01*
X12071Y2676D01*
X12075Y2663D01*
X12076Y2656D01*
X12078Y2654D01*
X12083Y2673D01*
X12090Y2695D01*
X12098Y2719D01*
X12105Y2742D01*
X12112Y2763D01*
X12118Y2780D01*
X12121Y2787D01*
X12122Y2791D01*
X12123Y2794D01*
Y2795D01*
X12351Y3476D01*
X12541D01*
Y2516D01*
D02*
G37*
G36*
X13641D02*
X13507D01*
X13305Y3247D01*
X13299Y3265D01*
X13295Y3285D01*
X13290Y3304D01*
X13286Y3321D01*
X13281Y3336D01*
X13279Y3348D01*
X13277Y3357D01*
X13276Y3358D01*
Y3359D01*
X13274Y3355D01*
X13273Y3348D01*
X13269Y3333D01*
X13263Y3315D01*
X13258Y3296D01*
X13254Y3278D01*
X13249Y3262D01*
X13248Y3255D01*
X13247Y3251D01*
X13245Y3249D01*
Y3247D01*
X13044Y2516D01*
X12919D01*
X12656Y3476D01*
X12785D01*
X12935Y2859D01*
X12946Y2816D01*
X12954Y2777D01*
X12962Y2741D01*
X12969Y2710D01*
X12974Y2697D01*
X12975Y2684D01*
X12978Y2674D01*
X12979Y2666D01*
X12982Y2659D01*
Y2654D01*
X12983Y2651D01*
Y2649D01*
X12993Y2710D01*
X13005Y2770D01*
X13018Y2827D01*
X13023Y2853D01*
X13030Y2880D01*
X13036Y2903D01*
X13041Y2924D01*
X13047Y2942D01*
X13051Y2959D01*
X13054Y2971D01*
X13057Y2981D01*
X13059Y2988D01*
Y2989D01*
X13195Y3476D01*
X13349D01*
X13531Y2827D01*
X13532Y2821D01*
X13535Y2813D01*
X13538Y2802D01*
X13541Y2789D01*
X13545Y2776D01*
X13548Y2760D01*
X13556Y2730D01*
X13563Y2699D01*
X13567Y2685D01*
X13570Y2674D01*
X13571Y2663D01*
X13574Y2656D01*
X13575Y2651D01*
Y2649D01*
X13582Y2685D01*
X13589Y2722D01*
X13596Y2755D01*
X13603Y2784D01*
X13606Y2798D01*
X13609Y2810D01*
X13611Y2820D01*
X13613Y2830D01*
X13614Y2837D01*
X13616Y2842D01*
X13617Y2845D01*
Y2846D01*
X13760Y3476D01*
X13892D01*
X13641Y2516D01*
D02*
G37*
G36*
X17905Y3490D02*
X17949Y3483D01*
X17988Y3475D01*
X18006Y3469D01*
X18023Y3463D01*
X18038Y3458D01*
X18052Y3452D01*
X18063Y3448D01*
X18074Y3444D01*
X18081Y3440D01*
X18087Y3437D01*
X18091Y3436D01*
X18092Y3434D01*
X18130Y3411D01*
X18162Y3383D01*
X18189Y3355D01*
X18213Y3328D01*
X18231Y3303D01*
X18238Y3292D01*
X18243Y3282D01*
X18249Y3275D01*
X18252Y3269D01*
X18253Y3265D01*
X18255Y3264D01*
X18274Y3221D01*
X18288Y3176D01*
X18298Y3132D01*
X18305Y3092D01*
X18307Y3074D01*
X18309Y3056D01*
X18310Y3042D01*
Y3028D01*
X18311Y3018D01*
Y3010D01*
Y3004D01*
Y3003D01*
X18309Y2953D01*
X18303Y2905D01*
X18296Y2862D01*
X18291Y2841D01*
X18286Y2823D01*
X18282Y2806D01*
X18277Y2791D01*
X18273Y2777D01*
X18270Y2766D01*
X18266Y2758D01*
X18264Y2751D01*
X18262Y2746D01*
Y2745D01*
X18241Y2704D01*
X18217Y2666D01*
X18192Y2634D01*
X18180Y2622D01*
X18169Y2609D01*
X18158Y2598D01*
X18146Y2588D01*
X18137Y2580D01*
X18128Y2575D01*
X18123Y2569D01*
X18117Y2565D01*
X18115Y2563D01*
X18113Y2562D01*
X18094Y2551D01*
X18074Y2541D01*
X18033Y2526D01*
X17991Y2515D01*
X17951Y2508D01*
X17931Y2505D01*
X17915Y2502D01*
X17900Y2501D01*
X17887D01*
X17876Y2500D01*
X17861Y2500D01*
X17833Y2501D01*
X17807Y2504D01*
X17782Y2507D01*
X17758Y2512D01*
X17736Y2519D01*
X17715Y2526D01*
X17696Y2533D01*
X17678Y2541D01*
X17662Y2548D01*
X17647Y2555D01*
X17636Y2562D01*
X17625Y2569D01*
X17618Y2575D01*
X17611Y2577D01*
X17608Y2580D01*
X17607Y2581D01*
X17588Y2598D01*
X17571Y2615D01*
X17556Y2634D01*
X17540Y2654D01*
X17515Y2692D01*
X17496Y2731D01*
X17488Y2749D01*
X17481Y2766D01*
X17475Y2781D01*
X17471Y2794D01*
X17467Y2805D01*
X17464Y2813D01*
X17463Y2819D01*
Y2820D01*
X17590Y2852D01*
X17596Y2830D01*
X17603Y2809D01*
X17610Y2789D01*
X17617Y2771D01*
X17625Y2755D01*
X17633Y2741D01*
X17643Y2727D01*
X17651Y2715D01*
X17658Y2703D01*
X17667Y2695D01*
X17674Y2687D01*
X17679Y2680D01*
X17685Y2676D01*
X17689Y2672D01*
X17690Y2670D01*
X17692Y2669D01*
X17705Y2658D01*
X17721Y2649D01*
X17751Y2634D01*
X17780Y2623D01*
X17809Y2616D01*
X17834Y2611D01*
X17844Y2609D01*
X17854D01*
X17862Y2608D01*
X17872Y2608D01*
X17904Y2609D01*
X17934Y2615D01*
X17962Y2622D01*
X17987Y2630D01*
X18006Y2638D01*
X18015Y2642D01*
X18022Y2645D01*
X18027Y2648D01*
X18031Y2651D01*
X18034Y2652D01*
X18035D01*
X18062Y2672D01*
X18084Y2692D01*
X18103Y2716D01*
X18119Y2738D01*
X18131Y2758D01*
X18139Y2774D01*
X18142Y2781D01*
X18145Y2785D01*
X18146Y2788D01*
Y2789D01*
X18158Y2826D01*
X18166Y2862D01*
X18173Y2898D01*
X18177Y2931D01*
X18178Y2946D01*
X18180Y2960D01*
Y2973D01*
X18181Y2982D01*
Y2991D01*
Y2998D01*
Y3002D01*
Y3003D01*
X18180Y3039D01*
X18177Y3072D01*
X18171Y3103D01*
X18166Y3131D01*
X18162Y3154D01*
X18159Y3164D01*
X18156Y3172D01*
X18155Y3179D01*
X18153Y3183D01*
X18152Y3186D01*
Y3188D01*
X18138Y3219D01*
X18123Y3249D01*
X18106Y3272D01*
X18088Y3293D01*
X18073Y3310D01*
X18060Y3321D01*
X18051Y3328D01*
X18049Y3330D01*
X18048D01*
X18019Y3348D01*
X17987Y3362D01*
X17956Y3372D01*
X17927Y3378D01*
X17901Y3382D01*
X17890Y3383D01*
X17880D01*
X17873Y3384D01*
X17862Y3384D01*
X17827Y3383D01*
X17796Y3378D01*
X17769Y3369D01*
X17746Y3361D01*
X17728Y3351D01*
X17714Y3344D01*
X17705Y3339D01*
X17703Y3336D01*
X17680Y3315D01*
X17660Y3292D01*
X17643Y3267D01*
X17629Y3242D01*
X17618Y3219D01*
X17614Y3208D01*
X17611Y3200D01*
X17608Y3193D01*
X17606Y3188D01*
X17604Y3185D01*
Y3183D01*
X17479Y3212D01*
X17488Y3237D01*
X17496Y3260D01*
X17507Y3280D01*
X17517Y3301D01*
X17528Y3319D01*
X17540Y3336D01*
X17551Y3353D01*
X17563Y3366D01*
X17574Y3378D01*
X17583Y3389D01*
X17593Y3398D01*
X17600Y3405D01*
X17607Y3412D01*
X17612Y3416D01*
X17615Y3418D01*
X17617Y3419D01*
X17636Y3432D01*
X17655Y3444D01*
X17675Y3454D01*
X17696Y3462D01*
X17737Y3475D01*
X17775Y3483D01*
X17793Y3487D01*
X17808Y3488D01*
X17823Y3490D01*
X17836Y3491D01*
X17845Y3493D01*
X17859D01*
X17905Y3490D01*
D02*
G37*
G36*
X24402Y2855D02*
Y2746D01*
X23985D01*
Y2516D01*
X23867D01*
Y2746D01*
X23737D01*
Y2855D01*
X23867D01*
Y3476D01*
X23963D01*
X24402Y2855D01*
D02*
G37*
G36*
X19913Y2516D02*
X19786D01*
Y2906D01*
X19540D01*
X19504Y2907D01*
X19469Y2910D01*
X19439Y2914D01*
X19411Y2920D01*
X19385Y2925D01*
X19363Y2932D01*
X19342Y2941D01*
X19324Y2949D01*
X19309Y2956D01*
X19295Y2964D01*
X19284Y2971D01*
X19275Y2978D01*
X19268Y2982D01*
X19264Y2986D01*
X19261Y2989D01*
X19260Y2991D01*
X19246Y3007D01*
X19234Y3024D01*
X19224Y3040D01*
X19214Y3059D01*
X19206Y3077D01*
X19200Y3093D01*
X19191Y3125D01*
X19188Y3140D01*
X19185Y3154D01*
X19184Y3167D01*
X19182Y3176D01*
X19181Y3186D01*
Y3192D01*
Y3196D01*
Y3197D01*
X19182Y3224D01*
X19185Y3249D01*
X19191Y3271D01*
X19195Y3290D01*
X19200Y3307D01*
X19206Y3319D01*
X19209Y3326D01*
X19210Y3329D01*
X19221Y3350D01*
X19235Y3368D01*
X19248Y3384D01*
X19260Y3397D01*
X19271Y3407D01*
X19279Y3415D01*
X19285Y3419D01*
X19288Y3420D01*
X19306Y3432D01*
X19327Y3441D01*
X19346Y3450D01*
X19364Y3457D01*
X19381Y3461D01*
X19393Y3463D01*
X19403Y3466D01*
X19406D01*
X19426Y3469D01*
X19450Y3472D01*
X19475Y3473D01*
X19499Y3475D01*
X19519Y3476D01*
X19913D01*
Y2516D01*
D02*
G37*
G36*
X19034D02*
X18916D01*
Y3212D01*
X19034D01*
Y2516D01*
D02*
G37*
G36*
X17411Y2516D02*
X17277D01*
X17173Y2808D01*
X16771D01*
X16658Y2516D01*
X16514D01*
X16907Y3476D01*
X17045D01*
X17411Y2516D01*
D02*
G37*
G36*
X14697D02*
X14570D01*
Y2906D01*
X14324D01*
X14288Y2907D01*
X14254Y2910D01*
X14223Y2914D01*
X14195Y2920D01*
X14169Y2925D01*
X14147Y2932D01*
X14126Y2941D01*
X14108Y2949D01*
X14093Y2956D01*
X14079Y2964D01*
X14068Y2971D01*
X14059Y2978D01*
X14052Y2982D01*
X14048Y2986D01*
X14046Y2989D01*
X14044Y2991D01*
X14030Y3007D01*
X14018Y3024D01*
X14008Y3040D01*
X13998Y3059D01*
X13990Y3077D01*
X13985Y3093D01*
X13975Y3125D01*
X13972Y3140D01*
X13969Y3154D01*
X13968Y3167D01*
X13966Y3176D01*
X13965Y3186D01*
Y3192D01*
Y3196D01*
Y3197D01*
X13966Y3224D01*
X13969Y3249D01*
X13975Y3271D01*
X13979Y3290D01*
X13985Y3307D01*
X13990Y3319D01*
X13993Y3326D01*
X13994Y3329D01*
X14005Y3350D01*
X14019Y3368D01*
X14032Y3384D01*
X14044Y3397D01*
X14055Y3407D01*
X14064Y3415D01*
X14069Y3419D01*
X14072Y3420D01*
X14090Y3432D01*
X14111Y3441D01*
X14130Y3450D01*
X14148Y3457D01*
X14165Y3461D01*
X14177Y3463D01*
X14187Y3466D01*
X14190D01*
X14211Y3469D01*
X14234Y3472D01*
X14259Y3473D01*
X14283Y3475D01*
X14303Y3476D01*
X14697D01*
Y2516D01*
D02*
G37*
G36*
X15568Y2250D02*
X14787D01*
Y2335D01*
X15568D01*
Y2250D01*
D02*
G37*
G36*
X9034Y2565D02*
X8922D01*
X8657Y3261D01*
X8779D01*
X8933Y2836D01*
X8942Y2808D01*
X8952Y2783D01*
X8959Y2759D01*
X8966Y2741D01*
X8970Y2725D01*
X8974Y2714D01*
X8976Y2707D01*
X8977Y2704D01*
X8985Y2730D01*
X8992Y2757D01*
X9001Y2780D01*
X9008Y2801D01*
X9013Y2819D01*
X9017Y2833D01*
X9019Y2837D01*
X9020Y2841D01*
X9021Y2843D01*
Y2844D01*
X9171Y3261D01*
X9296D01*
X9034Y2565D01*
D02*
G37*
G36*
X9711Y3275D02*
X9736Y3273D01*
X9759Y3268D01*
X9781Y3261D01*
X9802Y3255D01*
X9822Y3246D01*
X9840Y3238D01*
X9855Y3228D01*
X9870Y3220D01*
X9883Y3210D01*
X9894Y3202D01*
X9902Y3195D01*
X9909Y3188D01*
X9915Y3184D01*
X9917Y3181D01*
X9919Y3180D01*
X9934Y3160D01*
X9948Y3139D01*
X9960Y3119D01*
X9971Y3096D01*
X9980Y3073D01*
X9987Y3051D01*
X9998Y3006D01*
X10002Y2987D01*
X10005Y2967D01*
X10006Y2951D01*
X10007Y2936D01*
X10009Y2923D01*
Y2915D01*
Y2908D01*
Y2906D01*
X10007Y2876D01*
X10005Y2847D01*
X10001Y2819D01*
X9995Y2794D01*
X9988Y2771D01*
X9981Y2748D01*
X9973Y2729D01*
X9964Y2711D01*
X9956Y2696D01*
X9948Y2682D01*
X9941Y2671D01*
X9934Y2661D01*
X9928Y2653D01*
X9924Y2647D01*
X9921Y2644D01*
X9920Y2643D01*
X9902Y2626D01*
X9884Y2612D01*
X9865Y2600D01*
X9844Y2589D01*
X9824Y2581D01*
X9804Y2572D01*
X9765Y2561D01*
X9747Y2558D01*
X9730Y2556D01*
X9715Y2553D01*
X9702Y2551D01*
X9693Y2550D01*
X9677D01*
X9634Y2553D01*
X9596Y2560D01*
X9561Y2568D01*
X9547Y2574D01*
X9533Y2579D01*
X9521Y2585D01*
X9510Y2590D01*
X9501Y2594D01*
X9493Y2599D01*
X9487Y2603D01*
X9483Y2605D01*
X9480Y2608D01*
X9479D01*
X9451Y2633D01*
X9429Y2660D01*
X9410Y2687D01*
X9396Y2714D01*
X9385Y2737D01*
X9381Y2748D01*
X9376Y2757D01*
X9374Y2765D01*
X9372Y2771D01*
X9371Y2773D01*
Y2775D01*
X9493Y2790D01*
X9504Y2764D01*
X9517Y2741D01*
X9529Y2722D01*
X9540Y2707D01*
X9550Y2696D01*
X9558Y2687D01*
X9565Y2682D01*
X9566Y2680D01*
X9584Y2669D01*
X9602Y2661D01*
X9622Y2655D01*
X9639Y2651D01*
X9654Y2648D01*
X9666Y2647D01*
X9677D01*
X9694Y2648D01*
X9709Y2650D01*
X9737Y2657D01*
X9762Y2667D01*
X9784Y2678D01*
X9801Y2687D01*
X9813Y2697D01*
X9822Y2704D01*
X9823Y2707D01*
X9824D01*
X9844Y2732D01*
X9859Y2759D01*
X9870Y2790D01*
X9878Y2818D01*
X9883Y2843D01*
X9885Y2854D01*
X9887Y2863D01*
Y2872D01*
X9888Y2877D01*
Y2881D01*
Y2883D01*
X9368D01*
X9367Y2897D01*
Y2906D01*
Y2912D01*
Y2913D01*
X9368Y2945D01*
X9371Y2974D01*
X9375Y3002D01*
X9381Y3028D01*
X9388Y3052D01*
X9394Y3074D01*
X9403Y3094D01*
X9411Y3112D01*
X9419Y3128D01*
X9428Y3142D01*
X9435Y3153D01*
X9442Y3163D01*
X9447Y3171D01*
X9451Y3177D01*
X9454Y3180D01*
X9455Y3181D01*
X9472Y3198D01*
X9490Y3213D01*
X9510Y3225D01*
X9529Y3236D01*
X9548Y3246D01*
X9566Y3253D01*
X9586Y3260D01*
X9602Y3264D01*
X9621Y3268D01*
X9636Y3271D01*
X9650Y3274D01*
X9661Y3275D01*
X9670Y3277D01*
X9684D01*
X9711Y3275D01*
D02*
G37*
G36*
X10920Y2565D02*
X10792D01*
Y2991D01*
X10629D01*
X10614Y2990D01*
X10602D01*
X10593Y2988D01*
X10586Y2987D01*
X10580D01*
X10577Y2985D01*
X10576D01*
X10554Y2979D01*
X10544Y2974D01*
X10536Y2970D01*
X10528Y2966D01*
X10522Y2963D01*
X10519Y2962D01*
X10518Y2961D01*
X10507Y2952D01*
X10496Y2942D01*
X10475Y2922D01*
X10465Y2912D01*
X10458Y2904D01*
X10454Y2898D01*
X10453Y2897D01*
X10439Y2877D01*
X10424Y2856D01*
X10408Y2834D01*
X10393Y2813D01*
X10381Y2794D01*
X10371Y2779D01*
X10367Y2773D01*
X10364Y2769D01*
X10361Y2766D01*
Y2765D01*
X10235Y2565D01*
X10077D01*
X10242Y2826D01*
X10261Y2854D01*
X10279Y2879D01*
X10297Y2899D01*
X10313Y2919D01*
X10326Y2933D01*
X10338Y2944D01*
X10344Y2951D01*
X10347Y2954D01*
X10358Y2962D01*
X10371Y2972D01*
X10396Y2987D01*
X10407Y2992D01*
X10415Y2998D01*
X10421Y3001D01*
X10424Y3002D01*
X10399Y3006D01*
X10375Y3010D01*
X10354Y3017D01*
X10333Y3023D01*
X10315Y3030D01*
X10299Y3038D01*
X10283Y3045D01*
X10270Y3052D01*
X10258Y3060D01*
X10247Y3067D01*
X10239Y3073D01*
X10232Y3078D01*
X10227Y3083D01*
X10222Y3087D01*
X10221Y3088D01*
X10220Y3089D01*
X10209Y3103D01*
X10197Y3117D01*
X10181Y3146D01*
X10170Y3175D01*
X10161Y3203D01*
X10156Y3227D01*
X10154Y3236D01*
Y3246D01*
X10153Y3253D01*
Y3259D01*
Y3261D01*
Y3263D01*
X10154Y3292D01*
X10159Y3318D01*
X10166Y3343D01*
X10172Y3364D01*
X10181Y3382D01*
X10186Y3396D01*
X10192Y3404D01*
X10193Y3406D01*
Y3407D01*
X10210Y3429D01*
X10227Y3449D01*
X10245Y3465D01*
X10261Y3478D01*
X10277Y3488D01*
X10289Y3493D01*
X10297Y3497D01*
X10299Y3499D01*
X10300D01*
X10313Y3503D01*
X10328Y3507D01*
X10358Y3514D01*
X10392Y3518D01*
X10422Y3522D01*
X10451Y3524D01*
X10464D01*
X10475Y3525D01*
X10920D01*
Y2565D01*
D02*
G37*
G36*
X8518D02*
X8383D01*
Y2700D01*
X8518D01*
Y2565D01*
D02*
G37*
G36*
X8169D02*
X7802D01*
X7769Y2567D01*
X7740Y2568D01*
X7714Y2571D01*
X7691Y2574D01*
X7673Y2576D01*
X7660Y2578D01*
X7651Y2581D01*
X7648D01*
X7625Y2587D01*
X7605Y2594D01*
X7587Y2603D01*
X7572Y2611D01*
X7560Y2617D01*
X7550Y2622D01*
X7544Y2626D01*
X7543Y2628D01*
X7528Y2640D01*
X7514Y2655D01*
X7503Y2671D01*
X7492Y2685D01*
X7483Y2698D01*
X7478Y2708D01*
X7474Y2715D01*
X7472Y2718D01*
X7463Y2740D01*
X7456Y2762D01*
X7450Y2783D01*
X7447Y2802D01*
X7445Y2819D01*
X7443Y2833D01*
Y2841D01*
Y2843D01*
Y2844D01*
X7445Y2875D01*
X7450Y2902D01*
X7458Y2926D01*
X7467Y2948D01*
X7475Y2965D01*
X7483Y2977D01*
X7489Y2985D01*
X7490Y2988D01*
X7510Y3010D01*
X7531Y3028D01*
X7554Y3044D01*
X7575Y3056D01*
X7594Y3066D01*
X7611Y3071D01*
X7617Y3074D01*
X7621Y3076D01*
X7623Y3077D01*
X7625D01*
X7601Y3091D01*
X7580Y3105D01*
X7564Y3120D01*
X7550Y3134D01*
X7539Y3145D01*
X7531Y3156D01*
X7526Y3162D01*
X7525Y3164D01*
X7514Y3185D01*
X7506Y3205D01*
X7499Y3224D01*
X7495Y3242D01*
X7492Y3257D01*
X7490Y3270D01*
Y3277D01*
Y3279D01*
X7492Y3303D01*
X7496Y3327D01*
X7503Y3347D01*
X7510Y3367D01*
X7517Y3383D01*
X7524Y3395D01*
X7528Y3403D01*
X7529Y3406D01*
X7544Y3426D01*
X7561Y3446D01*
X7579Y3461D01*
X7596Y3474D01*
X7610Y3483D01*
X7622Y3490D01*
X7630Y3494D01*
X7632Y3496D01*
X7633D01*
X7660Y3506D01*
X7689Y3512D01*
X7718Y3518D01*
X7746Y3521D01*
X7770Y3524D01*
X7782D01*
X7791Y3525D01*
X8169D01*
Y2565D01*
D02*
G37*
G36*
X13918Y2256D02*
X13941Y2254D01*
X13963Y2250D01*
X13984Y2246D01*
X14003Y2241D01*
X14022Y2235D01*
X14038Y2228D01*
X14053Y2221D01*
X14067Y2214D01*
X14078Y2207D01*
X14088Y2202D01*
X14096Y2196D01*
X14103Y2192D01*
X14108Y2188D01*
X14110Y2187D01*
X14112Y2185D01*
X14126Y2171D01*
X14138Y2156D01*
X14150Y2139D01*
X14160Y2123D01*
X14177Y2089D01*
X14188Y2056D01*
X14192Y2041D01*
X14196Y2026D01*
X14199Y2013D01*
X14202Y2002D01*
X14203Y1992D01*
Y1985D01*
X14205Y1981D01*
Y1980D01*
X14084Y1967D01*
X14081Y1999D01*
X14076Y2027D01*
X14067Y2052D01*
X14058Y2071D01*
X14049Y2088D01*
X14041Y2099D01*
X14035Y2106D01*
X14033Y2109D01*
X14012Y2125D01*
X13990Y2138D01*
X13966Y2148D01*
X13945Y2153D01*
X13926Y2157D01*
X13909Y2159D01*
X13904Y2160D01*
X13895D01*
X13866Y2159D01*
X13840Y2153D01*
X13818Y2145D01*
X13798Y2137D01*
X13783Y2127D01*
X13773Y2120D01*
X13766Y2114D01*
X13764Y2112D01*
X13747Y2092D01*
X13734Y2073D01*
X13725Y2053D01*
X13719Y2034D01*
X13715Y2019D01*
X13714Y2005D01*
X13712Y1997D01*
Y1995D01*
Y1994D01*
X13715Y1969D01*
X13721Y1942D01*
X13730Y1919D01*
X13740Y1897D01*
X13751Y1879D01*
X13761Y1863D01*
X13764Y1858D01*
X13766Y1854D01*
X13769Y1852D01*
Y1851D01*
X13780Y1836D01*
X13794Y1820D01*
X13809Y1804D01*
X13826Y1787D01*
X13861Y1754D01*
X13895Y1721D01*
X13913Y1705D01*
X13929Y1691D01*
X13944Y1679D01*
X13956Y1668D01*
X13966Y1660D01*
X13974Y1653D01*
X13980Y1648D01*
X13981Y1647D01*
X14016Y1618D01*
X14048Y1590D01*
X14074Y1565D01*
X14095Y1544D01*
X14113Y1526D01*
X14126Y1514D01*
X14132Y1506D01*
X14135Y1504D01*
Y1503D01*
X14155Y1479D01*
X14170Y1457D01*
X14184Y1435D01*
X14195Y1415D01*
X14203Y1399D01*
X14209Y1386D01*
X14212Y1378D01*
X14213Y1377D01*
Y1375D01*
X14218Y1360D01*
X14221Y1346D01*
X14224Y1332D01*
X14225Y1320D01*
X14227Y1309D01*
Y1300D01*
Y1295D01*
Y1293D01*
X13590D01*
Y1407D01*
X14063D01*
X14046Y1431D01*
X14038Y1440D01*
X14031Y1450D01*
X14024Y1458D01*
X14019Y1464D01*
X14015Y1468D01*
X14013Y1469D01*
X14006Y1476D01*
X13998Y1483D01*
X13979Y1501D01*
X13956Y1522D01*
X13933Y1543D01*
X13911Y1561D01*
X13901Y1569D01*
X13893Y1578D01*
X13886Y1583D01*
X13880Y1587D01*
X13877Y1590D01*
X13876Y1592D01*
X13854Y1611D01*
X13832Y1629D01*
X13812Y1647D01*
X13794Y1662D01*
X13777Y1678D01*
X13764Y1691D01*
X13750Y1704D01*
X13739Y1715D01*
X13728Y1726D01*
X13719Y1734D01*
X13712Y1741D01*
X13705Y1748D01*
X13698Y1757D01*
X13696Y1759D01*
X13676Y1783D01*
X13660Y1804D01*
X13646Y1825D01*
X13635Y1841D01*
X13626Y1856D01*
X13621Y1868D01*
X13618Y1874D01*
X13617Y1877D01*
X13608Y1898D01*
X13603Y1919D01*
X13597Y1938D01*
X13594Y1955D01*
X13593Y1970D01*
X13592Y1981D01*
Y1988D01*
Y1991D01*
X13593Y2012D01*
X13596Y2031D01*
X13599Y2051D01*
X13604Y2067D01*
X13618Y2101D01*
X13632Y2127D01*
X13640Y2139D01*
X13647Y2149D01*
X13654Y2159D01*
X13661Y2166D01*
X13666Y2171D01*
X13669Y2177D01*
X13672Y2178D01*
X13673Y2180D01*
X13689Y2193D01*
X13705Y2206D01*
X13723Y2216D01*
X13741Y2224D01*
X13777Y2238D01*
X13813Y2248D01*
X13829Y2250D01*
X13844Y2253D01*
X13858Y2254D01*
X13869Y2256D01*
X13879Y2257D01*
X13893D01*
X13918Y2256D01*
D02*
G37*
G36*
X12425D02*
X12449Y2254D01*
X12471Y2250D01*
X12492Y2246D01*
X12511Y2241D01*
X12529Y2235D01*
X12546Y2228D01*
X12561Y2221D01*
X12575Y2214D01*
X12586Y2207D01*
X12596Y2202D01*
X12604Y2196D01*
X12611Y2192D01*
X12615Y2188D01*
X12618Y2187D01*
X12619Y2185D01*
X12633Y2171D01*
X12646Y2156D01*
X12658Y2139D01*
X12668Y2123D01*
X12685Y2089D01*
X12696Y2056D01*
X12700Y2041D01*
X12704Y2026D01*
X12707Y2013D01*
X12710Y2002D01*
X12711Y1992D01*
Y1985D01*
X12712Y1981D01*
Y1980D01*
X12592Y1967D01*
X12589Y1999D01*
X12583Y2027D01*
X12575Y2052D01*
X12565Y2071D01*
X12557Y2088D01*
X12549Y2099D01*
X12543Y2106D01*
X12540Y2109D01*
X12520Y2125D01*
X12497Y2138D01*
X12474Y2148D01*
X12453Y2153D01*
X12434Y2157D01*
X12417Y2159D01*
X12411Y2160D01*
X12403D01*
X12374Y2159D01*
X12348Y2153D01*
X12325Y2145D01*
X12306Y2137D01*
X12291Y2127D01*
X12281Y2120D01*
X12274Y2114D01*
X12271Y2112D01*
X12255Y2092D01*
X12242Y2073D01*
X12233Y2053D01*
X12227Y2034D01*
X12223Y2019D01*
X12221Y2005D01*
X12220Y1997D01*
Y1995D01*
Y1994D01*
X12223Y1969D01*
X12228Y1942D01*
X12238Y1919D01*
X12248Y1897D01*
X12259Y1879D01*
X12269Y1863D01*
X12271Y1858D01*
X12274Y1854D01*
X12277Y1852D01*
Y1851D01*
X12288Y1836D01*
X12302Y1820D01*
X12317Y1804D01*
X12334Y1787D01*
X12368Y1754D01*
X12403Y1721D01*
X12421Y1705D01*
X12436Y1691D01*
X12452Y1679D01*
X12464Y1668D01*
X12474Y1660D01*
X12482Y1653D01*
X12488Y1648D01*
X12489Y1647D01*
X12524Y1618D01*
X12556Y1590D01*
X12582Y1565D01*
X12603Y1544D01*
X12621Y1526D01*
X12633Y1514D01*
X12640Y1506D01*
X12643Y1504D01*
Y1503D01*
X12662Y1479D01*
X12678Y1457D01*
X12692Y1435D01*
X12703Y1415D01*
X12711Y1399D01*
X12717Y1386D01*
X12719Y1378D01*
X12721Y1377D01*
Y1375D01*
X12726Y1360D01*
X12729Y1346D01*
X12732Y1332D01*
X12733Y1320D01*
X12735Y1309D01*
Y1300D01*
Y1295D01*
Y1293D01*
X12098D01*
Y1407D01*
X12571D01*
X12554Y1431D01*
X12546Y1440D01*
X12539Y1450D01*
X12532Y1458D01*
X12527Y1464D01*
X12522Y1468D01*
X12521Y1469D01*
X12514Y1476D01*
X12506Y1483D01*
X12486Y1501D01*
X12464Y1522D01*
X12441Y1543D01*
X12418Y1561D01*
X12409Y1569D01*
X12400Y1578D01*
X12393Y1583D01*
X12388Y1587D01*
X12385Y1590D01*
X12384Y1592D01*
X12361Y1611D01*
X12339Y1629D01*
X12320Y1647D01*
X12302Y1662D01*
X12285Y1678D01*
X12271Y1691D01*
X12257Y1704D01*
X12246Y1715D01*
X12235Y1726D01*
X12227Y1734D01*
X12220Y1741D01*
X12213Y1748D01*
X12206Y1757D01*
X12203Y1759D01*
X12184Y1783D01*
X12167Y1804D01*
X12153Y1825D01*
X12142Y1841D01*
X12134Y1856D01*
X12128Y1868D01*
X12126Y1874D01*
X12124Y1877D01*
X12116Y1898D01*
X12110Y1919D01*
X12105Y1938D01*
X12102Y1955D01*
X12101Y1970D01*
X12099Y1981D01*
Y1988D01*
Y1991D01*
X12101Y2012D01*
X12104Y2031D01*
X12106Y2051D01*
X12112Y2067D01*
X12126Y2101D01*
X12140Y2127D01*
X12148Y2139D01*
X12155Y2149D01*
X12162Y2159D01*
X12169Y2166D01*
X12174Y2171D01*
X12177Y2177D01*
X12180Y2178D01*
X12181Y2180D01*
X12196Y2193D01*
X12213Y2206D01*
X12231Y2216D01*
X12249Y2224D01*
X12285Y2238D01*
X12321Y2248D01*
X12337Y2250D01*
X12352Y2253D01*
X12366Y2254D01*
X12377Y2256D01*
X12386Y2257D01*
X12400D01*
X12425Y2256D01*
D02*
G37*
G36*
X8487Y2234D02*
X8502Y2211D01*
X8520Y2189D01*
X8537Y2170D01*
X8553Y2153D01*
X8566Y2139D01*
X8571Y2135D01*
X8575Y2131D01*
X8577Y2130D01*
X8578Y2128D01*
X8607Y2105D01*
X8636Y2082D01*
X8664Y2063D01*
X8692Y2048D01*
X8715Y2034D01*
X8725Y2028D01*
X8733Y2024D01*
X8740Y2020D01*
X8746Y2019D01*
X8749Y2016D01*
X8750D01*
Y1902D01*
X8729Y1911D01*
X8709Y1920D01*
X8688Y1930D01*
X8668Y1940D01*
X8652Y1948D01*
X8638Y1955D01*
X8629Y1960D01*
X8628Y1962D01*
X8627D01*
X8602Y1977D01*
X8580Y1992D01*
X8560Y2006D01*
X8545Y2019D01*
X8531Y2028D01*
X8523Y2037D01*
X8516Y2042D01*
X8514Y2044D01*
Y1293D01*
X8396D01*
Y2257D01*
X8473D01*
X8487Y2234D01*
D02*
G37*
G36*
X11660Y2256D02*
X11686Y2253D01*
X11711Y2248D01*
X11735Y2241D01*
X11755Y2231D01*
X11776Y2223D01*
X11794Y2211D01*
X11811Y2202D01*
X11825Y2192D01*
X11839Y2181D01*
X11850Y2173D01*
X11858Y2164D01*
X11865Y2156D01*
X11871Y2150D01*
X11873Y2148D01*
X11875Y2146D01*
X11893Y2121D01*
X11908Y2092D01*
X11922Y2062D01*
X11934Y2030D01*
X11944Y1997D01*
X11952Y1963D01*
X11959Y1929D01*
X11965Y1897D01*
X11969Y1865D01*
X11972Y1836D01*
X11975Y1809D01*
X11976Y1787D01*
Y1768D01*
X11977Y1754D01*
Y1748D01*
Y1744D01*
Y1743D01*
Y1741D01*
X11976Y1697D01*
X11973Y1655D01*
X11969Y1617D01*
X11962Y1580D01*
X11955Y1549D01*
X11948Y1519D01*
X11940Y1493D01*
X11930Y1469D01*
X11922Y1450D01*
X11914Y1432D01*
X11907Y1418D01*
X11898Y1406D01*
X11893Y1396D01*
X11889Y1390D01*
X11886Y1386D01*
X11884Y1385D01*
X11866Y1365D01*
X11847Y1349D01*
X11828Y1335D01*
X11808Y1322D01*
X11787Y1311D01*
X11768Y1303D01*
X11748Y1296D01*
X11729Y1291D01*
X11712Y1286D01*
X11696Y1282D01*
X11682Y1280D01*
X11669Y1278D01*
X11658D01*
X11651Y1277D01*
X11644D01*
X11613Y1278D01*
X11583Y1284D01*
X11557Y1289D01*
X11534Y1298D01*
X11516Y1304D01*
X11502Y1311D01*
X11496Y1313D01*
X11492Y1316D01*
X11491Y1317D01*
X11489D01*
X11466Y1334D01*
X11443Y1353D01*
X11425Y1372D01*
X11410Y1392D01*
X11398Y1410D01*
X11389Y1424D01*
X11387Y1429D01*
X11384Y1433D01*
X11382Y1435D01*
Y1436D01*
X11368Y1465D01*
X11359Y1496D01*
X11352Y1524D01*
X11348Y1550D01*
X11344Y1572D01*
Y1580D01*
X11342Y1589D01*
Y1596D01*
Y1600D01*
Y1603D01*
Y1604D01*
X11344Y1629D01*
X11346Y1653D01*
X11350Y1676D01*
X11355Y1697D01*
X11362Y1716D01*
X11368Y1736D01*
X11375Y1752D01*
X11384Y1768D01*
X11392Y1782D01*
X11399Y1794D01*
X11406Y1804D01*
X11413Y1813D01*
X11417Y1820D01*
X11421Y1825D01*
X11424Y1827D01*
X11425Y1829D01*
X11441Y1844D01*
X11457Y1858D01*
X11475Y1869D01*
X11492Y1879D01*
X11509Y1888D01*
X11525Y1895D01*
X11557Y1905D01*
X11571Y1909D01*
X11585Y1912D01*
X11596Y1913D01*
X11607Y1915D01*
X11615Y1916D01*
X11626D01*
X11651Y1915D01*
X11675Y1911D01*
X11697Y1906D01*
X11717Y1901D01*
X11733Y1894D01*
X11746Y1890D01*
X11754Y1886D01*
X11755Y1884D01*
X11757D01*
X11779Y1870D01*
X11798Y1855D01*
X11816Y1840D01*
X11830Y1823D01*
X11843Y1809D01*
X11852Y1798D01*
X11858Y1790D01*
X11859Y1788D01*
Y1813D01*
X11858Y1838D01*
X11857Y1861D01*
X11854Y1883D01*
X11852Y1902D01*
X11850Y1920D01*
X11847Y1937D01*
X11843Y1952D01*
X11840Y1966D01*
X11837Y1977D01*
X11834Y1987D01*
X11833Y1995D01*
X11830Y2001D01*
X11829Y2005D01*
X11828Y2008D01*
Y2009D01*
X11814Y2037D01*
X11800Y2062D01*
X11785Y2081D01*
X11771Y2098D01*
X11758Y2112D01*
X11748Y2121D01*
X11742Y2127D01*
X11739Y2128D01*
X11722Y2139D01*
X11705Y2146D01*
X11689Y2152D01*
X11672Y2156D01*
X11660Y2159D01*
X11649Y2160D01*
X11639D01*
X11614Y2157D01*
X11590Y2152D01*
X11571Y2144D01*
X11553Y2135D01*
X11539Y2125D01*
X11529Y2117D01*
X11524Y2112D01*
X11521Y2109D01*
X11511Y2096D01*
X11502Y2081D01*
X11493Y2064D01*
X11488Y2048D01*
X11482Y2033D01*
X11478Y2020D01*
X11477Y2012D01*
X11475Y2010D01*
Y2009D01*
X11357Y2019D01*
X11366Y2058D01*
X11378Y2092D01*
X11392Y2123D01*
X11407Y2148D01*
X11423Y2167D01*
X11428Y2175D01*
X11435Y2182D01*
X11439Y2187D01*
X11443Y2191D01*
X11445Y2192D01*
X11446Y2193D01*
X11460Y2205D01*
X11475Y2214D01*
X11506Y2231D01*
X11536Y2242D01*
X11565Y2249D01*
X11592Y2254D01*
X11603Y2256D01*
X11613D01*
X11621Y2257D01*
X11632D01*
X11660Y2256D01*
D02*
G37*
G36*
X11240Y1582D02*
X10875D01*
Y1700D01*
X11240D01*
Y1582D01*
D02*
G37*
G36*
X9301D02*
X8936D01*
Y1700D01*
X9301D01*
Y1582D01*
D02*
G37*
G36*
X13188Y2254D02*
X13223Y2249D01*
X13252Y2239D01*
X13277Y2229D01*
X13298Y2218D01*
X13306Y2214D01*
X13313Y2209D01*
X13318Y2206D01*
X13323Y2203D01*
X13324Y2200D01*
X13325D01*
X13350Y2178D01*
X13371Y2152D01*
X13389Y2125D01*
X13403Y2101D01*
X13414Y2077D01*
X13420Y2067D01*
X13422Y2058D01*
X13425Y2051D01*
X13428Y2045D01*
X13429Y2042D01*
Y2041D01*
X13435Y2020D01*
X13440Y1999D01*
X13449Y1954D01*
X13456Y1908D01*
X13460Y1865D01*
X13461Y1844D01*
X13463Y1826D01*
Y1809D01*
X13464Y1794D01*
Y1783D01*
Y1773D01*
Y1768D01*
Y1766D01*
X13463Y1718D01*
X13460Y1672D01*
X13456Y1630D01*
X13449Y1592D01*
X13442Y1555D01*
X13434Y1524D01*
X13425Y1494D01*
X13417Y1469D01*
X13409Y1447D01*
X13399Y1428D01*
X13392Y1411D01*
X13385Y1399D01*
X13378Y1388D01*
X13374Y1381D01*
X13371Y1377D01*
X13370Y1375D01*
X13354Y1359D01*
X13338Y1343D01*
X13320Y1329D01*
X13302Y1318D01*
X13284Y1309D01*
X13266Y1300D01*
X13248Y1295D01*
X13231Y1289D01*
X13214Y1285D01*
X13199Y1282D01*
X13185Y1280D01*
X13174Y1278D01*
X13164Y1277D01*
X13151D01*
X13113Y1280D01*
X13078Y1285D01*
X13049Y1295D01*
X13024Y1304D01*
X13004Y1314D01*
X12997Y1320D01*
X12990Y1324D01*
X12984Y1327D01*
X12980Y1329D01*
X12979Y1332D01*
X12977D01*
X12952Y1356D01*
X12931Y1381D01*
X12913Y1408D01*
X12900Y1433D01*
X12888Y1457D01*
X12883Y1467D01*
X12880Y1476D01*
X12877Y1483D01*
X12875Y1489D01*
X12873Y1492D01*
Y1493D01*
X12866Y1514D01*
X12861Y1535D01*
X12852Y1579D01*
X12845Y1625D01*
X12841Y1669D01*
X12840Y1689D01*
X12839Y1707D01*
Y1723D01*
X12837Y1739D01*
Y1750D01*
Y1759D01*
Y1765D01*
Y1766D01*
Y1793D01*
X12839Y1818D01*
Y1840D01*
X12840Y1862D01*
X12843Y1881D01*
X12844Y1901D01*
X12845Y1917D01*
X12848Y1933D01*
X12850Y1947D01*
X12852Y1959D01*
X12854Y1969D01*
X12855Y1977D01*
X12857Y1984D01*
X12858Y1988D01*
X12859Y1991D01*
Y1992D01*
X12868Y2023D01*
X12877Y2051D01*
X12888Y2074D01*
X12897Y2095D01*
X12906Y2113D01*
X12912Y2125D01*
X12918Y2132D01*
X12919Y2135D01*
X12934Y2156D01*
X12949Y2174D01*
X12966Y2189D01*
X12981Y2203D01*
X12995Y2213D01*
X13006Y2220D01*
X13013Y2224D01*
X13015Y2225D01*
X13016D01*
X13038Y2236D01*
X13062Y2243D01*
X13084Y2249D01*
X13105Y2253D01*
X13123Y2256D01*
X13138Y2257D01*
X13151D01*
X13188Y2254D01*
D02*
G37*
G36*
X10503D02*
X10538Y2249D01*
X10567Y2239D01*
X10592Y2229D01*
X10613Y2218D01*
X10621Y2214D01*
X10628Y2209D01*
X10633Y2206D01*
X10638Y2203D01*
X10639Y2200D01*
X10640D01*
X10665Y2178D01*
X10686Y2152D01*
X10704Y2125D01*
X10718Y2101D01*
X10729Y2077D01*
X10735Y2067D01*
X10737Y2058D01*
X10740Y2051D01*
X10743Y2045D01*
X10744Y2042D01*
Y2041D01*
X10750Y2020D01*
X10756Y1999D01*
X10764Y1954D01*
X10771Y1908D01*
X10775Y1865D01*
X10776Y1844D01*
X10778Y1826D01*
Y1809D01*
X10779Y1794D01*
Y1783D01*
Y1773D01*
Y1768D01*
Y1766D01*
X10778Y1718D01*
X10775Y1672D01*
X10771Y1630D01*
X10764Y1592D01*
X10757Y1555D01*
X10749Y1524D01*
X10740Y1494D01*
X10732Y1469D01*
X10724Y1447D01*
X10714Y1428D01*
X10707Y1411D01*
X10700Y1399D01*
X10693Y1388D01*
X10689Y1381D01*
X10686Y1377D01*
X10685Y1375D01*
X10670Y1359D01*
X10653Y1343D01*
X10635Y1329D01*
X10617Y1318D01*
X10599Y1309D01*
X10581Y1300D01*
X10563Y1295D01*
X10546Y1289D01*
X10529Y1285D01*
X10514Y1282D01*
X10500Y1280D01*
X10489Y1278D01*
X10480Y1277D01*
X10466D01*
X10428Y1280D01*
X10394Y1285D01*
X10364Y1295D01*
X10339Y1304D01*
X10319Y1314D01*
X10312Y1320D01*
X10305Y1324D01*
X10299Y1327D01*
X10295Y1329D01*
X10294Y1332D01*
X10292D01*
X10267Y1356D01*
X10247Y1381D01*
X10229Y1408D01*
X10215Y1433D01*
X10204Y1457D01*
X10198Y1467D01*
X10195Y1476D01*
X10192Y1483D01*
X10190Y1489D01*
X10188Y1492D01*
Y1493D01*
X10181Y1514D01*
X10176Y1535D01*
X10167Y1579D01*
X10161Y1625D01*
X10156Y1669D01*
X10155Y1689D01*
X10154Y1707D01*
Y1723D01*
X10152Y1739D01*
Y1750D01*
Y1759D01*
Y1765D01*
Y1766D01*
Y1793D01*
X10154Y1818D01*
Y1840D01*
X10155Y1862D01*
X10158Y1881D01*
X10159Y1901D01*
X10161Y1917D01*
X10163Y1933D01*
X10165Y1947D01*
X10167Y1959D01*
X10169Y1969D01*
X10170Y1977D01*
X10172Y1984D01*
X10173Y1988D01*
X10174Y1991D01*
Y1992D01*
X10183Y2023D01*
X10192Y2051D01*
X10204Y2074D01*
X10212Y2095D01*
X10222Y2113D01*
X10227Y2125D01*
X10233Y2132D01*
X10234Y2135D01*
X10249Y2156D01*
X10265Y2174D01*
X10281Y2189D01*
X10296Y2203D01*
X10310Y2213D01*
X10321Y2220D01*
X10328Y2224D01*
X10330Y2225D01*
X10331D01*
X10353Y2236D01*
X10377Y2243D01*
X10399Y2249D01*
X10420Y2253D01*
X10438Y2256D01*
X10453Y2257D01*
X10466D01*
X10503Y2254D01*
D02*
G37*
G36*
X9743Y2256D02*
X9765Y2254D01*
X9804Y2246D01*
X9822Y2241D01*
X9839Y2235D01*
X9854Y2228D01*
X9868Y2221D01*
X9879Y2214D01*
X9890Y2207D01*
X9900Y2202D01*
X9907Y2196D01*
X9912Y2192D01*
X9916Y2188D01*
X9919Y2187D01*
X9921Y2185D01*
X9933Y2171D01*
X9946Y2157D01*
X9955Y2142D01*
X9964Y2127D01*
X9977Y2098D01*
X9986Y2070D01*
X9991Y2046D01*
X9993Y2035D01*
X9994Y2027D01*
X9996Y2019D01*
Y2013D01*
Y2010D01*
Y2009D01*
X9994Y1984D01*
X9990Y1960D01*
X9984Y1940D01*
X9977Y1922D01*
X9972Y1908D01*
X9966Y1897D01*
X9962Y1891D01*
X9961Y1888D01*
X9946Y1872D01*
X9929Y1856D01*
X9911Y1843D01*
X9893Y1831D01*
X9876Y1823D01*
X9864Y1818D01*
X9858Y1815D01*
X9854Y1813D01*
X9853Y1812D01*
X9851D01*
X9883Y1802D01*
X9910Y1790D01*
X9933Y1775D01*
X9953Y1761D01*
X9968Y1747D01*
X9979Y1736D01*
X9984Y1729D01*
X9987Y1727D01*
Y1726D01*
X10002Y1701D01*
X10015Y1675D01*
X10023Y1650D01*
X10029Y1625D01*
X10032Y1603D01*
X10033Y1593D01*
Y1585D01*
X10034Y1579D01*
Y1574D01*
Y1571D01*
Y1569D01*
X10033Y1547D01*
X10030Y1525D01*
X10026Y1504D01*
X10020Y1483D01*
X10007Y1449D01*
X10000Y1432D01*
X9991Y1418D01*
X9983Y1404D01*
X9976Y1393D01*
X9968Y1384D01*
X9962Y1375D01*
X9957Y1368D01*
X9953Y1364D01*
X9950Y1361D01*
X9948Y1360D01*
X9932Y1345D01*
X9914Y1332D01*
X9894Y1321D01*
X9875Y1311D01*
X9857Y1304D01*
X9837Y1298D01*
X9800Y1288D01*
X9783Y1284D01*
X9768Y1281D01*
X9754Y1280D01*
X9742Y1278D01*
X9732Y1277D01*
X9718D01*
X9692Y1278D01*
X9668Y1281D01*
X9645Y1285D01*
X9622Y1289D01*
X9603Y1296D01*
X9584Y1303D01*
X9566Y1310D01*
X9550Y1318D01*
X9536Y1327D01*
X9524Y1334D01*
X9514Y1341D01*
X9505Y1347D01*
X9498Y1352D01*
X9493Y1356D01*
X9491Y1359D01*
X9489Y1360D01*
X9474Y1377D01*
X9460Y1393D01*
X9449Y1410D01*
X9439Y1428D01*
X9430Y1445D01*
X9423Y1463D01*
X9413Y1494D01*
X9409Y1510D01*
X9406Y1524D01*
X9405Y1536D01*
X9403Y1546D01*
X9402Y1554D01*
Y1561D01*
Y1565D01*
Y1567D01*
X9403Y1598D01*
X9409Y1628D01*
X9417Y1654D01*
X9426Y1676D01*
X9434Y1694D01*
X9442Y1708D01*
X9448Y1716D01*
X9449Y1718D01*
Y1719D01*
X9469Y1741D01*
X9489Y1761D01*
X9512Y1776D01*
X9532Y1790D01*
X9552Y1800D01*
X9568Y1806D01*
X9574Y1809D01*
X9578Y1811D01*
X9581Y1812D01*
X9582D01*
X9557Y1823D01*
X9536Y1836D01*
X9518Y1848D01*
X9503Y1861D01*
X9492Y1872D01*
X9484Y1880D01*
X9478Y1886D01*
X9477Y1888D01*
X9464Y1908D01*
X9456Y1927D01*
X9449Y1947D01*
X9445Y1966D01*
X9442Y1981D01*
X9441Y1994D01*
Y2002D01*
Y2003D01*
Y2005D01*
X9442Y2024D01*
X9444Y2042D01*
X9453Y2077D01*
X9466Y2107D01*
X9480Y2134D01*
X9493Y2155D01*
X9500Y2163D01*
X9506Y2171D01*
X9512Y2177D01*
X9516Y2181D01*
X9517Y2182D01*
X9518Y2184D01*
X9534Y2196D01*
X9549Y2209D01*
X9566Y2218D01*
X9582Y2227D01*
X9616Y2239D01*
X9649Y2248D01*
X9663Y2252D01*
X9677Y2253D01*
X9689Y2254D01*
X9700Y2256D01*
X9708Y2257D01*
X9721D01*
X9743Y2256D01*
D02*
G37*
G36*
X7804D02*
X7826Y2254D01*
X7865Y2246D01*
X7883Y2241D01*
X7900Y2235D01*
X7915Y2228D01*
X7929Y2221D01*
X7940Y2214D01*
X7951Y2207D01*
X7961Y2202D01*
X7968Y2196D01*
X7974Y2192D01*
X7978Y2188D01*
X7980Y2187D01*
X7982Y2185D01*
X7994Y2171D01*
X8007Y2157D01*
X8017Y2142D01*
X8025Y2127D01*
X8039Y2098D01*
X8047Y2070D01*
X8053Y2046D01*
X8054Y2035D01*
X8055Y2027D01*
X8057Y2019D01*
Y2013D01*
Y2010D01*
Y2009D01*
X8055Y1984D01*
X8051Y1960D01*
X8046Y1940D01*
X8039Y1922D01*
X8033Y1908D01*
X8028Y1897D01*
X8023Y1891D01*
X8022Y1888D01*
X8007Y1872D01*
X7990Y1856D01*
X7972Y1843D01*
X7954Y1831D01*
X7937Y1823D01*
X7925Y1818D01*
X7919Y1815D01*
X7915Y1813D01*
X7914Y1812D01*
X7912D01*
X7944Y1802D01*
X7971Y1790D01*
X7994Y1775D01*
X8014Y1761D01*
X8029Y1747D01*
X8040Y1736D01*
X8046Y1729D01*
X8048Y1727D01*
Y1726D01*
X8064Y1701D01*
X8076Y1675D01*
X8084Y1650D01*
X8090Y1625D01*
X8093Y1603D01*
X8094Y1593D01*
Y1585D01*
X8096Y1579D01*
Y1574D01*
Y1571D01*
Y1569D01*
X8094Y1547D01*
X8091Y1525D01*
X8087Y1504D01*
X8082Y1483D01*
X8068Y1449D01*
X8061Y1432D01*
X8053Y1418D01*
X8044Y1404D01*
X8037Y1393D01*
X8029Y1384D01*
X8023Y1375D01*
X8018Y1368D01*
X8014Y1364D01*
X8011Y1361D01*
X8010Y1360D01*
X7993Y1345D01*
X7975Y1332D01*
X7955Y1321D01*
X7936Y1311D01*
X7918Y1304D01*
X7899Y1298D01*
X7861Y1288D01*
X7845Y1284D01*
X7829Y1281D01*
X7815Y1280D01*
X7803Y1278D01*
X7793Y1277D01*
X7779D01*
X7753Y1278D01*
X7729Y1281D01*
X7706Y1285D01*
X7684Y1289D01*
X7664Y1296D01*
X7645Y1303D01*
X7627Y1310D01*
X7612Y1318D01*
X7598Y1327D01*
X7585Y1334D01*
X7575Y1341D01*
X7566Y1347D01*
X7559Y1352D01*
X7555Y1356D01*
X7552Y1359D01*
X7551Y1360D01*
X7535Y1377D01*
X7521Y1393D01*
X7510Y1410D01*
X7501Y1428D01*
X7491Y1445D01*
X7484Y1463D01*
X7474Y1494D01*
X7470Y1510D01*
X7467Y1524D01*
X7466Y1536D01*
X7465Y1546D01*
X7463Y1554D01*
Y1561D01*
Y1565D01*
Y1567D01*
X7465Y1598D01*
X7470Y1628D01*
X7478Y1654D01*
X7487Y1676D01*
X7495Y1694D01*
X7503Y1708D01*
X7509Y1716D01*
X7510Y1718D01*
Y1719D01*
X7530Y1741D01*
X7551Y1761D01*
X7573Y1776D01*
X7594Y1790D01*
X7613Y1800D01*
X7630Y1806D01*
X7635Y1809D01*
X7639Y1811D01*
X7642Y1812D01*
X7643D01*
X7618Y1823D01*
X7598Y1836D01*
X7580Y1848D01*
X7564Y1861D01*
X7553Y1872D01*
X7545Y1880D01*
X7539Y1886D01*
X7538Y1888D01*
X7526Y1908D01*
X7517Y1927D01*
X7510Y1947D01*
X7506Y1966D01*
X7503Y1981D01*
X7502Y1994D01*
Y2002D01*
Y2003D01*
Y2005D01*
X7503Y2024D01*
X7505Y2042D01*
X7514Y2077D01*
X7527Y2107D01*
X7541Y2134D01*
X7555Y2155D01*
X7562Y2163D01*
X7567Y2171D01*
X7573Y2177D01*
X7577Y2181D01*
X7578Y2182D01*
X7580Y2184D01*
X7595Y2196D01*
X7610Y2209D01*
X7627Y2218D01*
X7643Y2227D01*
X7677Y2239D01*
X7710Y2248D01*
X7724Y2252D01*
X7738Y2253D01*
X7750Y2254D01*
X7761Y2256D01*
X7770Y2257D01*
X7782D01*
X7804Y2256D01*
D02*
G37*
G36*
X20030Y2257D02*
X19913D01*
Y2392D01*
X20030D01*
Y2257D01*
D02*
G37*
G36*
X17867D02*
X17749Y2257D01*
Y2392D01*
X17867Y2392D01*
Y2257D01*
D02*
G37*
G36*
X23945Y2213D02*
X23848D01*
X23704Y2397D01*
X23859D01*
X23945Y2213D01*
D02*
G37*
G36*
X23166Y2140D02*
X23195Y2135D01*
X23223Y2127D01*
X23247Y2120D01*
X23267Y2111D01*
X23274Y2107D01*
X23280Y2104D01*
X23285Y2100D01*
X23289Y2099D01*
X23292Y2096D01*
X23293D01*
X23317Y2077D01*
X23338Y2056D01*
X23355Y2035D01*
X23370Y2014D01*
X23382Y1995D01*
X23387Y1987D01*
X23390Y1980D01*
X23393Y1974D01*
X23395Y1970D01*
X23397Y1967D01*
Y1966D01*
X23409Y1934D01*
X23418Y1902D01*
X23424Y1871D01*
X23428Y1842D01*
X23430Y1830D01*
Y1819D01*
X23432Y1809D01*
X23433Y1800D01*
Y1792D01*
Y1787D01*
Y1784D01*
Y1782D01*
X23432Y1756D01*
X23429Y1730D01*
X23425Y1706D01*
X23420Y1682D01*
X23414Y1660D01*
X23408Y1640D01*
X23400Y1621D01*
X23393Y1604D01*
X23387Y1589D01*
X23379Y1574D01*
X23373Y1562D01*
X23367Y1552D01*
X23362Y1544D01*
X23358Y1539D01*
X23355Y1535D01*
X23354Y1534D01*
X23339Y1516D01*
X23322Y1500D01*
X23304Y1486D01*
X23287Y1475D01*
X23268Y1465D01*
X23249Y1456D01*
X23230Y1450D01*
X23213Y1444D01*
X23197Y1440D01*
X23182Y1436D01*
X23168Y1435D01*
X23156Y1432D01*
X23146D01*
X23138Y1431D01*
X23132D01*
X23111Y1432D01*
X23091Y1435D01*
X23072Y1440D01*
X23053Y1445D01*
X23021Y1460D01*
X23006Y1469D01*
X22992Y1477D01*
X22981Y1485D01*
X22969Y1494D01*
X22961Y1501D01*
X22953Y1509D01*
X22947Y1514D01*
X22943Y1519D01*
X22941Y1521D01*
X22939Y1522D01*
Y1502D01*
Y1484D01*
Y1466D01*
X22941Y1451D01*
Y1437D01*
X22942Y1425D01*
Y1414D01*
X22943Y1405D01*
X22944Y1396D01*
Y1390D01*
X22947Y1380D01*
X22948Y1374D01*
Y1372D01*
X22954Y1351D01*
X22964Y1334D01*
X22973Y1317D01*
X22983Y1305D01*
X22993Y1295D01*
X23001Y1287D01*
X23006Y1282D01*
X23008Y1281D01*
X23027Y1270D01*
X23047Y1261D01*
X23068Y1256D01*
X23088Y1251D01*
X23107Y1249D01*
X23121Y1247D01*
X23134D01*
X23162Y1249D01*
X23185Y1252D01*
X23205Y1259D01*
X23223Y1265D01*
X23237Y1270D01*
X23247Y1276D01*
X23252Y1280D01*
X23254Y1281D01*
X23265Y1291D01*
X23274Y1304D01*
X23282Y1316D01*
X23287Y1330D01*
X23290Y1341D01*
X23293Y1350D01*
X23294Y1356D01*
Y1359D01*
X23409Y1375D01*
Y1355D01*
X23407Y1335D01*
X23403Y1317D01*
X23399Y1301D01*
X23393Y1286D01*
X23387Y1272D01*
X23380Y1260D01*
X23373Y1249D01*
X23367Y1239D01*
X23359Y1230D01*
X23353Y1222D01*
X23347Y1216D01*
X23343Y1212D01*
X23339Y1209D01*
X23337Y1207D01*
X23335Y1206D01*
X23320Y1196D01*
X23304Y1187D01*
X23272Y1174D01*
X23238Y1164D01*
X23205Y1158D01*
X23190Y1155D01*
X23178Y1153D01*
X23166Y1151D01*
X23154D01*
X23147Y1150D01*
X23134D01*
X23097Y1151D01*
X23062Y1156D01*
X23032Y1163D01*
X23007Y1170D01*
X22996Y1174D01*
X22986Y1177D01*
X22978Y1181D01*
X22971Y1184D01*
X22966Y1186D01*
X22962Y1189D01*
X22959Y1190D01*
X22958D01*
X22933Y1206D01*
X22911Y1224D01*
X22893Y1241D01*
X22878Y1259D01*
X22867Y1274D01*
X22859Y1286D01*
X22857Y1291D01*
X22854Y1295D01*
X22853Y1296D01*
Y1297D01*
X22847Y1311D01*
X22842Y1326D01*
X22837Y1344D01*
X22833Y1361D01*
X22828Y1400D01*
X22823Y1437D01*
X22822Y1455D01*
X22821Y1471D01*
Y1486D01*
X22819Y1500D01*
Y1511D01*
Y1519D01*
Y1525D01*
Y1526D01*
Y2127D01*
X22928D01*
Y2041D01*
X22943Y2059D01*
X22959Y2075D01*
X22977Y2089D01*
X22993Y2100D01*
X23011Y2110D01*
X23028Y2117D01*
X23044Y2125D01*
X23059Y2130D01*
X23074Y2134D01*
X23088Y2137D01*
X23101Y2140D01*
X23111Y2141D01*
X23119D01*
X23127Y2142D01*
X23132D01*
X23166Y2140D01*
D02*
G37*
G36*
X19441Y2141D02*
X19465Y2137D01*
X19485Y2132D01*
X19504Y2127D01*
X19519Y2121D01*
X19530Y2116D01*
X19538Y2112D01*
X19539Y2111D01*
X19540D01*
X19559Y2099D01*
X19576Y2085D01*
X19591Y2071D01*
X19604Y2059D01*
X19614Y2046D01*
X19621Y2037D01*
X19626Y2031D01*
X19628Y2029D01*
Y2127D01*
X19733D01*
Y1431D01*
X19615D01*
Y1791D01*
X19614Y1825D01*
X19613Y1854D01*
X19609Y1879D01*
X19605Y1900D01*
X19603Y1915D01*
X19599Y1927D01*
X19598Y1934D01*
X19596Y1936D01*
X19588Y1954D01*
X19578Y1970D01*
X19568Y1984D01*
X19558Y1994D01*
X19549Y2002D01*
X19541Y2009D01*
X19535Y2012D01*
X19534Y2014D01*
X19518Y2022D01*
X19501Y2029D01*
X19486Y2034D01*
X19471Y2036D01*
X19459Y2039D01*
X19450Y2040D01*
X19441D01*
X19419Y2039D01*
X19399Y2034D01*
X19383Y2027D01*
X19370Y2020D01*
X19360Y2012D01*
X19353Y2006D01*
X19349Y2001D01*
X19348Y2000D01*
X19338Y1984D01*
X19331Y1965D01*
X19326Y1946D01*
X19323Y1926D01*
X19320Y1910D01*
X19319Y1895D01*
Y1890D01*
Y1886D01*
Y1884D01*
Y1882D01*
Y1431D01*
X19202D01*
Y1835D01*
Y1854D01*
X19199Y1872D01*
X19197Y1889D01*
X19194Y1904D01*
X19190Y1917D01*
X19187Y1931D01*
X19182Y1942D01*
X19177Y1952D01*
X19168Y1969D01*
X19160Y1981D01*
X19155Y1987D01*
X19153Y1990D01*
X19134Y2006D01*
X19113Y2019D01*
X19093Y2027D01*
X19073Y2034D01*
X19055Y2037D01*
X19042Y2039D01*
X19037Y2040D01*
X19029D01*
X19014Y2039D01*
X19002Y2037D01*
X18989Y2034D01*
X18979Y2030D01*
X18970Y2026D01*
X18964Y2024D01*
X18960Y2021D01*
X18959Y2020D01*
X18948Y2012D01*
X18939Y2004D01*
X18932Y1996D01*
X18927Y1987D01*
X18922Y1981D01*
X18919Y1975D01*
X18917Y1971D01*
Y1970D01*
X18913Y1956D01*
X18910Y1941D01*
X18908Y1924D01*
X18907Y1907D01*
X18905Y1892D01*
Y1880D01*
Y1875D01*
Y1871D01*
Y1870D01*
Y1869D01*
Y1431D01*
X18788D01*
Y1907D01*
Y1929D01*
X18790Y1950D01*
X18793Y1969D01*
X18797Y1986D01*
X18800Y2002D01*
X18805Y2016D01*
X18810Y2030D01*
X18815Y2041D01*
X18822Y2051D01*
X18827Y2060D01*
X18832Y2067D01*
X18835Y2074D01*
X18839Y2079D01*
X18842Y2082D01*
X18843Y2084D01*
X18844Y2085D01*
X18855Y2095D01*
X18867Y2104D01*
X18893Y2118D01*
X18919Y2128D01*
X18944Y2135D01*
X18968Y2140D01*
X18978Y2141D01*
X18987D01*
X18994Y2142D01*
X19004D01*
X19028Y2141D01*
X19052Y2137D01*
X19073Y2131D01*
X19094Y2124D01*
X19113Y2114D01*
X19130Y2104D01*
X19147Y2092D01*
X19162Y2081D01*
X19174Y2070D01*
X19185Y2059D01*
X19195Y2049D01*
X19204Y2039D01*
X19210Y2031D01*
X19215Y2025D01*
X19218Y2021D01*
X19219Y2020D01*
X19228Y2040D01*
X19239Y2059D01*
X19250Y2074D01*
X19263Y2086D01*
X19273Y2096D01*
X19281Y2104D01*
X19288Y2109D01*
X19290Y2110D01*
X19310Y2121D01*
X19330Y2128D01*
X19351Y2135D01*
X19371Y2138D01*
X19389Y2141D01*
X19404Y2142D01*
X19416D01*
X19441Y2141D01*
D02*
G37*
G36*
X24718Y2406D02*
X24761Y2400D01*
X24801Y2390D01*
X24819Y2385D01*
X24836Y2380D01*
X24851Y2373D01*
X24865Y2368D01*
X24876Y2363D01*
X24886Y2358D01*
X24894Y2355D01*
X24900Y2352D01*
X24904Y2351D01*
X24905Y2350D01*
X24924Y2338D01*
X24943Y2326D01*
X24975Y2298D01*
X25004Y2271D01*
X25026Y2243D01*
X25036Y2230D01*
X25045Y2218D01*
X25053Y2207D01*
X25058Y2198D01*
X25063Y2191D01*
X25066Y2185D01*
X25068Y2181D01*
X25069Y2180D01*
X25079Y2158D01*
X25088Y2136D01*
X25101Y2092D01*
X25111Y2049D01*
X25115Y2027D01*
X25118Y2007D01*
X25120Y1989D01*
X25122Y1972D01*
X25124Y1957D01*
Y1944D01*
X25125Y1934D01*
Y1925D01*
Y1920D01*
Y1919D01*
X25122Y1869D01*
X25118Y1820D01*
X25114Y1799D01*
X25109Y1777D01*
X25105Y1757D01*
X25100Y1739D01*
X25095Y1721D01*
X25091Y1706D01*
X25086Y1694D01*
X25083Y1682D01*
X25080Y1674D01*
X25078Y1666D01*
X25075Y1662D01*
Y1661D01*
X25065Y1640D01*
X25054Y1619D01*
X25043Y1600D01*
X25030Y1582D01*
X25018Y1565D01*
X25005Y1550D01*
X24994Y1536D01*
X24981Y1525D01*
X24970Y1514D01*
X24960Y1504D01*
X24950Y1496D01*
X24943Y1490D01*
X24935Y1484D01*
X24930Y1480D01*
X24928Y1479D01*
X24926Y1477D01*
X24908Y1466D01*
X24888Y1457D01*
X24866Y1449D01*
X24845Y1441D01*
X24803Y1430D01*
X24763Y1422D01*
X24744Y1420D01*
X24728Y1419D01*
X24711Y1417D01*
X24699Y1416D01*
X24688Y1415D01*
X24673D01*
X24645Y1416D01*
X24619Y1419D01*
X24594Y1422D01*
X24570Y1427D01*
X24548Y1434D01*
X24526Y1441D01*
X24508Y1447D01*
X24489Y1456D01*
X24474Y1464D01*
X24460Y1470D01*
X24448Y1477D01*
X24438Y1484D01*
X24429Y1489D01*
X24424Y1492D01*
X24420Y1495D01*
X24419Y1496D01*
X24400Y1512D01*
X24383Y1530D01*
X24366Y1549D01*
X24353Y1569D01*
X24339Y1589D01*
X24328Y1607D01*
X24316Y1627D01*
X24308Y1646D01*
X24299Y1665D01*
X24293Y1681D01*
X24286Y1696D01*
X24281Y1709D01*
X24279Y1720D01*
X24276Y1729D01*
X24274Y1734D01*
Y1735D01*
X24401Y1767D01*
X24408Y1745D01*
X24414Y1725D01*
X24421Y1706D01*
X24429Y1687D01*
X24438Y1671D01*
X24445Y1656D01*
X24454Y1642D01*
X24463Y1631D01*
X24470Y1620D01*
X24478Y1611D01*
X24485Y1602D01*
X24490Y1596D01*
X24495Y1591D01*
X24499Y1587D01*
X24501Y1586D01*
X24503Y1585D01*
X24516Y1574D01*
X24531Y1565D01*
X24546Y1556D01*
X24563Y1550D01*
X24593Y1539D01*
X24621Y1531D01*
X24634Y1529D01*
X24646Y1527D01*
X24656Y1526D01*
X24666Y1525D01*
X24674Y1524D01*
X24684D01*
X24716Y1526D01*
X24746Y1531D01*
X24774Y1537D01*
X24799Y1546D01*
X24819Y1555D01*
X24828Y1559D01*
X24834Y1561D01*
X24840Y1565D01*
X24844Y1566D01*
X24846Y1569D01*
X24848D01*
X24874Y1587D01*
X24896Y1609D01*
X24915Y1631D01*
X24931Y1654D01*
X24944Y1674D01*
X24948Y1682D01*
X24951Y1690D01*
X24955Y1696D01*
X24958Y1701D01*
X24959Y1704D01*
Y1705D01*
X24970Y1740D01*
X24979Y1777D01*
X24985Y1812D01*
X24989Y1846D01*
X24991Y1861D01*
Y1875D01*
X24993Y1887D01*
X24994Y1899D01*
Y1907D01*
Y1914D01*
Y1917D01*
Y1919D01*
X24993Y1954D01*
X24989Y1987D01*
X24984Y2019D01*
X24979Y2047D01*
X24976Y2059D01*
X24974Y2070D01*
X24971Y2080D01*
X24969Y2089D01*
X24966Y2095D01*
X24965Y2100D01*
X24964Y2102D01*
Y2104D01*
X24951Y2136D01*
X24935Y2163D01*
X24918Y2188D01*
X24900Y2208D01*
X24885Y2225D01*
X24873Y2236D01*
X24868Y2241D01*
X24864Y2243D01*
X24861Y2246D01*
X24860D01*
X24845Y2256D01*
X24830Y2263D01*
X24799Y2277D01*
X24768Y2287D01*
X24739Y2293D01*
X24725Y2295D01*
X24713Y2297D01*
X24701Y2298D01*
X24693D01*
X24685Y2300D01*
X24674D01*
X24639Y2297D01*
X24608Y2292D01*
X24580Y2285D01*
X24556Y2276D01*
X24538Y2266D01*
X24530Y2262D01*
X24524Y2258D01*
X24519Y2256D01*
X24515Y2253D01*
X24514Y2251D01*
X24513D01*
X24501Y2241D01*
X24490Y2231D01*
X24470Y2207D01*
X24454Y2182D01*
X24440Y2157D01*
X24429Y2135D01*
X24425Y2125D01*
X24421Y2116D01*
X24419Y2109D01*
X24416Y2104D01*
X24415Y2100D01*
Y2099D01*
X24290Y2128D01*
X24298Y2152D01*
X24308Y2176D01*
X24318Y2197D01*
X24329Y2217D01*
X24340Y2235D01*
X24351Y2252D01*
X24363Y2267D01*
X24374Y2281D01*
X24385Y2293D01*
X24395Y2305D01*
X24405Y2313D01*
X24413Y2321D01*
X24419Y2327D01*
X24425Y2331D01*
X24428Y2333D01*
X24429Y2335D01*
X24448Y2347D01*
X24468Y2360D01*
X24488Y2368D01*
X24508Y2377D01*
X24529Y2385D01*
X24549Y2391D01*
X24586Y2400D01*
X24604Y2402D01*
X24620Y2405D01*
X24635Y2406D01*
X24648Y2407D01*
X24658Y2408D01*
X24695D01*
X24718Y2406D01*
D02*
G37*
G36*
X16526Y1696D02*
Y1670D01*
X16525Y1647D01*
X16523Y1629D01*
X16522Y1614D01*
Y1601D01*
X16521Y1592D01*
X16520Y1587D01*
Y1586D01*
X16515Y1567D01*
X16510Y1550D01*
X16503Y1535D01*
X16497Y1522D01*
X16492Y1511D01*
X16487Y1504D01*
X16485Y1499D01*
X16483Y1497D01*
X16472Y1485D01*
X16460Y1474D01*
X16446Y1464D01*
X16433Y1455D01*
X16422Y1449D01*
X16412Y1442D01*
X16406Y1440D01*
X16403Y1439D01*
X16383Y1431D01*
X16362Y1426D01*
X16344Y1421D01*
X16326Y1419D01*
X16311Y1417D01*
X16299Y1416D01*
X16289D01*
X16264Y1417D01*
X16239Y1421D01*
X16216Y1427D01*
X16195Y1435D01*
X16176Y1444D01*
X16157Y1454D01*
X16141Y1464D01*
X16126Y1475D01*
X16112Y1486D01*
X16101Y1496D01*
X16091Y1506D01*
X16082Y1515D01*
X16076Y1522D01*
X16071Y1529D01*
X16069Y1532D01*
X16067Y1534D01*
Y1431D01*
X15962D01*
Y2127D01*
X16080D01*
Y1754D01*
X16081Y1722D01*
X16082Y1695D01*
X16086Y1671D01*
X16090Y1652D01*
X16094Y1637D01*
X16096Y1626D01*
X16099Y1620D01*
X16100Y1617D01*
X16109Y1601D01*
X16119Y1586D01*
X16129Y1574D01*
X16140Y1564D01*
X16150Y1555D01*
X16159Y1549D01*
X16164Y1545D01*
X16166Y1544D01*
X16184Y1535D01*
X16201Y1529D01*
X16219Y1524D01*
X16234Y1521D01*
X16246Y1519D01*
X16257Y1517D01*
X16266D01*
X16285Y1519D01*
X16302Y1521D01*
X16317Y1526D01*
X16330Y1531D01*
X16341Y1535D01*
X16348Y1540D01*
X16354Y1542D01*
X16355Y1544D01*
X16367Y1555D01*
X16377Y1566D01*
X16386Y1579D01*
X16392Y1590D01*
X16397Y1600D01*
X16400Y1609D01*
X16402Y1614D01*
Y1616D01*
X16403Y1622D01*
X16405Y1631D01*
X16406Y1650D01*
X16407Y1670D01*
Y1691D01*
X16408Y1710D01*
Y1719D01*
Y1726D01*
Y1732D01*
Y1737D01*
Y1740D01*
Y1741D01*
Y2127D01*
X16526D01*
Y1696D01*
D02*
G37*
G36*
X23875Y2141D02*
X23900Y2138D01*
X23924Y2134D01*
X23947Y2127D01*
X23967Y2120D01*
X23987Y2111D01*
X24004Y2102D01*
X24020Y2094D01*
X24034Y2085D01*
X24047Y2076D01*
X24058Y2067D01*
X24067Y2060D01*
X24074Y2054D01*
X24079Y2049D01*
X24082Y2046D01*
X24083Y2045D01*
X24099Y2026D01*
X24113Y2006D01*
X24124Y1984D01*
X24135Y1961D01*
X24144Y1939D01*
X24150Y1916D01*
X24156Y1894D01*
X24162Y1872D01*
X24165Y1852D01*
X24168Y1834D01*
X24170Y1816D01*
X24171Y1801D01*
Y1790D01*
X24173Y1780D01*
Y1775D01*
Y1772D01*
X24171Y1741D01*
X24169Y1712D01*
X24164Y1686D01*
X24159Y1660D01*
X24153Y1637D01*
X24145Y1615D01*
X24136Y1596D01*
X24128Y1577D01*
X24120Y1562D01*
X24112Y1549D01*
X24104Y1537D01*
X24098Y1527D01*
X24093Y1520D01*
X24088Y1515D01*
X24085Y1511D01*
X24084Y1510D01*
X24067Y1494D01*
X24048Y1479D01*
X24028Y1466D01*
X24008Y1456D01*
X23988Y1446D01*
X23968Y1439D01*
X23948Y1432D01*
X23929Y1427D01*
X23912Y1424D01*
X23894Y1421D01*
X23879Y1419D01*
X23867Y1417D01*
X23857D01*
X23848Y1416D01*
X23842D01*
X23819Y1417D01*
X23798Y1419D01*
X23759Y1425D01*
X23742Y1430D01*
X23725Y1435D01*
X23710Y1440D01*
X23697Y1446D01*
X23684Y1451D01*
X23674Y1456D01*
X23664Y1461D01*
X23657Y1466D01*
X23650Y1470D01*
X23647Y1472D01*
X23644Y1475D01*
X23643D01*
X23617Y1499D01*
X23594Y1526D01*
X23575Y1554D01*
X23560Y1580D01*
X23550Y1604D01*
X23545Y1615D01*
X23543Y1624D01*
X23539Y1631D01*
X23538Y1636D01*
X23537Y1640D01*
Y1641D01*
X23659Y1657D01*
X23669Y1631D01*
X23682Y1609D01*
X23694Y1589D01*
X23705Y1574D01*
X23715Y1562D01*
X23724Y1554D01*
X23729Y1549D01*
X23732Y1547D01*
X23749Y1536D01*
X23768Y1527D01*
X23787Y1522D01*
X23803Y1517D01*
X23819Y1515D01*
X23830Y1514D01*
X23842D01*
X23858Y1515D01*
X23873Y1516D01*
X23902Y1524D01*
X23927Y1532D01*
X23948Y1544D01*
X23964Y1555D01*
X23978Y1565D01*
X23982Y1569D01*
X23985Y1571D01*
X23987Y1572D01*
X23988Y1574D01*
X23998Y1586D01*
X24007Y1599D01*
X24022Y1626D01*
X24033Y1655D01*
X24042Y1684D01*
X24047Y1709D01*
X24048Y1720D01*
X24049Y1730D01*
X24050Y1737D01*
X24052Y1744D01*
Y1747D01*
Y1749D01*
X23533D01*
X23532Y1762D01*
Y1772D01*
Y1777D01*
Y1780D01*
X23533Y1811D01*
X23535Y1841D01*
X23540Y1869D01*
X23545Y1895D01*
X23552Y1919D01*
X23559Y1940D01*
X23568Y1960D01*
X23575Y1979D01*
X23584Y1995D01*
X23593Y2009D01*
X23600Y2020D01*
X23607Y2030D01*
X23612Y2037D01*
X23617Y2042D01*
X23619Y2046D01*
X23620Y2047D01*
X23638Y2064D01*
X23655Y2079D01*
X23674Y2091D01*
X23694Y2102D01*
X23713Y2111D01*
X23732Y2118D01*
X23750Y2126D01*
X23768Y2131D01*
X23784Y2135D01*
X23800Y2137D01*
X23814Y2140D01*
X23825Y2141D01*
X23835Y2142D01*
X23849D01*
X23875Y2141D01*
D02*
G37*
G36*
X22383D02*
X22408Y2138D01*
X22432Y2134D01*
X22454Y2127D01*
X22474Y2120D01*
X22494Y2111D01*
X22512Y2102D01*
X22528Y2094D01*
X22542Y2085D01*
X22554Y2076D01*
X22566Y2067D01*
X22574Y2060D01*
X22582Y2054D01*
X22587Y2049D01*
X22589Y2046D01*
X22591Y2045D01*
X22607Y2026D01*
X22621Y2006D01*
X22632Y1984D01*
X22643Y1961D01*
X22652Y1939D01*
X22658Y1916D01*
X22664Y1894D01*
X22669Y1872D01*
X22673Y1852D01*
X22676Y1834D01*
X22678Y1816D01*
X22679Y1801D01*
Y1790D01*
X22681Y1780D01*
Y1775D01*
Y1772D01*
X22679Y1741D01*
X22677Y1712D01*
X22672Y1686D01*
X22667Y1660D01*
X22661Y1637D01*
X22653Y1615D01*
X22644Y1596D01*
X22636Y1577D01*
X22628Y1562D01*
X22619Y1549D01*
X22612Y1537D01*
X22606Y1527D01*
X22601Y1520D01*
X22596Y1515D01*
X22593Y1511D01*
X22592Y1510D01*
X22574Y1494D01*
X22556Y1479D01*
X22536Y1466D01*
X22516Y1456D01*
X22496Y1446D01*
X22476Y1439D01*
X22456Y1432D01*
X22437Y1427D01*
X22419Y1424D01*
X22402Y1421D01*
X22387Y1419D01*
X22374Y1417D01*
X22364D01*
X22356Y1416D01*
X22349D01*
X22327Y1417D01*
X22306Y1419D01*
X22267Y1425D01*
X22249Y1430D01*
X22233Y1435D01*
X22218Y1440D01*
X22205Y1446D01*
X22192Y1451D01*
X22182Y1456D01*
X22172Y1461D01*
X22165Y1466D01*
X22158Y1470D01*
X22155Y1472D01*
X22152Y1475D01*
X22151D01*
X22125Y1499D01*
X22102Y1526D01*
X22083Y1554D01*
X22068Y1580D01*
X22058Y1604D01*
X22053Y1615D01*
X22051Y1624D01*
X22047Y1631D01*
X22046Y1636D01*
X22045Y1640D01*
Y1641D01*
X22167Y1657D01*
X22177Y1631D01*
X22190Y1609D01*
X22202Y1589D01*
X22213Y1574D01*
X22223Y1562D01*
X22232Y1554D01*
X22237Y1549D01*
X22239Y1547D01*
X22257Y1536D01*
X22276Y1527D01*
X22294Y1522D01*
X22311Y1517D01*
X22327Y1515D01*
X22338Y1514D01*
X22349D01*
X22366Y1515D01*
X22381Y1516D01*
X22409Y1524D01*
X22434Y1532D01*
X22456Y1544D01*
X22472Y1555D01*
X22486Y1565D01*
X22489Y1569D01*
X22493Y1571D01*
X22494Y1572D01*
X22496Y1574D01*
X22506Y1586D01*
X22514Y1599D01*
X22529Y1626D01*
X22541Y1655D01*
X22549Y1684D01*
X22554Y1709D01*
X22556Y1720D01*
X22557Y1730D01*
X22558Y1737D01*
X22559Y1744D01*
Y1747D01*
Y1749D01*
X22041D01*
X22040Y1762D01*
Y1772D01*
Y1777D01*
Y1780D01*
X22041Y1811D01*
X22043Y1841D01*
X22048Y1869D01*
X22053Y1895D01*
X22060Y1919D01*
X22067Y1940D01*
X22076Y1960D01*
X22083Y1979D01*
X22092Y1995D01*
X22101Y2009D01*
X22108Y2020D01*
X22115Y2030D01*
X22120Y2037D01*
X22125Y2042D01*
X22127Y2046D01*
X22128Y2047D01*
X22146Y2064D01*
X22163Y2079D01*
X22182Y2091D01*
X22202Y2102D01*
X22221Y2111D01*
X22239Y2118D01*
X22258Y2126D01*
X22276Y2131D01*
X22292Y2135D01*
X22308Y2137D01*
X22322Y2140D01*
X22333Y2141D01*
X22343Y2142D01*
X22357D01*
X22383Y2141D01*
D02*
G37*
G36*
X20766Y1431D02*
X20166D01*
Y1545D01*
X20639D01*
Y2392D01*
X20766D01*
Y1431D01*
D02*
G37*
G36*
X20030D02*
X19913D01*
Y2127D01*
X20030D01*
Y1431D01*
D02*
G37*
G36*
X17867D02*
X17749Y1431D01*
Y2127D01*
X17867Y2127D01*
Y1431D01*
D02*
G37*
G36*
X17571Y1431D02*
X17453D01*
Y2392D01*
X17571D01*
Y1431D01*
D02*
G37*
G36*
X18355Y2141D02*
X18378Y2138D01*
X18399Y2135D01*
X18420Y2130D01*
X18439Y2125D01*
X18458Y2117D01*
X18474Y2111D01*
X18489Y2104D01*
X18503Y2096D01*
X18515Y2090D01*
X18525Y2082D01*
X18534Y2077D01*
X18542Y2072D01*
X18547Y2069D01*
X18549Y2066D01*
X18550Y2065D01*
X18569Y2046D01*
X18585Y2026D01*
X18599Y2004D01*
X18612Y1981D01*
X18622Y1957D01*
X18630Y1934D01*
X18638Y1910D01*
X18643Y1886D01*
X18648Y1865D01*
X18650Y1845D01*
X18653Y1826D01*
X18655Y1810D01*
Y1797D01*
X18657Y1787D01*
Y1781D01*
Y1779D01*
X18655Y1746D01*
X18653Y1716D01*
X18648Y1689D01*
X18643Y1662D01*
X18635Y1637D01*
X18628Y1616D01*
X18620Y1596D01*
X18612Y1577D01*
X18603Y1561D01*
X18595Y1547D01*
X18588Y1536D01*
X18580Y1526D01*
X18575Y1519D01*
X18570Y1514D01*
X18568Y1510D01*
X18567Y1509D01*
X18549Y1492D01*
X18530Y1479D01*
X18512Y1466D01*
X18492Y1455D01*
X18472Y1446D01*
X18453Y1439D01*
X18434Y1432D01*
X18415Y1427D01*
X18398Y1424D01*
X18382Y1421D01*
X18368Y1419D01*
X18355Y1417D01*
X18345D01*
X18338Y1416D01*
X18332D01*
X18298Y1417D01*
X18267Y1422D01*
X18238Y1430D01*
X18214Y1437D01*
X18193Y1445D01*
X18184Y1449D01*
X18178Y1452D01*
X18172Y1455D01*
X18168Y1457D01*
X18166Y1459D01*
X18164D01*
X18137Y1476D01*
X18113Y1495D01*
X18093Y1515D01*
X18077Y1534D01*
X18063Y1551D01*
X18054Y1565D01*
X18051Y1570D01*
X18048Y1574D01*
X18047Y1576D01*
Y1577D01*
X18039Y1592D01*
X18033Y1609D01*
X18023Y1644D01*
X18016Y1679D01*
X18011Y1712D01*
X18009Y1727D01*
X18008Y1742D01*
X18007Y1755D01*
X18006Y1766D01*
Y1776D01*
Y1782D01*
Y1787D01*
Y1789D01*
X18007Y1819D01*
X18009Y1847D01*
X18014Y1874D01*
X18019Y1899D01*
X18027Y1922D01*
X18034Y1944D01*
X18043Y1962D01*
X18051Y1980D01*
X18059Y1995D01*
X18068Y2009D01*
X18076Y2021D01*
X18083Y2030D01*
X18088Y2037D01*
X18093Y2044D01*
X18096Y2046D01*
X18097Y2047D01*
X18114Y2064D01*
X18133Y2079D01*
X18152Y2091D01*
X18172Y2102D01*
X18192Y2111D01*
X18212Y2118D01*
X18231Y2126D01*
X18248Y2131D01*
X18266Y2135D01*
X18282Y2137D01*
X18295Y2140D01*
X18308Y2141D01*
X18318Y2142D01*
X18332D01*
X18355Y2141D01*
D02*
G37*
G36*
X17012Y2141D02*
X17035Y2138D01*
X17056Y2135D01*
X17077Y2130D01*
X17096Y2125D01*
X17115Y2117D01*
X17131Y2111D01*
X17146Y2103D01*
X17160Y2096D01*
X17172Y2090D01*
X17182Y2082D01*
X17191Y2077D01*
X17198Y2072D01*
X17203Y2069D01*
X17206Y2066D01*
X17207Y2065D01*
X17226Y2046D01*
X17242Y2026D01*
X17256Y2004D01*
X17268Y1981D01*
X17278Y1957D01*
X17287Y1934D01*
X17295Y1910D01*
X17299Y1886D01*
X17305Y1865D01*
X17307Y1845D01*
X17309Y1826D01*
X17312Y1810D01*
Y1797D01*
X17313Y1787D01*
Y1781D01*
Y1779D01*
X17312Y1746D01*
X17309Y1716D01*
X17305Y1689D01*
X17299Y1662D01*
X17292Y1637D01*
X17285Y1616D01*
X17277Y1596D01*
X17268Y1577D01*
X17260Y1561D01*
X17252Y1547D01*
X17245Y1536D01*
X17237Y1526D01*
X17232Y1519D01*
X17227Y1514D01*
X17225Y1510D01*
X17223Y1509D01*
X17206Y1492D01*
X17187Y1479D01*
X17168Y1466D01*
X17148Y1455D01*
X17128Y1446D01*
X17110Y1439D01*
X17091Y1432D01*
X17072Y1427D01*
X17055Y1424D01*
X17038Y1421D01*
X17025Y1419D01*
X17012Y1417D01*
X17002D01*
X16995Y1416D01*
X16988D01*
X16955Y1417D01*
X16923Y1422D01*
X16895Y1430D01*
X16871Y1437D01*
X16850Y1445D01*
X16841Y1449D01*
X16835Y1452D01*
X16828Y1455D01*
X16825Y1457D01*
X16822Y1459D01*
X16821D01*
X16793Y1476D01*
X16770Y1495D01*
X16750Y1515D01*
X16733Y1534D01*
X16720Y1551D01*
X16711Y1565D01*
X16707Y1570D01*
X16705Y1574D01*
X16703Y1576D01*
Y1577D01*
X16696Y1592D01*
X16690Y1609D01*
X16680Y1644D01*
X16672Y1679D01*
X16667Y1712D01*
X16666Y1727D01*
X16665Y1742D01*
X16663Y1755D01*
X16662Y1766D01*
Y1776D01*
Y1782D01*
Y1787D01*
Y1789D01*
X16663Y1819D01*
X16666Y1847D01*
X16671Y1874D01*
X16676Y1899D01*
X16683Y1922D01*
X16691Y1944D01*
X16700Y1962D01*
X16707Y1980D01*
X16716Y1995D01*
X16725Y2009D01*
X16732Y2021D01*
X16740Y2030D01*
X16745Y2037D01*
X16750Y2044D01*
X16752Y2046D01*
X16753Y2047D01*
X16771Y2064D01*
X16790Y2079D01*
X16808Y2091D01*
X16828Y2102D01*
X16848Y2111D01*
X16868Y2118D01*
X16887Y2126D01*
X16905Y2131D01*
X16922Y2135D01*
X16938Y2137D01*
X16952Y2140D01*
X16965Y2141D01*
X16975Y2142D01*
X16988D01*
X17012Y2141D01*
D02*
G37*
G36*
X21610Y2141D02*
X21632Y2138D01*
X21652Y2134D01*
X21670Y2128D01*
X21683Y2124D01*
X21693Y2118D01*
X21700Y2116D01*
X21702Y2115D01*
X21720Y2104D01*
X21736Y2091D01*
X21750Y2079D01*
X21762Y2066D01*
X21772Y2054D01*
X21781Y2045D01*
X21786Y2039D01*
X21787Y2036D01*
Y2127D01*
X21895D01*
Y1165D01*
X21777D01*
Y1504D01*
X21765Y1490D01*
X21752Y1479D01*
X21740Y1467D01*
X21727Y1459D01*
X21717Y1451D01*
X21708Y1446D01*
X21703Y1442D01*
X21701Y1441D01*
X21682Y1432D01*
X21665Y1426D01*
X21646Y1422D01*
X21630Y1420D01*
X21616Y1417D01*
X21605Y1416D01*
X21595D01*
X21565Y1419D01*
X21536Y1424D01*
X21510Y1430D01*
X21487Y1439D01*
X21468Y1447D01*
X21460Y1451D01*
X21453Y1454D01*
X21448Y1457D01*
X21445Y1459D01*
X21442Y1461D01*
X21441D01*
X21415Y1480D01*
X21392Y1500D01*
X21373Y1522D01*
X21357Y1544D01*
X21345Y1562D01*
X21340Y1570D01*
X21336Y1577D01*
X21332Y1584D01*
X21330Y1587D01*
X21328Y1590D01*
Y1591D01*
X21316Y1624D01*
X21306Y1657D01*
X21300Y1690D01*
X21295Y1720D01*
X21293Y1734D01*
X21292Y1745D01*
X21291Y1756D01*
X21290Y1766D01*
Y1774D01*
Y1779D01*
Y1782D01*
Y1784D01*
X21291Y1820D01*
X21295Y1855D01*
X21301Y1885D01*
X21307Y1912D01*
X21311Y1924D01*
X21313Y1935D01*
X21316Y1944D01*
X21320Y1951D01*
X21321Y1957D01*
X21323Y1962D01*
X21325Y1965D01*
Y1966D01*
X21340Y1996D01*
X21356Y2022D01*
X21373Y2044D01*
X21390Y2062D01*
X21405Y2077D01*
X21417Y2087D01*
X21422Y2091D01*
X21426Y2094D01*
X21427Y2096D01*
X21428D01*
X21455Y2111D01*
X21481Y2122D01*
X21508Y2131D01*
X21532Y2136D01*
X21553Y2140D01*
X21563Y2141D01*
X21571D01*
X21577Y2142D01*
X21586D01*
X21610Y2141D01*
D02*
G37*
G36*
X38884Y20130D02*
X38905Y20100D01*
X38929Y20070D01*
X38950Y20045D01*
X38972Y20021D01*
X38989Y20005D01*
X38995Y19998D01*
X39000Y19993D01*
X39004Y19991D01*
X39005Y19990D01*
X39044Y19958D01*
X39082Y19930D01*
X39122Y19903D01*
X39157Y19881D01*
X39189Y19865D01*
X39202Y19856D01*
X39214Y19851D01*
X39222Y19846D01*
X39229Y19843D01*
X39234Y19840D01*
X39235D01*
Y19686D01*
X39207Y19698D01*
X39179Y19711D01*
X39150Y19725D01*
X39125Y19738D01*
X39104Y19750D01*
X39085Y19760D01*
X39079Y19763D01*
X39074Y19766D01*
X39072Y19768D01*
X39070D01*
X39037Y19788D01*
X39009Y19808D01*
X38982Y19826D01*
X38960Y19843D01*
X38944Y19856D01*
X38930Y19868D01*
X38924Y19875D01*
X38920Y19876D01*
Y18875D01*
X38764D01*
Y20161D01*
X38865D01*
X38884Y20130D01*
D02*
G37*
G36*
X40625Y18875D02*
X40447D01*
X40307Y19263D01*
X39770D01*
X39622Y18875D01*
X39430D01*
X39952Y20156D01*
X40137D01*
X40625Y18875D01*
D02*
G37*
G36*
Y14272D02*
X40447D01*
X40307Y14660D01*
X39770D01*
X39622Y14272D01*
X39430D01*
X39952Y15553D01*
X40137D01*
X40625Y14272D01*
D02*
G37*
G36*
X38989Y15555D02*
X39034Y15546D01*
X39074Y15535D01*
X39107Y15521D01*
X39122Y15513D01*
X39134Y15506D01*
X39145Y15500D01*
X39154Y15495D01*
X39160Y15490D01*
X39165Y15486D01*
X39169Y15485D01*
X39170Y15483D01*
X39202Y15453D01*
X39230Y15418D01*
X39254Y15381D01*
X39274Y15348D01*
X39289Y15316D01*
X39295Y15303D01*
X39300Y15291D01*
X39304Y15281D01*
X39307Y15275D01*
X39309Y15270D01*
Y15268D01*
X39317Y15241D01*
X39324Y15213D01*
X39335Y15153D01*
X39344Y15091D01*
X39349Y15033D01*
X39352Y15006D01*
Y14981D01*
X39354Y14960D01*
X39355Y14941D01*
Y14925D01*
Y14913D01*
Y14906D01*
Y14903D01*
X39354Y14838D01*
X39350Y14777D01*
X39344Y14722D01*
X39335Y14670D01*
X39327Y14622D01*
X39315Y14580D01*
X39304Y14542D01*
X39292Y14507D01*
X39280Y14477D01*
X39270Y14452D01*
X39259Y14430D01*
X39250Y14412D01*
X39242Y14398D01*
X39235Y14390D01*
X39232Y14383D01*
X39230Y14382D01*
X39209Y14358D01*
X39187Y14338D01*
X39164Y14320D01*
X39140Y14305D01*
X39115Y14293D01*
X39090Y14282D01*
X39067Y14273D01*
X39044Y14267D01*
X39022Y14262D01*
X39002Y14257D01*
X38985Y14253D01*
X38969Y14252D01*
X38957D01*
X38947Y14250D01*
X38939D01*
X38914Y14252D01*
X38889Y14253D01*
X38844Y14262D01*
X38804Y14273D01*
X38770Y14288D01*
X38755Y14295D01*
X38744Y14302D01*
X38732Y14308D01*
X38724Y14313D01*
X38717Y14318D01*
X38710Y14322D01*
X38709Y14325D01*
X38707D01*
X38674Y14355D01*
X38646Y14390D01*
X38622Y14425D01*
X38602Y14460D01*
X38587Y14490D01*
X38581Y14503D01*
X38576Y14515D01*
X38572Y14525D01*
X38569Y14532D01*
X38567Y14537D01*
Y14538D01*
X38559Y14565D01*
X38552Y14593D01*
X38541Y14653D01*
X38532Y14715D01*
X38526Y14773D01*
X38524Y14800D01*
X38522Y14825D01*
Y14847D01*
X38521Y14865D01*
Y14882D01*
Y14893D01*
Y14900D01*
Y14903D01*
Y14938D01*
X38522Y14971D01*
X38524Y15001D01*
X38526Y15030D01*
X38527Y15058D01*
X38531Y15081D01*
X38532Y15105D01*
X38536Y15125D01*
X38539Y15143D01*
X38541Y15160D01*
X38544Y15173D01*
X38546Y15185D01*
X38547Y15193D01*
X38549Y15200D01*
X38551Y15203D01*
Y15205D01*
X38562Y15245D01*
X38574Y15283D01*
X38587Y15315D01*
X38601Y15343D01*
X38612Y15366D01*
X38621Y15383D01*
X38624Y15388D01*
X38627Y15393D01*
X38629Y15395D01*
Y15396D01*
X38649Y15425D01*
X38671Y15448D01*
X38692Y15468D01*
X38712Y15486D01*
X38730Y15500D01*
X38744Y15508D01*
X38754Y15515D01*
X38755Y15516D01*
X38757D01*
X38787Y15530D01*
X38819Y15540D01*
X38849Y15548D01*
X38877Y15553D01*
X38902Y15556D01*
X38912D01*
X38922Y15558D01*
X38964D01*
X38989Y15555D01*
D02*
G37*
G36*
X41071Y16997D02*
X41094Y16995D01*
X41116Y16990D01*
X41137Y16985D01*
X41156Y16977D01*
X41174Y16969D01*
X41191Y16962D01*
X41205Y16953D01*
X41219Y16944D01*
X41232Y16936D01*
X41242Y16929D01*
X41251Y16921D01*
X41257Y16916D01*
X41263Y16911D01*
X41265Y16908D01*
X41266Y16907D01*
X41282Y16889D01*
X41294Y16871D01*
X41306Y16851D01*
X41316Y16832D01*
X41325Y16812D01*
X41331Y16791D01*
X41341Y16753D01*
X41345Y16737D01*
X41348Y16720D01*
X41350Y16705D01*
X41351Y16692D01*
X41353Y16682D01*
Y16675D01*
Y16670D01*
Y16668D01*
X41351Y16642D01*
X41349Y16617D01*
X41345Y16593D01*
X41340Y16572D01*
X41334Y16551D01*
X41326Y16532D01*
X41318Y16515D01*
X41311Y16499D01*
X41303Y16485D01*
X41296Y16473D01*
X41288Y16461D01*
X41282Y16454D01*
X41276Y16446D01*
X41273Y16441D01*
X41270Y16438D01*
X41269Y16437D01*
X41252Y16422D01*
X41236Y16408D01*
X41219Y16396D01*
X41202Y16386D01*
X41184Y16377D01*
X41167Y16371D01*
X41151Y16365D01*
X41136Y16361D01*
X41120Y16357D01*
X41108Y16355D01*
X41095Y16352D01*
X41085Y16351D01*
X41076Y16350D01*
X41064D01*
X41038Y16351D01*
X41012Y16355D01*
X40989Y16361D01*
X40970Y16367D01*
X40953Y16374D01*
X40941Y16380D01*
X40936Y16381D01*
X40932Y16384D01*
X40931Y16385D01*
X40930D01*
X40908Y16399D01*
X40888Y16414D01*
X40871Y16430D01*
X40857Y16445D01*
X40846Y16457D01*
X40837Y16469D01*
X40832Y16475D01*
X40831Y16478D01*
Y16468D01*
Y16460D01*
Y16455D01*
Y16454D01*
X40832Y16426D01*
X40833Y16399D01*
X40836Y16374D01*
X40840Y16352D01*
X40843Y16333D01*
X40845Y16325D01*
X40846Y16319D01*
X40847Y16314D01*
Y16310D01*
X40848Y16308D01*
Y16306D01*
X40855Y16281D01*
X40862Y16258D01*
X40870Y16239D01*
X40878Y16223D01*
X40884Y16210D01*
X40888Y16200D01*
X40892Y16195D01*
X40893Y16192D01*
X40903Y16177D01*
X40915Y16164D01*
X40926Y16153D01*
X40937Y16142D01*
X40946Y16135D01*
X40954Y16130D01*
X40960Y16126D01*
X40962Y16125D01*
X40978Y16117D01*
X40995Y16111D01*
X41011Y16107D01*
X41025Y16103D01*
X41039Y16102D01*
X41049Y16101D01*
X41058D01*
X41081Y16102D01*
X41102Y16106D01*
X41120Y16112D01*
X41136Y16118D01*
X41148Y16125D01*
X41157Y16131D01*
X41162Y16135D01*
X41165Y16136D01*
X41179Y16151D01*
X41190Y16169D01*
X41200Y16188D01*
X41207Y16209D01*
X41213Y16225D01*
X41217Y16240D01*
X41218Y16245D01*
Y16249D01*
X41219Y16252D01*
Y16253D01*
X41335Y16244D01*
X41331Y16223D01*
X41327Y16203D01*
X41322Y16184D01*
X41316Y16168D01*
X41308Y16151D01*
X41302Y16136D01*
X41294Y16123D01*
X41287Y16111D01*
X41279Y16101D01*
X41273Y16092D01*
X41266Y16083D01*
X41260Y16076D01*
X41255Y16071D01*
X41251Y16068D01*
X41250Y16066D01*
X41249Y16065D01*
X41235Y16054D01*
X41219Y16045D01*
X41204Y16036D01*
X41189Y16028D01*
X41157Y16017D01*
X41128Y16009D01*
X41114Y16007D01*
X41101Y16005D01*
X41091Y16004D01*
X41081Y16003D01*
X41073Y16002D01*
X41062D01*
X41042Y16003D01*
X41022Y16004D01*
X40987Y16010D01*
X40955Y16019D01*
X40927Y16031D01*
X40916Y16036D01*
X40904Y16041D01*
X40895Y16046D01*
X40888Y16050D01*
X40882Y16054D01*
X40878Y16056D01*
X40875Y16059D01*
X40874D01*
X40845Y16083D01*
X40821Y16109D01*
X40799Y16137D01*
X40782Y16165D01*
X40768Y16189D01*
X40763Y16200D01*
X40760Y16210D01*
X40756Y16217D01*
X40753Y16223D01*
X40752Y16226D01*
Y16228D01*
X40744Y16249D01*
X40738Y16272D01*
X40728Y16320D01*
X40721Y16371D01*
X40719Y16395D01*
X40716Y16418D01*
X40715Y16441D01*
X40714Y16461D01*
X40713Y16479D01*
X40711Y16496D01*
Y16508D01*
Y16518D01*
Y16524D01*
Y16526D01*
Y16559D01*
X40713Y16590D01*
X40715Y16617D01*
X40718Y16644D01*
X40721Y16670D01*
X40724Y16691D01*
X40728Y16711D01*
X40732Y16731D01*
X40737Y16747D01*
X40741Y16761D01*
X40743Y16772D01*
X40747Y16783D01*
X40749Y16790D01*
X40752Y16797D01*
X40753Y16799D01*
Y16800D01*
X40770Y16835D01*
X40789Y16864D01*
X40809Y16888D01*
X40828Y16910D01*
X40846Y16925D01*
X40860Y16938D01*
X40865Y16941D01*
X40869Y16944D01*
X40871Y16946D01*
X40873D01*
X40903Y16964D01*
X40934Y16977D01*
X40963Y16986D01*
X40989Y16992D01*
X41012Y16996D01*
X41022Y16997D01*
X41030D01*
X41038Y16998D01*
X41047D01*
X41071Y16997D01*
D02*
G37*
G36*
X42289Y16018D02*
X42159D01*
Y16451D01*
X41991D01*
X41978Y16450D01*
X41965D01*
X41955Y16449D01*
X41947Y16447D01*
X41942D01*
X41939Y16446D01*
X41938D01*
X41917Y16438D01*
X41906Y16435D01*
X41898Y16430D01*
X41890Y16426D01*
X41885Y16422D01*
X41881Y16421D01*
X41880Y16419D01*
X41868Y16410D01*
X41857Y16402D01*
X41845Y16390D01*
X41835Y16379D01*
X41826Y16370D01*
X41820Y16361D01*
X41815Y16356D01*
X41814Y16353D01*
X41798Y16334D01*
X41783Y16313D01*
X41768Y16291D01*
X41753Y16270D01*
X41740Y16250D01*
X41734Y16242D01*
X41729Y16234D01*
X41725Y16229D01*
X41722Y16224D01*
X41720Y16221D01*
Y16220D01*
X41591Y16018D01*
X41429D01*
X41598Y16282D01*
X41617Y16310D01*
X41636Y16336D01*
X41654Y16358D01*
X41670Y16376D01*
X41685Y16391D01*
X41696Y16403D01*
X41703Y16409D01*
X41704Y16412D01*
X41706D01*
X41717Y16421D01*
X41729Y16430D01*
X41754Y16446D01*
X41765Y16452D01*
X41774Y16457D01*
X41781Y16460D01*
X41783Y16461D01*
X41758Y16465D01*
X41734Y16470D01*
X41712Y16477D01*
X41692Y16483D01*
X41673Y16490D01*
X41655Y16498D01*
X41640Y16506D01*
X41626Y16513D01*
X41614Y16521D01*
X41604Y16529D01*
X41595Y16535D01*
X41588Y16540D01*
X41583Y16545D01*
X41577Y16549D01*
X41576Y16550D01*
X41575Y16551D01*
X41563Y16565D01*
X41552Y16579D01*
X41543Y16595D01*
X41536Y16609D01*
X41524Y16638D01*
X41517Y16666D01*
X41511Y16690D01*
X41510Y16700D01*
X41509Y16709D01*
X41508Y16717D01*
Y16722D01*
Y16725D01*
Y16727D01*
X41509Y16756D01*
X41514Y16784D01*
X41520Y16809D01*
X41528Y16831D01*
X41536Y16849D01*
X41542Y16863D01*
X41544Y16868D01*
X41547Y16871D01*
X41548Y16873D01*
Y16874D01*
X41565Y16897D01*
X41583Y16917D01*
X41600Y16934D01*
X41618Y16946D01*
X41633Y16957D01*
X41646Y16963D01*
X41651Y16965D01*
X41655Y16967D01*
X41656Y16968D01*
X41657D01*
X41670Y16973D01*
X41685Y16977D01*
X41717Y16983D01*
X41750Y16988D01*
X41782Y16991D01*
X41797Y16992D01*
X41811Y16993D01*
X41823D01*
X41834Y16995D01*
X42289D01*
Y16018D01*
D02*
G37*
G36*
X41700Y18459D02*
X41716Y18436D01*
X41734Y18413D01*
X41751Y18394D01*
X41767Y18376D01*
X41780Y18364D01*
X41785Y18359D01*
X41789Y18355D01*
X41791Y18354D01*
X41792Y18352D01*
X41822Y18328D01*
X41851Y18307D01*
X41881Y18286D01*
X41908Y18270D01*
X41932Y18257D01*
X41942Y18251D01*
X41951Y18247D01*
X41958Y18243D01*
X41963Y18240D01*
X41966Y18238D01*
X41968D01*
Y18121D01*
X41946Y18130D01*
X41925Y18140D01*
X41903Y18150D01*
X41884Y18160D01*
X41867Y18169D01*
X41853Y18177D01*
X41848Y18180D01*
X41845Y18182D01*
X41843Y18183D01*
X41842D01*
X41817Y18199D01*
X41795Y18214D01*
X41775Y18228D01*
X41758Y18240D01*
X41746Y18251D01*
X41735Y18260D01*
X41730Y18265D01*
X41728Y18266D01*
Y17503D01*
X41608D01*
Y18483D01*
X41686D01*
X41700Y18459D01*
D02*
G37*
G36*
X42995Y17503D02*
X42866D01*
Y17936D01*
X42698D01*
X42684Y17934D01*
X42671D01*
X42661Y17933D01*
X42654Y17932D01*
X42648D01*
X42646Y17931D01*
X42645D01*
X42623Y17923D01*
X42613Y17919D01*
X42604Y17914D01*
X42596Y17910D01*
X42591Y17906D01*
X42588Y17905D01*
X42586Y17904D01*
X42575Y17895D01*
X42563Y17886D01*
X42552Y17875D01*
X42542Y17863D01*
X42533Y17854D01*
X42527Y17846D01*
X42521Y17840D01*
X42520Y17838D01*
X42505Y17819D01*
X42490Y17797D01*
X42474Y17776D01*
X42459Y17754D01*
X42447Y17735D01*
X42440Y17726D01*
X42435Y17719D01*
X42431Y17713D01*
X42429Y17708D01*
X42426Y17706D01*
Y17705D01*
X42298Y17503D01*
X42135D01*
X42304Y17767D01*
X42323Y17795D01*
X42342Y17820D01*
X42360Y17843D01*
X42377Y17861D01*
X42392Y17876D01*
X42402Y17887D01*
X42410Y17894D01*
X42411Y17896D01*
X42412D01*
X42424Y17905D01*
X42435Y17914D01*
X42461Y17931D01*
X42472Y17937D01*
X42481Y17942D01*
X42487Y17945D01*
X42490Y17946D01*
X42464Y17950D01*
X42440Y17955D01*
X42419Y17961D01*
X42398Y17967D01*
X42379Y17975D01*
X42361Y17983D01*
X42346Y17990D01*
X42332Y17998D01*
X42321Y18006D01*
X42311Y18013D01*
X42302Y18020D01*
X42294Y18025D01*
X42289Y18030D01*
X42284Y18033D01*
X42283Y18035D01*
X42281Y18036D01*
X42270Y18050D01*
X42259Y18064D01*
X42250Y18079D01*
X42242Y18093D01*
X42231Y18122D01*
X42223Y18150D01*
X42218Y18174D01*
X42217Y18185D01*
X42215Y18194D01*
X42214Y18201D01*
Y18206D01*
Y18210D01*
Y18211D01*
X42215Y18240D01*
X42220Y18268D01*
X42227Y18294D01*
X42234Y18315D01*
X42242Y18333D01*
X42248Y18347D01*
X42251Y18352D01*
X42254Y18356D01*
X42255Y18357D01*
Y18359D01*
X42271Y18381D01*
X42289Y18402D01*
X42307Y18418D01*
X42325Y18431D01*
X42340Y18441D01*
X42353Y18448D01*
X42358Y18450D01*
X42361Y18451D01*
X42363Y18453D01*
X42364D01*
X42377Y18458D01*
X42392Y18461D01*
X42424Y18468D01*
X42457Y18473D01*
X42488Y18475D01*
X42504Y18477D01*
X42518Y18478D01*
X42529D01*
X42541Y18479D01*
X42995D01*
Y17503D01*
D02*
G37*
G36*
X41022Y18481D02*
X41056Y18474D01*
X41086Y18465D01*
X41112Y18455D01*
X41123Y18449D01*
X41132Y18444D01*
X41141Y18439D01*
X41147Y18435D01*
X41152Y18431D01*
X41156Y18428D01*
X41159Y18427D01*
X41160Y18426D01*
X41184Y18403D01*
X41206Y18376D01*
X41224Y18348D01*
X41239Y18323D01*
X41250Y18299D01*
X41255Y18289D01*
X41259Y18280D01*
X41262Y18272D01*
X41264Y18267D01*
X41265Y18263D01*
Y18262D01*
X41272Y18242D01*
X41277Y18220D01*
X41286Y18174D01*
X41292Y18127D01*
X41296Y18083D01*
X41298Y18063D01*
Y18044D01*
X41300Y18027D01*
X41301Y18013D01*
Y18000D01*
Y17992D01*
Y17986D01*
Y17984D01*
X41300Y17934D01*
X41297Y17887D01*
X41292Y17846D01*
X41286Y17806D01*
X41279Y17769D01*
X41271Y17738D01*
X41262Y17708D01*
X41253Y17682D01*
X41244Y17659D01*
X41236Y17640D01*
X41227Y17623D01*
X41221Y17609D01*
X41215Y17599D01*
X41210Y17593D01*
X41207Y17588D01*
X41206Y17586D01*
X41189Y17569D01*
X41173Y17553D01*
X41155Y17539D01*
X41137Y17528D01*
X41118Y17519D01*
X41099Y17510D01*
X41081Y17504D01*
X41064Y17499D01*
X41047Y17495D01*
X41032Y17491D01*
X41019Y17489D01*
X41006Y17487D01*
X40997D01*
X40990Y17486D01*
X40984D01*
X40964Y17487D01*
X40945Y17489D01*
X40911Y17495D01*
X40881Y17504D01*
X40855Y17515D01*
X40844Y17520D01*
X40835Y17525D01*
X40826Y17531D01*
X40820Y17534D01*
X40815Y17538D01*
X40810Y17541D01*
X40808Y17543D01*
X40807D01*
X40782Y17566D01*
X40760Y17593D01*
X40742Y17619D01*
X40727Y17646D01*
X40716Y17669D01*
X40710Y17679D01*
X40707Y17688D01*
X40704Y17696D01*
X40702Y17701D01*
X40700Y17705D01*
Y17706D01*
X40694Y17726D01*
X40689Y17748D01*
X40680Y17793D01*
X40674Y17840D01*
X40669Y17885D01*
X40667Y17905D01*
X40666Y17924D01*
Y17941D01*
X40665Y17955D01*
Y17967D01*
Y17976D01*
Y17981D01*
Y17984D01*
Y18011D01*
X40666Y18036D01*
X40667Y18059D01*
X40669Y18080D01*
X40670Y18102D01*
X40672Y18120D01*
X40674Y18138D01*
X40676Y18153D01*
X40679Y18167D01*
X40680Y18180D01*
X40683Y18190D01*
X40684Y18199D01*
X40685Y18205D01*
X40686Y18210D01*
X40688Y18213D01*
Y18214D01*
X40696Y18244D01*
X40705Y18274D01*
X40716Y18298D01*
X40726Y18319D01*
X40735Y18337D01*
X40741Y18350D01*
X40743Y18354D01*
X40746Y18357D01*
X40747Y18359D01*
Y18360D01*
X40763Y18381D01*
X40779Y18399D01*
X40796Y18414D01*
X40811Y18428D01*
X40825Y18439D01*
X40835Y18445D01*
X40843Y18450D01*
X40844Y18451D01*
X40845D01*
X40868Y18461D01*
X40892Y18469D01*
X40915Y18475D01*
X40937Y18479D01*
X40956Y18482D01*
X40963D01*
X40971Y18483D01*
X41003D01*
X41022Y18481D01*
D02*
G37*
G36*
X6624Y23267D02*
X6640Y23244D01*
X6658Y23222D01*
X6674Y23203D01*
X6691Y23186D01*
X6703Y23172D01*
X6709Y23168D01*
X6713Y23164D01*
X6714Y23163D01*
X6716Y23161D01*
X6745Y23138D01*
X6774Y23116D01*
X6802Y23096D01*
X6830Y23081D01*
X6853Y23067D01*
X6863Y23061D01*
X6871Y23057D01*
X6878Y23053D01*
X6884Y23052D01*
X6886Y23049D01*
X6888D01*
Y22935D01*
X6867Y22944D01*
X6846Y22953D01*
X6825Y22963D01*
X6806Y22973D01*
X6789Y22981D01*
X6775Y22988D01*
X6767Y22993D01*
X6766Y22995D01*
X6764D01*
X6739Y23010D01*
X6717Y23025D01*
X6698Y23039D01*
X6683Y23052D01*
X6669Y23061D01*
X6660Y23070D01*
X6653Y23075D01*
X6652Y23077D01*
Y22326D01*
X6534D01*
Y23290D01*
X6610D01*
X6624Y23267D01*
D02*
G37*
G36*
X7265Y22625D02*
Y22595D01*
X7268Y22570D01*
X7269Y22550D01*
X7272Y22533D01*
X7275Y22521D01*
X7276Y22511D01*
X7279Y22505D01*
Y22504D01*
X7284Y22490D01*
X7291Y22479D01*
X7300Y22469D01*
X7307Y22460D01*
X7315Y22454D01*
X7321Y22448D01*
X7325Y22446D01*
X7326Y22444D01*
X7340Y22437D01*
X7354Y22432D01*
X7368Y22429D01*
X7380Y22426D01*
X7393Y22425D01*
X7401Y22423D01*
X7409D01*
X7431Y22425D01*
X7452Y22430D01*
X7469Y22436D01*
X7484Y22444D01*
X7495Y22451D01*
X7504Y22458D01*
X7509Y22462D01*
X7511Y22464D01*
X7517Y22472D01*
X7523Y22482D01*
X7531Y22504D01*
X7540Y22529D01*
X7544Y22554D01*
X7548Y22577D01*
Y22587D01*
X7549Y22595D01*
X7551Y22604D01*
Y22609D01*
Y22612D01*
Y22613D01*
X7666Y22597D01*
Y22570D01*
X7664Y22547D01*
X7660Y22523D01*
X7658Y22503D01*
X7652Y22483D01*
X7646Y22466D01*
X7641Y22450D01*
X7635Y22436D01*
X7628Y22423D01*
X7623Y22412D01*
X7617Y22403D01*
X7612Y22396D01*
X7608Y22390D01*
X7605Y22385D01*
X7603Y22383D01*
X7602Y22382D01*
X7588Y22369D01*
X7574Y22358D01*
X7559Y22349D01*
X7542Y22340D01*
X7511Y22328D01*
X7480Y22319D01*
X7451Y22314D01*
X7440Y22313D01*
X7429Y22311D01*
X7420Y22310D01*
X7408D01*
X7377Y22311D01*
X7350Y22315D01*
X7325Y22321D01*
X7302Y22328D01*
X7284Y22333D01*
X7272Y22339D01*
X7264Y22343D01*
X7261Y22344D01*
X7239Y22358D01*
X7219Y22375D01*
X7204Y22392D01*
X7190Y22407D01*
X7180Y22422D01*
X7174Y22433D01*
X7169Y22441D01*
X7168Y22443D01*
Y22444D01*
X7158Y22472D01*
X7150Y22501D01*
X7144Y22533D01*
X7142Y22564D01*
X7139Y22590D01*
Y22601D01*
X7137Y22612D01*
Y22620D01*
Y22626D01*
Y22630D01*
Y22632D01*
Y23286D01*
X7265D01*
Y22625D01*
D02*
G37*
%LPC*%
G36*
X23985Y3285D02*
Y2855D01*
X24287D01*
X23985Y3285D01*
D02*
G37*
G36*
X19786Y3362D02*
X19511D01*
X19486Y3361D01*
X19465Y3359D01*
X19449Y3358D01*
X19438Y3355D01*
X19429Y3354D01*
X19424Y3353D01*
X19422D01*
X19404Y3346D01*
X19389Y3337D01*
X19375Y3329D01*
X19363Y3319D01*
X19354Y3310D01*
X19347Y3303D01*
X19343Y3297D01*
X19342Y3296D01*
X19332Y3279D01*
X19324Y3262D01*
X19318Y3244D01*
X19316Y3229D01*
X19313Y3215D01*
X19311Y3203D01*
Y3196D01*
Y3194D01*
Y3193D01*
X19314Y3164D01*
X19320Y3139D01*
X19328Y3117D01*
X19338Y3099D01*
X19347Y3085D01*
X19356Y3074D01*
X19361Y3068D01*
X19364Y3065D01*
X19374Y3057D01*
X19386Y3050D01*
X19413Y3039D01*
X19442Y3031D01*
X19471Y3025D01*
X19497Y3022D01*
X19508Y3021D01*
X19518D01*
X19528Y3020D01*
X19786D01*
Y3362D01*
D02*
G37*
G36*
X16979Y3376D02*
X16969Y3344D01*
X16958Y3311D01*
X16947Y3278D01*
X16936Y3246D01*
X16930Y3232D01*
X16926Y3218D01*
X16922Y3206D01*
X16918Y3196D01*
X16915Y3188D01*
X16912Y3181D01*
X16911Y3176D01*
Y3175D01*
X16811Y2912D01*
X17135D01*
X17031Y3192D01*
X17019Y3226D01*
X17009Y3260D01*
X17000Y3290D01*
X16993Y3318D01*
X16987Y3341D01*
X16984Y3351D01*
X16983Y3361D01*
X16980Y3366D01*
Y3372D01*
X16979Y3375D01*
Y3376D01*
D02*
G37*
G36*
X14570Y3362D02*
X14295D01*
X14270Y3361D01*
X14249Y3359D01*
X14233Y3358D01*
X14222Y3355D01*
X14213Y3354D01*
X14208Y3353D01*
X14206D01*
X14188Y3346D01*
X14173Y3337D01*
X14159Y3329D01*
X14147Y3319D01*
X14138Y3310D01*
X14132Y3303D01*
X14127Y3297D01*
X14126Y3296D01*
X14116Y3279D01*
X14108Y3262D01*
X14102Y3244D01*
X14100Y3229D01*
X14097Y3215D01*
X14095Y3203D01*
Y3196D01*
Y3194D01*
Y3193D01*
X14098Y3164D01*
X14104Y3139D01*
X14112Y3117D01*
X14122Y3099D01*
X14132Y3085D01*
X14140Y3074D01*
X14145Y3068D01*
X14148Y3065D01*
X14158Y3057D01*
X14170Y3050D01*
X14197Y3039D01*
X14226Y3031D01*
X14255Y3025D01*
X14281Y3022D01*
X14292Y3021D01*
X14302D01*
X14312Y3020D01*
X14570D01*
Y3362D01*
D02*
G37*
G36*
X9691Y3180D02*
X9683D01*
X9666Y3178D01*
X9651Y3177D01*
X9622Y3169D01*
X9597Y3157D01*
X9576Y3145D01*
X9560Y3132D01*
X9547Y3121D01*
X9540Y3113D01*
X9537Y3112D01*
Y3110D01*
X9525Y3092D01*
X9514Y3071D01*
X9507Y3051D01*
X9500Y3028D01*
X9496Y3010D01*
X9493Y2994D01*
Y2988D01*
X9492Y2984D01*
Y2981D01*
Y2980D01*
X9881D01*
X9877Y3012D01*
X9869Y3041D01*
X9859Y3066D01*
X9848Y3085D01*
X9838Y3102D01*
X9829Y3114D01*
X9823Y3121D01*
X9820Y3124D01*
X9798Y3142D01*
X9776Y3156D01*
X9752Y3166D01*
X9730Y3173D01*
X9712Y3177D01*
X9697Y3178D01*
X9691Y3180D01*
D02*
G37*
G36*
X10792Y3418D02*
X10490D01*
X10453Y3417D01*
X10421Y3411D01*
X10393Y3404D01*
X10372Y3396D01*
X10354Y3388D01*
X10343Y3381D01*
X10336Y3375D01*
X10333Y3374D01*
X10317Y3356D01*
X10304Y3338D01*
X10296Y3318D01*
X10289Y3302D01*
X10286Y3285D01*
X10285Y3273D01*
X10283Y3264D01*
Y3263D01*
Y3261D01*
X10285Y3245D01*
X10288Y3228D01*
X10292Y3214D01*
X10296Y3202D01*
X10301Y3191D01*
X10306Y3182D01*
X10308Y3177D01*
X10310Y3175D01*
X10319Y3162D01*
X10332Y3149D01*
X10344Y3139D01*
X10357Y3131D01*
X10368Y3126D01*
X10376Y3121D01*
X10382Y3119D01*
X10385Y3117D01*
X10404Y3112D01*
X10426Y3108D01*
X10448Y3105D01*
X10471Y3103D01*
X10490Y3102D01*
X10507Y3101D01*
X10792D01*
Y3418D01*
D02*
G37*
G36*
X8041Y3411D02*
X7813D01*
X7783Y3408D01*
X7759Y3407D01*
X7739Y3404D01*
X7723Y3402D01*
X7714Y3400D01*
X7707Y3397D01*
X7705D01*
X7690Y3392D01*
X7676Y3383D01*
X7665Y3375D01*
X7655Y3367D01*
X7648Y3360D01*
X7643Y3353D01*
X7640Y3349D01*
X7639Y3347D01*
X7630Y3334D01*
X7625Y3320D01*
X7621Y3306D01*
X7618Y3292D01*
X7617Y3281D01*
X7615Y3273D01*
Y3267D01*
Y3264D01*
X7617Y3246D01*
X7619Y3230D01*
X7623Y3216D01*
X7628Y3205D01*
X7632Y3195D01*
X7636Y3187D01*
X7639Y3182D01*
X7640Y3181D01*
X7650Y3170D01*
X7662Y3159D01*
X7675Y3151D01*
X7686Y3145D01*
X7697Y3139D01*
X7705Y3135D01*
X7711Y3134D01*
X7714Y3132D01*
X7729Y3130D01*
X7748Y3127D01*
X7768Y3126D01*
X7787Y3124D01*
X7805Y3123D01*
X8041D01*
Y3411D01*
D02*
G37*
G36*
Y3009D02*
X7789D01*
X7759Y3006D01*
X7736Y3003D01*
X7716Y3001D01*
X7701Y2998D01*
X7689Y2995D01*
X7683Y2994D01*
X7680Y2992D01*
X7662Y2985D01*
X7647Y2977D01*
X7633Y2967D01*
X7622Y2958D01*
X7614Y2949D01*
X7608Y2942D01*
X7604Y2937D01*
X7603Y2936D01*
X7593Y2920D01*
X7586Y2905D01*
X7580Y2890D01*
X7578Y2876D01*
X7575Y2863D01*
X7574Y2852D01*
Y2847D01*
Y2844D01*
X7575Y2827D01*
X7576Y2811D01*
X7579Y2797D01*
X7583Y2786D01*
X7587Y2776D01*
X7590Y2768D01*
X7592Y2764D01*
X7593Y2762D01*
X7601Y2750D01*
X7608Y2739D01*
X7618Y2730D01*
X7625Y2722D01*
X7632Y2716D01*
X7637Y2712D01*
X7642Y2709D01*
X7643Y2708D01*
X7666Y2697D01*
X7690Y2689D01*
X7700Y2686D01*
X7708Y2685D01*
X7714Y2683D01*
X7715D01*
X7726Y2682D01*
X7739Y2680D01*
X7768Y2679D01*
X8041D01*
Y3009D01*
D02*
G37*
G36*
X11658Y1812D02*
X11650D01*
X11621Y1809D01*
X11595Y1802D01*
X11572Y1794D01*
X11553Y1783D01*
X11538Y1772D01*
X11527Y1764D01*
X11520Y1757D01*
X11517Y1754D01*
X11499Y1730D01*
X11485Y1705D01*
X11475Y1679D01*
X11470Y1654D01*
X11466Y1632D01*
X11464Y1622D01*
Y1614D01*
X11463Y1607D01*
Y1601D01*
Y1598D01*
Y1597D01*
X11466Y1560D01*
X11471Y1528D01*
X11479Y1500D01*
X11489Y1476D01*
X11500Y1458D01*
X11509Y1445D01*
X11514Y1436D01*
X11517Y1435D01*
Y1433D01*
X11527Y1422D01*
X11538Y1414D01*
X11560Y1399D01*
X11582Y1389D01*
X11601Y1381D01*
X11620Y1377D01*
X11633Y1375D01*
X11639Y1374D01*
X11646D01*
X11665Y1375D01*
X11683Y1378D01*
X11700Y1384D01*
X11714Y1389D01*
X11726Y1393D01*
X11736Y1399D01*
X11742Y1402D01*
X11744Y1403D01*
X11761Y1415D01*
X11775Y1428D01*
X11787Y1443D01*
X11797Y1456D01*
X11805Y1468D01*
X11811Y1478D01*
X11815Y1485D01*
X11816Y1488D01*
X11825Y1508D01*
X11830Y1529D01*
X11836Y1549D01*
X11839Y1567D01*
X11840Y1582D01*
X11841Y1594D01*
Y1601D01*
Y1604D01*
X11839Y1637D01*
X11833Y1666D01*
X11823Y1693D01*
X11814Y1714D01*
X11804Y1732D01*
X11794Y1744D01*
X11789Y1751D01*
X11786Y1754D01*
X11764Y1773D01*
X11742Y1787D01*
X11718Y1798D01*
X11697Y1805D01*
X11678Y1809D01*
X11664Y1811D01*
X11658Y1812D01*
D02*
G37*
G36*
X13160Y2160D02*
X13152D01*
X13137Y2159D01*
X13121Y2157D01*
X13108Y2153D01*
X13095Y2148D01*
X13072Y2135D01*
X13051Y2121D01*
X13035Y2106D01*
X13023Y2094D01*
X13019Y2088D01*
X13016Y2084D01*
X13013Y2082D01*
Y2081D01*
X13004Y2064D01*
X12995Y2045D01*
X12987Y2023D01*
X12981Y1999D01*
X12976Y1974D01*
X12972Y1948D01*
X12965Y1895D01*
X12962Y1869D01*
X12961Y1845D01*
X12959Y1823D01*
Y1805D01*
X12958Y1788D01*
Y1776D01*
Y1769D01*
Y1768D01*
Y1766D01*
Y1723D01*
X12961Y1684D01*
X12963Y1650D01*
X12966Y1617D01*
X12970Y1589D01*
X12976Y1562D01*
X12981Y1540D01*
X12986Y1519D01*
X12991Y1503D01*
X12997Y1489D01*
X13001Y1476D01*
X13006Y1467D01*
X13009Y1460D01*
X13012Y1456D01*
X13015Y1453D01*
Y1451D01*
X13026Y1438D01*
X13037Y1427D01*
X13048Y1415D01*
X13059Y1407D01*
X13083Y1393D01*
X13103Y1384D01*
X13123Y1378D01*
X13137Y1375D01*
X13142Y1374D01*
X13151D01*
X13166Y1375D01*
X13180Y1377D01*
X13206Y1386D01*
X13230Y1399D01*
X13250Y1413D01*
X13266Y1427D01*
X13278Y1439D01*
X13285Y1449D01*
X13288Y1450D01*
Y1451D01*
X13298Y1468D01*
X13306Y1488D01*
X13314Y1510D01*
X13320Y1533D01*
X13325Y1558D01*
X13329Y1585D01*
X13336Y1639D01*
X13339Y1664D01*
X13341Y1687D01*
X13342Y1709D01*
Y1727D01*
X13343Y1744D01*
Y1757D01*
Y1764D01*
Y1766D01*
X13342Y1809D01*
X13341Y1848D01*
X13338Y1884D01*
X13334Y1917D01*
X13329Y1947D01*
X13324Y1973D01*
X13318Y1997D01*
X13313Y2017D01*
X13307Y2035D01*
X13303Y2051D01*
X13298Y2063D01*
X13293Y2074D01*
X13289Y2081D01*
X13286Y2087D01*
X13284Y2089D01*
Y2091D01*
X13274Y2103D01*
X13264Y2114D01*
X13253Y2123D01*
X13242Y2131D01*
X13220Y2144D01*
X13199Y2152D01*
X13181Y2156D01*
X13166Y2159D01*
X13160Y2160D01*
D02*
G37*
G36*
X10475D02*
X10467D01*
X10452Y2159D01*
X10437Y2157D01*
X10423Y2153D01*
X10410Y2148D01*
X10387Y2135D01*
X10366Y2121D01*
X10351Y2106D01*
X10338Y2094D01*
X10334Y2088D01*
X10331Y2084D01*
X10328Y2082D01*
Y2081D01*
X10319Y2064D01*
X10310Y2045D01*
X10302Y2023D01*
X10296Y1999D01*
X10291Y1974D01*
X10287Y1948D01*
X10280Y1895D01*
X10277Y1869D01*
X10276Y1845D01*
X10274Y1823D01*
Y1805D01*
X10273Y1788D01*
Y1776D01*
Y1769D01*
Y1768D01*
Y1766D01*
Y1723D01*
X10276Y1684D01*
X10278Y1650D01*
X10281Y1617D01*
X10285Y1589D01*
X10291Y1562D01*
X10296Y1540D01*
X10301Y1519D01*
X10306Y1503D01*
X10312Y1489D01*
X10316Y1476D01*
X10321Y1467D01*
X10324Y1460D01*
X10327Y1456D01*
X10330Y1453D01*
Y1451D01*
X10341Y1438D01*
X10352Y1427D01*
X10363Y1415D01*
X10374Y1407D01*
X10398Y1393D01*
X10419Y1384D01*
X10438Y1378D01*
X10452Y1375D01*
X10457Y1374D01*
X10466D01*
X10481Y1375D01*
X10495Y1377D01*
X10521Y1386D01*
X10545Y1399D01*
X10566Y1413D01*
X10581Y1427D01*
X10593Y1439D01*
X10600Y1449D01*
X10603Y1450D01*
Y1451D01*
X10613Y1468D01*
X10621Y1488D01*
X10629Y1510D01*
X10635Y1533D01*
X10640Y1558D01*
X10645Y1585D01*
X10651Y1639D01*
X10654Y1664D01*
X10656Y1687D01*
X10657Y1709D01*
Y1727D01*
X10658Y1744D01*
Y1757D01*
Y1764D01*
Y1766D01*
X10657Y1809D01*
X10656Y1848D01*
X10653Y1884D01*
X10649Y1917D01*
X10645Y1947D01*
X10639Y1973D01*
X10633Y1997D01*
X10628Y2017D01*
X10622Y2035D01*
X10618Y2051D01*
X10613Y2063D01*
X10609Y2074D01*
X10604Y2081D01*
X10602Y2087D01*
X10599Y2089D01*
Y2091D01*
X10589Y2103D01*
X10579Y2114D01*
X10568Y2123D01*
X10557Y2131D01*
X10535Y2144D01*
X10514Y2152D01*
X10496Y2156D01*
X10481Y2159D01*
X10475Y2160D01*
D02*
G37*
G36*
X9729D02*
X9718D01*
X9695Y2159D01*
X9672Y2153D01*
X9654Y2146D01*
X9638Y2138D01*
X9625Y2130D01*
X9616Y2123D01*
X9609Y2117D01*
X9607Y2116D01*
X9592Y2098D01*
X9581Y2080D01*
X9573Y2062D01*
X9567Y2045D01*
X9564Y2030D01*
X9561Y2017D01*
Y2009D01*
Y2008D01*
Y2006D01*
X9563Y1984D01*
X9568Y1963D01*
X9575Y1945D01*
X9584Y1930D01*
X9592Y1917D01*
X9599Y1909D01*
X9604Y1902D01*
X9606Y1901D01*
X9622Y1887D01*
X9642Y1876D01*
X9660Y1869D01*
X9678Y1863D01*
X9695Y1861D01*
X9707Y1859D01*
X9715Y1858D01*
X9718D01*
X9743Y1859D01*
X9765Y1865D01*
X9785Y1872D01*
X9801Y1880D01*
X9814Y1887D01*
X9824Y1894D01*
X9830Y1899D01*
X9832Y1901D01*
X9846Y1917D01*
X9857Y1937D01*
X9864Y1955D01*
X9869Y1973D01*
X9872Y1988D01*
X9873Y2001D01*
X9875Y2009D01*
Y2010D01*
Y2012D01*
X9873Y2034D01*
X9868Y2053D01*
X9861Y2071D01*
X9853Y2087D01*
X9846Y2099D01*
X9839Y2109D01*
X9833Y2114D01*
X9832Y2116D01*
X9814Y2131D01*
X9796Y2142D01*
X9776Y2149D01*
X9758Y2155D01*
X9742Y2157D01*
X9729Y2160D01*
D02*
G37*
G36*
X9731Y1762D02*
X9722D01*
X9692Y1759D01*
X9664Y1754D01*
X9639Y1744D01*
X9618Y1734D01*
X9602Y1723D01*
X9589Y1714D01*
X9582Y1708D01*
X9579Y1705D01*
X9560Y1683D01*
X9546Y1660D01*
X9536Y1636D01*
X9530Y1615D01*
X9525Y1594D01*
X9524Y1579D01*
X9523Y1574D01*
Y1569D01*
Y1567D01*
Y1565D01*
X9525Y1536D01*
X9531Y1508D01*
X9541Y1485D01*
X9550Y1465D01*
X9560Y1450D01*
X9570Y1438D01*
X9575Y1431D01*
X9578Y1428D01*
X9600Y1410D01*
X9622Y1396D01*
X9646Y1388D01*
X9668Y1381D01*
X9688Y1377D01*
X9704Y1375D01*
X9710Y1374D01*
X9718D01*
X9738Y1375D01*
X9757Y1378D01*
X9775Y1382D01*
X9790Y1386D01*
X9803Y1390D01*
X9812Y1395D01*
X9818Y1397D01*
X9821Y1399D01*
X9837Y1410D01*
X9851Y1421D01*
X9864Y1433D01*
X9873Y1446D01*
X9882Y1456D01*
X9887Y1464D01*
X9890Y1471D01*
X9892Y1472D01*
X9898Y1490D01*
X9904Y1507D01*
X9908Y1524D01*
X9911Y1539D01*
X9912Y1551D01*
X9914Y1561D01*
Y1567D01*
Y1569D01*
X9911Y1598D01*
X9905Y1625D01*
X9897Y1648D01*
X9886Y1669D01*
X9876Y1684D01*
X9868Y1697D01*
X9862Y1704D01*
X9860Y1707D01*
X9839Y1725D01*
X9815Y1739D01*
X9793Y1748D01*
X9771Y1755D01*
X9751Y1759D01*
X9736Y1761D01*
X9731Y1762D01*
D02*
G37*
G36*
X7790Y2160D02*
X7779D01*
X7756Y2159D01*
X7734Y2153D01*
X7716Y2146D01*
X7699Y2138D01*
X7686Y2130D01*
X7677Y2123D01*
X7670Y2117D01*
X7668Y2116D01*
X7653Y2098D01*
X7642Y2080D01*
X7634Y2062D01*
X7628Y2045D01*
X7625Y2030D01*
X7623Y2017D01*
Y2009D01*
Y2008D01*
Y2006D01*
X7624Y1984D01*
X7630Y1963D01*
X7637Y1945D01*
X7645Y1930D01*
X7653Y1917D01*
X7660Y1909D01*
X7666Y1902D01*
X7667Y1901D01*
X7684Y1887D01*
X7703Y1876D01*
X7721Y1869D01*
X7739Y1863D01*
X7756Y1861D01*
X7768Y1859D01*
X7777Y1858D01*
X7779D01*
X7804Y1859D01*
X7826Y1865D01*
X7846Y1872D01*
X7863Y1880D01*
X7875Y1887D01*
X7885Y1894D01*
X7892Y1899D01*
X7893Y1901D01*
X7907Y1917D01*
X7918Y1937D01*
X7925Y1955D01*
X7931Y1973D01*
X7933Y1988D01*
X7935Y2001D01*
X7936Y2009D01*
Y2010D01*
Y2012D01*
X7935Y2034D01*
X7929Y2053D01*
X7922Y2071D01*
X7914Y2087D01*
X7907Y2099D01*
X7900Y2109D01*
X7894Y2114D01*
X7893Y2116D01*
X7875Y2131D01*
X7857Y2142D01*
X7838Y2149D01*
X7820Y2155D01*
X7803Y2157D01*
X7790Y2160D01*
D02*
G37*
G36*
X7792Y1762D02*
X7784D01*
X7753Y1759D01*
X7725Y1754D01*
X7700Y1744D01*
X7680Y1734D01*
X7663Y1723D01*
X7650Y1714D01*
X7643Y1708D01*
X7641Y1705D01*
X7621Y1683D01*
X7607Y1660D01*
X7598Y1636D01*
X7591Y1615D01*
X7587Y1594D01*
X7585Y1579D01*
X7584Y1574D01*
Y1569D01*
Y1567D01*
Y1565D01*
X7587Y1536D01*
X7592Y1508D01*
X7602Y1485D01*
X7612Y1465D01*
X7621Y1450D01*
X7631Y1438D01*
X7637Y1431D01*
X7639Y1428D01*
X7661Y1410D01*
X7684Y1396D01*
X7707Y1388D01*
X7729Y1381D01*
X7749Y1377D01*
X7765Y1375D01*
X7771Y1374D01*
X7779D01*
X7799Y1375D01*
X7818Y1378D01*
X7836Y1382D01*
X7851Y1386D01*
X7864Y1390D01*
X7874Y1395D01*
X7879Y1397D01*
X7882Y1399D01*
X7899Y1410D01*
X7912Y1421D01*
X7925Y1433D01*
X7935Y1446D01*
X7943Y1456D01*
X7949Y1464D01*
X7951Y1471D01*
X7953Y1472D01*
X7960Y1490D01*
X7965Y1507D01*
X7969Y1524D01*
X7972Y1539D01*
X7974Y1551D01*
X7975Y1561D01*
Y1567D01*
Y1569D01*
X7972Y1598D01*
X7967Y1625D01*
X7958Y1648D01*
X7947Y1669D01*
X7937Y1684D01*
X7929Y1697D01*
X7924Y1704D01*
X7921Y1707D01*
X7900Y1725D01*
X7876Y1739D01*
X7854Y1748D01*
X7832Y1755D01*
X7813Y1759D01*
X7797Y1761D01*
X7792Y1762D01*
D02*
G37*
G36*
X23131Y2045D02*
X23123D01*
X23108Y2044D01*
X23094Y2042D01*
X23068Y2035D01*
X23044Y2025D01*
X23024Y2012D01*
X23009Y2000D01*
X22997Y1990D01*
X22989Y1982D01*
X22987Y1981D01*
Y1980D01*
X22977Y1967D01*
X22968Y1952D01*
X22953Y1922D01*
X22943Y1890D01*
X22937Y1860D01*
X22934Y1845D01*
X22932Y1831D01*
X22931Y1819D01*
Y1809D01*
X22929Y1800D01*
Y1794D01*
Y1789D01*
Y1787D01*
Y1764D01*
X22932Y1741D01*
X22934Y1720D01*
X22938Y1700D01*
X22942Y1682D01*
X22947Y1666D01*
X22952Y1652D01*
X22957Y1639D01*
X22962Y1627D01*
X22967Y1617D01*
X22972Y1610D01*
X22976Y1604D01*
X22979Y1597D01*
X22982Y1594D01*
X22983Y1592D01*
X22984Y1591D01*
X22994Y1580D01*
X23006Y1571D01*
X23017Y1562D01*
X23029Y1555D01*
X23052Y1544D01*
X23073Y1536D01*
X23092Y1532D01*
X23101Y1531D01*
X23107Y1530D01*
X23113Y1529D01*
X23121D01*
X23136Y1530D01*
X23150Y1531D01*
X23177Y1539D01*
X23200Y1549D01*
X23220Y1560D01*
X23237Y1571D01*
X23248Y1581D01*
X23255Y1589D01*
X23257Y1590D01*
X23258Y1591D01*
X23268Y1604D01*
X23275Y1617D01*
X23289Y1649D01*
X23298Y1682D01*
X23305Y1715D01*
X23307Y1730D01*
X23309Y1745D01*
X23310Y1757D01*
Y1769D01*
X23312Y1779D01*
Y1785D01*
Y1790D01*
Y1791D01*
X23310Y1814D01*
X23309Y1835D01*
X23307Y1855D01*
X23303Y1874D01*
X23299Y1890D01*
X23294Y1906D01*
X23289Y1920D01*
X23284Y1932D01*
X23279Y1944D01*
X23274Y1954D01*
X23269Y1961D01*
X23265Y1969D01*
X23262Y1974D01*
X23259Y1977D01*
X23257Y1979D01*
Y1980D01*
X23247Y1991D01*
X23235Y2001D01*
X23224Y2010D01*
X23213Y2017D01*
X23190Y2029D01*
X23169Y2037D01*
X23150Y2041D01*
X23136Y2044D01*
X23131Y2045D01*
D02*
G37*
G36*
X23855D02*
X23848D01*
X23832Y2044D01*
X23815Y2042D01*
X23787Y2034D01*
X23762Y2024D01*
X23740Y2011D01*
X23724Y1997D01*
X23712Y1987D01*
X23708Y1982D01*
X23704Y1979D01*
X23702Y1977D01*
Y1976D01*
X23689Y1959D01*
X23679Y1937D01*
X23672Y1916D01*
X23665Y1895D01*
X23662Y1876D01*
X23659Y1867D01*
Y1860D01*
X23658Y1855D01*
X23657Y1850D01*
Y1847D01*
Y1846D01*
X24045D01*
X24042Y1879D01*
X24034Y1906D01*
X24024Y1931D01*
X24013Y1952D01*
X24003Y1969D01*
X23994Y1980D01*
X23988Y1987D01*
X23985Y1990D01*
X23974Y2000D01*
X23963Y2009D01*
X23940Y2021D01*
X23917Y2031D01*
X23895Y2039D01*
X23877Y2042D01*
X23868Y2044D01*
X23862D01*
X23855Y2045D01*
D02*
G37*
G36*
X22363D02*
X22356D01*
X22339Y2044D01*
X22323Y2042D01*
X22294Y2034D01*
X22269Y2024D01*
X22248Y2011D01*
X22232Y1997D01*
X22219Y1987D01*
X22216Y1982D01*
X22212Y1979D01*
X22209Y1977D01*
Y1976D01*
X22197Y1959D01*
X22187Y1937D01*
X22180Y1916D01*
X22173Y1895D01*
X22170Y1876D01*
X22167Y1867D01*
Y1860D01*
X22166Y1855D01*
X22165Y1850D01*
Y1847D01*
Y1846D01*
X22553D01*
X22549Y1879D01*
X22542Y1906D01*
X22532Y1931D01*
X22521Y1952D01*
X22511Y1969D01*
X22502Y1980D01*
X22496Y1987D01*
X22493Y1990D01*
X22482Y2000D01*
X22471Y2009D01*
X22448Y2021D01*
X22424Y2031D01*
X22403Y2039D01*
X22384Y2042D01*
X22376Y2044D01*
X22369D01*
X22363Y2045D01*
D02*
G37*
G36*
X18340D02*
X18332D01*
X18315Y2044D01*
X18301Y2042D01*
X18272Y2035D01*
X18247Y2024D01*
X18226Y2011D01*
X18209Y1999D01*
X18196Y1987D01*
X18192Y1984D01*
X18188Y1980D01*
X18187Y1979D01*
X18186Y1977D01*
X18176Y1965D01*
X18166Y1950D01*
X18152Y1919D01*
X18141Y1886D01*
X18134Y1855D01*
X18132Y1840D01*
X18129Y1826D01*
X18128Y1815D01*
Y1804D01*
X18127Y1795D01*
Y1789D01*
Y1784D01*
Y1782D01*
Y1757D01*
X18129Y1735D01*
X18132Y1714D01*
X18136Y1694D01*
X18141Y1675D01*
X18146Y1659D01*
X18151Y1644D01*
X18156Y1630D01*
X18162Y1619D01*
X18167Y1609D01*
X18172Y1600D01*
X18177Y1592D01*
X18181Y1587D01*
X18183Y1584D01*
X18184Y1581D01*
X18186Y1580D01*
X18197Y1569D01*
X18208Y1559D01*
X18221Y1549D01*
X18233Y1541D01*
X18258Y1530D01*
X18281Y1522D01*
X18301Y1517D01*
X18309Y1516D01*
X18317Y1515D01*
X18323Y1514D01*
X18332D01*
X18348Y1515D01*
X18363Y1516D01*
X18392Y1524D01*
X18417Y1535D01*
X18438Y1547D01*
X18454Y1559D01*
X18468Y1570D01*
X18472Y1574D01*
X18475Y1577D01*
X18477Y1579D01*
X18478Y1580D01*
X18488Y1594D01*
X18497Y1607D01*
X18512Y1639D01*
X18522Y1672D01*
X18528Y1704D01*
X18530Y1719D01*
X18533Y1734D01*
X18534Y1746D01*
Y1757D01*
X18535Y1766D01*
Y1772D01*
Y1777D01*
Y1779D01*
X18534Y1802D01*
X18533Y1826D01*
X18530Y1847D01*
X18527Y1866D01*
X18522Y1885D01*
X18517Y1901D01*
X18512Y1916D01*
X18507Y1929D01*
X18502Y1941D01*
X18497Y1951D01*
X18492Y1959D01*
X18487Y1966D01*
X18483Y1971D01*
X18480Y1976D01*
X18478Y1977D01*
Y1979D01*
X18467Y1990D01*
X18454Y2001D01*
X18443Y2010D01*
X18430Y2017D01*
X18405Y2029D01*
X18383Y2036D01*
X18363Y2041D01*
X18354Y2042D01*
X18347Y2044D01*
X18340Y2045D01*
D02*
G37*
G36*
X16997Y2045D02*
X16988D01*
X16972Y2044D01*
X16957Y2042D01*
X16928Y2035D01*
X16903Y2024D01*
X16882Y2011D01*
X16866Y1999D01*
X16852Y1987D01*
X16848Y1984D01*
X16845Y1980D01*
X16843Y1979D01*
X16842Y1977D01*
X16832Y1965D01*
X16822Y1950D01*
X16808Y1919D01*
X16797Y1886D01*
X16791Y1855D01*
X16788Y1840D01*
X16786Y1826D01*
X16785Y1815D01*
Y1804D01*
X16783Y1795D01*
Y1789D01*
Y1784D01*
Y1782D01*
Y1757D01*
X16786Y1735D01*
X16788Y1714D01*
X16792Y1694D01*
X16797Y1675D01*
X16802Y1659D01*
X16807Y1644D01*
X16812Y1630D01*
X16818Y1619D01*
X16823Y1609D01*
X16828Y1600D01*
X16833Y1592D01*
X16837Y1587D01*
X16840Y1584D01*
X16841Y1581D01*
X16842Y1580D01*
X16853Y1569D01*
X16865Y1559D01*
X16877Y1549D01*
X16890Y1541D01*
X16915Y1530D01*
X16937Y1522D01*
X16957Y1517D01*
X16966Y1516D01*
X16973Y1515D01*
X16980Y1514D01*
X16988D01*
X17005Y1515D01*
X17020Y1516D01*
X17048Y1524D01*
X17073Y1535D01*
X17095Y1547D01*
X17111Y1559D01*
X17125Y1570D01*
X17128Y1574D01*
X17132Y1577D01*
X17133Y1579D01*
X17135Y1580D01*
X17145Y1594D01*
X17153Y1607D01*
X17168Y1639D01*
X17178Y1672D01*
X17185Y1704D01*
X17187Y1719D01*
X17190Y1734D01*
X17191Y1746D01*
Y1757D01*
X17192Y1766D01*
Y1772D01*
Y1777D01*
Y1779D01*
X17191Y1802D01*
X17190Y1826D01*
X17187Y1847D01*
X17183Y1866D01*
X17178Y1885D01*
X17173Y1901D01*
X17168Y1916D01*
X17163Y1929D01*
X17158Y1941D01*
X17153Y1951D01*
X17148Y1959D01*
X17143Y1966D01*
X17140Y1971D01*
X17137Y1976D01*
X17135Y1977D01*
Y1979D01*
X17123Y1990D01*
X17111Y2001D01*
X17100Y2010D01*
X17087Y2017D01*
X17062Y2029D01*
X17040Y2036D01*
X17020Y2041D01*
X17011Y2042D01*
X17003Y2044D01*
X16997Y2045D01*
D02*
G37*
G36*
X21605Y2050D02*
X21597D01*
X21583Y2049D01*
X21570Y2047D01*
X21545Y2040D01*
X21522Y2029D01*
X21503Y2017D01*
X21487Y2005D01*
X21476Y1994D01*
X21468Y1986D01*
X21466Y1985D01*
Y1984D01*
X21456Y1971D01*
X21447Y1956D01*
X21435Y1925D01*
X21425Y1891D01*
X21417Y1860D01*
X21416Y1845D01*
X21413Y1830D01*
X21412Y1817D01*
Y1806D01*
X21411Y1797D01*
Y1791D01*
Y1786D01*
Y1785D01*
Y1760D01*
X21413Y1736D01*
X21416Y1715D01*
X21420Y1695D01*
X21423Y1676D01*
X21428Y1659D01*
X21433Y1644D01*
X21438Y1630D01*
X21445Y1619D01*
X21450Y1609D01*
X21455Y1600D01*
X21458Y1592D01*
X21462Y1587D01*
X21465Y1584D01*
X21466Y1581D01*
X21467Y1580D01*
X21478Y1569D01*
X21490Y1559D01*
X21501Y1549D01*
X21512Y1541D01*
X21535Y1530D01*
X21556Y1522D01*
X21575Y1517D01*
X21582Y1516D01*
X21588Y1515D01*
X21595Y1514D01*
X21602D01*
X21616Y1515D01*
X21630Y1516D01*
X21656Y1524D01*
X21678Y1534D01*
X21697Y1546D01*
X21713Y1557D01*
X21725Y1567D01*
X21732Y1575D01*
X21733Y1576D01*
X21735Y1577D01*
X21745Y1590D01*
X21752Y1604D01*
X21766Y1635D01*
X21775Y1667D01*
X21782Y1700D01*
X21783Y1715D01*
X21786Y1729D01*
X21787Y1742D01*
Y1754D01*
X21788Y1762D01*
Y1769D01*
Y1774D01*
Y1775D01*
X21787Y1799D01*
X21786Y1822D01*
X21783Y1844D01*
X21780Y1864D01*
X21775Y1881D01*
X21770Y1899D01*
X21765Y1914D01*
X21760Y1927D01*
X21755Y1939D01*
X21750Y1950D01*
X21745Y1959D01*
X21740Y1966D01*
X21736Y1971D01*
X21733Y1975D01*
X21731Y1977D01*
Y1979D01*
X21720Y1991D01*
X21708Y2002D01*
X21697Y2011D01*
X21686Y2020D01*
X21675Y2027D01*
X21663Y2032D01*
X21642Y2041D01*
X21625Y2046D01*
X21610Y2049D01*
X21605Y2050D01*
D02*
G37*
G36*
X40048Y20023D02*
X40035Y19981D01*
X40022Y19936D01*
X40007Y19891D01*
X39992Y19850D01*
X39985Y19830D01*
X39979Y19811D01*
X39972Y19795D01*
X39967Y19781D01*
X39964Y19770D01*
X39960Y19761D01*
X39957Y19756D01*
Y19755D01*
X39824Y19402D01*
X40258D01*
X40118Y19776D01*
X40102Y19821D01*
X40088Y19866D01*
X40077Y19908D01*
X40067Y19945D01*
X40062Y19961D01*
X40058Y19976D01*
X40055Y19990D01*
X40053Y20001D01*
X40052Y20011D01*
X40050Y20018D01*
X40048Y20021D01*
Y20023D01*
D02*
G37*
G36*
Y15420D02*
X40035Y15378D01*
X40022Y15333D01*
X40007Y15288D01*
X39992Y15246D01*
X39985Y15226D01*
X39979Y15208D01*
X39972Y15191D01*
X39967Y15178D01*
X39964Y15166D01*
X39960Y15158D01*
X39957Y15153D01*
Y15151D01*
X39824Y14798D01*
X40258D01*
X40118Y15173D01*
X40102Y15218D01*
X40088Y15263D01*
X40077Y15305D01*
X40067Y15341D01*
X40062Y15358D01*
X40058Y15373D01*
X40055Y15386D01*
X40053Y15398D01*
X40052Y15408D01*
X40050Y15415D01*
X40048Y15418D01*
Y15420D01*
D02*
G37*
G36*
X38950Y15428D02*
X38940D01*
X38920Y15426D01*
X38900Y15423D01*
X38882Y15418D01*
X38865Y15411D01*
X38834Y15395D01*
X38807Y15376D01*
X38785Y15356D01*
X38770Y15340D01*
X38764Y15333D01*
X38760Y15328D01*
X38757Y15325D01*
Y15323D01*
X38744Y15301D01*
X38732Y15275D01*
X38722Y15246D01*
X38714Y15215D01*
X38707Y15180D01*
X38700Y15145D01*
X38692Y15075D01*
X38689Y15041D01*
X38686Y15008D01*
X38684Y14980D01*
Y14955D01*
X38682Y14933D01*
Y14917D01*
Y14906D01*
Y14905D01*
Y14903D01*
Y14847D01*
X38686Y14795D01*
X38689Y14748D01*
X38694Y14705D01*
X38699Y14667D01*
X38705Y14632D01*
X38712Y14602D01*
X38719Y14575D01*
X38727Y14552D01*
X38734Y14533D01*
X38740Y14517D01*
X38745Y14505D01*
X38750Y14495D01*
X38754Y14488D01*
X38755Y14485D01*
X38757Y14483D01*
X38770Y14465D01*
X38785Y14450D01*
X38800Y14435D01*
X38817Y14423D01*
X38832Y14413D01*
X38847Y14405D01*
X38875Y14393D01*
X38900Y14385D01*
X38912Y14383D01*
X38920Y14382D01*
X38929Y14380D01*
X38939D01*
X38959Y14382D01*
X38977Y14385D01*
X38995Y14390D01*
X39012Y14397D01*
X39044Y14413D01*
X39070Y14432D01*
X39092Y14450D01*
X39107Y14467D01*
X39112Y14473D01*
X39117Y14478D01*
X39119Y14482D01*
X39120Y14483D01*
X39134Y14505D01*
X39144Y14532D01*
X39154Y14560D01*
X39162Y14593D01*
X39170Y14627D01*
X39175Y14662D01*
X39184Y14732D01*
X39187Y14767D01*
X39190Y14798D01*
X39192Y14827D01*
Y14852D01*
X39194Y14873D01*
Y14890D01*
Y14900D01*
Y14901D01*
Y14903D01*
X39192Y14960D01*
X39190Y15011D01*
X39187Y15060D01*
X39180Y15103D01*
X39175Y15143D01*
X39169Y15178D01*
X39160Y15210D01*
X39154Y15236D01*
X39145Y15261D01*
X39139Y15281D01*
X39132Y15298D01*
X39125Y15311D01*
X39120Y15321D01*
X39117Y15330D01*
X39115Y15333D01*
X39114Y15335D01*
X39100Y15351D01*
X39087Y15366D01*
X39074Y15378D01*
X39059Y15388D01*
X39030Y15405D01*
X39002Y15416D01*
X38979Y15423D01*
X38959Y15426D01*
X38950Y15428D01*
D02*
G37*
G36*
X41040Y16899D02*
X41033D01*
X41019Y16898D01*
X41005Y16897D01*
X40978Y16891D01*
X40955Y16880D01*
X40936Y16869D01*
X40921Y16858D01*
X40909Y16849D01*
X40902Y16841D01*
X40899Y16840D01*
Y16838D01*
X40889Y16827D01*
X40882Y16814D01*
X40868Y16788D01*
X40857Y16760D01*
X40851Y16734D01*
X40847Y16710D01*
X40846Y16700D01*
Y16691D01*
X40845Y16685D01*
Y16680D01*
Y16676D01*
Y16675D01*
Y16656D01*
X40847Y16638D01*
X40854Y16605D01*
X40862Y16577D01*
X40871Y16554D01*
X40882Y16536D01*
X40887Y16529D01*
X40890Y16524D01*
X40894Y16518D01*
X40897Y16515D01*
X40898Y16513D01*
X40899Y16512D01*
X40909Y16502D01*
X40921Y16493D01*
X40942Y16479D01*
X40965Y16469D01*
X40987Y16463D01*
X41006Y16457D01*
X41015Y16456D01*
X41021D01*
X41028Y16455D01*
X41035D01*
X41050Y16456D01*
X41066Y16457D01*
X41092Y16464D01*
X41116Y16473D01*
X41137Y16484D01*
X41153Y16494D01*
X41165Y16503D01*
X41172Y16510D01*
X41174Y16512D01*
X41175D01*
X41185Y16524D01*
X41193Y16535D01*
X41207Y16560D01*
X41216Y16586D01*
X41223Y16610D01*
X41227Y16631D01*
X41228Y16640D01*
Y16649D01*
X41229Y16656D01*
Y16661D01*
Y16663D01*
Y16664D01*
X41228Y16684D01*
X41227Y16701D01*
X41221Y16734D01*
X41210Y16764D01*
X41200Y16788D01*
X41195Y16798D01*
X41190Y16808D01*
X41185Y16816D01*
X41180Y16822D01*
X41176Y16827D01*
X41174Y16831D01*
X41171Y16832D01*
Y16833D01*
X41160Y16845D01*
X41148Y16855D01*
X41137Y16864D01*
X41125Y16871D01*
X41101Y16883D01*
X41080Y16892D01*
X41061Y16896D01*
X41053Y16897D01*
X41047Y16898D01*
X41040Y16899D01*
D02*
G37*
G36*
X42159Y16887D02*
X41831D01*
X41812Y16884D01*
X41796Y16883D01*
X41781Y16879D01*
X41765Y16877D01*
X41753Y16873D01*
X41741Y16868D01*
X41731Y16864D01*
X41713Y16855D01*
X41702Y16849D01*
X41694Y16844D01*
X41692Y16841D01*
X41675Y16823D01*
X41663Y16804D01*
X41654Y16785D01*
X41647Y16767D01*
X41644Y16751D01*
X41642Y16738D01*
X41641Y16733D01*
Y16729D01*
Y16728D01*
Y16727D01*
X41642Y16709D01*
X41645Y16694D01*
X41650Y16678D01*
X41654Y16666D01*
X41659Y16654D01*
X41664Y16647D01*
X41666Y16640D01*
X41668Y16639D01*
X41678Y16625D01*
X41690Y16612D01*
X41703Y16602D01*
X41715Y16595D01*
X41726Y16588D01*
X41735Y16584D01*
X41741Y16582D01*
X41744Y16581D01*
X41764Y16574D01*
X41786Y16570D01*
X41810Y16567D01*
X41831Y16565D01*
X41852Y16564D01*
X41861Y16563D01*
X42159D01*
Y16887D01*
D02*
G37*
G36*
X42866Y18371D02*
X42538D01*
X42519Y18369D01*
X42502Y18367D01*
X42487Y18364D01*
X42472Y18361D01*
X42459Y18357D01*
X42448Y18352D01*
X42438Y18348D01*
X42420Y18340D01*
X42408Y18333D01*
X42401Y18328D01*
X42398Y18326D01*
X42382Y18308D01*
X42369Y18289D01*
X42360Y18270D01*
X42354Y18252D01*
X42350Y18235D01*
X42349Y18223D01*
X42347Y18218D01*
Y18214D01*
Y18213D01*
Y18211D01*
X42349Y18194D01*
X42351Y18178D01*
X42356Y18163D01*
X42360Y18150D01*
X42365Y18139D01*
X42370Y18131D01*
X42373Y18125D01*
X42374Y18124D01*
X42384Y18110D01*
X42397Y18097D01*
X42410Y18087D01*
X42421Y18079D01*
X42433Y18073D01*
X42441Y18069D01*
X42448Y18066D01*
X42450Y18065D01*
X42471Y18059D01*
X42492Y18055D01*
X42516Y18051D01*
X42538Y18050D01*
X42558Y18049D01*
X42567Y18047D01*
X42866D01*
Y18371D01*
D02*
G37*
G36*
X40992Y18384D02*
X40985D01*
X40970Y18383D01*
X40954Y18380D01*
X40940Y18376D01*
X40928Y18371D01*
X40903Y18359D01*
X40883Y18345D01*
X40867Y18329D01*
X40855Y18317D01*
X40850Y18312D01*
X40848Y18308D01*
X40845Y18305D01*
Y18304D01*
X40835Y18287D01*
X40826Y18267D01*
X40818Y18246D01*
X40812Y18221D01*
X40807Y18195D01*
X40802Y18168D01*
X40796Y18115D01*
X40793Y18089D01*
X40790Y18064D01*
X40789Y18042D01*
Y18023D01*
X40788Y18007D01*
Y17994D01*
Y17986D01*
Y17985D01*
Y17984D01*
Y17941D01*
X40790Y17901D01*
X40793Y17866D01*
X40797Y17833D01*
X40801Y17804D01*
X40806Y17777D01*
X40811Y17754D01*
X40816Y17734D01*
X40822Y17716D01*
X40827Y17702D01*
X40832Y17689D01*
X40836Y17680D01*
X40840Y17673D01*
X40843Y17668D01*
X40844Y17665D01*
X40845Y17664D01*
X40855Y17650D01*
X40867Y17639D01*
X40878Y17627D01*
X40891Y17618D01*
X40902Y17611D01*
X40914Y17604D01*
X40935Y17595D01*
X40954Y17589D01*
X40963Y17588D01*
X40970Y17586D01*
X40976Y17585D01*
X40984D01*
X40999Y17586D01*
X41013Y17589D01*
X41027Y17593D01*
X41039Y17598D01*
X41064Y17611D01*
X41084Y17625D01*
X41100Y17639D01*
X41112Y17651D01*
X41116Y17656D01*
X41119Y17660D01*
X41121Y17663D01*
X41122Y17664D01*
X41132Y17680D01*
X41140Y17701D01*
X41147Y17722D01*
X41154Y17748D01*
X41160Y17773D01*
X41164Y17800D01*
X41170Y17853D01*
X41173Y17880D01*
X41175Y17904D01*
X41177Y17926D01*
Y17945D01*
X41178Y17961D01*
Y17974D01*
Y17981D01*
Y17983D01*
Y17984D01*
X41177Y18027D01*
X41175Y18066D01*
X41173Y18103D01*
X41168Y18136D01*
X41164Y18167D01*
X41159Y18194D01*
X41152Y18218D01*
X41147Y18238D01*
X41141Y18257D01*
X41136Y18272D01*
X41131Y18285D01*
X41126Y18295D01*
X41122Y18303D01*
X41119Y18309D01*
X41118Y18312D01*
X41117Y18313D01*
X41107Y18326D01*
X41097Y18337D01*
X41086Y18346D01*
X41075Y18354D01*
X41053Y18366D01*
X41032Y18375D01*
X41014Y18380D01*
X40999Y18383D01*
X40992Y18384D01*
D02*
G37*
%LPD*%
D11*
X6560Y27870D02*
G03*
X6560Y27870I-125J0D01*
G01*
D14*
X39000Y17075D02*
X40000D01*
X39000Y15925D02*
X40000D01*
X39000Y18575D02*
X40000D01*
X39000Y17425D02*
X40000D01*
D15*
X7035Y24020D02*
Y29180D01*
X57965D01*
Y24020D02*
Y29180D01*
X7035Y24020D02*
X57965D01*
D16*
X0Y3700D02*
G03*
X3700Y0I3700J0D01*
G01*
Y30400D02*
G03*
X0Y26700I0J-3700D01*
G01*
X65200D02*
G03*
X61500Y30400I-3700J0D01*
G01*
Y0D02*
G03*
X65200Y3700I0J3700D01*
G01*
X0D02*
G03*
X3700Y0I3700J0D01*
G01*
X61500D02*
G03*
X65200Y3700I0J3700D01*
G01*
Y26700D02*
G03*
X61500Y30400I-3700J0D01*
G01*
X3700D02*
G03*
X0Y26700I0J-3700D01*
G01*
Y3700D02*
G03*
X3700Y0I3700J0D01*
G01*
X0Y3700D02*
G03*
X3700Y0I3700J0D01*
G01*
X61500D02*
G03*
X65200Y3700I0J3700D01*
G01*
X61500Y0D02*
G03*
X65200Y3700I0J3700D01*
G01*
Y26700D02*
G03*
X61500Y30400I-3700J0D01*
G01*
X65200Y26700D02*
G03*
X61500Y30400I-3700J0D01*
G01*
X3700D02*
G03*
X0Y26700I0J-3700D01*
G01*
X3700Y30400D02*
G03*
X0Y26700I0J-3700D01*
G01*
X3700Y0D02*
X61500D01*
X3700D02*
X61500D01*
X3700D02*
X61500D01*
X3700D02*
X61500D01*
X0Y3700D02*
Y26700D01*
X3700Y30400D02*
X61500D01*
X65200Y3700D02*
Y26700D01*
Y3700D02*
Y26700D01*
X3700Y30400D02*
X61500D01*
X0Y3700D02*
Y26700D01*
X65200Y3700D02*
Y26700D01*
Y3700D02*
Y26700D01*
X3700Y30400D02*
X61500D01*
X3700D02*
X61500D01*
X0Y3700D02*
Y26700D01*
Y3700D02*
Y26700D01*
M02*
