G04*
G04 #@! TF.GenerationSoftware,Altium Limited,Altium Designer,26.8.1 (31)*
G04*
G04 Layer_Color=16711935*
G04 Board_Origin=13779528|15748031*
%FSLAX43Y43*%
%MOMM*%
G71*
G04*
G04 #@! TF.SameCoordinates,B2829F71-D31C-4C4E-9E72-A2771A272D26*
G04*
G04*
G04 #@! TF.FilePolarity,Negative*
G04*
G01*
G75*
%ADD16C,0.500*%
%ADD30R,0.800X0.800*%
G04:AMPARAMS|DCode=40|XSize=1.8mm|YSize=1.8mm|CornerRadius=0.5mm|HoleSize=0mm|Usage=FLASHONLY|Rotation=90.000|XOffset=0mm|YOffset=0mm|HoleType=Round|Shape=RoundedRectangle|*
%AMROUNDEDRECTD40*
21,1,1.800,0.800,0,0,90.0*
21,1,0.800,1.800,0,0,90.0*
1,1,1.000,0.400,0.400*
1,1,1.000,0.400,-0.400*
1,1,1.000,-0.400,-0.400*
1,1,1.000,-0.400,0.400*
%
%ADD40ROUNDEDRECTD40*%
%ADD41C,1.390*%
%ADD42C,2.700*%
%ADD43C,1.750*%
%ADD44C,1.400*%
%ADD45C,6.300*%
%ADD46C,1.800*%
%ADD47R,1.390X1.390*%
%ADD48R,1.750X1.750*%
D16*
X0Y3700D02*
G03*
X3700Y0I3700J0D01*
G01*
Y30400D02*
G03*
X0Y26700I0J-3700D01*
G01*
X65200D02*
G03*
X61500Y30400I-3700J0D01*
G01*
Y0D02*
G03*
X65200Y3700I0J3700D01*
G01*
X0D02*
G03*
X3700Y0I3700J0D01*
G01*
X61500D02*
G03*
X65200Y3700I0J3700D01*
G01*
Y26700D02*
G03*
X61500Y30400I-3700J0D01*
G01*
X3700D02*
G03*
X0Y26700I0J-3700D01*
G01*
Y3700D02*
G03*
X3700Y0I3700J0D01*
G01*
X0Y3700D02*
G03*
X3700Y0I3700J0D01*
G01*
X61500D02*
G03*
X65200Y3700I0J3700D01*
G01*
X61500Y0D02*
G03*
X65200Y3700I0J3700D01*
G01*
Y26700D02*
G03*
X61500Y30400I-3700J0D01*
G01*
X65200Y26700D02*
G03*
X61500Y30400I-3700J0D01*
G01*
X3700D02*
G03*
X0Y26700I0J-3700D01*
G01*
X3700Y30400D02*
G03*
X0Y26700I0J-3700D01*
G01*
X3700Y0D02*
X61500D01*
X3700D02*
X61500D01*
X3700D02*
X61500D01*
X3700D02*
X61500D01*
X0Y3700D02*
Y26700D01*
X3700Y30400D02*
X61500D01*
X65200Y3700D02*
Y26700D01*
Y3700D02*
Y26700D01*
X3700Y30400D02*
X61500D01*
X0Y3700D02*
Y26700D01*
X65200Y3700D02*
Y26700D01*
Y3700D02*
Y26700D01*
X3700Y30400D02*
X61500D01*
X3700D02*
X61500D01*
X0Y3700D02*
Y26700D01*
Y3700D02*
Y26700D01*
D30*
X39950Y18000D02*
D03*
Y16500D02*
D03*
X39050Y18000D02*
D03*
Y16500D02*
D03*
D40*
X51450Y2960D02*
D03*
X41700D02*
D03*
X54700D02*
D03*
X48200D02*
D03*
X44950D02*
D03*
X14000Y5730D02*
D03*
D41*
X13450Y27870D02*
D03*
X18530Y25330D02*
D03*
X31230Y27870D02*
D03*
X23610D02*
D03*
X38850Y25330D02*
D03*
X56630D02*
D03*
X43930Y27870D02*
D03*
X49010D02*
D03*
X28690Y25330D02*
D03*
X8370D02*
D03*
X10910D02*
D03*
X13450D02*
D03*
X33770Y27870D02*
D03*
X36310D02*
D03*
Y25330D02*
D03*
X31230D02*
D03*
X33770D02*
D03*
X56630Y27870D02*
D03*
X54090D02*
D03*
X51550D02*
D03*
X46470D02*
D03*
X41390D02*
D03*
X38850D02*
D03*
X28690D02*
D03*
X26150D02*
D03*
X21070D02*
D03*
X18530D02*
D03*
X15990D02*
D03*
X10910D02*
D03*
X54090Y25330D02*
D03*
X51550D02*
D03*
X49010D02*
D03*
X46470D02*
D03*
X43930D02*
D03*
X41390D02*
D03*
X26150D02*
D03*
X23610D02*
D03*
X21070D02*
D03*
X15990D02*
D03*
D42*
X6300Y19800D02*
D03*
X58000Y19500D02*
D03*
Y14500D02*
D03*
X6300Y14800D02*
D03*
Y9800D02*
D03*
D43*
X20320Y15240D02*
D03*
X27940Y20320D02*
D03*
X17780Y15240D02*
D03*
X30480Y20320D02*
D03*
X22860Y15240D02*
D03*
X25400D02*
D03*
X20320Y20320D02*
D03*
X25400D02*
D03*
X22860D02*
D03*
X27940Y15240D02*
D03*
D44*
X31500Y2500D02*
D03*
X29000D02*
D03*
X36500D02*
D03*
X34000D02*
D03*
D45*
X61600Y3700D02*
D03*
Y26700D02*
D03*
X3600Y3700D02*
D03*
Y26700D02*
D03*
D46*
X51450Y8040D02*
D03*
X54700D02*
D03*
X41700D02*
D03*
X44950D02*
D03*
X48200D02*
D03*
X51450Y5500D02*
D03*
X41700D02*
D03*
X54700D02*
D03*
X48200D02*
D03*
X44950D02*
D03*
X14000Y8270D02*
D03*
D47*
X8370Y27870D02*
D03*
D48*
X17780Y20320D02*
D03*
X30480Y15240D02*
D03*
M02*
