G04*
G04 #@! TF.GenerationSoftware,Altium Limited,Altium Designer,26.8.1 (31)*
G04*
G04 Layer_Physical_Order=1*
G04 Layer_Color=255*
G04 Board_Origin=13779528|15748031*
%FSLAX43Y43*%
%MOMM*%
G71*
G04*
G04 #@! TF.SameCoordinates,D528AD27-129B-4EB7-BE98-D6C5A5286594*
G04*
G04*
G04 #@! TF.FilePolarity,Positive*
G04*
G01*
G75*
%ADD11C,0.250*%
%ADD15C,0.200*%
%ADD16C,0.500*%
%ADD17R,0.650X0.650*%
%ADD18O,1.700X0.350*%
%ADD19R,0.650X0.650*%
G04:AMPARAMS|DCode=20|XSize=1.4mm|YSize=1.2mm|CornerRadius=0.3mm|HoleSize=0mm|Usage=FLASHONLY|Rotation=90.000|XOffset=0mm|YOffset=0mm|HoleType=Round|Shape=RoundedRectangle|*
%AMROUNDEDRECTD20*
21,1,1.400,0.600,0,0,90.0*
21,1,0.800,1.200,0,0,90.0*
1,1,0.600,0.300,0.400*
1,1,0.600,0.300,-0.400*
1,1,0.600,-0.300,-0.400*
1,1,0.600,-0.300,0.400*
%
%ADD20ROUNDEDRECTD20*%
G04:AMPARAMS|DCode=21|XSize=2.469mm|YSize=0.622mm|CornerRadius=0.311mm|HoleSize=0mm|Usage=FLASHONLY|Rotation=180.000|XOffset=0mm|YOffset=0mm|HoleType=Round|Shape=RoundedRectangle|*
%AMROUNDEDRECTD21*
21,1,2.469,0.000,0,0,180.0*
21,1,1.847,0.622,0,0,180.0*
1,1,0.622,-0.924,0.000*
1,1,0.622,0.924,0.000*
1,1,0.622,0.924,0.000*
1,1,0.622,-0.924,0.000*
%
%ADD21ROUNDEDRECTD21*%
%ADD22R,0.400X1.350*%
%ADD23R,0.600X1.350*%
%ADD24R,1.500X1.300*%
%ADD25R,0.900X1.200*%
%ADD26R,0.800X0.800*%
%ADD27R,0.800X0.800*%
%ADD28R,2.469X0.622*%
%ADD29R,1.300X1.800*%
%ADD41C,1.390*%
%ADD47R,1.390X1.390*%
%ADD49C,0.300*%
%ADD50C,1.000*%
G04:AMPARAMS|DCode=51|XSize=1.6mm|YSize=1.6mm|CornerRadius=0.4mm|HoleSize=0mm|Usage=FLASHONLY|Rotation=90.000|XOffset=0mm|YOffset=0mm|HoleType=Round|Shape=RoundedRectangle|*
%AMROUNDEDRECTD51*
21,1,1.600,0.800,0,0,90.0*
21,1,0.800,1.600,0,0,90.0*
1,1,0.800,0.400,0.400*
1,1,0.800,0.400,-0.400*
1,1,0.800,-0.400,-0.400*
1,1,0.800,-0.400,0.400*
%
%ADD51ROUNDEDRECTD51*%
%ADD52C,2.500*%
%ADD53C,1.550*%
%ADD54C,1.200*%
%ADD55C,6.100*%
%ADD56C,1.600*%
%ADD57R,1.550X1.550*%
%ADD58C,0.600*%
G36*
X60090Y29690D02*
X59844Y29565D01*
X59418Y29255D01*
X59045Y28882D01*
X58735Y28456D01*
X58495Y27986D01*
X58332Y27484D01*
X58250Y26964D01*
Y26850D01*
X61600D01*
Y26700D01*
X61750D01*
Y23350D01*
X61864D01*
X62384Y23432D01*
X62886Y23595D01*
X63356Y23835D01*
X63782Y24145D01*
X64155Y24518D01*
X64465Y24944D01*
X64496Y25004D01*
X64690Y24958D01*
Y5442D01*
X64496Y5396D01*
X64465Y5456D01*
X64155Y5882D01*
X63782Y6255D01*
X63356Y6565D01*
X62886Y6805D01*
X62384Y6968D01*
X61864Y7050D01*
X61750D01*
Y3700D01*
X61600D01*
Y3550D01*
X58250D01*
Y3436D01*
X58332Y2916D01*
X58495Y2414D01*
X58735Y1944D01*
X59045Y1518D01*
X59418Y1145D01*
X59844Y835D01*
X60090Y710D01*
X60042Y510D01*
X5158D01*
X5110Y710D01*
X5356Y835D01*
X5782Y1145D01*
X6155Y1518D01*
X6465Y1944D01*
X6705Y2414D01*
X6868Y2916D01*
X6950Y3436D01*
Y3550D01*
X3600D01*
Y3700D01*
X3450D01*
Y7050D01*
X3336D01*
X2816Y6968D01*
X2314Y6805D01*
X1844Y6565D01*
X1418Y6255D01*
X1045Y5882D01*
X735Y5456D01*
X704Y5396D01*
X510Y5442D01*
Y24958D01*
X704Y25004D01*
X735Y24944D01*
X1045Y24518D01*
X1418Y24145D01*
X1844Y23835D01*
X2314Y23595D01*
X2816Y23432D01*
X3336Y23350D01*
X3450D01*
Y26700D01*
X3600D01*
Y26850D01*
X6950D01*
Y26964D01*
X6868Y27484D01*
X6705Y27986D01*
X6465Y28456D01*
X6155Y28882D01*
X5782Y29255D01*
X5356Y29565D01*
X5110Y29690D01*
X5158Y29890D01*
X60042D01*
X60090Y29690D01*
D02*
G37*
%LPC*%
G36*
X11054Y28965D02*
X10766D01*
X10487Y28890D01*
X10292Y28778D01*
X9465D01*
Y28965D01*
X7275D01*
Y26775D01*
X9465D01*
Y26962D01*
X10292D01*
X10487Y26850D01*
X10766Y26775D01*
X11054D01*
X11333Y26850D01*
X11582Y26994D01*
X11786Y27198D01*
X11930Y27447D01*
X12005Y27726D01*
Y28014D01*
X11930Y28293D01*
X11786Y28542D01*
X11582Y28746D01*
X11333Y28890D01*
X11054Y28965D01*
D02*
G37*
G36*
X49160Y28860D02*
Y28020D01*
X50000D01*
X49937Y28254D01*
X49806Y28481D01*
X49621Y28666D01*
X49394Y28797D01*
X49160Y28860D01*
D02*
G37*
G36*
X48860D02*
X48626Y28797D01*
X48399Y28666D01*
X48214Y28481D01*
X48083Y28254D01*
X48020Y28020D01*
X48860D01*
Y28860D01*
D02*
G37*
G36*
X44080D02*
Y28020D01*
X44920D01*
X44857Y28254D01*
X44726Y28481D01*
X44541Y28666D01*
X44314Y28797D01*
X44080Y28860D01*
D02*
G37*
G36*
X43780D02*
X43546Y28797D01*
X43319Y28666D01*
X43134Y28481D01*
X43003Y28254D01*
X42940Y28020D01*
X43780D01*
Y28860D01*
D02*
G37*
G36*
X31380D02*
Y28020D01*
X32220D01*
X32157Y28254D01*
X32026Y28481D01*
X31841Y28666D01*
X31614Y28797D01*
X31380Y28860D01*
D02*
G37*
G36*
X31080D02*
X30846Y28797D01*
X30619Y28666D01*
X30434Y28481D01*
X30303Y28254D01*
X30240Y28020D01*
X31080D01*
Y28860D01*
D02*
G37*
G36*
X23760D02*
Y28020D01*
X24600D01*
X24537Y28254D01*
X24406Y28481D01*
X24221Y28666D01*
X23994Y28797D01*
X23760Y28860D01*
D02*
G37*
G36*
X23460D02*
X23226Y28797D01*
X22999Y28666D01*
X22814Y28481D01*
X22683Y28254D01*
X22620Y28020D01*
X23460D01*
Y28860D01*
D02*
G37*
G36*
X13600D02*
Y28020D01*
X14440D01*
X14377Y28254D01*
X14246Y28481D01*
X14061Y28666D01*
X13834Y28797D01*
X13600Y28860D01*
D02*
G37*
G36*
X13300D02*
X13066Y28797D01*
X12839Y28666D01*
X12654Y28481D01*
X12523Y28254D01*
X12460Y28020D01*
X13300D01*
Y28860D01*
D02*
G37*
G36*
X36454Y28965D02*
X36166D01*
X35887Y28890D01*
X35638Y28746D01*
X35434Y28542D01*
X35290Y28293D01*
X35215Y28014D01*
Y27726D01*
X35264Y27545D01*
X34978Y27259D01*
X34917Y27267D01*
X34836Y27382D01*
X34800Y27484D01*
X34865Y27726D01*
Y28014D01*
X34790Y28293D01*
X34646Y28542D01*
X34442Y28746D01*
X34193Y28890D01*
X33914Y28965D01*
X33626D01*
X33347Y28890D01*
X33098Y28746D01*
X32894Y28542D01*
X32750Y28293D01*
X32675Y28014D01*
Y27726D01*
X32750Y27447D01*
X32868Y27242D01*
X32893Y27194D01*
X32821Y26988D01*
X32787Y26966D01*
X32114Y26292D01*
X32108Y26284D01*
X31902Y26206D01*
X31653Y26350D01*
X31374Y26425D01*
X31086D01*
X30807Y26350D01*
X30558Y26206D01*
X30354Y26002D01*
X30210Y25753D01*
X30135Y25474D01*
Y25186D01*
X30210Y24907D01*
X30354Y24658D01*
X30558Y24454D01*
X30807Y24310D01*
X31086Y24235D01*
X31374D01*
X31653Y24310D01*
X31764Y24374D01*
X31964Y24259D01*
Y11026D01*
X32003Y10831D01*
X32114Y10665D01*
X33407Y9372D01*
X33348Y9270D01*
X33300Y9092D01*
Y9071D01*
X33163D01*
X32985Y9023D01*
X32826Y8931D01*
X32695Y8801D01*
X32603Y8641D01*
X32556Y8463D01*
Y8279D01*
X32603Y8101D01*
X32695Y7941D01*
X32826Y7811D01*
X32985Y7719D01*
X33163Y7671D01*
X33348D01*
X33417Y7689D01*
X33520Y7510D01*
X33440Y7430D01*
X33348Y7270D01*
X33300Y7092D01*
Y6908D01*
X33348Y6730D01*
X33440Y6570D01*
X33570Y6440D01*
X33730Y6348D01*
X33826Y6322D01*
X33848Y6270D01*
X33800Y6092D01*
Y5908D01*
X33848Y5730D01*
X33940Y5570D01*
X34070Y5440D01*
X34230Y5348D01*
X34408Y5300D01*
X34592D01*
X34685Y5325D01*
X34847Y5194D01*
X34858Y5173D01*
X34839Y5075D01*
X34883Y4851D01*
X35010Y4660D01*
X35201Y4533D01*
X35425Y4489D01*
X36775D01*
X36999Y4533D01*
X37190Y4660D01*
X37317Y4851D01*
X37361Y5075D01*
X37317Y5299D01*
X37249Y5400D01*
X37317Y5501D01*
X37361Y5725D01*
X37317Y5949D01*
X37249Y6050D01*
X37317Y6151D01*
X37361Y6375D01*
X37317Y6599D01*
X37249Y6700D01*
X37317Y6801D01*
X37361Y7025D01*
X37317Y7249D01*
X37249Y7350D01*
X37317Y7451D01*
X37361Y7675D01*
X37317Y7899D01*
X37249Y8000D01*
X37317Y8101D01*
X37361Y8325D01*
X37317Y8549D01*
X37249Y8650D01*
X37317Y8751D01*
X37361Y8975D01*
X37317Y9199D01*
X37271Y9268D01*
X37395Y9425D01*
X37850D01*
Y10050D01*
X38000D01*
Y10200D01*
X38625D01*
Y10225D01*
X38725D01*
Y11360D01*
X38810Y11445D01*
X38902Y11605D01*
X38950Y11783D01*
Y11967D01*
X38902Y12145D01*
X38810Y12305D01*
X38680Y12435D01*
X38520Y12527D01*
X38343Y12575D01*
X37897Y13022D01*
X37715Y13143D01*
X37500Y13186D01*
X36425D01*
Y13350D01*
X34075D01*
Y12621D01*
X33890Y12435D01*
X33779Y12270D01*
X33740Y12075D01*
Y10764D01*
X33540Y10681D01*
X32984Y11237D01*
Y14333D01*
X33184Y14452D01*
X33283Y14425D01*
X33467D01*
X33645Y14473D01*
X33805Y14565D01*
X33935Y14695D01*
X34027Y14855D01*
X34075Y15033D01*
Y15217D01*
X34027Y15395D01*
X33935Y15555D01*
X33885Y15605D01*
Y19539D01*
X36090Y21744D01*
X36275Y21668D01*
Y20725D01*
X36375D01*
Y20700D01*
X37000D01*
X37709D01*
X37725Y20725D01*
X37908Y20800D01*
X38092D01*
X38275Y20692D01*
Y19610D01*
X40975D01*
Y19710D01*
X40975D01*
Y20685D01*
X41175D01*
Y19710D01*
X41525D01*
Y20685D01*
Y21660D01*
X40975D01*
Y21760D01*
X40885D01*
Y22275D01*
X42175D01*
Y22275D01*
X42227Y22315D01*
X42283Y22300D01*
X42467D01*
X42645Y22348D01*
X42805Y22440D01*
X42935Y22570D01*
X43027Y22730D01*
X43075Y22908D01*
Y23092D01*
X43027Y23270D01*
X42935Y23430D01*
X42805Y23560D01*
X42645Y23652D01*
X42467Y23700D01*
X42283D01*
X42227Y23685D01*
X42175Y23725D01*
Y23725D01*
X40546D01*
X39910Y24360D01*
X39745Y24471D01*
X39692Y24482D01*
X39626Y24699D01*
X39646Y24719D01*
X39777Y24946D01*
X39840Y25180D01*
X37860D01*
X37923Y24946D01*
X38054Y24719D01*
X38063Y24710D01*
X37980Y24510D01*
X37297D01*
X37216Y24710D01*
X37330Y24907D01*
X37405Y25186D01*
Y25474D01*
X37330Y25753D01*
X37186Y26002D01*
X36982Y26206D01*
X36733Y26350D01*
X36454Y26425D01*
X36166D01*
X35887Y26350D01*
X35667Y26223D01*
X35544Y26383D01*
X35985Y26824D01*
X36166Y26775D01*
X36454D01*
X36733Y26850D01*
X36982Y26994D01*
X37186Y27198D01*
X37330Y27447D01*
X37405Y27726D01*
Y28014D01*
X37330Y28293D01*
X37186Y28542D01*
X36982Y28746D01*
X36733Y28890D01*
X36454Y28965D01*
D02*
G37*
G36*
X21214D02*
X20926D01*
X20647Y28890D01*
X20398Y28746D01*
X20194Y28542D01*
X20050Y28293D01*
X19975Y28014D01*
Y27726D01*
X20050Y27447D01*
X20177Y27227D01*
X20017Y27104D01*
X19576Y27545D01*
X19625Y27726D01*
Y28014D01*
X19550Y28293D01*
X19406Y28542D01*
X19202Y28746D01*
X18953Y28890D01*
X18674Y28965D01*
X18386D01*
X18107Y28890D01*
X17858Y28746D01*
X17654Y28542D01*
X17510Y28293D01*
X17435Y28014D01*
Y27726D01*
X17510Y27447D01*
X17637Y27227D01*
X17477Y27104D01*
X17036Y27545D01*
X17085Y27726D01*
Y28014D01*
X17010Y28293D01*
X16866Y28542D01*
X16662Y28746D01*
X16413Y28890D01*
X16134Y28965D01*
X15846D01*
X15567Y28890D01*
X15318Y28746D01*
X15114Y28542D01*
X14970Y28293D01*
X14895Y28014D01*
Y27726D01*
X14970Y27447D01*
X15114Y27198D01*
X15318Y26994D01*
X15567Y26850D01*
X15846Y26775D01*
X16134D01*
X16315Y26824D01*
X16651Y26488D01*
X16645Y26447D01*
X16428Y26342D01*
X16413Y26350D01*
X16134Y26425D01*
X15846D01*
X15567Y26350D01*
X15318Y26206D01*
X15114Y26002D01*
X14970Y25753D01*
X14895Y25474D01*
Y25186D01*
X14970Y24907D01*
X15114Y24658D01*
X15318Y24454D01*
X15480Y24360D01*
Y22110D01*
X15519Y21915D01*
X15630Y21750D01*
X16605Y20774D01*
Y19399D01*
X16405Y19316D01*
X13960Y21761D01*
Y24360D01*
X14122Y24454D01*
X14326Y24658D01*
X14470Y24907D01*
X14545Y25186D01*
Y25474D01*
X14470Y25753D01*
X14326Y26002D01*
X14122Y26206D01*
X13873Y26350D01*
X13594Y26425D01*
X13306D01*
X13027Y26350D01*
X12778Y26206D01*
X12574Y26002D01*
X12430Y25753D01*
X12355Y25474D01*
Y25186D01*
X12430Y24907D01*
X12574Y24658D01*
X12778Y24454D01*
X12940Y24360D01*
Y22042D01*
X12755Y21966D01*
X11420Y23301D01*
Y24360D01*
X11582Y24454D01*
X11786Y24658D01*
X11930Y24907D01*
X12005Y25186D01*
Y25474D01*
X11930Y25753D01*
X11786Y26002D01*
X11582Y26206D01*
X11333Y26350D01*
X11054Y26425D01*
X10766D01*
X10487Y26350D01*
X10238Y26206D01*
X10034Y26002D01*
X9890Y25753D01*
X9815Y25474D01*
Y25186D01*
X9890Y24907D01*
X10034Y24658D01*
X10238Y24454D01*
X10400Y24360D01*
Y23090D01*
X10439Y22895D01*
X10550Y22730D01*
X14694Y18585D01*
X14618Y18400D01*
X14150D01*
Y17450D01*
X14000D01*
Y17300D01*
X12950D01*
Y16600D01*
X12850D01*
Y16458D01*
X12451D01*
X10908Y18001D01*
Y21250D01*
X10877Y21485D01*
X10786Y21704D01*
X10642Y21892D01*
X9278Y23256D01*
Y24712D01*
X9390Y24907D01*
X9465Y25186D01*
Y25474D01*
X9390Y25753D01*
X9246Y26002D01*
X9042Y26206D01*
X8793Y26350D01*
X8514Y26425D01*
X8226D01*
X7947Y26350D01*
X7698Y26206D01*
X7494Y26002D01*
X7350Y25753D01*
X7275Y25474D01*
Y25186D01*
X7350Y24907D01*
X7462Y24712D01*
Y22880D01*
X7493Y22645D01*
X7584Y22426D01*
X7728Y22238D01*
X9092Y20874D01*
Y17625D01*
X9123Y17390D01*
X9214Y17171D01*
X9358Y16983D01*
X11433Y14908D01*
X11621Y14764D01*
X11840Y14673D01*
X12075Y14642D01*
X12850D01*
Y14500D01*
X15150D01*
Y14642D01*
X16768D01*
X16840Y14519D01*
X17059Y14300D01*
X17326Y14145D01*
X17625Y14065D01*
X17935D01*
X18234Y14145D01*
X18501Y14300D01*
X18720Y14519D01*
X18875Y14786D01*
X18955Y15085D01*
Y15395D01*
X18875Y15694D01*
X18720Y15961D01*
X18501Y16180D01*
X18311Y16290D01*
X18365Y16490D01*
X20060D01*
X20086Y16290D01*
X19905Y16242D01*
X19660Y16100D01*
X19460Y15900D01*
X19318Y15655D01*
X19247Y15390D01*
X20320D01*
X21393D01*
X21322Y15655D01*
X21180Y15900D01*
X20980Y16100D01*
X20735Y16242D01*
X20554Y16290D01*
X20580Y16490D01*
X20889D01*
X21748Y15631D01*
X21685Y15395D01*
Y15085D01*
X21765Y14786D01*
X21920Y14519D01*
X22139Y14300D01*
X22406Y14145D01*
X22705Y14065D01*
X23015D01*
X23314Y14145D01*
X23581Y14300D01*
X23800Y14519D01*
X23955Y14786D01*
X24035Y15085D01*
X24225D01*
X24305Y14786D01*
X24460Y14519D01*
X24679Y14300D01*
X24946Y14145D01*
X25245Y14065D01*
X25555D01*
X25854Y14145D01*
X26121Y14300D01*
X26340Y14519D01*
X26495Y14786D01*
X26575Y15085D01*
X26765D01*
X26845Y14786D01*
X27000Y14519D01*
X27219Y14300D01*
X27486Y14145D01*
X27785Y14065D01*
X28095D01*
X28394Y14145D01*
X28661Y14300D01*
X28880Y14519D01*
X29035Y14786D01*
X29105Y15048D01*
X29305Y15022D01*
Y14065D01*
X31655D01*
Y16415D01*
X30990D01*
Y17270D01*
X30951Y17465D01*
X30840Y17630D01*
X29760Y18711D01*
Y19179D01*
X29933Y19279D01*
X30026Y19225D01*
X30325Y19145D01*
X30635D01*
X30934Y19225D01*
X31201Y19380D01*
X31420Y19599D01*
X31575Y19866D01*
X31655Y20165D01*
Y20475D01*
X31575Y20774D01*
X31420Y21041D01*
X31388Y21074D01*
Y22020D01*
X31357Y22255D01*
X31266Y22474D01*
X31122Y22662D01*
X29598Y24186D01*
Y24712D01*
X29710Y24907D01*
X29785Y25186D01*
Y25474D01*
X29710Y25753D01*
X29566Y26002D01*
X29362Y26206D01*
X29113Y26350D01*
X28834Y26425D01*
X28546D01*
X28267Y26350D01*
X28018Y26206D01*
X27814Y26002D01*
X27670Y25753D01*
X27595Y25474D01*
Y25186D01*
X27670Y24907D01*
X27782Y24712D01*
Y23810D01*
X27796Y23708D01*
X27606Y23615D01*
X26816Y24405D01*
X26822Y24454D01*
X27026Y24658D01*
X27170Y24907D01*
X27245Y25186D01*
Y25474D01*
X27170Y25753D01*
X27026Y26002D01*
X26822Y26206D01*
X26573Y26350D01*
X26294Y26425D01*
X26006D01*
X25727Y26350D01*
X25478Y26206D01*
X25274Y26002D01*
X25130Y25753D01*
X25055Y25474D01*
Y25186D01*
X25130Y24907D01*
X25257Y24687D01*
X25097Y24564D01*
X24656Y25005D01*
X24705Y25186D01*
Y25474D01*
X24630Y25753D01*
X24486Y26002D01*
X24282Y26206D01*
X24033Y26350D01*
X23754Y26425D01*
X23466D01*
X23187Y26350D01*
X22938Y26206D01*
X22734Y26002D01*
X22590Y25753D01*
X22515Y25474D01*
Y25186D01*
X22590Y24907D01*
X22717Y24687D01*
X22557Y24564D01*
X22116Y25005D01*
X22165Y25186D01*
Y25474D01*
X22090Y25753D01*
X21946Y26002D01*
X21742Y26206D01*
X21493Y26350D01*
X21214Y26425D01*
X20926D01*
X20647Y26350D01*
X20528Y26281D01*
X20328Y26397D01*
Y26582D01*
X20289Y26777D01*
X20203Y26905D01*
X20359Y27033D01*
X20398Y26994D01*
X20647Y26850D01*
X20926Y26775D01*
X21214D01*
X21493Y26850D01*
X21742Y26994D01*
X21946Y27198D01*
X22090Y27447D01*
X22165Y27726D01*
Y28014D01*
X22090Y28293D01*
X21946Y28542D01*
X21742Y28746D01*
X21493Y28890D01*
X21214Y28965D01*
D02*
G37*
G36*
X50000Y27720D02*
X49160D01*
Y26880D01*
X49394Y26943D01*
X49621Y27074D01*
X49806Y27259D01*
X49937Y27486D01*
X50000Y27720D01*
D02*
G37*
G36*
X48860D02*
X48020D01*
X48083Y27486D01*
X48214Y27259D01*
X48399Y27074D01*
X48626Y26943D01*
X48860Y26880D01*
Y27720D01*
D02*
G37*
G36*
X44920D02*
X44080D01*
Y26880D01*
X44314Y26943D01*
X44541Y27074D01*
X44726Y27259D01*
X44857Y27486D01*
X44920Y27720D01*
D02*
G37*
G36*
X43780D02*
X42940D01*
X43003Y27486D01*
X43134Y27259D01*
X43319Y27074D01*
X43546Y26943D01*
X43780Y26880D01*
Y27720D01*
D02*
G37*
G36*
X32220D02*
X31380D01*
Y26880D01*
X31614Y26943D01*
X31841Y27074D01*
X32026Y27259D01*
X32157Y27486D01*
X32220Y27720D01*
D02*
G37*
G36*
X31080D02*
X30240D01*
X30303Y27486D01*
X30434Y27259D01*
X30619Y27074D01*
X30846Y26943D01*
X31080Y26880D01*
Y27720D01*
D02*
G37*
G36*
X24600D02*
X23760D01*
Y26880D01*
X23994Y26943D01*
X24221Y27074D01*
X24406Y27259D01*
X24537Y27486D01*
X24600Y27720D01*
D02*
G37*
G36*
X23460D02*
X22620D01*
X22683Y27486D01*
X22814Y27259D01*
X22999Y27074D01*
X23226Y26943D01*
X23460Y26880D01*
Y27720D01*
D02*
G37*
G36*
X14440D02*
X13600D01*
Y26880D01*
X13834Y26943D01*
X14061Y27074D01*
X14246Y27259D01*
X14377Y27486D01*
X14440Y27720D01*
D02*
G37*
G36*
X13300D02*
X12460D01*
X12523Y27486D01*
X12654Y27259D01*
X12839Y27074D01*
X13066Y26943D01*
X13300Y26880D01*
Y27720D01*
D02*
G37*
G36*
X56774Y28965D02*
X56486D01*
X56207Y28890D01*
X55958Y28746D01*
X55754Y28542D01*
X55610Y28293D01*
X55535Y28014D01*
Y27726D01*
X55610Y27447D01*
X55754Y27198D01*
X55958Y26994D01*
X56207Y26850D01*
X56486Y26775D01*
X56774D01*
X57053Y26850D01*
X57302Y26994D01*
X57506Y27198D01*
X57650Y27447D01*
X57725Y27726D01*
Y28014D01*
X57650Y28293D01*
X57506Y28542D01*
X57302Y28746D01*
X57053Y28890D01*
X56774Y28965D01*
D02*
G37*
G36*
X54234D02*
X53946D01*
X53667Y28890D01*
X53418Y28746D01*
X53214Y28542D01*
X53070Y28293D01*
X52995Y28014D01*
Y27726D01*
X53070Y27447D01*
X53214Y27198D01*
X53418Y26994D01*
X53667Y26850D01*
X53946Y26775D01*
X54234D01*
X54513Y26850D01*
X54762Y26994D01*
X54966Y27198D01*
X55110Y27447D01*
X55185Y27726D01*
Y28014D01*
X55110Y28293D01*
X54966Y28542D01*
X54762Y28746D01*
X54513Y28890D01*
X54234Y28965D01*
D02*
G37*
G36*
X51694D02*
X51406D01*
X51127Y28890D01*
X50878Y28746D01*
X50674Y28542D01*
X50530Y28293D01*
X50455Y28014D01*
Y27726D01*
X50530Y27447D01*
X50674Y27198D01*
X50878Y26994D01*
X51127Y26850D01*
X51406Y26775D01*
X51694D01*
X51973Y26850D01*
X52222Y26994D01*
X52426Y27198D01*
X52570Y27447D01*
X52645Y27726D01*
Y28014D01*
X52570Y28293D01*
X52426Y28542D01*
X52222Y28746D01*
X51973Y28890D01*
X51694Y28965D01*
D02*
G37*
G36*
X46614D02*
X46326D01*
X46047Y28890D01*
X45798Y28746D01*
X45594Y28542D01*
X45450Y28293D01*
X45375Y28014D01*
Y27726D01*
X45450Y27447D01*
X45594Y27198D01*
X45798Y26994D01*
X46047Y26850D01*
X46326Y26775D01*
X46614D01*
X46893Y26850D01*
X47142Y26994D01*
X47346Y27198D01*
X47490Y27447D01*
X47565Y27726D01*
Y28014D01*
X47490Y28293D01*
X47346Y28542D01*
X47142Y28746D01*
X46893Y28890D01*
X46614Y28965D01*
D02*
G37*
G36*
X41534D02*
X41246D01*
X40967Y28890D01*
X40718Y28746D01*
X40514Y28542D01*
X40370Y28293D01*
X40295Y28014D01*
Y27726D01*
X40370Y27447D01*
X40514Y27198D01*
X40718Y26994D01*
X40967Y26850D01*
X41246Y26775D01*
X41534D01*
X41813Y26850D01*
X42062Y26994D01*
X42266Y27198D01*
X42410Y27447D01*
X42485Y27726D01*
Y28014D01*
X42410Y28293D01*
X42266Y28542D01*
X42062Y28746D01*
X41813Y28890D01*
X41534Y28965D01*
D02*
G37*
G36*
X38994D02*
X38706D01*
X38427Y28890D01*
X38178Y28746D01*
X37974Y28542D01*
X37830Y28293D01*
X37755Y28014D01*
Y27726D01*
X37830Y27447D01*
X37974Y27198D01*
X38178Y26994D01*
X38427Y26850D01*
X38706Y26775D01*
X38994D01*
X39273Y26850D01*
X39522Y26994D01*
X39726Y27198D01*
X39870Y27447D01*
X39945Y27726D01*
Y28014D01*
X39870Y28293D01*
X39726Y28542D01*
X39522Y28746D01*
X39273Y28890D01*
X38994Y28965D01*
D02*
G37*
G36*
X28834D02*
X28546D01*
X28267Y28890D01*
X28018Y28746D01*
X27814Y28542D01*
X27670Y28293D01*
X27595Y28014D01*
Y27726D01*
X27670Y27447D01*
X27814Y27198D01*
X28018Y26994D01*
X28267Y26850D01*
X28546Y26775D01*
X28834D01*
X29113Y26850D01*
X29362Y26994D01*
X29566Y27198D01*
X29710Y27447D01*
X29785Y27726D01*
Y28014D01*
X29710Y28293D01*
X29566Y28542D01*
X29362Y28746D01*
X29113Y28890D01*
X28834Y28965D01*
D02*
G37*
G36*
X26294D02*
X26006D01*
X25727Y28890D01*
X25478Y28746D01*
X25274Y28542D01*
X25130Y28293D01*
X25055Y28014D01*
Y27726D01*
X25130Y27447D01*
X25274Y27198D01*
X25478Y26994D01*
X25727Y26850D01*
X26006Y26775D01*
X26294D01*
X26573Y26850D01*
X26822Y26994D01*
X27026Y27198D01*
X27170Y27447D01*
X27245Y27726D01*
Y28014D01*
X27170Y28293D01*
X27026Y28542D01*
X26822Y28746D01*
X26573Y28890D01*
X26294Y28965D01*
D02*
G37*
G36*
X56780Y26320D02*
Y25480D01*
X57620D01*
X57557Y25714D01*
X57426Y25941D01*
X57241Y26126D01*
X57014Y26257D01*
X56780Y26320D01*
D02*
G37*
G36*
X56480D02*
X56246Y26257D01*
X56019Y26126D01*
X55834Y25941D01*
X55703Y25714D01*
X55640Y25480D01*
X56480D01*
Y26320D01*
D02*
G37*
G36*
X39000D02*
Y25480D01*
X39840D01*
X39777Y25714D01*
X39646Y25941D01*
X39461Y26126D01*
X39234Y26257D01*
X39000Y26320D01*
D02*
G37*
G36*
X38700D02*
X38466Y26257D01*
X38239Y26126D01*
X38054Y25941D01*
X37923Y25714D01*
X37860Y25480D01*
X38700D01*
Y26320D01*
D02*
G37*
G36*
X57620Y25180D02*
X56780D01*
Y24340D01*
X57014Y24403D01*
X57241Y24534D01*
X57426Y24719D01*
X57557Y24946D01*
X57620Y25180D01*
D02*
G37*
G36*
X56480D02*
X55640D01*
X55703Y24946D01*
X55834Y24719D01*
X56019Y24534D01*
X56246Y24403D01*
X56480Y24340D01*
Y25180D01*
D02*
G37*
G36*
X54234Y26425D02*
X53946D01*
X53667Y26350D01*
X53418Y26206D01*
X53214Y26002D01*
X53070Y25753D01*
X52995Y25474D01*
Y25186D01*
X53070Y24907D01*
X53214Y24658D01*
X53418Y24454D01*
X53667Y24310D01*
X53946Y24235D01*
X54234D01*
X54513Y24310D01*
X54762Y24454D01*
X54966Y24658D01*
X55110Y24907D01*
X55185Y25186D01*
Y25474D01*
X55110Y25753D01*
X54966Y26002D01*
X54762Y26206D01*
X54513Y26350D01*
X54234Y26425D01*
D02*
G37*
G36*
X51694D02*
X51406D01*
X51127Y26350D01*
X50878Y26206D01*
X50674Y26002D01*
X50530Y25753D01*
X50455Y25474D01*
Y25186D01*
X50530Y24907D01*
X50674Y24658D01*
X50878Y24454D01*
X51127Y24310D01*
X51406Y24235D01*
X51694D01*
X51973Y24310D01*
X52222Y24454D01*
X52426Y24658D01*
X52570Y24907D01*
X52645Y25186D01*
Y25474D01*
X52570Y25753D01*
X52426Y26002D01*
X52222Y26206D01*
X51973Y26350D01*
X51694Y26425D01*
D02*
G37*
G36*
X49154D02*
X48866D01*
X48587Y26350D01*
X48338Y26206D01*
X48134Y26002D01*
X47990Y25753D01*
X47915Y25474D01*
Y25186D01*
X47990Y24907D01*
X48134Y24658D01*
X48338Y24454D01*
X48587Y24310D01*
X48866Y24235D01*
X49154D01*
X49433Y24310D01*
X49682Y24454D01*
X49886Y24658D01*
X50030Y24907D01*
X50105Y25186D01*
Y25474D01*
X50030Y25753D01*
X49886Y26002D01*
X49682Y26206D01*
X49433Y26350D01*
X49154Y26425D01*
D02*
G37*
G36*
X46614D02*
X46326D01*
X46047Y26350D01*
X45798Y26206D01*
X45594Y26002D01*
X45450Y25753D01*
X45375Y25474D01*
Y25186D01*
X45450Y24907D01*
X45594Y24658D01*
X45798Y24454D01*
X46047Y24310D01*
X46326Y24235D01*
X46614D01*
X46893Y24310D01*
X47142Y24454D01*
X47346Y24658D01*
X47490Y24907D01*
X47565Y25186D01*
Y25474D01*
X47490Y25753D01*
X47346Y26002D01*
X47142Y26206D01*
X46893Y26350D01*
X46614Y26425D01*
D02*
G37*
G36*
X44074D02*
X43786D01*
X43507Y26350D01*
X43258Y26206D01*
X43054Y26002D01*
X42910Y25753D01*
X42835Y25474D01*
Y25186D01*
X42910Y24907D01*
X43054Y24658D01*
X43258Y24454D01*
X43507Y24310D01*
X43786Y24235D01*
X44074D01*
X44353Y24310D01*
X44602Y24454D01*
X44806Y24658D01*
X44950Y24907D01*
X45025Y25186D01*
Y25474D01*
X44950Y25753D01*
X44806Y26002D01*
X44602Y26206D01*
X44353Y26350D01*
X44074Y26425D01*
D02*
G37*
G36*
X41534D02*
X41246D01*
X40967Y26350D01*
X40718Y26206D01*
X40514Y26002D01*
X40370Y25753D01*
X40295Y25474D01*
Y25186D01*
X40370Y24907D01*
X40514Y24658D01*
X40718Y24454D01*
X40967Y24310D01*
X41246Y24235D01*
X41534D01*
X41813Y24310D01*
X42062Y24454D01*
X42266Y24658D01*
X42410Y24907D01*
X42485Y25186D01*
Y25474D01*
X42410Y25753D01*
X42266Y26002D01*
X42062Y26206D01*
X41813Y26350D01*
X41534Y26425D01*
D02*
G37*
G36*
X61450Y26550D02*
X58250D01*
Y26436D01*
X58332Y25916D01*
X58495Y25414D01*
X58735Y24944D01*
X59045Y24518D01*
X59418Y24145D01*
X59844Y23835D01*
X60314Y23595D01*
X60816Y23432D01*
X61336Y23350D01*
X61450D01*
Y26550D01*
D02*
G37*
G36*
X6950D02*
X3750D01*
Y23350D01*
X3864D01*
X4384Y23432D01*
X4886Y23595D01*
X5356Y23835D01*
X5782Y24145D01*
X6155Y24518D01*
X6465Y24944D01*
X6705Y25414D01*
X6868Y25916D01*
X6950Y26436D01*
Y26550D01*
D02*
G37*
G36*
X52050Y22300D02*
X48950D01*
Y21421D01*
X48640Y21110D01*
X48529Y20945D01*
X48525Y20925D01*
X48325Y20945D01*
Y21760D01*
X42375D01*
Y21660D01*
X42375D01*
Y20685D01*
Y19710D01*
X42375D01*
Y19610D01*
X47651D01*
X47728Y19425D01*
X45865Y17562D01*
X45754Y17397D01*
X45715Y17202D01*
Y15910D01*
X41725D01*
Y15810D01*
X41725D01*
Y14835D01*
X41525D01*
Y15810D01*
X41175D01*
Y14835D01*
Y13860D01*
X41725D01*
Y13760D01*
X41815D01*
Y9240D01*
X41542D01*
X41237Y9158D01*
X40963Y9000D01*
X40740Y8777D01*
X40582Y8503D01*
X40500Y8198D01*
Y7882D01*
X40582Y7577D01*
X40740Y7303D01*
X40963Y7080D01*
X41237Y6922D01*
X41417Y6874D01*
Y6666D01*
X41237Y6618D01*
X40963Y6460D01*
X40740Y6237D01*
X40582Y5963D01*
X40500Y5658D01*
Y5356D01*
X40150D01*
Y5600D01*
X40050D01*
Y6300D01*
X37950D01*
Y5600D01*
X37850D01*
Y4777D01*
X36573Y3500D01*
X36368D01*
X36114Y3432D01*
X35886Y3300D01*
X35700Y3114D01*
X35568Y2886D01*
X35500Y2632D01*
Y2368D01*
X35568Y2114D01*
X35700Y1886D01*
X35886Y1700D01*
X36114Y1568D01*
X36368Y1500D01*
X36632D01*
X36886Y1568D01*
X37114Y1700D01*
X37300Y1886D01*
X37432Y2114D01*
X37500Y2368D01*
Y2573D01*
X38427Y3500D01*
X40150D01*
Y4044D01*
X40714D01*
X40777Y3909D01*
X40789Y3844D01*
X40689Y3713D01*
X40618Y3543D01*
X40594Y3360D01*
Y3110D01*
X41550D01*
Y4146D01*
X41504Y4266D01*
X41542Y4300D01*
X41858D01*
X42163Y4382D01*
X42437Y4540D01*
X42489Y4592D01*
X44161D01*
X44213Y4540D01*
X44487Y4382D01*
X44792Y4300D01*
X45108D01*
X45413Y4382D01*
X45687Y4540D01*
X45739Y4592D01*
X47411D01*
X47463Y4540D01*
X47737Y4382D01*
X48042Y4300D01*
X48358D01*
X48663Y4382D01*
X48937Y4540D01*
X48989Y4592D01*
X50661D01*
X50713Y4540D01*
X50987Y4382D01*
X51292Y4300D01*
X51608D01*
X51913Y4382D01*
X52187Y4540D01*
X52239Y4592D01*
X53911D01*
X53963Y4540D01*
X54237Y4382D01*
X54542Y4300D01*
X54858D01*
X55163Y4382D01*
X55437Y4540D01*
X55489Y4592D01*
X56000D01*
X56235Y4623D01*
X56454Y4714D01*
X56642Y4858D01*
X58642Y6858D01*
X58642Y6858D01*
X58786Y7046D01*
X58877Y7265D01*
X58908Y7500D01*
X58908Y7500D01*
Y13122D01*
X59052Y13218D01*
X59282Y13448D01*
X59462Y13718D01*
X59587Y14019D01*
X59650Y14337D01*
Y14663D01*
X59587Y14981D01*
X59462Y15282D01*
X59282Y15552D01*
X59052Y15782D01*
X58782Y15962D01*
X58481Y16087D01*
X58163Y16150D01*
X57837D01*
X57519Y16087D01*
X57218Y15962D01*
X56948Y15782D01*
X56718Y15552D01*
X56538Y15282D01*
X56413Y14981D01*
X56350Y14663D01*
Y14337D01*
X56413Y14019D01*
X56538Y13718D01*
X56718Y13448D01*
X56948Y13218D01*
X57092Y13122D01*
Y7876D01*
X55624Y6408D01*
X55489D01*
X55437Y6460D01*
X55163Y6618D01*
X54983Y6666D01*
Y6874D01*
X55163Y6922D01*
X55437Y7080D01*
X55660Y7303D01*
X55818Y7577D01*
X55900Y7882D01*
Y8198D01*
X55818Y8503D01*
X55660Y8777D01*
X55437Y9000D01*
X55163Y9158D01*
X54858Y9240D01*
X54542D01*
X54289Y9172D01*
X52432Y11029D01*
X52267Y11139D01*
X52072Y11178D01*
X51660D01*
X51584Y11363D01*
X51860Y11640D01*
X51971Y11805D01*
X52000Y11950D01*
X52300D01*
Y13450D01*
Y15050D01*
X52010D01*
Y15600D01*
X52575D01*
Y17600D01*
X49425D01*
Y16321D01*
X49140Y16035D01*
X49029Y15870D01*
X48990Y15675D01*
Y15050D01*
X48700D01*
Y13263D01*
X47958D01*
X47561Y13660D01*
X47644Y13860D01*
X48225D01*
Y14685D01*
X47625D01*
Y14835D01*
X47475D01*
Y15810D01*
X47475D01*
Y15910D01*
X46735D01*
Y16991D01*
X48108Y18364D01*
X48329Y18301D01*
X48348Y18230D01*
X48440Y18070D01*
X48570Y17940D01*
X48730Y17848D01*
X48908Y17800D01*
X49092D01*
X49270Y17848D01*
X49429Y17939D01*
X49525D01*
X49740Y17982D01*
X49922Y18103D01*
X50218Y18400D01*
X52575D01*
Y20400D01*
X52235D01*
Y20462D01*
X52196Y20658D01*
X52085Y20823D01*
X52060Y20849D01*
Y21200D01*
X52050Y21249D01*
Y22300D01*
D02*
G37*
G36*
X6453Y21350D02*
X6450D01*
Y19950D01*
X7850D01*
Y19953D01*
X7790Y20252D01*
X7674Y20534D01*
X7504Y20788D01*
X7288Y21004D01*
X7034Y21174D01*
X6752Y21290D01*
X6453Y21350D01*
D02*
G37*
G36*
X6150D02*
X6147D01*
X5848Y21290D01*
X5566Y21174D01*
X5312Y21004D01*
X5096Y20788D01*
X4926Y20534D01*
X4810Y20252D01*
X4750Y19953D01*
Y19950D01*
X6150D01*
Y21350D01*
D02*
G37*
G36*
X37625Y20400D02*
X37150D01*
Y19925D01*
X37625D01*
Y20400D01*
D02*
G37*
G36*
X36850D02*
X36375D01*
Y19925D01*
X36850D01*
Y20400D01*
D02*
G37*
G36*
X42175Y21660D02*
X41825D01*
Y20685D01*
Y19710D01*
X42175D01*
Y20685D01*
Y21660D01*
D02*
G37*
G36*
X58153Y21050D02*
X58150D01*
Y19650D01*
X59550D01*
Y19653D01*
X59490Y19952D01*
X59374Y20234D01*
X59204Y20488D01*
X58988Y20704D01*
X58734Y20874D01*
X58452Y20990D01*
X58153Y21050D01*
D02*
G37*
G36*
X57850D02*
X57847D01*
X57548Y20990D01*
X57266Y20874D01*
X57012Y20704D01*
X56796Y20488D01*
X56626Y20234D01*
X56510Y19952D01*
X56450Y19653D01*
Y19650D01*
X57850D01*
Y21050D01*
D02*
G37*
G36*
X7850Y19650D02*
X6450D01*
Y18250D01*
X6453D01*
X6752Y18310D01*
X7034Y18426D01*
X7288Y18596D01*
X7504Y18812D01*
X7674Y19066D01*
X7790Y19348D01*
X7850Y19647D01*
Y19650D01*
D02*
G37*
G36*
X6150D02*
X4750D01*
Y19647D01*
X4810Y19348D01*
X4926Y19066D01*
X5096Y18812D01*
X5312Y18596D01*
X5566Y18426D01*
X5848Y18310D01*
X6147Y18250D01*
X6150D01*
Y19650D01*
D02*
G37*
G36*
X35900Y18625D02*
X35425D01*
Y18150D01*
X35900D01*
Y18625D01*
D02*
G37*
G36*
X59550Y19350D02*
X58150D01*
Y17950D01*
X58153D01*
X58452Y18010D01*
X58734Y18126D01*
X58988Y18296D01*
X59204Y18512D01*
X59374Y18766D01*
X59490Y19048D01*
X59550Y19347D01*
Y19350D01*
D02*
G37*
G36*
X57850D02*
X56450D01*
Y19347D01*
X56510Y19048D01*
X56626Y18766D01*
X56796Y18512D01*
X57012Y18296D01*
X57266Y18126D01*
X57548Y18010D01*
X57847Y17950D01*
X57850D01*
Y19350D01*
D02*
G37*
G36*
X13850Y18400D02*
X12950D01*
Y17600D01*
X13850D01*
Y18400D01*
D02*
G37*
G36*
X35900Y16350D02*
X35425D01*
Y15875D01*
X35900D01*
Y16350D01*
D02*
G37*
G36*
X48225Y15810D02*
X47775D01*
Y14985D01*
X48225D01*
Y15810D01*
D02*
G37*
G36*
X21393Y15090D02*
X20470D01*
Y14167D01*
X20735Y14238D01*
X20980Y14380D01*
X21180Y14580D01*
X21322Y14825D01*
X21393Y15090D01*
D02*
G37*
G36*
X20170D02*
X19247D01*
X19318Y14825D01*
X19460Y14580D01*
X19660Y14380D01*
X19905Y14238D01*
X20170Y14167D01*
Y15090D01*
D02*
G37*
G36*
X37675Y18725D02*
Y18725D01*
X36225D01*
Y18625D01*
X36200D01*
Y18000D01*
X36050D01*
Y17850D01*
X35425D01*
Y17375D01*
X35986D01*
X36061Y17250D01*
X35986Y17125D01*
X35425D01*
Y16650D01*
X36050D01*
Y16500D01*
X36200D01*
Y15875D01*
X36225D01*
Y15775D01*
X37675D01*
Y15775D01*
X37875Y15809D01*
X37908Y15800D01*
X38092D01*
X38275Y15642D01*
Y13760D01*
X40325D01*
Y13860D01*
X40325D01*
Y14835D01*
X40525D01*
Y13860D01*
X40875D01*
Y14835D01*
Y15810D01*
X40325D01*
Y15910D01*
X40235D01*
Y17025D01*
X40196Y17220D01*
X40085Y17385D01*
X39110Y18360D01*
X38945Y18471D01*
X38750Y18510D01*
X38355D01*
X38305Y18560D01*
X38145Y18652D01*
X37967Y18700D01*
X37783D01*
X37727Y18685D01*
X37675Y18725D01*
D02*
G37*
G36*
X28467Y11950D02*
X28283D01*
X28105Y11902D01*
X27945Y11810D01*
X27815Y11680D01*
X27723Y11520D01*
X27677Y11350D01*
X27500Y11385D01*
X23125D01*
X22930Y11346D01*
X22765Y11235D01*
X22053Y10524D01*
X21952Y10372D01*
X21490D01*
X21304Y10348D01*
X21131Y10276D01*
X20983Y10162D01*
X20869Y10014D01*
X20797Y9841D01*
X20773Y9655D01*
X20797Y9469D01*
X20869Y9296D01*
X20983Y9148D01*
X20985Y9146D01*
Y8894D01*
X20983Y8892D01*
X20869Y8744D01*
X20797Y8571D01*
X20773Y8385D01*
X20797Y8199D01*
X20869Y8026D01*
X20983Y7878D01*
X21071Y7810D01*
X21088Y7620D01*
X21073Y7571D01*
X21050Y7556D01*
X20914Y7353D01*
X20897Y7265D01*
X22414D01*
Y6965D01*
X20897D01*
X20914Y6877D01*
X20995Y6756D01*
X20894Y6556D01*
X20779D01*
Y5134D01*
X24048D01*
Y5310D01*
X24345D01*
X24550Y5350D01*
X24723Y5466D01*
X24807Y5550D01*
X24842D01*
X25020Y5598D01*
X25180Y5690D01*
X25310Y5820D01*
X25402Y5980D01*
X25445Y6140D01*
X25503Y6170D01*
X25650Y6202D01*
X25651Y6201D01*
X25797Y6089D01*
X25871Y6058D01*
X25888Y5986D01*
X25877Y5839D01*
X25717Y5733D01*
X25585Y5534D01*
X25538Y5300D01*
Y5050D01*
X26450D01*
Y4750D01*
X25538D01*
Y4500D01*
X25585Y4266D01*
X25717Y4067D01*
X25880Y3959D01*
X25856Y3783D01*
X25846Y3759D01*
X25704D01*
Y3284D01*
X26329D01*
Y3134D01*
X26479D01*
Y2509D01*
X26504D01*
Y2409D01*
X27819D01*
X27970Y2375D01*
X28034Y2242D01*
X28068Y2114D01*
X28200Y1886D01*
X28386Y1700D01*
X28614Y1568D01*
X28868Y1500D01*
X29132D01*
X29386Y1568D01*
X29614Y1700D01*
X29800Y1886D01*
X29932Y2114D01*
X30000Y2368D01*
Y2632D01*
X29932Y2886D01*
X29800Y3114D01*
X29614Y3300D01*
X29386Y3432D01*
X29132Y3500D01*
X28868D01*
X28614Y3432D01*
X28416Y3317D01*
X28293Y3477D01*
X28410Y3595D01*
X28521Y3760D01*
X28532Y3818D01*
X28533Y3818D01*
X28703Y3889D01*
X28849Y4001D01*
X28961Y4147D01*
X29032Y4317D01*
X29056Y4500D01*
Y4711D01*
X29145Y4729D01*
X29383Y4733D01*
X29540Y4628D01*
X29725Y4591D01*
X30250D01*
Y5075D01*
X30400D01*
Y5139D01*
X31075D01*
X31299Y5183D01*
X31362Y5225D01*
X31529D01*
X31522Y5260D01*
X31489Y5310D01*
X31490Y5310D01*
X31617Y5501D01*
X31661Y5725D01*
X31617Y5949D01*
X31549Y6050D01*
X31617Y6151D01*
X31661Y6375D01*
X31617Y6599D01*
X31549Y6700D01*
X31617Y6801D01*
X31661Y7025D01*
X31617Y7249D01*
X31549Y7350D01*
X31617Y7451D01*
X31661Y7675D01*
X31617Y7899D01*
X31549Y8000D01*
X31617Y8101D01*
X31661Y8325D01*
X31617Y8549D01*
X31549Y8650D01*
X31617Y8751D01*
X31661Y8975D01*
X31617Y9199D01*
X31549Y9300D01*
X31617Y9401D01*
X31661Y9625D01*
X31617Y9849D01*
X31549Y9950D01*
X31617Y10051D01*
X31661Y10275D01*
X31617Y10499D01*
X31549Y10600D01*
X31617Y10701D01*
X31661Y10925D01*
X31617Y11149D01*
X31490Y11340D01*
X31299Y11467D01*
X31075Y11511D01*
X29725D01*
X29501Y11467D01*
X29491Y11460D01*
X29043D01*
X29027Y11520D01*
X28935Y11680D01*
X28805Y11810D01*
X28645Y11902D01*
X28467Y11950D01*
D02*
G37*
G36*
X38625Y9900D02*
X38150D01*
Y9425D01*
X38625D01*
Y9900D01*
D02*
G37*
G36*
X40050Y7400D02*
X39150D01*
Y6600D01*
X40050D01*
Y7400D01*
D02*
G37*
G36*
X38850D02*
X37950D01*
Y6600D01*
X38850D01*
Y7400D01*
D02*
G37*
G36*
X31529Y4925D02*
X30550D01*
Y4591D01*
X31075D01*
X31260Y4628D01*
X31417Y4733D01*
X31522Y4890D01*
X31529Y4925D01*
D02*
G37*
G36*
X19575Y4625D02*
X19100D01*
Y4150D01*
X19575D01*
Y4625D01*
D02*
G37*
G36*
X61450Y7050D02*
X61336D01*
X60816Y6968D01*
X60314Y6805D01*
X59844Y6565D01*
X59418Y6255D01*
X59045Y5882D01*
X58735Y5456D01*
X58495Y4986D01*
X58332Y4484D01*
X58250Y3964D01*
Y3850D01*
X61450D01*
Y7050D01*
D02*
G37*
G36*
X3864D02*
X3750D01*
Y3850D01*
X6950D01*
Y3964D01*
X6868Y4484D01*
X6705Y4986D01*
X6465Y5456D01*
X6155Y5882D01*
X5782Y6255D01*
X5356Y6565D01*
X4886Y6805D01*
X4384Y6968D01*
X3864Y7050D01*
D02*
G37*
G36*
X19575Y3850D02*
X19100D01*
Y3375D01*
X19575D01*
Y3850D01*
D02*
G37*
G36*
X6463Y16450D02*
X6137D01*
X5819Y16387D01*
X5518Y16262D01*
X5248Y16082D01*
X5018Y15852D01*
X4838Y15582D01*
X4713Y15281D01*
X4650Y14963D01*
Y14637D01*
X4713Y14319D01*
X4838Y14018D01*
X5018Y13748D01*
X5248Y13518D01*
X5518Y13338D01*
X5819Y13213D01*
X6137Y13150D01*
X6463D01*
X6781Y13213D01*
X7053Y13326D01*
X8079Y12300D01*
X7053Y11274D01*
X6781Y11387D01*
X6463Y11450D01*
X6137D01*
X5819Y11387D01*
X5518Y11262D01*
X5248Y11082D01*
X5018Y10852D01*
X4838Y10582D01*
X4713Y10281D01*
X4650Y9963D01*
Y9637D01*
X4713Y9319D01*
X4838Y9018D01*
X5018Y8748D01*
X5248Y8518D01*
X5518Y8338D01*
X5819Y8213D01*
X6137Y8150D01*
X6463D01*
X6781Y8213D01*
X7082Y8338D01*
X7352Y8518D01*
X7582Y8748D01*
X7762Y9018D01*
X7887Y9319D01*
X7950Y9637D01*
Y9963D01*
X7887Y10281D01*
X7774Y10553D01*
X8761Y11540D01*
X10239D01*
X10990Y10789D01*
Y8230D01*
X11029Y8035D01*
X11140Y7870D01*
X12803Y6206D01*
X12793Y6130D01*
Y5330D01*
X12821Y5121D01*
X12901Y4927D01*
X13029Y4759D01*
X13197Y4631D01*
X13391Y4551D01*
X13600Y4523D01*
X14400D01*
X14609Y4551D01*
X14803Y4631D01*
X14971Y4759D01*
X15099Y4927D01*
X15179Y5121D01*
X15207Y5330D01*
Y6130D01*
X15197Y6206D01*
X15596Y6605D01*
X16017D01*
X16094Y6528D01*
X16156Y6352D01*
X16042Y6204D01*
X15970Y6031D01*
X15946Y5845D01*
X15970Y5659D01*
X16042Y5486D01*
X16156Y5338D01*
X16304Y5224D01*
X16477Y5152D01*
X16663Y5128D01*
X17077D01*
Y4464D01*
X17115Y4269D01*
X17226Y4103D01*
X17325Y4004D01*
Y3275D01*
X18775D01*
Y3375D01*
X18800D01*
Y4000D01*
Y4625D01*
X18775D01*
Y4725D01*
X18096D01*
Y5128D01*
X18510D01*
X18696Y5152D01*
X18869Y5224D01*
X19017Y5338D01*
X19131Y5486D01*
X19203Y5659D01*
X19227Y5845D01*
X19203Y6031D01*
X19131Y6204D01*
X19017Y6352D01*
X19015Y6354D01*
Y6606D01*
X19017Y6608D01*
X19131Y6756D01*
X19203Y6929D01*
X19227Y7115D01*
X19203Y7301D01*
X19131Y7474D01*
X19017Y7622D01*
X19015Y7624D01*
Y7876D01*
X19017Y7878D01*
X19131Y8026D01*
X19203Y8199D01*
X19227Y8385D01*
X19203Y8571D01*
X19131Y8744D01*
X19017Y8892D01*
X19015Y8894D01*
Y9146D01*
X19017Y9148D01*
X19131Y9296D01*
X19203Y9469D01*
X19227Y9655D01*
X19203Y9841D01*
X19131Y10014D01*
X19017Y10162D01*
X18869Y10276D01*
X18696Y10348D01*
X18510Y10372D01*
X17257D01*
Y12963D01*
X16648D01*
X16634Y13032D01*
X16523Y13198D01*
X15860Y13860D01*
X15695Y13971D01*
X15500Y14010D01*
X11500D01*
X11305Y13971D01*
X11140Y13860D01*
X10339Y13060D01*
X8761D01*
X7774Y14047D01*
X7887Y14319D01*
X7950Y14637D01*
Y14963D01*
X7887Y15281D01*
X7762Y15582D01*
X7582Y15852D01*
X7352Y16082D01*
X7082Y16262D01*
X6781Y16387D01*
X6463Y16450D01*
D02*
G37*
G36*
X42100Y4066D02*
X41850D01*
Y3110D01*
X42806D01*
Y3360D01*
X42782Y3543D01*
X42711Y3713D01*
X42599Y3859D01*
X42453Y3971D01*
X42283Y4042D01*
X42100Y4066D01*
D02*
G37*
G36*
X48600D02*
X48350D01*
Y3110D01*
X49306D01*
Y3360D01*
X49282Y3543D01*
X49211Y3713D01*
X49099Y3859D01*
X48953Y3971D01*
X48783Y4042D01*
X48600Y4066D01*
D02*
G37*
G36*
X45350D02*
X45100D01*
Y3110D01*
X46056D01*
Y3360D01*
X46032Y3543D01*
X45961Y3713D01*
X45849Y3859D01*
X45703Y3971D01*
X45533Y4042D01*
X45350Y4066D01*
D02*
G37*
G36*
X55100D02*
X54850D01*
Y3110D01*
X55806D01*
Y3360D01*
X55782Y3543D01*
X55711Y3713D01*
X55599Y3859D01*
X55453Y3971D01*
X55283Y4042D01*
X55100Y4066D01*
D02*
G37*
G36*
X51850D02*
X51600D01*
Y3110D01*
X52556D01*
Y3360D01*
X52532Y3543D01*
X52461Y3713D01*
X52349Y3859D01*
X52203Y3971D01*
X52033Y4042D01*
X51850Y4066D01*
D02*
G37*
G36*
X48050D02*
X47800D01*
X47617Y4042D01*
X47447Y3971D01*
X47301Y3859D01*
X47189Y3713D01*
X47118Y3543D01*
X47094Y3360D01*
Y3110D01*
X48050D01*
Y4066D01*
D02*
G37*
G36*
X44800D02*
X44550D01*
X44367Y4042D01*
X44197Y3971D01*
X44051Y3859D01*
X43939Y3713D01*
X43868Y3543D01*
X43844Y3360D01*
Y3110D01*
X44800D01*
Y4066D01*
D02*
G37*
G36*
X54550D02*
X54300D01*
X54117Y4042D01*
X53947Y3971D01*
X53801Y3859D01*
X53689Y3713D01*
X53618Y3543D01*
X53594Y3360D01*
Y3110D01*
X54550D01*
Y4066D01*
D02*
G37*
G36*
X51300D02*
X51050D01*
X50867Y4042D01*
X50697Y3971D01*
X50551Y3859D01*
X50439Y3713D01*
X50368Y3543D01*
X50344Y3360D01*
Y3110D01*
X51300D01*
Y4066D01*
D02*
G37*
G36*
X31650Y3392D02*
Y2650D01*
X32392D01*
X32339Y2847D01*
X32220Y3053D01*
X32053Y3220D01*
X31847Y3339D01*
X31650Y3392D01*
D02*
G37*
G36*
X31350D02*
X31153Y3339D01*
X30947Y3220D01*
X30780Y3053D01*
X30661Y2847D01*
X30608Y2650D01*
X31350D01*
Y3392D01*
D02*
G37*
G36*
X26179Y2984D02*
X25704D01*
Y2509D01*
X26179D01*
Y2984D01*
D02*
G37*
G36*
X55806Y2810D02*
X54850D01*
Y1854D01*
X55100D01*
X55283Y1878D01*
X55453Y1949D01*
X55599Y2061D01*
X55711Y2207D01*
X55782Y2377D01*
X55806Y2560D01*
Y2810D01*
D02*
G37*
G36*
X54550D02*
X53594D01*
Y2560D01*
X53618Y2377D01*
X53689Y2207D01*
X53801Y2061D01*
X53947Y1949D01*
X54117Y1878D01*
X54300Y1854D01*
X54550D01*
Y2810D01*
D02*
G37*
G36*
X52556D02*
X51600D01*
Y1854D01*
X51850D01*
X52033Y1878D01*
X52203Y1949D01*
X52349Y2061D01*
X52461Y2207D01*
X52532Y2377D01*
X52556Y2560D01*
Y2810D01*
D02*
G37*
G36*
X51300D02*
X50344D01*
Y2560D01*
X50368Y2377D01*
X50439Y2207D01*
X50551Y2061D01*
X50697Y1949D01*
X50867Y1878D01*
X51050Y1854D01*
X51300D01*
Y2810D01*
D02*
G37*
G36*
X49306D02*
X48350D01*
Y1854D01*
X48600D01*
X48783Y1878D01*
X48953Y1949D01*
X49099Y2061D01*
X49211Y2207D01*
X49282Y2377D01*
X49306Y2560D01*
Y2810D01*
D02*
G37*
G36*
X48050D02*
X47094D01*
Y2560D01*
X47118Y2377D01*
X47189Y2207D01*
X47301Y2061D01*
X47447Y1949D01*
X47617Y1878D01*
X47800Y1854D01*
X48050D01*
Y2810D01*
D02*
G37*
G36*
X46056D02*
X45100D01*
Y1854D01*
X45350D01*
X45533Y1878D01*
X45703Y1949D01*
X45849Y2061D01*
X45961Y2207D01*
X46032Y2377D01*
X46056Y2560D01*
Y2810D01*
D02*
G37*
G36*
X44800D02*
X43844D01*
Y2560D01*
X43868Y2377D01*
X43939Y2207D01*
X44051Y2061D01*
X44197Y1949D01*
X44367Y1878D01*
X44550Y1854D01*
X44800D01*
Y2810D01*
D02*
G37*
G36*
X42806Y2810D02*
X41850D01*
Y1854D01*
X42100D01*
X42283Y1878D01*
X42453Y1949D01*
X42599Y2061D01*
X42711Y2207D01*
X42782Y2377D01*
X42806Y2560D01*
Y2810D01*
D02*
G37*
G36*
X41550D02*
X40594D01*
Y2560D01*
X40618Y2377D01*
X40689Y2207D01*
X40801Y2061D01*
X40947Y1949D01*
X41117Y1878D01*
X41300Y1854D01*
X41550D01*
Y2810D01*
D02*
G37*
G36*
X32392Y2350D02*
X31650D01*
Y1608D01*
X31847Y1661D01*
X32053Y1780D01*
X32220Y1947D01*
X32339Y2153D01*
X32392Y2350D01*
D02*
G37*
G36*
X31350D02*
X30608D01*
X30661Y2153D01*
X30780Y1947D01*
X30947Y1780D01*
X31153Y1661D01*
X31350Y1608D01*
Y2350D01*
D02*
G37*
G36*
X34132Y3500D02*
X33868D01*
X33614Y3432D01*
X33386Y3300D01*
X33200Y3114D01*
X33068Y2886D01*
X33000Y2632D01*
Y2368D01*
X33068Y2114D01*
X33200Y1886D01*
X33386Y1700D01*
X33614Y1568D01*
X33868Y1500D01*
X34132D01*
X34386Y1568D01*
X34614Y1700D01*
X34800Y1886D01*
X34932Y2114D01*
X35000Y2368D01*
Y2632D01*
X34932Y2886D01*
X34800Y3114D01*
X34614Y3300D01*
X34386Y3432D01*
X34132Y3500D01*
D02*
G37*
%LPD*%
G36*
X35496Y26065D02*
X35434Y26002D01*
X35290Y25753D01*
X35215Y25474D01*
Y25186D01*
X35290Y24907D01*
X35434Y24658D01*
X35638Y24454D01*
X35714Y24410D01*
X35740Y24211D01*
X33229Y21700D01*
X33158D01*
X33143Y21696D01*
X32984Y21818D01*
Y24299D01*
X33184Y24404D01*
X33347Y24310D01*
X33626Y24235D01*
X33914D01*
X34193Y24310D01*
X34442Y24454D01*
X34646Y24658D01*
X34790Y24907D01*
X34865Y25186D01*
Y25474D01*
X34790Y25753D01*
X34708Y25896D01*
X34823Y26096D01*
X35045D01*
X35240Y26134D01*
X35369Y26220D01*
X35496Y26065D01*
D02*
G37*
G36*
X18680Y24340D02*
X18914Y24403D01*
X19108Y24515D01*
X19308Y24448D01*
Y23362D01*
X19347Y23167D01*
X19457Y23002D01*
X20830Y21629D01*
X20773Y21429D01*
X20757Y21419D01*
X20475Y21495D01*
X20165D01*
X19929Y21432D01*
X17788Y23573D01*
Y24401D01*
X17988Y24494D01*
X18146Y24403D01*
X18380Y24340D01*
Y25330D01*
X18680D01*
Y24340D01*
D02*
G37*
G36*
X28212Y21567D02*
X28108Y21388D01*
X28090Y21393D01*
Y20320D01*
Y19247D01*
X28355Y19318D01*
X28540Y19425D01*
X28740Y19339D01*
Y18500D01*
X28779Y18305D01*
X28890Y18140D01*
X29970Y17059D01*
Y16415D01*
X29305D01*
Y15458D01*
X29105Y15432D01*
X29035Y15694D01*
X28880Y15961D01*
X28661Y16180D01*
X28450Y16302D01*
Y16810D01*
X28411Y17005D01*
X28300Y17170D01*
X26860Y18610D01*
X26695Y18721D01*
X26500Y18760D01*
X25211D01*
X24955Y19016D01*
X25059Y19195D01*
X25245Y19145D01*
X25555D01*
X25854Y19225D01*
X26121Y19380D01*
X26340Y19599D01*
X26495Y19866D01*
X26575Y20165D01*
Y20475D01*
X26495Y20774D01*
X26340Y21041D01*
X26121Y21260D01*
X25910Y21382D01*
Y23540D01*
X25898Y23598D01*
X26083Y23696D01*
X28212Y21567D01*
D02*
G37*
G36*
X20647Y24310D02*
X20926Y24235D01*
X21214D01*
X21395Y24284D01*
X23615Y22064D01*
Y21472D01*
X23415Y21356D01*
X23314Y21415D01*
X23015Y21495D01*
X22705D01*
X22469Y21432D01*
X20328Y23573D01*
Y24263D01*
X20528Y24379D01*
X20647Y24310D01*
D02*
G37*
G36*
X21765Y19866D02*
X21920Y19599D01*
X22139Y19380D01*
X22406Y19225D01*
X22705Y19145D01*
X23015D01*
X23314Y19225D01*
X23415Y19284D01*
X23615Y19168D01*
Y19125D01*
X23654Y18930D01*
X23765Y18765D01*
X24640Y17890D01*
X24805Y17779D01*
X25000Y17740D01*
X26289D01*
X27430Y16599D01*
Y16302D01*
X27219Y16180D01*
X27000Y15961D01*
X26845Y15694D01*
X26765Y15395D01*
X26575D01*
X26495Y15694D01*
X26340Y15961D01*
X26121Y16180D01*
X25854Y16335D01*
X25555Y16415D01*
X25245D01*
X25009Y16352D01*
X23000Y18360D01*
X22835Y18471D01*
X22640Y18510D01*
X17211D01*
X16776Y18945D01*
X16859Y19145D01*
X18955D01*
Y20102D01*
X19155Y20128D01*
X19225Y19866D01*
X19380Y19599D01*
X19599Y19380D01*
X19866Y19225D01*
X20165Y19145D01*
X20475D01*
X20774Y19225D01*
X21041Y19380D01*
X21260Y19599D01*
X21415Y19866D01*
X21495Y20165D01*
X21685D01*
X21765Y19866D01*
D02*
G37*
%LPC*%
G36*
X27790Y21393D02*
X27525Y21322D01*
X27280Y21180D01*
X27080Y20980D01*
X26938Y20735D01*
X26867Y20470D01*
X27790D01*
Y21393D01*
D02*
G37*
G36*
Y20170D02*
X26867D01*
X26938Y19905D01*
X27080Y19660D01*
X27280Y19460D01*
X27525Y19318D01*
X27790Y19247D01*
Y20170D01*
D02*
G37*
%LPD*%
G36*
X27740Y9915D02*
X27905Y9804D01*
X28100Y9765D01*
X29024D01*
X29139Y9625D01*
X29183Y9401D01*
X29251Y9300D01*
X29183Y9199D01*
X29139Y8975D01*
X29183Y8751D01*
X29251Y8650D01*
X29183Y8549D01*
X29139Y8325D01*
X29183Y8101D01*
X29251Y8000D01*
X29183Y7899D01*
X29139Y7675D01*
X29183Y7451D01*
X29251Y7350D01*
X29183Y7249D01*
X29162Y7141D01*
X28962Y7160D01*
Y7500D01*
X28915Y7734D01*
X28783Y7933D01*
X28584Y8065D01*
X28479Y8086D01*
X28325Y8198D01*
Y8673D01*
X27700D01*
Y8823D01*
X27550D01*
Y9448D01*
X27525D01*
Y9548D01*
X26075D01*
Y8647D01*
X26065Y8598D01*
Y8195D01*
X25967Y8182D01*
X25797Y8111D01*
X25651Y7999D01*
X25539Y7853D01*
X25516Y7799D01*
X25316Y7838D01*
Y7977D01*
X24691D01*
Y8277D01*
X25316D01*
Y8302D01*
X25416D01*
Y9752D01*
X25416D01*
X25410Y9759D01*
X25450Y9908D01*
Y10092D01*
X25430Y10165D01*
X25562Y10365D01*
X27289D01*
X27740Y9915D01*
D02*
G37*
%LPC*%
G36*
X28325Y9448D02*
X27850D01*
Y8973D01*
X28325D01*
Y9448D01*
D02*
G37*
%LPD*%
G36*
X12257Y12963D02*
X12257Y12790D01*
Y10363D01*
X13347D01*
Y9961D01*
X13386Y9766D01*
X13490Y9610D01*
Y9361D01*
X13263Y9230D01*
X13040Y9007D01*
X12882Y8733D01*
X12800Y8428D01*
Y8112D01*
X12865Y7869D01*
X12686Y7765D01*
X12010Y8441D01*
Y11000D01*
X11971Y11195D01*
X11860Y11360D01*
X10971Y12250D01*
X11711Y12990D01*
X12068D01*
X12257Y12963D01*
D02*
G37*
D11*
X28375Y11250D02*
X28700Y10925D01*
X30400D01*
X22414Y5845D02*
X24345D01*
X24750Y6250D01*
D15*
X27940Y15240D02*
Y16810D01*
X26500Y18250D02*
X27940Y16810D01*
X25000Y18250D02*
X26500D01*
X24125Y19125D02*
Y22275D01*
Y19125D02*
X25000Y18250D01*
X21070Y25330D02*
X24125Y22275D01*
X26150Y24350D02*
Y25330D01*
Y24350D02*
X29250Y21250D01*
Y18500D02*
Y21250D01*
Y18500D02*
X30480Y17270D01*
Y15240D02*
Y17270D01*
X25400Y20320D02*
Y23540D01*
X23610Y25330D02*
X25400Y23540D01*
X15990Y22110D02*
X17780Y20320D01*
X15990Y22110D02*
Y25330D01*
X41802Y21912D02*
X42069D01*
X41252D02*
X41649D01*
X41726Y21989D02*
X41802Y21912D01*
X41700Y21963D02*
X41722Y21985D01*
X41700Y20710D02*
Y21963D01*
X42069Y21912D02*
X42325Y21657D01*
X41649Y21912D02*
X41726Y21989D01*
X41675Y20685D02*
X41700Y20710D01*
X41025Y21685D02*
X41252Y21912D01*
X42325Y20685D02*
Y21657D01*
X34600Y10275D02*
X36100D01*
X34250Y10625D02*
X34600Y10275D01*
X34250Y10625D02*
Y12075D01*
X34800Y12625D01*
X33250Y21000D02*
X33250D01*
X36250Y24000D01*
X39550D02*
X40550Y23000D01*
X36250Y24000D02*
X39550D01*
X33375Y15125D02*
Y19750D01*
X37000Y23375D02*
X38750D01*
X33375Y19750D02*
X37000Y23375D01*
X38950Y22625D02*
Y23175D01*
X38750Y23375D02*
X38950Y23175D01*
Y22625D02*
X39725Y21850D01*
Y20685D02*
Y21850D01*
X33256Y8371D02*
X33302Y8325D01*
X36100D01*
X40375Y20685D02*
Y22825D01*
X40550Y23000D01*
X36950Y16500D02*
X38000D01*
X36950Y18000D02*
X37875D01*
X38000Y16500D02*
X38750D01*
X38975Y14835D02*
Y16275D01*
X38750Y16500D02*
X38975Y16275D01*
X38750Y18000D02*
X39725Y17025D01*
X37875Y18000D02*
X38750D01*
X39725Y14835D02*
Y17025D01*
X28100Y10275D02*
X30400D01*
X27500Y10875D02*
X28100Y10275D01*
X23125Y10875D02*
X27500D01*
X22414Y10164D02*
X23125Y10875D01*
X22414Y9655D02*
Y10164D01*
X26575Y8598D02*
X26800Y8823D01*
X26575Y7225D02*
Y8598D01*
X26450Y7100D02*
X26575Y7225D01*
X27229Y3134D02*
X28050Y3955D01*
Y4900D01*
X30371Y5696D02*
X30400Y5725D01*
X29446Y5696D02*
X30371D01*
X28950Y5200D02*
X29446Y5696D01*
X28050Y4900D02*
X28350Y5200D01*
X28950D01*
X26450Y7000D02*
Y7100D01*
Y7000D02*
X27450Y6000D01*
X28875D01*
X29250Y6375D01*
X30400D01*
X34950D02*
X36100D01*
X34575Y6000D02*
X34950Y6375D01*
X34500Y6000D02*
X34575D01*
X36088Y8988D02*
X36100Y8975D01*
X34013Y8988D02*
X36088D01*
X34000Y9000D02*
X34013Y8988D01*
X36088Y7012D02*
X36100Y7025D01*
X34013Y7012D02*
X36088D01*
X34000Y7000D02*
X34013Y7012D01*
X32474Y11026D02*
X33875Y9625D01*
X36100D01*
X32474Y11026D02*
Y25932D01*
X19818Y23362D02*
X22860Y20320D01*
X19818Y23362D02*
Y26582D01*
X18530Y27870D02*
X19818Y26582D01*
X17278Y23362D02*
X20320Y20320D01*
X17278Y23362D02*
Y26582D01*
X15990Y27870D02*
X17278Y26582D01*
X22640Y18000D02*
X25400Y15240D01*
X17000Y18000D02*
X22640D01*
X13450Y21550D02*
X17000Y18000D01*
X13450Y21550D02*
Y25330D01*
X21100Y17000D02*
X22860Y15240D01*
X17000Y17000D02*
X21100D01*
X10910Y23090D02*
X17000Y17000D01*
X10910Y23090D02*
Y25330D01*
X17586Y4464D02*
Y5845D01*
Y4464D02*
X18050Y4000D01*
X10450Y12050D02*
X11500Y11000D01*
X6300Y9800D02*
X8550Y12050D01*
X10450D01*
X6300Y14800D02*
X8550Y12550D01*
X10550D02*
X11500Y13500D01*
X8550Y12550D02*
X10550D01*
X13307Y11663D02*
X13857Y11113D01*
Y9961D02*
Y11113D01*
Y9961D02*
X14000Y9818D01*
Y8270D02*
Y9818D01*
Y5730D02*
X15385Y7115D01*
X17586D01*
X11500Y8230D02*
X14000Y5730D01*
X11500Y8230D02*
Y11000D01*
X15737Y8941D02*
Y11193D01*
X17533Y8438D02*
X17586Y8385D01*
X16240Y8438D02*
X17533D01*
X15737Y8941D02*
X16240Y8438D01*
X15737Y11193D02*
X16207Y11663D01*
X11500Y13500D02*
X15500D01*
X16163Y11707D02*
X16207Y11663D01*
X16163Y11707D02*
Y12837D01*
X15500Y13500D02*
X16163Y12837D01*
X49000Y19977D02*
Y20750D01*
X46225Y14835D02*
Y17202D01*
X49000Y19977D01*
X49500Y14250D02*
Y15675D01*
X50275Y16450D01*
Y16600D01*
X51500Y14250D02*
Y16375D01*
X51725Y16600D01*
X51250Y21500D02*
X51550Y21200D01*
Y20637D02*
Y21200D01*
Y20637D02*
X51725Y20462D01*
Y19400D02*
Y20462D01*
X49000Y20750D02*
X49750Y21500D01*
X46201Y10037D02*
X49453D01*
X44275Y11963D02*
Y14835D01*
Y11963D02*
X46201Y10037D01*
X43625Y11297D02*
X45475Y9448D01*
X46792D01*
X43625Y11297D02*
Y14835D01*
X44925Y12839D02*
X47095Y10668D01*
X44925Y12839D02*
Y14835D01*
X47095Y10668D02*
X52072D01*
X50884Y11384D02*
X51500Y12000D01*
X45575Y13425D02*
X47616Y11384D01*
X50884D01*
X52072Y10668D02*
X54700Y8040D01*
X49453Y10037D02*
X51450Y8040D01*
X46792Y9448D02*
X48200Y8040D01*
X46875Y13625D02*
X47747Y12753D01*
X49497D01*
X46875Y13625D02*
Y14835D01*
X45575Y13425D02*
Y14835D01*
X51500Y12000D02*
Y12750D01*
X42975Y10015D02*
Y14835D01*
Y10015D02*
X44950Y8040D01*
X42325Y8971D02*
Y14835D01*
X41700Y8346D02*
X42325Y8971D01*
X41700Y8040D02*
Y8346D01*
X41025Y20685D02*
Y21685D01*
X40354Y13160D02*
Y14814D01*
X40375Y14835D01*
X40354Y13160D02*
X40975D01*
X41400D01*
X40975D02*
X41025Y13210D01*
Y14835D01*
X41675Y13435D02*
Y14835D01*
X41400Y13160D02*
X41675Y13435D01*
X38975Y20685D02*
Y21060D01*
X38775Y21260D02*
X38975Y21060D01*
X38348Y21260D02*
X38775D01*
X38108Y21500D02*
X38348Y21260D01*
X38000Y21500D02*
X38108D01*
X32474Y25932D02*
X33148Y26605D01*
X35045D01*
X36310Y27870D01*
D16*
X39000Y6450D02*
X39045D01*
X39445Y6850D01*
Y7320D01*
X40000Y7875D01*
Y7875D01*
X41657Y5500D02*
X41700D01*
X39150Y4700D02*
X40857D01*
X41657Y5500D01*
X38850Y4400D02*
X39150Y4700D01*
X36500Y2500D02*
X38400Y4400D01*
X38850D01*
X0Y3700D02*
G03*
X3700Y0I3700J0D01*
G01*
Y30400D02*
G03*
X0Y26700I0J-3700D01*
G01*
X65200D02*
G03*
X61500Y30400I-3700J0D01*
G01*
Y0D02*
G03*
X65200Y3700I0J3700D01*
G01*
X0D02*
G03*
X3700Y0I3700J0D01*
G01*
X61500D02*
G03*
X65200Y3700I0J3700D01*
G01*
Y26700D02*
G03*
X61500Y30400I-3700J0D01*
G01*
X3700D02*
G03*
X0Y26700I0J-3700D01*
G01*
Y3700D02*
G03*
X3700Y0I3700J0D01*
G01*
X0Y3700D02*
G03*
X3700Y0I3700J0D01*
G01*
X61500D02*
G03*
X65200Y3700I0J3700D01*
G01*
X61500Y0D02*
G03*
X65200Y3700I0J3700D01*
G01*
Y26700D02*
G03*
X61500Y30400I-3700J0D01*
G01*
X65200Y26700D02*
G03*
X61500Y30400I-3700J0D01*
G01*
X3700D02*
G03*
X0Y26700I0J-3700D01*
G01*
X3700Y30400D02*
G03*
X0Y26700I0J-3700D01*
G01*
X3700Y0D02*
X61500D01*
X3700D02*
X61500D01*
X3700D02*
X61500D01*
X3700D02*
X61500D01*
X0Y3700D02*
Y26700D01*
X3700Y30400D02*
X61500D01*
X65200Y3700D02*
Y26700D01*
Y3700D02*
Y26700D01*
X3700Y30400D02*
X61500D01*
X0Y3700D02*
Y26700D01*
X65200Y3700D02*
Y26700D01*
Y3700D02*
Y26700D01*
X3700Y30400D02*
X61500D01*
X3700D02*
X61500D01*
X0Y3700D02*
Y26700D01*
Y3700D02*
Y26700D01*
D17*
X34800Y12625D02*
D03*
X35700D02*
D03*
X27229Y3134D02*
D03*
X26329D02*
D03*
X26800Y8823D02*
D03*
X27700D02*
D03*
X36050Y18000D02*
D03*
Y16500D02*
D03*
X18950Y4000D02*
D03*
X38050Y22625D02*
D03*
X41450Y23000D02*
D03*
X38950Y22625D02*
D03*
X40550Y23000D02*
D03*
X36950Y18000D02*
D03*
Y16500D02*
D03*
X18050Y4000D02*
D03*
D18*
X36100Y5075D02*
D03*
Y5725D02*
D03*
Y6375D02*
D03*
Y7025D02*
D03*
Y7675D02*
D03*
Y8325D02*
D03*
Y8975D02*
D03*
Y9625D02*
D03*
Y10275D02*
D03*
Y10925D02*
D03*
X30400Y5075D02*
D03*
Y5725D02*
D03*
Y6375D02*
D03*
Y7025D02*
D03*
Y7675D02*
D03*
Y8325D02*
D03*
Y8975D02*
D03*
Y9625D02*
D03*
Y10275D02*
D03*
Y10925D02*
D03*
D19*
X38000Y10950D02*
D03*
Y10050D02*
D03*
X37000Y20550D02*
D03*
X24691Y8127D02*
D03*
X37000Y21450D02*
D03*
X24691Y9027D02*
D03*
D20*
X28050Y4900D02*
D03*
Y7100D02*
D03*
X26450D02*
D03*
Y4900D02*
D03*
D21*
X22414Y9655D02*
D03*
Y7115D02*
D03*
Y8385D02*
D03*
X17586Y5845D02*
D03*
Y7115D02*
D03*
Y8385D02*
D03*
Y9655D02*
D03*
D22*
X40375Y20685D02*
D03*
X39725D02*
D03*
X42325Y14835D02*
D03*
X42975D02*
D03*
X43625D02*
D03*
X44275D02*
D03*
X44925D02*
D03*
X46875D02*
D03*
X46225D02*
D03*
X45575D02*
D03*
Y20685D02*
D03*
X46225D02*
D03*
X46875D02*
D03*
X44925D02*
D03*
X44275D02*
D03*
X43625D02*
D03*
X42975D02*
D03*
X41025Y14835D02*
D03*
X40375D02*
D03*
X39725D02*
D03*
X41675D02*
D03*
X42325Y20685D02*
D03*
X41675D02*
D03*
X41025D02*
D03*
D23*
X47625D02*
D03*
X38975D02*
D03*
X47625Y14835D02*
D03*
X38975D02*
D03*
D24*
X39000Y6450D02*
D03*
X14000Y17450D02*
D03*
Y15550D02*
D03*
X39000Y4550D02*
D03*
D25*
X50275Y19400D02*
D03*
X51725Y16600D02*
D03*
Y19400D02*
D03*
X50275Y16600D02*
D03*
D26*
X49750Y21500D02*
D03*
X51250D02*
D03*
D27*
X49500Y12750D02*
D03*
X51500D02*
D03*
Y14250D02*
D03*
X49500D02*
D03*
D28*
X22414Y5845D02*
D03*
D29*
X13307Y11663D02*
D03*
X16207D02*
D03*
D41*
X13450Y27870D02*
D03*
X18530Y25330D02*
D03*
X31230Y27870D02*
D03*
X23610D02*
D03*
X38850Y25330D02*
D03*
X56630D02*
D03*
X43930Y27870D02*
D03*
X49010D02*
D03*
X28690Y25330D02*
D03*
X8370D02*
D03*
X10910D02*
D03*
X13450D02*
D03*
X33770Y27870D02*
D03*
X36310D02*
D03*
Y25330D02*
D03*
X31230D02*
D03*
X33770D02*
D03*
X56630Y27870D02*
D03*
X54090D02*
D03*
X51550D02*
D03*
X46470D02*
D03*
X41390D02*
D03*
X38850D02*
D03*
X28690D02*
D03*
X26150D02*
D03*
X21070D02*
D03*
X18530D02*
D03*
X15990D02*
D03*
X10910D02*
D03*
X54090Y25330D02*
D03*
X51550D02*
D03*
X49010D02*
D03*
X46470D02*
D03*
X43930D02*
D03*
X41390D02*
D03*
X26150D02*
D03*
X23610D02*
D03*
X21070D02*
D03*
X15990D02*
D03*
D47*
X8370Y27870D02*
D03*
D49*
X47625Y14835D02*
Y16375D01*
X35700Y12625D02*
X37500D01*
X38250Y11875D01*
X38000Y9250D02*
Y10050D01*
Y10950D02*
Y11625D01*
X38250Y11875D01*
X36814Y10950D02*
X38000D01*
X36789Y10925D02*
X36814Y10950D01*
X36100Y10925D02*
X36789D01*
X38000Y21500D02*
X38050Y21550D01*
Y22625D01*
X37000Y19500D02*
Y20550D01*
X36225Y18725D02*
X37000Y19500D01*
X36225Y18175D02*
Y18725D01*
X41450Y23000D02*
X42375D01*
X37000Y21450D02*
X37025Y21475D01*
X37975D01*
X38000Y21500D01*
X36050Y18000D02*
X36225Y18175D01*
X36050Y16500D02*
Y18000D01*
X14000Y17450D02*
Y18375D01*
X13250Y19125D02*
X14000Y18375D01*
X24691Y9027D02*
X24720Y9056D01*
X24664Y9000D02*
X24691Y9027D01*
X23952Y9000D02*
X24664D01*
X22414Y8385D02*
X23337D01*
X23952Y9000D01*
X24720Y9056D02*
Y9970D01*
X24750Y10000D01*
X22414Y7115D02*
X24365D01*
X24691Y7441D02*
Y8127D01*
X24365Y7115D02*
X24691Y7441D01*
X26450Y4719D02*
Y4900D01*
X25750Y4019D02*
X26450Y4719D01*
X25750Y3713D02*
Y4019D01*
Y3713D02*
X26329Y3134D01*
X27700Y8823D02*
X28475D01*
X28798Y8500D01*
X28875D01*
X28050Y7100D02*
Y7211D01*
X28875Y8036D01*
Y8500D01*
X18950Y4000D02*
X19125Y3825D01*
X19675D01*
X20000Y3500D01*
X50275Y19250D02*
Y19400D01*
X49525Y18500D02*
X50275Y19250D01*
X49000Y18500D02*
X49525D01*
D50*
X14000Y15550D02*
X17321D01*
X17631Y15240D01*
X17780D01*
X12075Y15550D02*
X14000D01*
X10000Y17625D02*
X12075Y15550D01*
X8370Y22880D02*
X10000Y21250D01*
Y17625D02*
Y21250D01*
X8370Y22880D02*
Y25330D01*
X28690Y23810D02*
Y25330D01*
Y23810D02*
X30480Y22020D01*
Y20320D02*
Y22020D01*
X58000Y7500D02*
Y14500D01*
X56000Y5500D02*
X58000Y7500D01*
X54700Y5500D02*
X56000D01*
X51450Y2960D02*
X54700D01*
X48200D02*
X51450D01*
X44950D02*
X48200D01*
X41700D02*
X44950D01*
X36500Y2500D02*
X36554D01*
X8370Y27870D02*
X10910D01*
X41700Y5500D02*
X44950D01*
X48200D01*
X51450D01*
X54700D01*
D51*
X51450Y2960D02*
D03*
X41700D02*
D03*
X54700D02*
D03*
X48200D02*
D03*
X44950D02*
D03*
X14000Y5730D02*
D03*
D52*
X6300Y19800D02*
D03*
X58000Y19500D02*
D03*
Y14500D02*
D03*
X6300Y14800D02*
D03*
Y9800D02*
D03*
D53*
X20320Y15240D02*
D03*
X27940Y20320D02*
D03*
X17780Y15240D02*
D03*
X30480Y20320D02*
D03*
X22860Y15240D02*
D03*
X25400D02*
D03*
X20320Y20320D02*
D03*
X25400D02*
D03*
X22860D02*
D03*
X27940Y15240D02*
D03*
D54*
X31500Y2500D02*
D03*
X29000D02*
D03*
X36500D02*
D03*
X34000D02*
D03*
D55*
X61600Y3700D02*
D03*
Y26700D02*
D03*
X3600Y3700D02*
D03*
Y26700D02*
D03*
D56*
X51450Y8040D02*
D03*
X54700D02*
D03*
X41700D02*
D03*
X44950D02*
D03*
X48200D02*
D03*
X51450Y5500D02*
D03*
X41700D02*
D03*
X54700D02*
D03*
X48200D02*
D03*
X44950D02*
D03*
X14000Y8270D02*
D03*
D57*
X17780Y20320D02*
D03*
X30480Y15240D02*
D03*
D58*
X31500Y22875D02*
D03*
X41726Y21989D02*
D03*
X35060Y1130D02*
D03*
X19533Y19028D02*
D03*
X26000Y17125D02*
D03*
X33375Y13875D02*
D03*
X31625Y18500D02*
D03*
X11375Y21250D02*
D03*
X12000Y17750D02*
D03*
X12250Y23500D02*
D03*
X15250Y22750D02*
D03*
X22250D02*
D03*
X26625D02*
D03*
X33750Y23500D02*
D03*
X52750Y22625D02*
D03*
X48250D02*
D03*
X45250D02*
D03*
X44750Y18000D02*
D03*
X55000Y20875D02*
D03*
X55125Y12375D02*
D03*
X55000Y17125D02*
D03*
X61625Y20750D02*
D03*
Y15875D02*
D03*
X61875Y8500D02*
D03*
X39125Y2375D02*
D03*
X32250Y9500D02*
D03*
X32625Y5875D02*
D03*
X24375Y4500D02*
D03*
X21500Y4000D02*
D03*
X15000Y3500D02*
D03*
X9500Y3375D02*
D03*
X11500Y6375D02*
D03*
X11875Y12375D02*
D03*
X2625Y12500D02*
D03*
Y17500D02*
D03*
X6250Y22750D02*
D03*
X47625Y16375D02*
D03*
X40000Y7875D02*
D03*
X38000Y9250D02*
D03*
X38250Y11875D02*
D03*
X33375Y15125D02*
D03*
X33250Y21000D02*
D03*
X33256Y8371D02*
D03*
X37000Y19500D02*
D03*
X42375Y23000D02*
D03*
X37875Y18000D02*
D03*
X38000Y16500D02*
D03*
X13250Y19125D02*
D03*
X40354Y13160D02*
D03*
X24750Y10000D02*
D03*
X24365Y7115D02*
D03*
X28375Y11250D02*
D03*
X24750Y6250D02*
D03*
X25750Y3866D02*
D03*
X28875Y8500D02*
D03*
X34500Y6000D02*
D03*
X34000Y7000D02*
D03*
Y9000D02*
D03*
X20000Y3500D02*
D03*
X49000Y18500D02*
D03*
X38000Y21500D02*
D03*
M02*
