G04*
G04 #@! TF.GenerationSoftware,Altium Limited,Altium Designer,26.8.1 (31)*
G04*
G04 Layer_Physical_Order=2*
G04 Layer_Color=16711680*
G04 Board_Origin=13779528|15748031*
%FSLAX43Y43*%
%MOMM*%
G71*
G04*
G04 #@! TF.SameCoordinates,D528AD27-129B-4EB7-BE98-D6C5A5286594*
G04*
G04*
G04 #@! TF.FilePolarity,Positive*
G04*
G01*
G75*
%ADD11C,0.250*%
%ADD15C,0.200*%
%ADD16C,0.500*%
%ADD17R,0.650X0.650*%
%ADD41C,1.390*%
%ADD47R,1.390X1.390*%
%ADD49C,0.300*%
%ADD50C,1.000*%
G04:AMPARAMS|DCode=51|XSize=1.6mm|YSize=1.6mm|CornerRadius=0.4mm|HoleSize=0mm|Usage=FLASHONLY|Rotation=90.000|XOffset=0mm|YOffset=0mm|HoleType=Round|Shape=RoundedRectangle|*
%AMROUNDEDRECTD51*
21,1,1.600,0.800,0,0,90.0*
21,1,0.800,1.600,0,0,90.0*
1,1,0.800,0.400,0.400*
1,1,0.800,0.400,-0.400*
1,1,0.800,-0.400,-0.400*
1,1,0.800,-0.400,0.400*
%
%ADD51ROUNDEDRECTD51*%
%ADD52C,2.500*%
%ADD53C,1.550*%
%ADD54C,1.200*%
%ADD55C,6.100*%
%ADD56C,1.600*%
%ADD57R,1.550X1.550*%
%ADD58C,0.600*%
G36*
X60090Y29690D02*
X59844Y29565D01*
X59418Y29255D01*
X59045Y28882D01*
X58735Y28456D01*
X58495Y27986D01*
X58332Y27484D01*
X58250Y26964D01*
Y26850D01*
X61600D01*
Y26700D01*
X61750D01*
Y23350D01*
X61864D01*
X62384Y23432D01*
X62886Y23595D01*
X63356Y23835D01*
X63782Y24145D01*
X64155Y24518D01*
X64465Y24944D01*
X64496Y25004D01*
X64690Y24958D01*
Y5442D01*
X64496Y5396D01*
X64465Y5456D01*
X64155Y5882D01*
X63782Y6255D01*
X63356Y6565D01*
X62886Y6805D01*
X62384Y6968D01*
X61864Y7050D01*
X61750D01*
Y3700D01*
X61600D01*
Y3550D01*
X58250D01*
Y3436D01*
X58332Y2916D01*
X58495Y2414D01*
X58735Y1944D01*
X59045Y1518D01*
X59418Y1145D01*
X59844Y835D01*
X60090Y710D01*
X60042Y510D01*
X33555D01*
X33478Y695D01*
X34339Y1556D01*
X34386Y1568D01*
X34614Y1700D01*
X34800Y1886D01*
X34932Y2114D01*
X35000Y2368D01*
Y2632D01*
X34932Y2886D01*
X34800Y3114D01*
X34614Y3300D01*
X34455Y3392D01*
X34508Y3592D01*
X34875D01*
X35110Y3623D01*
X35329Y3714D01*
X35517Y3858D01*
X40392Y8733D01*
X40536Y8921D01*
X40627Y9140D01*
X40658Y9375D01*
Y10499D01*
X43142Y12983D01*
X43142Y12983D01*
X43286Y13171D01*
X43377Y13390D01*
X43408Y13625D01*
Y18642D01*
X47574D01*
X48358Y17858D01*
X48546Y17714D01*
X48765Y17623D01*
X49000Y17592D01*
X49235Y17623D01*
X49454Y17714D01*
X49642Y17858D01*
X49786Y18046D01*
X49877Y18265D01*
X49908Y18500D01*
X49877Y18735D01*
X49786Y18954D01*
X49642Y19142D01*
X48592Y20192D01*
X48404Y20336D01*
X48185Y20427D01*
X47950Y20458D01*
X44658D01*
Y22414D01*
X44627Y22649D01*
X44536Y22868D01*
X44392Y23056D01*
X43806Y23642D01*
X43618Y23786D01*
X43399Y23877D01*
X43164Y23908D01*
X42375D01*
X42140Y23877D01*
X41921Y23786D01*
X41733Y23642D01*
X41589Y23454D01*
X41498Y23235D01*
X41467Y23000D01*
X41498Y22765D01*
X41589Y22546D01*
X41733Y22358D01*
X41921Y22214D01*
X42140Y22123D01*
X42375Y22092D01*
X42788D01*
X42842Y22038D01*
Y20458D01*
X40326D01*
X38642Y22142D01*
X38454Y22286D01*
X38235Y22377D01*
X38000Y22408D01*
X37765Y22377D01*
X37546Y22286D01*
X37358Y22142D01*
X37214Y21954D01*
X37123Y21735D01*
X37109Y21624D01*
X36909Y21637D01*
Y22188D01*
X37967Y23246D01*
X38078Y23411D01*
X38116Y23607D01*
Y24390D01*
X38316Y24489D01*
X38466Y24403D01*
X38700Y24340D01*
Y25330D01*
Y26320D01*
X38466Y26257D01*
X38306Y26165D01*
X38122Y26223D01*
X38084Y26254D01*
X38078Y26289D01*
X37967Y26454D01*
X37464Y26957D01*
X37323Y27051D01*
X37294Y27082D01*
X37236Y27284D01*
X37330Y27447D01*
X37405Y27726D01*
Y28014D01*
X37330Y28293D01*
X37186Y28542D01*
X36982Y28746D01*
X36733Y28890D01*
X36454Y28965D01*
X36166D01*
X35887Y28890D01*
X35638Y28746D01*
X35434Y28542D01*
X35290Y28293D01*
X35215Y28014D01*
Y27726D01*
X35282Y27477D01*
X35266Y27412D01*
X35167Y27260D01*
X35109Y27252D01*
X34816Y27545D01*
X34865Y27726D01*
Y28014D01*
X34790Y28293D01*
X34646Y28542D01*
X34442Y28746D01*
X34193Y28890D01*
X33914Y28965D01*
X33626D01*
X33347Y28890D01*
X33098Y28746D01*
X32894Y28542D01*
X32750Y28293D01*
X32675Y28014D01*
Y27726D01*
X32750Y27447D01*
X32894Y27198D01*
X33098Y26994D01*
X33347Y26850D01*
X33626Y26775D01*
X33914D01*
X34095Y26824D01*
X34536Y26383D01*
X34413Y26223D01*
X34193Y26350D01*
X33914Y26425D01*
X33626D01*
X33347Y26350D01*
X33098Y26206D01*
X32894Y26002D01*
X32750Y25753D01*
X32675Y25474D01*
Y25186D01*
X32750Y24907D01*
X32894Y24658D01*
X33098Y24454D01*
X33347Y24310D01*
X33626Y24235D01*
X33914D01*
X34095Y24284D01*
X34465Y23914D01*
Y22217D01*
X34280Y22141D01*
X31935Y24486D01*
X32106Y24658D01*
X32250Y24907D01*
X32325Y25186D01*
Y25474D01*
X32250Y25753D01*
X32106Y26002D01*
X31902Y26206D01*
X31653Y26350D01*
X31374Y26425D01*
X31086D01*
X30807Y26350D01*
X30558Y26206D01*
X30354Y26002D01*
X30210Y25753D01*
X30135Y25474D01*
Y25186D01*
X30210Y24907D01*
X30354Y24658D01*
X30558Y24454D01*
X30802Y24312D01*
X30823Y24211D01*
X30933Y24046D01*
X33090Y21889D01*
X33030Y21666D01*
X32980Y21652D01*
X32820Y21560D01*
X32690Y21430D01*
X32598Y21270D01*
X32550Y21092D01*
Y20908D01*
X32598Y20730D01*
X32690Y20570D01*
X32740Y20520D01*
Y19147D01*
X31013Y17419D01*
X30439D01*
X30421Y17454D01*
X30387Y17619D01*
X30536Y17733D01*
X31122Y18319D01*
X31266Y18507D01*
X31357Y18726D01*
X31388Y18961D01*
Y19566D01*
X31420Y19599D01*
X31575Y19866D01*
X31655Y20165D01*
Y20475D01*
X31575Y20774D01*
X31420Y21041D01*
X31283Y21179D01*
Y22000D01*
X31252Y22235D01*
X31161Y22454D01*
X31017Y22642D01*
X29672Y23986D01*
Y24842D01*
X29710Y24907D01*
X29785Y25186D01*
Y25474D01*
X29710Y25753D01*
X29566Y26002D01*
X29362Y26206D01*
X29113Y26350D01*
X28834Y26425D01*
X28546D01*
X28267Y26350D01*
X28018Y26206D01*
X27814Y26002D01*
X27670Y25753D01*
X27595Y25474D01*
Y25186D01*
X27670Y24907D01*
X27814Y24658D01*
X27857Y24615D01*
Y23610D01*
X27888Y23375D01*
X27978Y23156D01*
X28123Y22968D01*
X29467Y21624D01*
Y20915D01*
X29385Y20774D01*
X29305Y20475D01*
Y20165D01*
X29385Y19866D01*
X29540Y19599D01*
X29572Y19566D01*
Y19337D01*
X29518Y19283D01*
X28693D01*
X28639Y19387D01*
X28623Y19483D01*
X28800Y19660D01*
X28942Y19905D01*
X29013Y20170D01*
X26867D01*
X26938Y19905D01*
X27080Y19660D01*
X27257Y19483D01*
X27241Y19387D01*
X27187Y19283D01*
X26307D01*
X26224Y19483D01*
X26340Y19599D01*
X26495Y19866D01*
X26575Y20165D01*
Y20475D01*
X26495Y20774D01*
X26340Y21041D01*
X26121Y21260D01*
X25854Y21415D01*
X25555Y21495D01*
X25245D01*
X24946Y21415D01*
X24679Y21260D01*
X24460Y21041D01*
X24305Y20774D01*
X24225Y20475D01*
X24035D01*
X23955Y20774D01*
X23800Y21041D01*
X23581Y21260D01*
X23314Y21415D01*
X23015Y21495D01*
X22705D01*
X22406Y21415D01*
X22139Y21260D01*
X21920Y21041D01*
X21765Y20774D01*
X21685Y20475D01*
X21495D01*
X21415Y20774D01*
X21260Y21041D01*
X21041Y21260D01*
X20774Y21415D01*
X20475Y21495D01*
X20165D01*
X19866Y21415D01*
X19599Y21260D01*
X19380Y21041D01*
X19225Y20774D01*
X19155Y20512D01*
X18955Y20538D01*
Y21495D01*
X16605D01*
Y19145D01*
X18955D01*
Y20102D01*
X19155Y20128D01*
X19225Y19866D01*
X19380Y19599D01*
X19599Y19380D01*
X19866Y19225D01*
X20015Y19185D01*
X20041Y19146D01*
X20071Y18963D01*
X17485Y16377D01*
X17326Y16335D01*
X17059Y16180D01*
X16840Y15961D01*
X16685Y15694D01*
X16605Y15395D01*
Y15085D01*
X16685Y14786D01*
X16840Y14519D01*
X17059Y14300D01*
X17326Y14145D01*
X17625Y14065D01*
X17671D01*
X22112Y9624D01*
Y3480D01*
X22143Y3245D01*
X22234Y3026D01*
X22378Y2838D01*
X23124Y2093D01*
X23047Y1908D01*
X14751D01*
X10533Y6126D01*
Y23375D01*
X10502Y23610D01*
X10411Y23829D01*
X10296Y23979D01*
Y24220D01*
X10460Y24315D01*
X10496Y24307D01*
X10766Y24235D01*
X11054D01*
X11333Y24310D01*
X11582Y24454D01*
X11786Y24658D01*
X11930Y24907D01*
X12005Y25186D01*
Y25474D01*
X11930Y25753D01*
X11786Y26002D01*
X11582Y26206D01*
X11333Y26350D01*
X11054Y26425D01*
X10766D01*
X10496Y26353D01*
X10460Y26345D01*
X10296Y26440D01*
Y26760D01*
X10460Y26855D01*
X10496Y26847D01*
X10766Y26775D01*
X11054D01*
X11333Y26850D01*
X11582Y26994D01*
X11786Y27198D01*
X11930Y27447D01*
X12005Y27726D01*
Y28014D01*
X11930Y28293D01*
X11786Y28542D01*
X11582Y28746D01*
X11333Y28890D01*
X11054Y28965D01*
X10766D01*
X10487Y28890D01*
X10292Y28778D01*
X9465D01*
Y28965D01*
X7275D01*
Y26775D01*
X8984D01*
Y26440D01*
X8820Y26345D01*
X8784Y26353D01*
X8514Y26425D01*
X8226D01*
X7947Y26350D01*
X7698Y26206D01*
X7494Y26002D01*
X7350Y25753D01*
X7275Y25474D01*
Y25186D01*
X7350Y24907D01*
X7494Y24658D01*
X7698Y24454D01*
X7947Y24310D01*
X8226Y24235D01*
X8514D01*
X8784Y24307D01*
X8820Y24315D01*
X8984Y24220D01*
Y24018D01*
X8983Y24017D01*
X8839Y23829D01*
X8748Y23610D01*
X8717Y23375D01*
Y5750D01*
X8748Y5515D01*
X8839Y5296D01*
X8983Y5108D01*
X13397Y695D01*
X13320Y510D01*
X5158D01*
X5110Y710D01*
X5356Y835D01*
X5782Y1145D01*
X6155Y1518D01*
X6465Y1944D01*
X6705Y2414D01*
X6868Y2916D01*
X6950Y3436D01*
Y3550D01*
X3600D01*
Y3700D01*
X3450D01*
Y7050D01*
X3336D01*
X2816Y6968D01*
X2314Y6805D01*
X1844Y6565D01*
X1418Y6255D01*
X1045Y5882D01*
X735Y5456D01*
X704Y5396D01*
X510Y5442D01*
Y24958D01*
X704Y25004D01*
X735Y24944D01*
X1045Y24518D01*
X1418Y24145D01*
X1844Y23835D01*
X2314Y23595D01*
X2816Y23432D01*
X3336Y23350D01*
X3450D01*
Y26700D01*
X3600D01*
Y26850D01*
X6950D01*
Y26964D01*
X6868Y27484D01*
X6705Y27986D01*
X6465Y28456D01*
X6155Y28882D01*
X5782Y29255D01*
X5356Y29565D01*
X5110Y29690D01*
X5158Y29890D01*
X60042D01*
X60090Y29690D01*
D02*
G37*
G36*
X37123Y21265D02*
X37214Y21046D01*
X37358Y20858D01*
X39291Y18925D01*
X39283Y18857D01*
X39218Y18725D01*
X38325D01*
Y18725D01*
X38151Y18663D01*
X38125Y18658D01*
X37967Y18700D01*
X37783D01*
X37605Y18652D01*
X37445Y18560D01*
X37315Y18430D01*
X37223Y18270D01*
X37175Y18092D01*
Y17908D01*
X37223Y17730D01*
X37315Y17570D01*
X37445Y17440D01*
X37605Y17348D01*
X37661Y17333D01*
X37669Y17311D01*
X37676Y17121D01*
X37570Y17060D01*
X37440Y16930D01*
X37348Y16770D01*
X37300Y16592D01*
Y16408D01*
X37348Y16230D01*
X37440Y16070D01*
X37570Y15940D01*
X37730Y15848D01*
X37908Y15800D01*
X38092D01*
X38125Y15809D01*
X38325Y15775D01*
Y15775D01*
X40675D01*
Y17225D01*
X40675D01*
Y17275D01*
X40675D01*
Y18642D01*
X41592D01*
Y14001D01*
X39750Y12159D01*
X39392Y12517D01*
X39204Y12661D01*
X38985Y12752D01*
X38750Y12783D01*
X38250D01*
X38015Y12752D01*
X37796Y12661D01*
X37608Y12517D01*
X37464Y12329D01*
X37373Y12110D01*
X37342Y11875D01*
X37373Y11640D01*
X37464Y11421D01*
X37608Y11233D01*
X37796Y11089D01*
X38015Y10998D01*
X38250Y10967D01*
X38374D01*
X38842Y10499D01*
Y9751D01*
X37109Y8017D01*
X36909Y8100D01*
Y21363D01*
X37109Y21376D01*
X37123Y21265D01*
D02*
G37*
G36*
X26706Y17277D02*
X26706Y17267D01*
X25791Y16352D01*
X25555Y16415D01*
X25245D01*
X24946Y16335D01*
X24679Y16180D01*
X24460Y15961D01*
X24305Y15694D01*
X24225Y15395D01*
X24035D01*
X23955Y15694D01*
X23800Y15961D01*
X23581Y16180D01*
X23314Y16335D01*
X23015Y16415D01*
X22705D01*
X22406Y16335D01*
X22139Y16180D01*
X21920Y15961D01*
X21765Y15694D01*
X21685Y15395D01*
Y15085D01*
X21765Y14786D01*
X21920Y14519D01*
X22139Y14300D01*
X22406Y14145D01*
X22705Y14065D01*
X23015D01*
X23251Y14128D01*
X24240Y13140D01*
X24405Y13029D01*
X24600Y12990D01*
X31750D01*
X31945Y13029D01*
X32110Y13140D01*
X33396Y14425D01*
X33467D01*
X33488Y14431D01*
X33688Y14277D01*
Y10814D01*
X32895Y10021D01*
X32785Y9856D01*
X32746Y9660D01*
Y8851D01*
X32695Y8801D01*
X32603Y8641D01*
X32556Y8463D01*
Y8279D01*
X32603Y8101D01*
X32695Y7941D01*
X32826Y7811D01*
X32985Y7719D01*
X33163Y7671D01*
X33348D01*
X33417Y7689D01*
X33520Y7510D01*
X33440Y7430D01*
X33348Y7270D01*
X33300Y7092D01*
Y6908D01*
X33348Y6730D01*
X33440Y6570D01*
X33570Y6440D01*
X33730Y6348D01*
X33807Y6120D01*
X33800Y6092D01*
Y5908D01*
X33848Y5730D01*
X33918Y5608D01*
X33874Y5481D01*
X33819Y5408D01*
X31000D01*
X31000Y5408D01*
X30765Y5377D01*
X30546Y5286D01*
X30358Y5142D01*
X30358Y5142D01*
X28661Y3444D01*
X28614Y3432D01*
X28572Y3408D01*
X24376D01*
X23928Y3856D01*
Y5874D01*
X24128Y5928D01*
X24190Y5820D01*
X24320Y5690D01*
X24480Y5598D01*
X24658Y5550D01*
X24842D01*
X25020Y5598D01*
X25180Y5690D01*
X25310Y5820D01*
X25402Y5980D01*
X25450Y6158D01*
Y6193D01*
X25753Y6497D01*
X25870Y6670D01*
X25910Y6875D01*
Y8028D01*
X28432Y10550D01*
X28467D01*
X28645Y10598D01*
X28805Y10690D01*
X28935Y10820D01*
X29027Y10980D01*
X29075Y11158D01*
Y11342D01*
X29027Y11520D01*
X28935Y11680D01*
X28805Y11810D01*
X28645Y11902D01*
X28467Y11950D01*
X28283D01*
X28105Y11902D01*
X27945Y11810D01*
X27815Y11680D01*
X27723Y11520D01*
X27675Y11342D01*
Y11307D01*
X24997Y8628D01*
X24880Y8455D01*
X24840Y8250D01*
Y7097D01*
X24693Y6950D01*
X24658D01*
X24480Y6902D01*
X24320Y6810D01*
X24190Y6680D01*
X24128Y6572D01*
X23928Y6626D01*
Y9092D01*
X24750D01*
X24985Y9123D01*
X25204Y9214D01*
X25392Y9358D01*
X25536Y9546D01*
X25627Y9765D01*
X25658Y10000D01*
X25627Y10235D01*
X25536Y10454D01*
X25392Y10642D01*
X25204Y10786D01*
X24985Y10877D01*
X24750Y10908D01*
X23396D01*
X20339Y13965D01*
X20422Y14165D01*
X20462D01*
X20735Y14238D01*
X20980Y14380D01*
X21180Y14580D01*
X21322Y14825D01*
X21393Y15090D01*
X20320D01*
Y15390D01*
X21393D01*
X21322Y15655D01*
X21180Y15900D01*
X20980Y16100D01*
X20735Y16242D01*
X20462Y16315D01*
X20273D01*
X20190Y16515D01*
X21142Y17467D01*
X26644D01*
X26706Y17277D01*
D02*
G37*
%LPC*%
G36*
X49160Y28860D02*
Y28020D01*
X50000D01*
X49937Y28254D01*
X49806Y28481D01*
X49621Y28666D01*
X49394Y28797D01*
X49160Y28860D01*
D02*
G37*
G36*
X48860D02*
X48626Y28797D01*
X48399Y28666D01*
X48214Y28481D01*
X48083Y28254D01*
X48020Y28020D01*
X48860D01*
Y28860D01*
D02*
G37*
G36*
X44080D02*
Y28020D01*
X44920D01*
X44857Y28254D01*
X44726Y28481D01*
X44541Y28666D01*
X44314Y28797D01*
X44080Y28860D01*
D02*
G37*
G36*
X43780D02*
X43546Y28797D01*
X43319Y28666D01*
X43134Y28481D01*
X43003Y28254D01*
X42940Y28020D01*
X43780D01*
Y28860D01*
D02*
G37*
G36*
X31380D02*
Y28020D01*
X32220D01*
X32157Y28254D01*
X32026Y28481D01*
X31841Y28666D01*
X31614Y28797D01*
X31380Y28860D01*
D02*
G37*
G36*
X31080D02*
X30846Y28797D01*
X30619Y28666D01*
X30434Y28481D01*
X30303Y28254D01*
X30240Y28020D01*
X31080D01*
Y28860D01*
D02*
G37*
G36*
X23760D02*
Y28020D01*
X24600D01*
X24537Y28254D01*
X24406Y28481D01*
X24221Y28666D01*
X23994Y28797D01*
X23760Y28860D01*
D02*
G37*
G36*
X23460D02*
X23226Y28797D01*
X22999Y28666D01*
X22814Y28481D01*
X22683Y28254D01*
X22620Y28020D01*
X23460D01*
Y28860D01*
D02*
G37*
G36*
X13600D02*
Y28020D01*
X14440D01*
X14377Y28254D01*
X14246Y28481D01*
X14061Y28666D01*
X13834Y28797D01*
X13600Y28860D01*
D02*
G37*
G36*
X13300D02*
X13066Y28797D01*
X12839Y28666D01*
X12654Y28481D01*
X12523Y28254D01*
X12460Y28020D01*
X13300D01*
Y28860D01*
D02*
G37*
G36*
X50000Y27720D02*
X49160D01*
Y26880D01*
X49394Y26943D01*
X49621Y27074D01*
X49806Y27259D01*
X49937Y27486D01*
X50000Y27720D01*
D02*
G37*
G36*
X48860D02*
X48020D01*
X48083Y27486D01*
X48214Y27259D01*
X48399Y27074D01*
X48626Y26943D01*
X48860Y26880D01*
Y27720D01*
D02*
G37*
G36*
X44920D02*
X44080D01*
Y26880D01*
X44314Y26943D01*
X44541Y27074D01*
X44726Y27259D01*
X44857Y27486D01*
X44920Y27720D01*
D02*
G37*
G36*
X43780D02*
X42940D01*
X43003Y27486D01*
X43134Y27259D01*
X43319Y27074D01*
X43546Y26943D01*
X43780Y26880D01*
Y27720D01*
D02*
G37*
G36*
X32220D02*
X31380D01*
Y26880D01*
X31614Y26943D01*
X31841Y27074D01*
X32026Y27259D01*
X32157Y27486D01*
X32220Y27720D01*
D02*
G37*
G36*
X31080D02*
X30240D01*
X30303Y27486D01*
X30434Y27259D01*
X30619Y27074D01*
X30846Y26943D01*
X31080Y26880D01*
Y27720D01*
D02*
G37*
G36*
X24600D02*
X23760D01*
Y26880D01*
X23994Y26943D01*
X24221Y27074D01*
X24406Y27259D01*
X24537Y27486D01*
X24600Y27720D01*
D02*
G37*
G36*
X23460D02*
X22620D01*
X22683Y27486D01*
X22814Y27259D01*
X22999Y27074D01*
X23226Y26943D01*
X23460Y26880D01*
Y27720D01*
D02*
G37*
G36*
X14440D02*
X13600D01*
Y26880D01*
X13834Y26943D01*
X14061Y27074D01*
X14246Y27259D01*
X14377Y27486D01*
X14440Y27720D01*
D02*
G37*
G36*
X13300D02*
X12460D01*
X12523Y27486D01*
X12654Y27259D01*
X12839Y27074D01*
X13066Y26943D01*
X13300Y26880D01*
Y27720D01*
D02*
G37*
G36*
X56774Y28965D02*
X56486D01*
X56207Y28890D01*
X55958Y28746D01*
X55754Y28542D01*
X55610Y28293D01*
X55535Y28014D01*
Y27726D01*
X55610Y27447D01*
X55754Y27198D01*
X55958Y26994D01*
X56207Y26850D01*
X56486Y26775D01*
X56774D01*
X57053Y26850D01*
X57302Y26994D01*
X57506Y27198D01*
X57650Y27447D01*
X57725Y27726D01*
Y28014D01*
X57650Y28293D01*
X57506Y28542D01*
X57302Y28746D01*
X57053Y28890D01*
X56774Y28965D01*
D02*
G37*
G36*
X54234D02*
X53946D01*
X53667Y28890D01*
X53418Y28746D01*
X53214Y28542D01*
X53070Y28293D01*
X52995Y28014D01*
Y27726D01*
X53070Y27447D01*
X53214Y27198D01*
X53418Y26994D01*
X53667Y26850D01*
X53946Y26775D01*
X54234D01*
X54513Y26850D01*
X54762Y26994D01*
X54966Y27198D01*
X55110Y27447D01*
X55185Y27726D01*
Y28014D01*
X55110Y28293D01*
X54966Y28542D01*
X54762Y28746D01*
X54513Y28890D01*
X54234Y28965D01*
D02*
G37*
G36*
X51694D02*
X51406D01*
X51127Y28890D01*
X50878Y28746D01*
X50674Y28542D01*
X50530Y28293D01*
X50455Y28014D01*
Y27726D01*
X50530Y27447D01*
X50674Y27198D01*
X50878Y26994D01*
X51127Y26850D01*
X51406Y26775D01*
X51694D01*
X51973Y26850D01*
X52222Y26994D01*
X52426Y27198D01*
X52570Y27447D01*
X52645Y27726D01*
Y28014D01*
X52570Y28293D01*
X52426Y28542D01*
X52222Y28746D01*
X51973Y28890D01*
X51694Y28965D01*
D02*
G37*
G36*
X46614D02*
X46326D01*
X46047Y28890D01*
X45798Y28746D01*
X45594Y28542D01*
X45450Y28293D01*
X45375Y28014D01*
Y27726D01*
X45450Y27447D01*
X45594Y27198D01*
X45798Y26994D01*
X46047Y26850D01*
X46326Y26775D01*
X46614D01*
X46893Y26850D01*
X47142Y26994D01*
X47346Y27198D01*
X47490Y27447D01*
X47565Y27726D01*
Y28014D01*
X47490Y28293D01*
X47346Y28542D01*
X47142Y28746D01*
X46893Y28890D01*
X46614Y28965D01*
D02*
G37*
G36*
X41534D02*
X41246D01*
X40967Y28890D01*
X40718Y28746D01*
X40514Y28542D01*
X40370Y28293D01*
X40295Y28014D01*
Y27726D01*
X40370Y27447D01*
X40514Y27198D01*
X40718Y26994D01*
X40967Y26850D01*
X41246Y26775D01*
X41534D01*
X41813Y26850D01*
X42062Y26994D01*
X42266Y27198D01*
X42410Y27447D01*
X42485Y27726D01*
Y28014D01*
X42410Y28293D01*
X42266Y28542D01*
X42062Y28746D01*
X41813Y28890D01*
X41534Y28965D01*
D02*
G37*
G36*
X38994D02*
X38706D01*
X38427Y28890D01*
X38178Y28746D01*
X37974Y28542D01*
X37830Y28293D01*
X37755Y28014D01*
Y27726D01*
X37830Y27447D01*
X37974Y27198D01*
X38178Y26994D01*
X38427Y26850D01*
X38706Y26775D01*
X38994D01*
X39273Y26850D01*
X39522Y26994D01*
X39726Y27198D01*
X39870Y27447D01*
X39945Y27726D01*
Y28014D01*
X39870Y28293D01*
X39726Y28542D01*
X39522Y28746D01*
X39273Y28890D01*
X38994Y28965D01*
D02*
G37*
G36*
X28834D02*
X28546D01*
X28267Y28890D01*
X28018Y28746D01*
X27814Y28542D01*
X27670Y28293D01*
X27595Y28014D01*
Y27726D01*
X27670Y27447D01*
X27814Y27198D01*
X28018Y26994D01*
X28267Y26850D01*
X28546Y26775D01*
X28834D01*
X29113Y26850D01*
X29362Y26994D01*
X29566Y27198D01*
X29710Y27447D01*
X29785Y27726D01*
Y28014D01*
X29710Y28293D01*
X29566Y28542D01*
X29362Y28746D01*
X29113Y28890D01*
X28834Y28965D01*
D02*
G37*
G36*
X26294D02*
X26006D01*
X25727Y28890D01*
X25478Y28746D01*
X25274Y28542D01*
X25130Y28293D01*
X25055Y28014D01*
Y27726D01*
X25130Y27447D01*
X25274Y27198D01*
X25478Y26994D01*
X25727Y26850D01*
X26006Y26775D01*
X26294D01*
X26573Y26850D01*
X26822Y26994D01*
X27026Y27198D01*
X27170Y27447D01*
X27245Y27726D01*
Y28014D01*
X27170Y28293D01*
X27026Y28542D01*
X26822Y28746D01*
X26573Y28890D01*
X26294Y28965D01*
D02*
G37*
G36*
X21214D02*
X20926D01*
X20647Y28890D01*
X20398Y28746D01*
X20194Y28542D01*
X20050Y28293D01*
X19975Y28014D01*
Y27726D01*
X20050Y27447D01*
X20194Y27198D01*
X20398Y26994D01*
X20647Y26850D01*
X20926Y26775D01*
X21214D01*
X21493Y26850D01*
X21742Y26994D01*
X21946Y27198D01*
X22090Y27447D01*
X22165Y27726D01*
Y28014D01*
X22090Y28293D01*
X21946Y28542D01*
X21742Y28746D01*
X21493Y28890D01*
X21214Y28965D01*
D02*
G37*
G36*
X18674D02*
X18386D01*
X18107Y28890D01*
X17858Y28746D01*
X17654Y28542D01*
X17510Y28293D01*
X17435Y28014D01*
Y27726D01*
X17510Y27447D01*
X17654Y27198D01*
X17858Y26994D01*
X18107Y26850D01*
X18386Y26775D01*
X18674D01*
X18953Y26850D01*
X19202Y26994D01*
X19406Y27198D01*
X19550Y27447D01*
X19625Y27726D01*
Y28014D01*
X19550Y28293D01*
X19406Y28542D01*
X19202Y28746D01*
X18953Y28890D01*
X18674Y28965D01*
D02*
G37*
G36*
X16134D02*
X15846D01*
X15567Y28890D01*
X15318Y28746D01*
X15114Y28542D01*
X14970Y28293D01*
X14895Y28014D01*
Y27726D01*
X14970Y27447D01*
X15114Y27198D01*
X15318Y26994D01*
X15567Y26850D01*
X15846Y26775D01*
X16134D01*
X16413Y26850D01*
X16662Y26994D01*
X16866Y27198D01*
X17010Y27447D01*
X17085Y27726D01*
Y28014D01*
X17010Y28293D01*
X16866Y28542D01*
X16662Y28746D01*
X16413Y28890D01*
X16134Y28965D01*
D02*
G37*
G36*
X56780Y26320D02*
Y25480D01*
X57620D01*
X57557Y25714D01*
X57426Y25941D01*
X57241Y26126D01*
X57014Y26257D01*
X56780Y26320D01*
D02*
G37*
G36*
X56480D02*
X56246Y26257D01*
X56019Y26126D01*
X55834Y25941D01*
X55703Y25714D01*
X55640Y25480D01*
X56480D01*
Y26320D01*
D02*
G37*
G36*
X39000D02*
Y25480D01*
X39840D01*
X39777Y25714D01*
X39646Y25941D01*
X39461Y26126D01*
X39234Y26257D01*
X39000Y26320D01*
D02*
G37*
G36*
X18680D02*
Y25480D01*
X19520D01*
X19457Y25714D01*
X19326Y25941D01*
X19141Y26126D01*
X18914Y26257D01*
X18680Y26320D01*
D02*
G37*
G36*
X18380D02*
X18146Y26257D01*
X17919Y26126D01*
X17734Y25941D01*
X17603Y25714D01*
X17540Y25480D01*
X18380D01*
Y26320D01*
D02*
G37*
G36*
X57620Y25180D02*
X56780D01*
Y24340D01*
X57014Y24403D01*
X57241Y24534D01*
X57426Y24719D01*
X57557Y24946D01*
X57620Y25180D01*
D02*
G37*
G36*
X56480D02*
X55640D01*
X55703Y24946D01*
X55834Y24719D01*
X56019Y24534D01*
X56246Y24403D01*
X56480Y24340D01*
Y25180D01*
D02*
G37*
G36*
X39840D02*
X39000D01*
Y24340D01*
X39234Y24403D01*
X39461Y24534D01*
X39646Y24719D01*
X39777Y24946D01*
X39840Y25180D01*
D02*
G37*
G36*
X19520D02*
X18680D01*
Y24340D01*
X18914Y24403D01*
X19141Y24534D01*
X19326Y24719D01*
X19457Y24946D01*
X19520Y25180D01*
D02*
G37*
G36*
X18380D02*
X17540D01*
X17603Y24946D01*
X17734Y24719D01*
X17919Y24534D01*
X18146Y24403D01*
X18380Y24340D01*
Y25180D01*
D02*
G37*
G36*
X54234Y26425D02*
X53946D01*
X53667Y26350D01*
X53418Y26206D01*
X53214Y26002D01*
X53070Y25753D01*
X52995Y25474D01*
Y25186D01*
X53070Y24907D01*
X53214Y24658D01*
X53418Y24454D01*
X53667Y24310D01*
X53946Y24235D01*
X54234D01*
X54513Y24310D01*
X54762Y24454D01*
X54966Y24658D01*
X55110Y24907D01*
X55185Y25186D01*
Y25474D01*
X55110Y25753D01*
X54966Y26002D01*
X54762Y26206D01*
X54513Y26350D01*
X54234Y26425D01*
D02*
G37*
G36*
X51694D02*
X51406D01*
X51127Y26350D01*
X50878Y26206D01*
X50674Y26002D01*
X50530Y25753D01*
X50455Y25474D01*
Y25186D01*
X50530Y24907D01*
X50674Y24658D01*
X50878Y24454D01*
X51127Y24310D01*
X51406Y24235D01*
X51694D01*
X51973Y24310D01*
X52222Y24454D01*
X52426Y24658D01*
X52570Y24907D01*
X52645Y25186D01*
Y25474D01*
X52570Y25753D01*
X52426Y26002D01*
X52222Y26206D01*
X51973Y26350D01*
X51694Y26425D01*
D02*
G37*
G36*
X49154D02*
X48866D01*
X48587Y26350D01*
X48338Y26206D01*
X48134Y26002D01*
X47990Y25753D01*
X47915Y25474D01*
Y25186D01*
X47990Y24907D01*
X48134Y24658D01*
X48338Y24454D01*
X48587Y24310D01*
X48866Y24235D01*
X49154D01*
X49433Y24310D01*
X49682Y24454D01*
X49886Y24658D01*
X50030Y24907D01*
X50105Y25186D01*
Y25474D01*
X50030Y25753D01*
X49886Y26002D01*
X49682Y26206D01*
X49433Y26350D01*
X49154Y26425D01*
D02*
G37*
G36*
X46614D02*
X46326D01*
X46047Y26350D01*
X45798Y26206D01*
X45594Y26002D01*
X45450Y25753D01*
X45375Y25474D01*
Y25186D01*
X45450Y24907D01*
X45594Y24658D01*
X45798Y24454D01*
X46047Y24310D01*
X46326Y24235D01*
X46614D01*
X46893Y24310D01*
X47142Y24454D01*
X47346Y24658D01*
X47490Y24907D01*
X47565Y25186D01*
Y25474D01*
X47490Y25753D01*
X47346Y26002D01*
X47142Y26206D01*
X46893Y26350D01*
X46614Y26425D01*
D02*
G37*
G36*
X44074D02*
X43786D01*
X43507Y26350D01*
X43258Y26206D01*
X43054Y26002D01*
X42910Y25753D01*
X42835Y25474D01*
Y25186D01*
X42910Y24907D01*
X43054Y24658D01*
X43258Y24454D01*
X43507Y24310D01*
X43786Y24235D01*
X44074D01*
X44353Y24310D01*
X44602Y24454D01*
X44806Y24658D01*
X44950Y24907D01*
X45025Y25186D01*
Y25474D01*
X44950Y25753D01*
X44806Y26002D01*
X44602Y26206D01*
X44353Y26350D01*
X44074Y26425D01*
D02*
G37*
G36*
X41534D02*
X41246D01*
X40967Y26350D01*
X40718Y26206D01*
X40514Y26002D01*
X40370Y25753D01*
X40295Y25474D01*
Y25186D01*
X40370Y24907D01*
X40514Y24658D01*
X40718Y24454D01*
X40967Y24310D01*
X41246Y24235D01*
X41534D01*
X41813Y24310D01*
X42062Y24454D01*
X42266Y24658D01*
X42410Y24907D01*
X42485Y25186D01*
Y25474D01*
X42410Y25753D01*
X42266Y26002D01*
X42062Y26206D01*
X41813Y26350D01*
X41534Y26425D01*
D02*
G37*
G36*
X26294D02*
X26006D01*
X25727Y26350D01*
X25478Y26206D01*
X25274Y26002D01*
X25130Y25753D01*
X25055Y25474D01*
Y25186D01*
X25130Y24907D01*
X25274Y24658D01*
X25478Y24454D01*
X25727Y24310D01*
X26006Y24235D01*
X26294D01*
X26573Y24310D01*
X26822Y24454D01*
X27026Y24658D01*
X27170Y24907D01*
X27245Y25186D01*
Y25474D01*
X27170Y25753D01*
X27026Y26002D01*
X26822Y26206D01*
X26573Y26350D01*
X26294Y26425D01*
D02*
G37*
G36*
X23754D02*
X23466D01*
X23187Y26350D01*
X22938Y26206D01*
X22734Y26002D01*
X22590Y25753D01*
X22515Y25474D01*
Y25186D01*
X22590Y24907D01*
X22734Y24658D01*
X22938Y24454D01*
X23187Y24310D01*
X23466Y24235D01*
X23754D01*
X24033Y24310D01*
X24282Y24454D01*
X24486Y24658D01*
X24630Y24907D01*
X24705Y25186D01*
Y25474D01*
X24630Y25753D01*
X24486Y26002D01*
X24282Y26206D01*
X24033Y26350D01*
X23754Y26425D01*
D02*
G37*
G36*
X21214D02*
X20926D01*
X20647Y26350D01*
X20398Y26206D01*
X20194Y26002D01*
X20050Y25753D01*
X19975Y25474D01*
Y25186D01*
X20050Y24907D01*
X20194Y24658D01*
X20398Y24454D01*
X20647Y24310D01*
X20926Y24235D01*
X21214D01*
X21493Y24310D01*
X21742Y24454D01*
X21946Y24658D01*
X22090Y24907D01*
X22165Y25186D01*
Y25474D01*
X22090Y25753D01*
X21946Y26002D01*
X21742Y26206D01*
X21493Y26350D01*
X21214Y26425D01*
D02*
G37*
G36*
X16134D02*
X15846D01*
X15567Y26350D01*
X15318Y26206D01*
X15114Y26002D01*
X14970Y25753D01*
X14895Y25474D01*
Y25186D01*
X14970Y24907D01*
X15114Y24658D01*
X15318Y24454D01*
X15567Y24310D01*
X15846Y24235D01*
X16134D01*
X16413Y24310D01*
X16662Y24454D01*
X16866Y24658D01*
X17010Y24907D01*
X17085Y25186D01*
Y25474D01*
X17010Y25753D01*
X16866Y26002D01*
X16662Y26206D01*
X16413Y26350D01*
X16134Y26425D01*
D02*
G37*
G36*
X13594D02*
X13306D01*
X13027Y26350D01*
X12778Y26206D01*
X12574Y26002D01*
X12430Y25753D01*
X12355Y25474D01*
Y25186D01*
X12430Y24907D01*
X12574Y24658D01*
X12778Y24454D01*
X13027Y24310D01*
X13306Y24235D01*
X13594D01*
X13873Y24310D01*
X14122Y24454D01*
X14326Y24658D01*
X14470Y24907D01*
X14545Y25186D01*
Y25474D01*
X14470Y25753D01*
X14326Y26002D01*
X14122Y26206D01*
X13873Y26350D01*
X13594Y26425D01*
D02*
G37*
G36*
X61450Y26550D02*
X58250D01*
Y26436D01*
X58332Y25916D01*
X58495Y25414D01*
X58735Y24944D01*
X59045Y24518D01*
X59418Y24145D01*
X59844Y23835D01*
X60314Y23595D01*
X60816Y23432D01*
X61336Y23350D01*
X61450D01*
Y26550D01*
D02*
G37*
G36*
X6950D02*
X3750D01*
Y23350D01*
X3864D01*
X4384Y23432D01*
X4886Y23595D01*
X5356Y23835D01*
X5782Y24145D01*
X6155Y24518D01*
X6465Y24944D01*
X6705Y25414D01*
X6868Y25916D01*
X6950Y26436D01*
Y26550D01*
D02*
G37*
G36*
X28090Y21393D02*
Y20470D01*
X29013D01*
X28942Y20735D01*
X28800Y20980D01*
X28600Y21180D01*
X28355Y21322D01*
X28090Y21393D01*
D02*
G37*
G36*
X27790D02*
X27525Y21322D01*
X27280Y21180D01*
X27080Y20980D01*
X26938Y20735D01*
X26867Y20470D01*
X27790D01*
Y21393D01*
D02*
G37*
G36*
X6453Y21350D02*
X6450D01*
Y19950D01*
X7850D01*
Y19953D01*
X7790Y20252D01*
X7674Y20534D01*
X7504Y20788D01*
X7288Y21004D01*
X7034Y21174D01*
X6752Y21290D01*
X6453Y21350D01*
D02*
G37*
G36*
X6150D02*
X6147D01*
X5848Y21290D01*
X5566Y21174D01*
X5312Y21004D01*
X5096Y20788D01*
X4926Y20534D01*
X4810Y20252D01*
X4750Y19953D01*
Y19950D01*
X6150D01*
Y21350D01*
D02*
G37*
G36*
X58153Y21050D02*
X58150D01*
Y19650D01*
X59550D01*
Y19653D01*
X59490Y19952D01*
X59374Y20234D01*
X59204Y20488D01*
X58988Y20704D01*
X58734Y20874D01*
X58452Y20990D01*
X58153Y21050D01*
D02*
G37*
G36*
X57850D02*
X57847D01*
X57548Y20990D01*
X57266Y20874D01*
X57012Y20704D01*
X56796Y20488D01*
X56626Y20234D01*
X56510Y19952D01*
X56450Y19653D01*
Y19650D01*
X57850D01*
Y21050D01*
D02*
G37*
G36*
X7850Y19650D02*
X6450D01*
Y18250D01*
X6453D01*
X6752Y18310D01*
X7034Y18426D01*
X7288Y18596D01*
X7504Y18812D01*
X7674Y19066D01*
X7790Y19348D01*
X7850Y19647D01*
Y19650D01*
D02*
G37*
G36*
X6150D02*
X4750D01*
Y19647D01*
X4810Y19348D01*
X4926Y19066D01*
X5096Y18812D01*
X5312Y18596D01*
X5566Y18426D01*
X5848Y18310D01*
X6147Y18250D01*
X6150D01*
Y19650D01*
D02*
G37*
G36*
X59550Y19350D02*
X58150D01*
Y17950D01*
X58153D01*
X58452Y18010D01*
X58734Y18126D01*
X58988Y18296D01*
X59204Y18512D01*
X59374Y18766D01*
X59490Y19048D01*
X59550Y19347D01*
Y19350D01*
D02*
G37*
G36*
X57850D02*
X56450D01*
Y19347D01*
X56510Y19048D01*
X56626Y18766D01*
X56796Y18512D01*
X57012Y18296D01*
X57266Y18126D01*
X57548Y18010D01*
X57847Y17950D01*
X57850D01*
Y19350D01*
D02*
G37*
G36*
X6463Y16450D02*
X6137D01*
X5819Y16387D01*
X5518Y16262D01*
X5248Y16082D01*
X5018Y15852D01*
X4838Y15582D01*
X4713Y15281D01*
X4650Y14963D01*
Y14637D01*
X4713Y14319D01*
X4838Y14018D01*
X5018Y13748D01*
X5248Y13518D01*
X5518Y13338D01*
X5819Y13213D01*
X6137Y13150D01*
X6463D01*
X6781Y13213D01*
X7082Y13338D01*
X7352Y13518D01*
X7582Y13748D01*
X7762Y14018D01*
X7887Y14319D01*
X7950Y14637D01*
Y14963D01*
X7887Y15281D01*
X7762Y15582D01*
X7582Y15852D01*
X7352Y16082D01*
X7082Y16262D01*
X6781Y16387D01*
X6463Y16450D01*
D02*
G37*
G36*
Y11450D02*
X6137D01*
X5819Y11387D01*
X5518Y11262D01*
X5248Y11082D01*
X5018Y10852D01*
X4838Y10582D01*
X4713Y10281D01*
X4650Y9963D01*
Y9637D01*
X4713Y9319D01*
X4838Y9018D01*
X5018Y8748D01*
X5248Y8518D01*
X5518Y8338D01*
X5819Y8213D01*
X6137Y8150D01*
X6463D01*
X6781Y8213D01*
X7082Y8338D01*
X7352Y8518D01*
X7582Y8748D01*
X7762Y9018D01*
X7887Y9319D01*
X7950Y9637D01*
Y9963D01*
X7887Y10281D01*
X7762Y10582D01*
X7582Y10852D01*
X7352Y11082D01*
X7082Y11262D01*
X6781Y11387D01*
X6463Y11450D01*
D02*
G37*
G36*
X58163Y16150D02*
X57837D01*
X57519Y16087D01*
X57218Y15962D01*
X56948Y15782D01*
X56718Y15552D01*
X56538Y15282D01*
X56413Y14981D01*
X56350Y14663D01*
Y14337D01*
X56413Y14019D01*
X56538Y13718D01*
X56718Y13448D01*
X56948Y13218D01*
X57092Y13122D01*
Y7876D01*
X55739Y6523D01*
X55329D01*
X55163Y6618D01*
X54983Y6666D01*
Y6874D01*
X55163Y6922D01*
X55437Y7080D01*
X55660Y7303D01*
X55818Y7577D01*
X55900Y7882D01*
Y8198D01*
X55818Y8503D01*
X55660Y8777D01*
X55437Y9000D01*
X55163Y9158D01*
X54858Y9240D01*
X54542D01*
X54237Y9158D01*
X53963Y9000D01*
X53740Y8777D01*
X53582Y8503D01*
X53500Y8198D01*
Y7882D01*
X53582Y7577D01*
X53740Y7303D01*
X53963Y7080D01*
X54237Y6922D01*
X54417Y6874D01*
Y6666D01*
X54237Y6618D01*
X53963Y6460D01*
X53911Y6408D01*
X52239D01*
X52187Y6460D01*
X51913Y6618D01*
X51733Y6666D01*
Y6874D01*
X51913Y6922D01*
X52187Y7080D01*
X52410Y7303D01*
X52568Y7577D01*
X52650Y7882D01*
Y8198D01*
X52568Y8503D01*
X52410Y8777D01*
X52187Y9000D01*
X51913Y9158D01*
X51608Y9240D01*
X51292D01*
X50987Y9158D01*
X50713Y9000D01*
X50490Y8777D01*
X50332Y8503D01*
X50250Y8198D01*
Y7882D01*
X50332Y7577D01*
X50490Y7303D01*
X50713Y7080D01*
X50987Y6922D01*
X51167Y6874D01*
Y6666D01*
X50987Y6618D01*
X50713Y6460D01*
X50661Y6408D01*
X48989D01*
X48937Y6460D01*
X48663Y6618D01*
X48483Y6666D01*
Y6874D01*
X48663Y6922D01*
X48937Y7080D01*
X49160Y7303D01*
X49318Y7577D01*
X49400Y7882D01*
Y8198D01*
X49318Y8503D01*
X49160Y8777D01*
X48937Y9000D01*
X48663Y9158D01*
X48358Y9240D01*
X48042D01*
X47737Y9158D01*
X47463Y9000D01*
X47240Y8777D01*
X47082Y8503D01*
X47000Y8198D01*
Y7882D01*
X47082Y7577D01*
X47240Y7303D01*
X47463Y7080D01*
X47737Y6922D01*
X47917Y6874D01*
Y6666D01*
X47737Y6618D01*
X47463Y6460D01*
X47411Y6408D01*
X45739D01*
X45687Y6460D01*
X45413Y6618D01*
X45233Y6666D01*
Y6874D01*
X45413Y6922D01*
X45687Y7080D01*
X45910Y7303D01*
X46068Y7577D01*
X46150Y7882D01*
Y8198D01*
X46068Y8503D01*
X45910Y8777D01*
X45687Y9000D01*
X45413Y9158D01*
X45108Y9240D01*
X44792D01*
X44487Y9158D01*
X44213Y9000D01*
X43990Y8777D01*
X43832Y8503D01*
X43750Y8198D01*
Y7882D01*
X43832Y7577D01*
X43990Y7303D01*
X44213Y7080D01*
X44487Y6922D01*
X44667Y6874D01*
Y6666D01*
X44487Y6618D01*
X44213Y6460D01*
X44161Y6408D01*
X42489D01*
X42437Y6460D01*
X42163Y6618D01*
X41983Y6666D01*
Y6874D01*
X42163Y6922D01*
X42437Y7080D01*
X42660Y7303D01*
X42818Y7577D01*
X42900Y7882D01*
Y8198D01*
X42818Y8503D01*
X42660Y8777D01*
X42437Y9000D01*
X42163Y9158D01*
X41858Y9240D01*
X41542D01*
X41237Y9158D01*
X40963Y9000D01*
X40740Y8777D01*
X40582Y8503D01*
X40500Y8198D01*
Y7882D01*
X40582Y7577D01*
X40740Y7303D01*
X40963Y7080D01*
X41237Y6922D01*
X41417Y6874D01*
Y6666D01*
X41237Y6618D01*
X40963Y6460D01*
X40911Y6408D01*
X39500D01*
X39265Y6377D01*
X39046Y6286D01*
X38858Y6142D01*
X38858Y6142D01*
X36161Y3444D01*
X36114Y3432D01*
X35886Y3300D01*
X35700Y3114D01*
X35568Y2886D01*
X35500Y2632D01*
Y2368D01*
X35568Y2114D01*
X35700Y1886D01*
X35886Y1700D01*
X36114Y1568D01*
X36368Y1500D01*
X36632D01*
X36886Y1568D01*
X37114Y1700D01*
X37300Y1886D01*
X37432Y2114D01*
X37444Y2161D01*
X39876Y4592D01*
X40911D01*
X40963Y4540D01*
X41237Y4382D01*
X41542Y4300D01*
X41858D01*
X42163Y4382D01*
X42437Y4540D01*
X42489Y4592D01*
X44161D01*
X44213Y4540D01*
X44487Y4382D01*
X44792Y4300D01*
X45108D01*
X45413Y4382D01*
X45687Y4540D01*
X45739Y4592D01*
X47411D01*
X47463Y4540D01*
X47737Y4382D01*
X48042Y4300D01*
X48358D01*
X48663Y4382D01*
X48937Y4540D01*
X48989Y4592D01*
X50661D01*
X50713Y4540D01*
X50987Y4382D01*
X51292Y4300D01*
X51608D01*
X51913Y4382D01*
X52187Y4540D01*
X52239Y4592D01*
X53911D01*
X53963Y4540D01*
X54237Y4382D01*
X54542Y4300D01*
X54858D01*
X55163Y4382D01*
X55437Y4540D01*
X55604Y4707D01*
X56115D01*
X56350Y4738D01*
X56569Y4829D01*
X56757Y4973D01*
X58642Y6858D01*
X58786Y7046D01*
X58877Y7265D01*
X58908Y7500D01*
Y13122D01*
X59052Y13218D01*
X59282Y13448D01*
X59462Y13718D01*
X59587Y14019D01*
X59650Y14337D01*
Y14663D01*
X59587Y14981D01*
X59462Y15282D01*
X59282Y15552D01*
X59052Y15782D01*
X58782Y15962D01*
X58481Y16087D01*
X58163Y16150D01*
D02*
G37*
G36*
X14158Y9470D02*
X13842D01*
X13537Y9388D01*
X13263Y9230D01*
X13040Y9007D01*
X12882Y8733D01*
X12800Y8428D01*
Y8112D01*
X12882Y7807D01*
X13040Y7533D01*
X13263Y7310D01*
X13537Y7152D01*
X13597Y7136D01*
X13600Y6937D01*
X13391Y6909D01*
X13197Y6829D01*
X13029Y6701D01*
X12901Y6533D01*
X12821Y6339D01*
X12793Y6130D01*
Y5330D01*
X12821Y5121D01*
X12901Y4927D01*
X13029Y4759D01*
X13197Y4631D01*
X13391Y4551D01*
X13600Y4523D01*
X14400D01*
X14609Y4551D01*
X14803Y4631D01*
X14971Y4759D01*
X15099Y4927D01*
X15179Y5121D01*
X15207Y5330D01*
Y6130D01*
X15179Y6339D01*
X15099Y6533D01*
X14971Y6701D01*
X14803Y6829D01*
X14609Y6909D01*
X14400Y6937D01*
X14403Y7136D01*
X14463Y7152D01*
X14737Y7310D01*
X14960Y7533D01*
X15118Y7807D01*
X15200Y8112D01*
Y8428D01*
X15118Y8733D01*
X14960Y9007D01*
X14737Y9230D01*
X14463Y9388D01*
X14158Y9470D01*
D02*
G37*
G36*
X61450Y7050D02*
X61336D01*
X60816Y6968D01*
X60314Y6805D01*
X59844Y6565D01*
X59418Y6255D01*
X59045Y5882D01*
X58735Y5456D01*
X58495Y4986D01*
X58332Y4484D01*
X58250Y3964D01*
Y3850D01*
X61450D01*
Y7050D01*
D02*
G37*
G36*
X3864D02*
X3750D01*
Y3850D01*
X6950D01*
Y3964D01*
X6868Y4484D01*
X6705Y4986D01*
X6465Y5456D01*
X6155Y5882D01*
X5782Y6255D01*
X5356Y6565D01*
X4886Y6805D01*
X4384Y6968D01*
X3864Y7050D01*
D02*
G37*
G36*
X42100Y4066D02*
X41850D01*
Y3110D01*
X42806D01*
Y3360D01*
X42782Y3543D01*
X42711Y3713D01*
X42599Y3859D01*
X42453Y3971D01*
X42283Y4042D01*
X42100Y4066D01*
D02*
G37*
G36*
X41550D02*
X41300D01*
X41117Y4042D01*
X40947Y3971D01*
X40801Y3859D01*
X40689Y3713D01*
X40618Y3543D01*
X40594Y3360D01*
Y3110D01*
X41550D01*
Y4066D01*
D02*
G37*
G36*
X48600D02*
X48350D01*
Y3110D01*
X49306D01*
Y3360D01*
X49282Y3543D01*
X49211Y3713D01*
X49099Y3859D01*
X48953Y3971D01*
X48783Y4042D01*
X48600Y4066D01*
D02*
G37*
G36*
X45350D02*
X45100D01*
Y3110D01*
X46056D01*
Y3360D01*
X46032Y3543D01*
X45961Y3713D01*
X45849Y3859D01*
X45703Y3971D01*
X45533Y4042D01*
X45350Y4066D01*
D02*
G37*
G36*
X55100D02*
X54850D01*
Y3110D01*
X55806D01*
Y3360D01*
X55782Y3543D01*
X55711Y3713D01*
X55599Y3859D01*
X55453Y3971D01*
X55283Y4042D01*
X55100Y4066D01*
D02*
G37*
G36*
X51850D02*
X51600D01*
Y3110D01*
X52556D01*
Y3360D01*
X52532Y3543D01*
X52461Y3713D01*
X52349Y3859D01*
X52203Y3971D01*
X52033Y4042D01*
X51850Y4066D01*
D02*
G37*
G36*
X48050D02*
X47800D01*
X47617Y4042D01*
X47447Y3971D01*
X47301Y3859D01*
X47189Y3713D01*
X47118Y3543D01*
X47094Y3360D01*
Y3110D01*
X48050D01*
Y4066D01*
D02*
G37*
G36*
X44800D02*
X44550D01*
X44367Y4042D01*
X44197Y3971D01*
X44051Y3859D01*
X43939Y3713D01*
X43868Y3543D01*
X43844Y3360D01*
Y3110D01*
X44800D01*
Y4066D01*
D02*
G37*
G36*
X54550D02*
X54300D01*
X54117Y4042D01*
X53947Y3971D01*
X53801Y3859D01*
X53689Y3713D01*
X53618Y3543D01*
X53594Y3360D01*
Y3110D01*
X54550D01*
Y4066D01*
D02*
G37*
G36*
X51300D02*
X51050D01*
X50867Y4042D01*
X50697Y3971D01*
X50551Y3859D01*
X50439Y3713D01*
X50368Y3543D01*
X50344Y3360D01*
Y3110D01*
X51300D01*
Y4066D01*
D02*
G37*
G36*
X55806Y2810D02*
X54850D01*
Y1854D01*
X55100D01*
X55283Y1878D01*
X55453Y1949D01*
X55599Y2061D01*
X55711Y2207D01*
X55782Y2377D01*
X55806Y2560D01*
Y2810D01*
D02*
G37*
G36*
X54550D02*
X53594D01*
Y2560D01*
X53618Y2377D01*
X53689Y2207D01*
X53801Y2061D01*
X53947Y1949D01*
X54117Y1878D01*
X54300Y1854D01*
X54550D01*
Y2810D01*
D02*
G37*
G36*
X52556D02*
X51600D01*
Y1854D01*
X51850D01*
X52033Y1878D01*
X52203Y1949D01*
X52349Y2061D01*
X52461Y2207D01*
X52532Y2377D01*
X52556Y2560D01*
Y2810D01*
D02*
G37*
G36*
X51300D02*
X50344D01*
Y2560D01*
X50368Y2377D01*
X50439Y2207D01*
X50551Y2061D01*
X50697Y1949D01*
X50867Y1878D01*
X51050Y1854D01*
X51300D01*
Y2810D01*
D02*
G37*
G36*
X49306D02*
X48350D01*
Y1854D01*
X48600D01*
X48783Y1878D01*
X48953Y1949D01*
X49099Y2061D01*
X49211Y2207D01*
X49282Y2377D01*
X49306Y2560D01*
Y2810D01*
D02*
G37*
G36*
X48050D02*
X47094D01*
Y2560D01*
X47118Y2377D01*
X47189Y2207D01*
X47301Y2061D01*
X47447Y1949D01*
X47617Y1878D01*
X47800Y1854D01*
X48050D01*
Y2810D01*
D02*
G37*
G36*
X46056D02*
X45100D01*
Y1854D01*
X45350D01*
X45533Y1878D01*
X45703Y1949D01*
X45849Y2061D01*
X45961Y2207D01*
X46032Y2377D01*
X46056Y2560D01*
Y2810D01*
D02*
G37*
G36*
X44800D02*
X43844D01*
Y2560D01*
X43868Y2377D01*
X43939Y2207D01*
X44051Y2061D01*
X44197Y1949D01*
X44367Y1878D01*
X44550Y1854D01*
X44800D01*
Y2810D01*
D02*
G37*
G36*
X42806Y2810D02*
X41850D01*
Y1854D01*
X42100D01*
X42283Y1878D01*
X42453Y1949D01*
X42599Y2061D01*
X42711Y2207D01*
X42782Y2377D01*
X42806Y2560D01*
Y2810D01*
D02*
G37*
G36*
X41550D02*
X40594D01*
Y2560D01*
X40618Y2377D01*
X40689Y2207D01*
X40801Y2061D01*
X40947Y1949D01*
X41117Y1878D01*
X41300Y1854D01*
X41550D01*
Y2810D01*
D02*
G37*
%LPD*%
D11*
X25375Y8250D02*
X28375Y11250D01*
X25375Y6875D02*
Y8250D01*
X24750Y6250D02*
X25375Y6875D01*
D15*
X31224Y16909D02*
X33250Y18935D01*
X25400Y15240D02*
X27069Y16909D01*
X31224D01*
X33250Y18935D02*
Y21000D01*
X22860Y15240D02*
X24600Y13500D01*
X31750D01*
X33375Y15125D01*
X36399Y7899D02*
Y22399D01*
X37607Y23607D02*
Y26093D01*
X36399Y22399D02*
X37607Y23607D01*
X33256Y8371D02*
Y9660D01*
X34198Y10603D01*
Y21502D01*
X31294Y24406D02*
X34198Y21502D01*
X34000Y9000D02*
X34975Y9975D01*
X33770Y25330D02*
X34975Y24125D01*
Y9975D02*
Y24125D01*
X35754Y8754D02*
Y23254D01*
X34000Y7000D02*
X35754Y8754D01*
Y23254D02*
X36310Y23810D01*
X34500Y6000D02*
X36399Y7899D01*
X37875Y18000D02*
X39050D01*
X39050Y16500D02*
X39050Y16500D01*
X38000Y16500D02*
X39050D01*
X36310Y23810D02*
Y25330D01*
X37103Y26597D02*
X37607Y26093D01*
X35043Y26597D02*
X37103D01*
X33770Y27870D02*
X35043Y26597D01*
X31294Y24406D02*
Y25266D01*
X31230Y25330D02*
X31294Y25266D01*
D16*
X9640Y23390D02*
Y27870D01*
X9625Y23375D02*
X9640Y23390D01*
X0Y3700D02*
G03*
X3700Y0I3700J0D01*
G01*
Y30400D02*
G03*
X0Y26700I0J-3700D01*
G01*
X65200D02*
G03*
X61500Y30400I-3700J0D01*
G01*
Y0D02*
G03*
X65200Y3700I0J3700D01*
G01*
X0D02*
G03*
X3700Y0I3700J0D01*
G01*
X61500D02*
G03*
X65200Y3700I0J3700D01*
G01*
Y26700D02*
G03*
X61500Y30400I-3700J0D01*
G01*
X3700D02*
G03*
X0Y26700I0J-3700D01*
G01*
Y3700D02*
G03*
X3700Y0I3700J0D01*
G01*
X0Y3700D02*
G03*
X3700Y0I3700J0D01*
G01*
X61500D02*
G03*
X65200Y3700I0J3700D01*
G01*
X61500Y0D02*
G03*
X65200Y3700I0J3700D01*
G01*
Y26700D02*
G03*
X61500Y30400I-3700J0D01*
G01*
X65200Y26700D02*
G03*
X61500Y30400I-3700J0D01*
G01*
X3700D02*
G03*
X0Y26700I0J-3700D01*
G01*
X3700Y30400D02*
G03*
X0Y26700I0J-3700D01*
G01*
X3700Y0D02*
X61500D01*
X3700D02*
X61500D01*
X3700D02*
X61500D01*
X3700D02*
X61500D01*
X0Y3700D02*
Y26700D01*
X3700Y30400D02*
X61500D01*
X65200Y3700D02*
Y26700D01*
Y3700D02*
Y26700D01*
X3700Y30400D02*
X61500D01*
X0Y3700D02*
Y26700D01*
X65200Y3700D02*
Y26700D01*
Y3700D02*
Y26700D01*
X3700Y30400D02*
X61500D01*
X3700D02*
X61500D01*
X0Y3700D02*
Y26700D01*
Y3700D02*
Y26700D01*
D17*
X39950Y18000D02*
D03*
Y16500D02*
D03*
X39050Y18000D02*
D03*
Y16500D02*
D03*
D41*
X13450Y27870D02*
D03*
X18530Y25330D02*
D03*
X31230Y27870D02*
D03*
X23610D02*
D03*
X38850Y25330D02*
D03*
X56630D02*
D03*
X43930Y27870D02*
D03*
X49010D02*
D03*
X28690Y25330D02*
D03*
X8370D02*
D03*
X10910D02*
D03*
X13450D02*
D03*
X33770Y27870D02*
D03*
X36310D02*
D03*
Y25330D02*
D03*
X31230D02*
D03*
X33770D02*
D03*
X56630Y27870D02*
D03*
X54090D02*
D03*
X51550D02*
D03*
X46470D02*
D03*
X41390D02*
D03*
X38850D02*
D03*
X28690D02*
D03*
X26150D02*
D03*
X21070D02*
D03*
X18530D02*
D03*
X15990D02*
D03*
X10910D02*
D03*
X54090Y25330D02*
D03*
X51550D02*
D03*
X49010D02*
D03*
X46470D02*
D03*
X43930D02*
D03*
X41390D02*
D03*
X26150D02*
D03*
X23610D02*
D03*
X21070D02*
D03*
X15990D02*
D03*
D47*
X8370Y27870D02*
D03*
D49*
X39950Y18000D02*
Y19550D01*
Y16500D02*
Y18000D01*
D50*
X42500Y19550D02*
X43750D01*
X39950D02*
X42500D01*
X39750Y10875D02*
X42500Y13625D01*
Y19550D01*
X43750D02*
X47950D01*
X42375Y23000D02*
X43164D01*
X43750Y22414D01*
Y19550D02*
Y22414D01*
X38250Y11875D02*
X38750D01*
X39750Y10875D01*
X34875Y4500D02*
X39750Y9375D01*
Y10875D01*
X31000Y4500D02*
X34875D01*
X29000Y2500D02*
X31000Y4500D01*
X47950Y19550D02*
X49000Y18500D01*
X38000Y21500D02*
X39950Y19550D01*
X24000Y2500D02*
X29000D01*
X23020Y3480D02*
Y10000D01*
Y3480D02*
X24000Y2500D01*
X17780Y15240D02*
X23020Y10000D01*
X24750D01*
X20766Y18375D02*
X29894D01*
X17780Y15389D02*
X20766Y18375D01*
X29894D02*
X30480Y18961D01*
Y20320D01*
X30375Y20425D02*
X30480Y20320D01*
X17780Y15240D02*
Y15389D01*
X30375Y20425D02*
Y22000D01*
X28690Y25330D02*
X28765Y25255D01*
Y23610D02*
Y25255D01*
Y23610D02*
X30375Y22000D01*
X9640Y27870D02*
X10910D01*
X8370D02*
X9640D01*
X32500Y1000D02*
X34000Y2500D01*
X14375Y1000D02*
X32500D01*
X9625Y5750D02*
X14375Y1000D01*
X9625Y5750D02*
Y23375D01*
X58000Y7500D02*
Y14500D01*
X56115Y5615D02*
X58000Y7500D01*
X54700Y5500D02*
X54815Y5615D01*
X56115D01*
X36500Y2500D02*
X39500Y5500D01*
X41700D01*
X41745Y3005D02*
X54700D01*
X41700Y2960D02*
X41745Y3005D01*
X6300Y19800D02*
X6325Y19825D01*
X3600Y26700D02*
X6300Y29400D01*
X13406Y27870D02*
X13450D01*
X6300Y29400D02*
X11876D01*
X13406Y27870D01*
X3600Y20600D02*
X4400Y19800D01*
X3600Y20600D02*
Y26700D01*
X4400Y19800D02*
X6300D01*
X41700Y5500D02*
X44950D01*
X48200D01*
X51450D01*
X54700D01*
D51*
X51450Y2960D02*
D03*
X41700D02*
D03*
X54700D02*
D03*
X48200D02*
D03*
X44950D02*
D03*
X14000Y5730D02*
D03*
D52*
X6300Y19800D02*
D03*
X58000Y19500D02*
D03*
Y14500D02*
D03*
X6300Y14800D02*
D03*
Y9800D02*
D03*
D53*
X20320Y15240D02*
D03*
X27940Y20320D02*
D03*
X17780Y15240D02*
D03*
X30480Y20320D02*
D03*
X22860Y15240D02*
D03*
X25400D02*
D03*
X20320Y20320D02*
D03*
X25400D02*
D03*
X22860D02*
D03*
X27940Y15240D02*
D03*
D54*
X31500Y2500D02*
D03*
X29000D02*
D03*
X36500D02*
D03*
X34000D02*
D03*
D55*
X61600Y3700D02*
D03*
Y26700D02*
D03*
X3600Y3700D02*
D03*
Y26700D02*
D03*
D56*
X51450Y8040D02*
D03*
X54700D02*
D03*
X41700D02*
D03*
X44950D02*
D03*
X48200D02*
D03*
X51450Y5500D02*
D03*
X41700D02*
D03*
X54700D02*
D03*
X48200D02*
D03*
X44950D02*
D03*
X14000Y8270D02*
D03*
D57*
X17780Y20320D02*
D03*
X30480Y15240D02*
D03*
D58*
X31500Y22875D02*
D03*
X41726Y21989D02*
D03*
X35060Y1130D02*
D03*
X19533Y19028D02*
D03*
X26000Y17125D02*
D03*
X33375Y13875D02*
D03*
X31625Y18500D02*
D03*
X11375Y21250D02*
D03*
X12000Y17750D02*
D03*
X12250Y23500D02*
D03*
X15250Y22750D02*
D03*
X22250D02*
D03*
X26625D02*
D03*
X33750Y23500D02*
D03*
X52750Y22625D02*
D03*
X48250D02*
D03*
X45250D02*
D03*
X44750Y18000D02*
D03*
X55000Y20875D02*
D03*
X55125Y12375D02*
D03*
X55000Y17125D02*
D03*
X61625Y20750D02*
D03*
Y15875D02*
D03*
X61875Y8500D02*
D03*
X39125Y2375D02*
D03*
X32250Y9500D02*
D03*
X32625Y5875D02*
D03*
X24375Y4500D02*
D03*
X21500Y4000D02*
D03*
X15000Y3500D02*
D03*
X9500Y3375D02*
D03*
X11500Y6375D02*
D03*
X11875Y12375D02*
D03*
X2625Y12500D02*
D03*
Y17500D02*
D03*
X6250Y22750D02*
D03*
X47625Y16375D02*
D03*
X40000Y7875D02*
D03*
X38000Y9250D02*
D03*
X38250Y11875D02*
D03*
X33375Y15125D02*
D03*
X33250Y21000D02*
D03*
X33256Y8371D02*
D03*
X37000Y19500D02*
D03*
X42375Y23000D02*
D03*
X37875Y18000D02*
D03*
X38000Y16500D02*
D03*
X13250Y19125D02*
D03*
X40354Y13160D02*
D03*
X24750Y10000D02*
D03*
X24365Y7115D02*
D03*
X28375Y11250D02*
D03*
X24750Y6250D02*
D03*
X25750Y3866D02*
D03*
X28875Y8500D02*
D03*
X34500Y6000D02*
D03*
X34000Y7000D02*
D03*
Y9000D02*
D03*
X20000Y3500D02*
D03*
X49000Y18500D02*
D03*
X38000Y21500D02*
D03*
M02*
