G04*
G04 #@! TF.GenerationSoftware,Altium Limited,Altium Designer,26.8.1 (31)*
G04*
G04 Layer_Color=8421504*
G04 Board_Origin=13779528|15748031*
%FSLAX43Y43*%
%MOMM*%
G71*
G04*
G04 #@! TF.SameCoordinates,B2829F71-D31C-4C4E-9E72-A2771A272D26*
G04*
G04*
G04 #@! TF.FilePolarity,Positive*
G04*
G01*
G75*
%ADD16C,0.500*%
%ADD17R,0.650X0.650*%
%ADD18O,1.700X0.350*%
%ADD19R,0.650X0.650*%
G04:AMPARAMS|DCode=20|XSize=1.4mm|YSize=1.2mm|CornerRadius=0.3mm|HoleSize=0mm|Usage=FLASHONLY|Rotation=90.000|XOffset=0mm|YOffset=0mm|HoleType=Round|Shape=RoundedRectangle|*
%AMROUNDEDRECTD20*
21,1,1.400,0.600,0,0,90.0*
21,1,0.800,1.200,0,0,90.0*
1,1,0.600,0.300,0.400*
1,1,0.600,0.300,-0.400*
1,1,0.600,-0.300,-0.400*
1,1,0.600,-0.300,0.400*
%
%ADD20ROUNDEDRECTD20*%
G04:AMPARAMS|DCode=21|XSize=2.469mm|YSize=0.622mm|CornerRadius=0.311mm|HoleSize=0mm|Usage=FLASHONLY|Rotation=180.000|XOffset=0mm|YOffset=0mm|HoleType=Round|Shape=RoundedRectangle|*
%AMROUNDEDRECTD21*
21,1,2.469,0.000,0,0,180.0*
21,1,1.847,0.622,0,0,180.0*
1,1,0.622,-0.924,0.000*
1,1,0.622,0.924,0.000*
1,1,0.622,0.924,0.000*
1,1,0.622,-0.924,0.000*
%
%ADD21ROUNDEDRECTD21*%
%ADD22R,0.400X1.350*%
%ADD23R,0.600X1.350*%
%ADD24R,1.500X1.300*%
%ADD25R,0.900X1.200*%
%ADD26R,0.800X0.800*%
%ADD27R,0.800X0.800*%
%ADD28R,2.469X0.622*%
%ADD29R,1.300X1.800*%
D16*
X0Y3700D02*
G03*
X3700Y0I3700J0D01*
G01*
Y30400D02*
G03*
X0Y26700I0J-3700D01*
G01*
X65200D02*
G03*
X61500Y30400I-3700J0D01*
G01*
Y0D02*
G03*
X65200Y3700I0J3700D01*
G01*
X0D02*
G03*
X3700Y0I3700J0D01*
G01*
X61500D02*
G03*
X65200Y3700I0J3700D01*
G01*
Y26700D02*
G03*
X61500Y30400I-3700J0D01*
G01*
X3700D02*
G03*
X0Y26700I0J-3700D01*
G01*
Y3700D02*
G03*
X3700Y0I3700J0D01*
G01*
X0Y3700D02*
G03*
X3700Y0I3700J0D01*
G01*
X61500D02*
G03*
X65200Y3700I0J3700D01*
G01*
X61500Y0D02*
G03*
X65200Y3700I0J3700D01*
G01*
Y26700D02*
G03*
X61500Y30400I-3700J0D01*
G01*
X65200Y26700D02*
G03*
X61500Y30400I-3700J0D01*
G01*
X3700D02*
G03*
X0Y26700I0J-3700D01*
G01*
X3700Y30400D02*
G03*
X0Y26700I0J-3700D01*
G01*
X3700Y0D02*
X61500D01*
X3700D02*
X61500D01*
X3700D02*
X61500D01*
X3700D02*
X61500D01*
X0Y3700D02*
Y26700D01*
X3700Y30400D02*
X61500D01*
X65200Y3700D02*
Y26700D01*
Y3700D02*
Y26700D01*
X3700Y30400D02*
X61500D01*
X0Y3700D02*
Y26700D01*
X65200Y3700D02*
Y26700D01*
Y3700D02*
Y26700D01*
X3700Y30400D02*
X61500D01*
X3700D02*
X61500D01*
X0Y3700D02*
Y26700D01*
Y3700D02*
Y26700D01*
D17*
X34800Y12625D02*
D03*
X35700D02*
D03*
X27229Y3134D02*
D03*
X26329D02*
D03*
X26800Y8823D02*
D03*
X27700D02*
D03*
X36050Y18000D02*
D03*
Y16500D02*
D03*
X18950Y4000D02*
D03*
X38050Y22625D02*
D03*
X41450Y23000D02*
D03*
X38950Y22625D02*
D03*
X40550Y23000D02*
D03*
X36950Y18000D02*
D03*
Y16500D02*
D03*
X18050Y4000D02*
D03*
D18*
X36100Y5075D02*
D03*
Y5725D02*
D03*
Y6375D02*
D03*
Y7025D02*
D03*
Y7675D02*
D03*
Y8325D02*
D03*
Y8975D02*
D03*
Y9625D02*
D03*
Y10275D02*
D03*
Y10925D02*
D03*
X30400Y5075D02*
D03*
Y5725D02*
D03*
Y6375D02*
D03*
Y7025D02*
D03*
Y7675D02*
D03*
Y8325D02*
D03*
Y8975D02*
D03*
Y9625D02*
D03*
Y10275D02*
D03*
Y10925D02*
D03*
D19*
X38000Y10950D02*
D03*
Y10050D02*
D03*
X37000Y20550D02*
D03*
X24691Y8127D02*
D03*
X37000Y21450D02*
D03*
X24691Y9027D02*
D03*
D20*
X28050Y4900D02*
D03*
Y7100D02*
D03*
X26450D02*
D03*
Y4900D02*
D03*
D21*
X22414Y9655D02*
D03*
Y7115D02*
D03*
Y8385D02*
D03*
X17586Y5845D02*
D03*
Y7115D02*
D03*
Y8385D02*
D03*
Y9655D02*
D03*
D22*
X40375Y20685D02*
D03*
X39725D02*
D03*
X42325Y14835D02*
D03*
X42975D02*
D03*
X43625D02*
D03*
X44275D02*
D03*
X44925D02*
D03*
X46875D02*
D03*
X46225D02*
D03*
X45575D02*
D03*
Y20685D02*
D03*
X46225D02*
D03*
X46875D02*
D03*
X44925D02*
D03*
X44275D02*
D03*
X43625D02*
D03*
X42975D02*
D03*
X41025Y14835D02*
D03*
X40375D02*
D03*
X39725D02*
D03*
X41675D02*
D03*
X42325Y20685D02*
D03*
X41675D02*
D03*
X41025D02*
D03*
D23*
X47625D02*
D03*
X38975D02*
D03*
X47625Y14835D02*
D03*
X38975D02*
D03*
D24*
X39000Y6450D02*
D03*
X14000Y17450D02*
D03*
Y15550D02*
D03*
X39000Y4550D02*
D03*
D25*
X50275Y19400D02*
D03*
X51725Y16600D02*
D03*
Y19400D02*
D03*
X50275Y16600D02*
D03*
D26*
X49750Y21500D02*
D03*
X51250D02*
D03*
D27*
X49500Y12750D02*
D03*
X51500D02*
D03*
Y14250D02*
D03*
X49500D02*
D03*
D28*
X22414Y5845D02*
D03*
D29*
X13307Y11663D02*
D03*
X16207D02*
D03*
M02*
