G04*
G04 #@! TF.GenerationSoftware,Altium Limited,Altium Designer,25.5.2 (35)*
G04*
G04 Layer_Physical_Order=2*
G04 Layer_Color=16711680*
%FSLAX43Y43*%
%MOMM*%
G71*
G04*
G04 #@! TF.SameCoordinates,CFA53FE8-2CEA-4254-AB80-7BFC7C870A83*
G04*
G04*
G04 #@! TF.FilePolarity,Positive*
G04*
G01*
G75*
%ADD10C,0.250*%
%ADD13C,0.200*%
%ADD15C,0.500*%
%ADD18R,0.800X0.800*%
%ADD29C,1.390*%
%ADD30R,1.390X1.390*%
%ADD33R,1.100X1.100*%
%ADD34C,1.100*%
%ADD36C,1.000*%
G04:AMPARAMS|DCode=38|XSize=4mm|YSize=1.8mm|CornerRadius=0.45mm|HoleSize=0mm|Usage=FLASHONLY|Rotation=0.000|XOffset=0mm|YOffset=0mm|HoleType=Round|Shape=RoundedRectangle|*
%AMROUNDEDRECTD38*
21,1,4.000,0.900,0,0,0.0*
21,1,3.100,1.800,0,0,0.0*
1,1,0.900,1.550,-0.450*
1,1,0.900,-1.550,-0.450*
1,1,0.900,-1.550,0.450*
1,1,0.900,1.550,0.450*
%
%ADD38ROUNDEDRECTD38*%
G04:AMPARAMS|DCode=39|XSize=4mm|YSize=1.8mm|CornerRadius=0.45mm|HoleSize=0mm|Usage=FLASHONLY|Rotation=90.000|XOffset=0mm|YOffset=0mm|HoleType=Round|Shape=RoundedRectangle|*
%AMROUNDEDRECTD39*
21,1,4.000,0.900,0,0,90.0*
21,1,3.100,1.800,0,0,90.0*
1,1,0.900,0.450,1.550*
1,1,0.900,0.450,-1.550*
1,1,0.900,-0.450,-1.550*
1,1,0.900,-0.450,1.550*
%
%ADD39ROUNDEDRECTD39*%
%ADD40C,1.600*%
G04:AMPARAMS|DCode=41|XSize=1.6mm|YSize=1.6mm|CornerRadius=0.4mm|HoleSize=0mm|Usage=FLASHONLY|Rotation=90.000|XOffset=0mm|YOffset=0mm|HoleType=Round|Shape=RoundedRectangle|*
%AMROUNDEDRECTD41*
21,1,1.600,0.800,0,0,90.0*
21,1,0.800,1.600,0,0,90.0*
1,1,0.800,0.400,0.400*
1,1,0.800,0.400,-0.400*
1,1,0.800,-0.400,-0.400*
1,1,0.800,-0.400,0.400*
%
%ADD41ROUNDEDRECTD41*%
%ADD42C,1.200*%
%ADD43C,1.500*%
%ADD44R,1.500X1.500*%
%ADD45C,2.500*%
%ADD46C,4.200*%
%ADD47R,1.500X1.500*%
%ADD48C,0.600*%
%ADD49R,1.500X1.300*%
%ADD50R,0.800X0.800*%
%ADD51R,1.800X1.300*%
%ADD52C,0.800*%
%ADD53C,2.000*%
G36*
X62124Y29836D02*
X62528Y29727D01*
X62914Y29567D01*
X63276Y29358D01*
X63608Y29104D01*
X63904Y28808D01*
X64158Y28476D01*
X64367Y28114D01*
X64527Y27728D01*
X64636Y27324D01*
X64690Y26909D01*
Y26700D01*
Y3700D01*
Y3491D01*
X64636Y3076D01*
X64527Y2672D01*
X64367Y2286D01*
X64158Y1924D01*
X63904Y1592D01*
X63608Y1296D01*
X63276Y1042D01*
X62914Y833D01*
X62528Y673D01*
X62124Y564D01*
X61709Y510D01*
X3491D01*
X3076Y564D01*
X2672Y673D01*
X2286Y833D01*
X1924Y1042D01*
X1592Y1296D01*
X1296Y1592D01*
X1042Y1924D01*
X833Y2286D01*
X673Y2672D01*
X564Y3076D01*
X510Y3491D01*
Y3700D01*
Y26700D01*
Y26909D01*
X564Y27324D01*
X673Y27728D01*
X833Y28114D01*
X1042Y28476D01*
X1296Y28808D01*
X1592Y29104D01*
X1924Y29358D01*
X2286Y29567D01*
X2672Y29727D01*
X3076Y29836D01*
X3491Y29890D01*
X61709D01*
X62124Y29836D01*
D02*
G37*
%LPC*%
G36*
X49160Y28860D02*
Y28020D01*
X50000D01*
X49937Y28254D01*
X49806Y28481D01*
X49621Y28666D01*
X49394Y28797D01*
X49160Y28860D01*
D02*
G37*
G36*
X48860D02*
X48626Y28797D01*
X48399Y28666D01*
X48214Y28481D01*
X48083Y28254D01*
X48020Y28020D01*
X48860D01*
Y28860D01*
D02*
G37*
G36*
X44080D02*
Y28020D01*
X44920D01*
X44857Y28254D01*
X44726Y28481D01*
X44541Y28666D01*
X44314Y28797D01*
X44080Y28860D01*
D02*
G37*
G36*
X43780D02*
X43546Y28797D01*
X43319Y28666D01*
X43134Y28481D01*
X43003Y28254D01*
X42940Y28020D01*
X43780D01*
Y28860D01*
D02*
G37*
G36*
X31380D02*
Y28020D01*
X32220D01*
X32157Y28254D01*
X32026Y28481D01*
X31841Y28666D01*
X31614Y28797D01*
X31380Y28860D01*
D02*
G37*
G36*
X31080D02*
X30846Y28797D01*
X30619Y28666D01*
X30434Y28481D01*
X30303Y28254D01*
X30240Y28020D01*
X31080D01*
Y28860D01*
D02*
G37*
G36*
X23760D02*
Y28020D01*
X24600D01*
X24537Y28254D01*
X24406Y28481D01*
X24221Y28666D01*
X23994Y28797D01*
X23760Y28860D01*
D02*
G37*
G36*
X23460D02*
X23226Y28797D01*
X22999Y28666D01*
X22814Y28481D01*
X22683Y28254D01*
X22620Y28020D01*
X23460D01*
Y28860D01*
D02*
G37*
G36*
X13600D02*
Y28020D01*
X14440D01*
X14377Y28254D01*
X14246Y28481D01*
X14061Y28666D01*
X13834Y28797D01*
X13600Y28860D01*
D02*
G37*
G36*
X13300D02*
X13066Y28797D01*
X12839Y28666D01*
X12654Y28481D01*
X12523Y28254D01*
X12460Y28020D01*
X13300D01*
Y28860D01*
D02*
G37*
G36*
X36454Y28965D02*
X36166D01*
X35887Y28890D01*
X35638Y28746D01*
X35434Y28542D01*
X35290Y28293D01*
X35215Y28014D01*
Y27726D01*
X35290Y27447D01*
X35362Y27322D01*
X35294Y27191D01*
X35215Y27182D01*
X34824Y27573D01*
X34865Y27726D01*
Y28014D01*
X34790Y28293D01*
X34646Y28542D01*
X34442Y28746D01*
X34193Y28890D01*
X33914Y28965D01*
X33626D01*
X33347Y28890D01*
X33098Y28746D01*
X32894Y28542D01*
X32750Y28293D01*
X32675Y28014D01*
Y27726D01*
X32750Y27447D01*
X32894Y27198D01*
X33098Y26994D01*
X33347Y26850D01*
X33626Y26775D01*
X33914D01*
X34067Y26816D01*
X34665Y26218D01*
X34838Y26102D01*
X35043Y26061D01*
X35321D01*
X35395Y25934D01*
X35290Y25753D01*
X35215Y25474D01*
Y25186D01*
X35290Y24907D01*
X35434Y24658D01*
X35638Y24454D01*
X35775Y24375D01*
Y24165D01*
X35815Y23960D01*
X35931Y23787D01*
X37188Y22530D01*
X37150Y22388D01*
X37133Y22384D01*
X35839Y23678D01*
X35665Y23795D01*
X35460Y23835D01*
X32622D01*
X31953Y24504D01*
X32106Y24658D01*
X32250Y24907D01*
X32325Y25186D01*
Y25474D01*
X32250Y25753D01*
X32106Y26002D01*
X31902Y26206D01*
X31653Y26350D01*
X31374Y26425D01*
X31086D01*
X30807Y26350D01*
X30558Y26206D01*
X30354Y26002D01*
X30210Y25753D01*
X30135Y25474D01*
Y25186D01*
X30210Y24907D01*
X30354Y24658D01*
X30558Y24454D01*
X30774Y24329D01*
X30799Y24202D01*
X30915Y24028D01*
X30968Y23975D01*
X30895Y23871D01*
X30700Y23910D01*
X19700D01*
X19505Y23871D01*
X19340Y23760D01*
X16948Y21369D01*
X16832Y21400D01*
X16568D01*
X16314Y21332D01*
X16086Y21200D01*
X15900Y21014D01*
X15768Y20786D01*
X15700Y20532D01*
Y20268D01*
X15768Y20014D01*
X15900Y19786D01*
X16086Y19600D01*
X16314Y19468D01*
X16323Y19466D01*
Y19334D01*
X16314Y19332D01*
X16184Y19257D01*
X15450D01*
Y20000D01*
X15350D01*
Y20700D01*
X14300D01*
X13250D01*
Y20000D01*
X13150D01*
Y18279D01*
X13023Y18236D01*
X12898Y18398D01*
X11712Y19585D01*
Y21400D01*
X11664Y21765D01*
X11523Y22106D01*
X11298Y22398D01*
X9782Y23915D01*
Y24840D01*
X9909Y24874D01*
X10034Y24658D01*
X10238Y24454D01*
X10487Y24310D01*
X10766Y24235D01*
X11054D01*
X11333Y24310D01*
X11582Y24454D01*
X11786Y24658D01*
X11930Y24907D01*
X12005Y25186D01*
Y25474D01*
X11930Y25753D01*
X11786Y26002D01*
X11582Y26206D01*
X11333Y26350D01*
X11054Y26425D01*
X10766D01*
X10487Y26350D01*
X10238Y26206D01*
X10034Y26002D01*
X9890Y25753D01*
X9866Y25665D01*
X9737Y25673D01*
X9734Y25695D01*
X9593Y26036D01*
X9368Y26328D01*
X9076Y26553D01*
X8846Y26648D01*
X8872Y26775D01*
X9465D01*
Y26962D01*
X10292D01*
X10487Y26850D01*
X10766Y26775D01*
X11054D01*
X11333Y26850D01*
X11582Y26994D01*
X11786Y27198D01*
X11930Y27447D01*
X12005Y27726D01*
Y28014D01*
X11930Y28293D01*
X11786Y28542D01*
X11582Y28746D01*
X11333Y28890D01*
X11054Y28965D01*
X10766D01*
X10487Y28890D01*
X10292Y28778D01*
X9465D01*
Y28965D01*
X7275D01*
Y26775D01*
X7868D01*
X7894Y26648D01*
X7664Y26553D01*
X7372Y26328D01*
X7147Y26036D01*
X7006Y25695D01*
X6958Y25330D01*
Y23330D01*
X7006Y22965D01*
X7147Y22624D01*
X7372Y22332D01*
X8888Y20815D01*
Y19000D01*
X8936Y18635D01*
X9077Y18294D01*
X9302Y18002D01*
X10902Y16402D01*
X11194Y16177D01*
X11535Y16036D01*
X11900Y15988D01*
X12058Y16009D01*
X12265Y15923D01*
X12500Y15892D01*
X13150D01*
Y15600D01*
X13250D01*
Y14900D01*
X15350D01*
Y15600D01*
X15450D01*
Y15692D01*
X20100D01*
X20335Y15723D01*
X20554Y15814D01*
X20742Y15958D01*
X20939Y16155D01*
X21023Y16144D01*
X23400D01*
X23570Y16167D01*
X23728Y16232D01*
X23864Y16336D01*
X24664Y17136D01*
X24768Y17272D01*
X24833Y17430D01*
X24856Y17600D01*
Y17928D01*
X25366Y18438D01*
X25493Y18386D01*
Y18357D01*
X25593Y18357D01*
Y17807D01*
X26293D01*
X26993D01*
Y18357D01*
X27093Y18357D01*
Y18572D01*
X27243D01*
Y18307D01*
X30343D01*
Y19331D01*
X30353Y19382D01*
Y20130D01*
X30376Y20136D01*
X30563Y20244D01*
X30690Y20170D01*
Y14625D01*
X30563Y14551D01*
X30376Y14659D01*
X30367Y14661D01*
X30293Y14757D01*
Y16357D01*
X30028D01*
Y16507D01*
X30293D01*
Y18107D01*
X27193D01*
Y17265D01*
X27103Y17192D01*
X26993Y17239D01*
Y17507D01*
X26443D01*
Y16957D01*
X26720D01*
X26768Y16840D01*
X24589Y14661D01*
X24554Y14682D01*
X24261Y14760D01*
X23959D01*
X23666Y14682D01*
X23404Y14530D01*
X23190Y14316D01*
X23038Y14054D01*
X22960Y13761D01*
Y13459D01*
X23038Y13166D01*
X23190Y12904D01*
X23404Y12690D01*
X23666Y12538D01*
X23959Y12460D01*
X24261D01*
X24554Y12538D01*
X24816Y12690D01*
X25030Y12904D01*
X25182Y13166D01*
X25260Y13459D01*
Y13761D01*
X25248Y13806D01*
X26116Y14673D01*
X26243Y14621D01*
Y12727D01*
X26116Y12674D01*
X26030Y12760D01*
X25870Y12852D01*
X25692Y12900D01*
X25508D01*
X25330Y12852D01*
X25170Y12760D01*
X25040Y12630D01*
X24948Y12470D01*
X24900Y12292D01*
Y12108D01*
X24908Y12078D01*
X24856Y12029D01*
X24797Y12001D01*
X24554Y12142D01*
X24261Y12220D01*
X23959D01*
X23666Y12142D01*
X23404Y11990D01*
X23190Y11776D01*
X23161Y11726D01*
X22420D01*
X22250Y11703D01*
X22092Y11638D01*
X21956Y11534D01*
X21773Y11350D01*
X21100D01*
Y9815D01*
X21100Y9815D01*
X21100Y9750D01*
X21200Y9685D01*
X21200Y9623D01*
Y9200D01*
X21900D01*
X22600D01*
X22600Y9685D01*
X22700Y9750D01*
Y9815D01*
X22700Y9815D01*
Y10414D01*
X23161D01*
X23190Y10364D01*
X23404Y10150D01*
X23666Y9998D01*
X23959Y9920D01*
X24261D01*
X24554Y9998D01*
X24816Y10150D01*
X25030Y10364D01*
X25182Y10626D01*
X25260Y10919D01*
Y11221D01*
X25194Y11469D01*
X25284Y11552D01*
X25388Y11499D01*
Y10188D01*
X26404D01*
Y7661D01*
X25387Y6644D01*
X25260Y6697D01*
Y7140D01*
X22960D01*
Y4840D01*
X25260D01*
Y5455D01*
X25490D01*
X25695Y5495D01*
X25868Y5611D01*
X27317Y7060D01*
X27433Y7234D01*
X27474Y7439D01*
Y8856D01*
X27601Y8909D01*
X27670Y8840D01*
X27830Y8748D01*
X28008Y8700D01*
X28079D01*
X28440Y8340D01*
X28605Y8229D01*
X28800Y8190D01*
X30703D01*
X30752Y8073D01*
X30340Y7660D01*
X30229Y7495D01*
X30190Y7300D01*
Y4300D01*
X30229Y4105D01*
X30340Y3940D01*
X30700Y3579D01*
Y3508D01*
X30748Y3330D01*
X30840Y3170D01*
X30970Y3040D01*
X31130Y2948D01*
X31308Y2900D01*
X31492D01*
X31670Y2948D01*
X31830Y3040D01*
X31950Y3160D01*
X32070Y3040D01*
X32230Y2948D01*
X32338Y2919D01*
X32359Y2867D01*
X32366Y2780D01*
X32200Y2614D01*
X32068Y2386D01*
X32000Y2132D01*
Y1868D01*
X32068Y1614D01*
X32200Y1386D01*
X32386Y1200D01*
X32614Y1068D01*
X32868Y1000D01*
X33132D01*
X33386Y1068D01*
X33614Y1200D01*
X33800Y1386D01*
X33932Y1614D01*
X33934Y1623D01*
X34066D01*
X34068Y1614D01*
X34200Y1386D01*
X34386Y1200D01*
X34614Y1068D01*
X34868Y1000D01*
X35132D01*
X35386Y1068D01*
X35614Y1200D01*
X35800Y1386D01*
X35932Y1614D01*
X35934Y1623D01*
X36066D01*
X36068Y1614D01*
X36200Y1386D01*
X36386Y1200D01*
X36614Y1068D01*
X36868Y1000D01*
X37132D01*
X37386Y1068D01*
X37614Y1200D01*
X37800Y1386D01*
X37932Y1614D01*
X38000Y1868D01*
Y2132D01*
X37932Y2386D01*
X37800Y2614D01*
X37614Y2800D01*
X37386Y2932D01*
X37132Y3000D01*
X36868D01*
X36614Y2932D01*
X36386Y2800D01*
X36200Y2614D01*
X36068Y2386D01*
X36066Y2377D01*
X35934D01*
X35932Y2386D01*
X35800Y2614D01*
X35614Y2800D01*
X35386Y2932D01*
X35132Y3000D01*
X34868D01*
X34614Y2932D01*
X34386Y2800D01*
X34200Y2614D01*
X34068Y2386D01*
X34066Y2377D01*
X33934D01*
X33932Y2386D01*
X33800Y2614D01*
X33614Y2800D01*
X33386Y2932D01*
X33132Y3000D01*
X33070D01*
X33017Y3127D01*
X33060Y3170D01*
X33152Y3330D01*
X33200Y3508D01*
Y3692D01*
X33152Y3870D01*
X33060Y4030D01*
X32930Y4160D01*
X32770Y4252D01*
X32592Y4300D01*
X32521D01*
X32310Y4511D01*
Y6789D01*
X34011Y8490D01*
X38837D01*
X38886Y8373D01*
X38790Y8277D01*
X38632Y8003D01*
X38550Y7698D01*
Y7382D01*
X38632Y7077D01*
X38790Y6803D01*
X39013Y6580D01*
X39287Y6422D01*
X39592Y6340D01*
X39908D01*
X40213Y6422D01*
X40487Y6580D01*
X40710Y6803D01*
X40868Y7077D01*
X40950Y7382D01*
Y7698D01*
X40868Y8003D01*
X40710Y8277D01*
X40614Y8373D01*
X40663Y8490D01*
X42087D01*
X42136Y8373D01*
X42040Y8277D01*
X41882Y8003D01*
X41800Y7698D01*
Y7382D01*
X41882Y7077D01*
X42040Y6803D01*
X42263Y6580D01*
X42537Y6422D01*
X42842Y6340D01*
X43158D01*
X43463Y6422D01*
X43737Y6580D01*
X43960Y6803D01*
X44118Y7077D01*
X44200Y7382D01*
Y7698D01*
X44118Y8003D01*
X43960Y8277D01*
X43864Y8373D01*
X43913Y8490D01*
X45337D01*
X45386Y8373D01*
X45290Y8277D01*
X45132Y8003D01*
X45050Y7698D01*
Y7382D01*
X45132Y7077D01*
X45290Y6803D01*
X45513Y6580D01*
X45787Y6422D01*
X46092Y6340D01*
X46408D01*
X46713Y6422D01*
X46987Y6580D01*
X47210Y6803D01*
X47368Y7077D01*
X47450Y7382D01*
Y7698D01*
X47368Y8003D01*
X47210Y8277D01*
X47114Y8373D01*
X47163Y8490D01*
X47829D01*
X48368Y7951D01*
X48300Y7698D01*
Y7382D01*
X48382Y7077D01*
X48540Y6803D01*
X48763Y6580D01*
X49037Y6422D01*
X49342Y6340D01*
X49658D01*
X49963Y6422D01*
X50237Y6580D01*
X50460Y6803D01*
X50618Y7077D01*
X50700Y7382D01*
Y7698D01*
X50618Y8003D01*
X50460Y8277D01*
X50237Y8500D01*
X49963Y8658D01*
X49658Y8740D01*
X49342D01*
X49089Y8672D01*
X48588Y9173D01*
X48637Y9290D01*
X50279D01*
X51618Y7951D01*
X51550Y7698D01*
Y7382D01*
X51632Y7077D01*
X51790Y6803D01*
X52013Y6580D01*
X52287Y6422D01*
X52592Y6340D01*
X52908D01*
X53213Y6422D01*
X53487Y6580D01*
X53710Y6803D01*
X53868Y7077D01*
X53950Y7382D01*
Y7698D01*
X53868Y8003D01*
X53710Y8277D01*
X53487Y8500D01*
X53213Y8658D01*
X52908Y8740D01*
X52592D01*
X52339Y8672D01*
X50850Y10160D01*
X50685Y10271D01*
X50490Y10310D01*
X33697D01*
X33648Y10427D01*
X34060Y10840D01*
X34171Y11005D01*
X34210Y11200D01*
Y12600D01*
X34337Y12650D01*
X34569Y12516D01*
X34861Y12437D01*
X35164D01*
X35456Y12516D01*
X35719Y12667D01*
X35933Y12881D01*
X36084Y13144D01*
X36163Y13436D01*
Y13739D01*
X36084Y14031D01*
X35933Y14294D01*
X35719Y14508D01*
X35456Y14659D01*
X35164Y14737D01*
X34861D01*
X34569Y14659D01*
X34337Y14525D01*
X34210Y14574D01*
Y20220D01*
X34337Y20270D01*
X34569Y20136D01*
X34861Y20057D01*
X35164D01*
X35456Y20136D01*
X35719Y20287D01*
X35933Y20501D01*
X36084Y20764D01*
X36163Y21056D01*
Y21359D01*
X36084Y21651D01*
X35964Y21859D01*
X36066Y21937D01*
X36454Y21549D01*
X36403Y21359D01*
Y21056D01*
X36481Y20764D01*
X36632Y20501D01*
X36846Y20287D01*
X37109Y20136D01*
X37401Y20057D01*
X37704D01*
X37996Y20136D01*
X38259Y20287D01*
X38473Y20501D01*
X38624Y20764D01*
X38703Y21056D01*
Y21359D01*
X38624Y21651D01*
X38504Y21859D01*
X38606Y21937D01*
X38994Y21549D01*
X38943Y21359D01*
Y21056D01*
X39021Y20764D01*
X39172Y20501D01*
X39386Y20287D01*
X39649Y20136D01*
X39941Y20057D01*
X40244D01*
X40536Y20136D01*
X40799Y20287D01*
X41013Y20501D01*
X41164Y20764D01*
X41243Y21056D01*
Y21359D01*
X41164Y21651D01*
X41044Y21859D01*
X41146Y21937D01*
X41534Y21549D01*
X41483Y21359D01*
Y21056D01*
X41561Y20764D01*
X41712Y20501D01*
X41926Y20287D01*
X42189Y20136D01*
X42481Y20057D01*
X42784D01*
X43076Y20136D01*
X43339Y20287D01*
X43553Y20501D01*
X43704Y20764D01*
X43783Y21056D01*
Y21359D01*
X43704Y21651D01*
X43553Y21914D01*
X43339Y22128D01*
X43076Y22279D01*
X42784Y22357D01*
X42481D01*
X42291Y22306D01*
X40819Y23778D01*
X40645Y23895D01*
X40440Y23935D01*
X39027D01*
X38754Y24208D01*
X38807Y24335D01*
X38981D01*
X39234Y24403D01*
X39461Y24534D01*
X39646Y24719D01*
X39777Y24946D01*
X39840Y25180D01*
X38850D01*
Y25330D01*
X38700D01*
Y26320D01*
X38466Y26257D01*
X38262Y26140D01*
X38177Y26160D01*
X38123Y26189D01*
X38101Y26298D01*
X37985Y26472D01*
X37482Y26975D01*
X37308Y27091D01*
X37254Y27102D01*
X37211Y27240D01*
X37330Y27447D01*
X37405Y27726D01*
Y28014D01*
X37330Y28293D01*
X37186Y28542D01*
X36982Y28746D01*
X36733Y28890D01*
X36454Y28965D01*
D02*
G37*
G36*
X50000Y27720D02*
X49160D01*
Y26880D01*
X49394Y26943D01*
X49621Y27074D01*
X49806Y27259D01*
X49937Y27486D01*
X50000Y27720D01*
D02*
G37*
G36*
X48860D02*
X48020D01*
X48083Y27486D01*
X48214Y27259D01*
X48399Y27074D01*
X48626Y26943D01*
X48860Y26880D01*
Y27720D01*
D02*
G37*
G36*
X44920D02*
X44080D01*
Y26880D01*
X44314Y26943D01*
X44541Y27074D01*
X44726Y27259D01*
X44857Y27486D01*
X44920Y27720D01*
D02*
G37*
G36*
X43780D02*
X42940D01*
X43003Y27486D01*
X43134Y27259D01*
X43319Y27074D01*
X43546Y26943D01*
X43780Y26880D01*
Y27720D01*
D02*
G37*
G36*
X32220D02*
X31380D01*
Y26880D01*
X31614Y26943D01*
X31841Y27074D01*
X32026Y27259D01*
X32157Y27486D01*
X32220Y27720D01*
D02*
G37*
G36*
X31080D02*
X30240D01*
X30303Y27486D01*
X30434Y27259D01*
X30619Y27074D01*
X30846Y26943D01*
X31080Y26880D01*
Y27720D01*
D02*
G37*
G36*
X24600D02*
X23760D01*
Y26880D01*
X23994Y26943D01*
X24221Y27074D01*
X24406Y27259D01*
X24537Y27486D01*
X24600Y27720D01*
D02*
G37*
G36*
X23460D02*
X22620D01*
X22683Y27486D01*
X22814Y27259D01*
X22999Y27074D01*
X23226Y26943D01*
X23460Y26880D01*
Y27720D01*
D02*
G37*
G36*
X14440D02*
X13600D01*
Y26880D01*
X13834Y26943D01*
X14061Y27074D01*
X14246Y27259D01*
X14377Y27486D01*
X14440Y27720D01*
D02*
G37*
G36*
X13300D02*
X12460D01*
X12523Y27486D01*
X12654Y27259D01*
X12839Y27074D01*
X13066Y26943D01*
X13300Y26880D01*
Y27720D01*
D02*
G37*
G36*
X61836Y29100D02*
X61750D01*
Y26850D01*
X64000D01*
Y26936D01*
X63908Y27400D01*
X63727Y27837D01*
X63464Y28230D01*
X63130Y28564D01*
X62737Y28827D01*
X62300Y29008D01*
X61836Y29100D01*
D02*
G37*
G36*
X61450D02*
X61364D01*
X60900Y29008D01*
X60463Y28827D01*
X60070Y28564D01*
X59736Y28230D01*
X59473Y27837D01*
X59292Y27400D01*
X59200Y26936D01*
Y26850D01*
X61450D01*
Y29100D01*
D02*
G37*
G36*
X3836D02*
X3750D01*
Y26850D01*
X6000D01*
Y26936D01*
X5908Y27400D01*
X5727Y27837D01*
X5464Y28230D01*
X5130Y28564D01*
X4737Y28827D01*
X4300Y29008D01*
X3836Y29100D01*
D02*
G37*
G36*
X3450D02*
X3364D01*
X2900Y29008D01*
X2463Y28827D01*
X2070Y28564D01*
X1736Y28230D01*
X1473Y27837D01*
X1292Y27400D01*
X1200Y26936D01*
Y26850D01*
X3450D01*
Y29100D01*
D02*
G37*
G36*
X56774Y28965D02*
X56486D01*
X56207Y28890D01*
X55958Y28746D01*
X55754Y28542D01*
X55610Y28293D01*
X55535Y28014D01*
Y27726D01*
X55610Y27447D01*
X55754Y27198D01*
X55958Y26994D01*
X56207Y26850D01*
X56486Y26775D01*
X56774D01*
X57053Y26850D01*
X57302Y26994D01*
X57506Y27198D01*
X57650Y27447D01*
X57725Y27726D01*
Y28014D01*
X57650Y28293D01*
X57506Y28542D01*
X57302Y28746D01*
X57053Y28890D01*
X56774Y28965D01*
D02*
G37*
G36*
X54234D02*
X53946D01*
X53667Y28890D01*
X53418Y28746D01*
X53214Y28542D01*
X53070Y28293D01*
X52995Y28014D01*
Y27726D01*
X53070Y27447D01*
X53214Y27198D01*
X53418Y26994D01*
X53667Y26850D01*
X53946Y26775D01*
X54234D01*
X54513Y26850D01*
X54762Y26994D01*
X54966Y27198D01*
X55110Y27447D01*
X55185Y27726D01*
Y28014D01*
X55110Y28293D01*
X54966Y28542D01*
X54762Y28746D01*
X54513Y28890D01*
X54234Y28965D01*
D02*
G37*
G36*
X51694D02*
X51406D01*
X51127Y28890D01*
X50878Y28746D01*
X50674Y28542D01*
X50530Y28293D01*
X50455Y28014D01*
Y27726D01*
X50530Y27447D01*
X50674Y27198D01*
X50878Y26994D01*
X51127Y26850D01*
X51406Y26775D01*
X51694D01*
X51973Y26850D01*
X52222Y26994D01*
X52426Y27198D01*
X52570Y27447D01*
X52645Y27726D01*
Y28014D01*
X52570Y28293D01*
X52426Y28542D01*
X52222Y28746D01*
X51973Y28890D01*
X51694Y28965D01*
D02*
G37*
G36*
X41534D02*
X41246D01*
X40967Y28890D01*
X40718Y28746D01*
X40514Y28542D01*
X40370Y28293D01*
X40295Y28014D01*
Y27726D01*
X40370Y27447D01*
X40514Y27198D01*
X40718Y26994D01*
X40967Y26850D01*
X41246Y26775D01*
X41534D01*
X41813Y26850D01*
X42062Y26994D01*
X42266Y27198D01*
X42410Y27447D01*
X42485Y27726D01*
Y28014D01*
X42410Y28293D01*
X42266Y28542D01*
X42062Y28746D01*
X41813Y28890D01*
X41534Y28965D01*
D02*
G37*
G36*
X38994D02*
X38706D01*
X38427Y28890D01*
X38178Y28746D01*
X37974Y28542D01*
X37830Y28293D01*
X37755Y28014D01*
Y27726D01*
X37830Y27447D01*
X37974Y27198D01*
X38178Y26994D01*
X38427Y26850D01*
X38706Y26775D01*
X38994D01*
X39273Y26850D01*
X39522Y26994D01*
X39726Y27198D01*
X39870Y27447D01*
X39945Y27726D01*
Y28014D01*
X39870Y28293D01*
X39726Y28542D01*
X39522Y28746D01*
X39273Y28890D01*
X38994Y28965D01*
D02*
G37*
G36*
X28834D02*
X28546D01*
X28267Y28890D01*
X28018Y28746D01*
X27814Y28542D01*
X27670Y28293D01*
X27595Y28014D01*
Y27726D01*
X27670Y27447D01*
X27814Y27198D01*
X28018Y26994D01*
X28267Y26850D01*
X28546Y26775D01*
X28834D01*
X29113Y26850D01*
X29362Y26994D01*
X29566Y27198D01*
X29710Y27447D01*
X29785Y27726D01*
Y28014D01*
X29710Y28293D01*
X29566Y28542D01*
X29362Y28746D01*
X29113Y28890D01*
X28834Y28965D01*
D02*
G37*
G36*
X26294D02*
X26006D01*
X25727Y28890D01*
X25478Y28746D01*
X25274Y28542D01*
X25130Y28293D01*
X25055Y28014D01*
Y27726D01*
X25130Y27447D01*
X25274Y27198D01*
X25478Y26994D01*
X25727Y26850D01*
X26006Y26775D01*
X26294D01*
X26573Y26850D01*
X26822Y26994D01*
X27026Y27198D01*
X27170Y27447D01*
X27245Y27726D01*
Y28014D01*
X27170Y28293D01*
X27026Y28542D01*
X26822Y28746D01*
X26573Y28890D01*
X26294Y28965D01*
D02*
G37*
G36*
X21214D02*
X20926D01*
X20647Y28890D01*
X20398Y28746D01*
X20194Y28542D01*
X20050Y28293D01*
X19975Y28014D01*
Y27726D01*
X20050Y27447D01*
X20194Y27198D01*
X20398Y26994D01*
X20647Y26850D01*
X20926Y26775D01*
X21214D01*
X21493Y26850D01*
X21742Y26994D01*
X21946Y27198D01*
X22090Y27447D01*
X22165Y27726D01*
Y28014D01*
X22090Y28293D01*
X21946Y28542D01*
X21742Y28746D01*
X21493Y28890D01*
X21214Y28965D01*
D02*
G37*
G36*
X18674D02*
X18386D01*
X18107Y28890D01*
X17858Y28746D01*
X17654Y28542D01*
X17510Y28293D01*
X17435Y28014D01*
Y27726D01*
X17510Y27447D01*
X17654Y27198D01*
X17858Y26994D01*
X18107Y26850D01*
X18386Y26775D01*
X18674D01*
X18953Y26850D01*
X19202Y26994D01*
X19406Y27198D01*
X19550Y27447D01*
X19625Y27726D01*
Y28014D01*
X19550Y28293D01*
X19406Y28542D01*
X19202Y28746D01*
X18953Y28890D01*
X18674Y28965D01*
D02*
G37*
G36*
X16134D02*
X15846D01*
X15567Y28890D01*
X15318Y28746D01*
X15114Y28542D01*
X14970Y28293D01*
X14895Y28014D01*
Y27726D01*
X14970Y27447D01*
X15114Y27198D01*
X15318Y26994D01*
X15567Y26850D01*
X15846Y26775D01*
X16134D01*
X16413Y26850D01*
X16662Y26994D01*
X16866Y27198D01*
X17010Y27447D01*
X17085Y27726D01*
Y28014D01*
X17010Y28293D01*
X16866Y28542D01*
X16662Y28746D01*
X16413Y28890D01*
X16134Y28965D01*
D02*
G37*
G36*
X46614D02*
X46326D01*
X46047Y28890D01*
X45798Y28746D01*
X45594Y28542D01*
X45450Y28293D01*
X45375Y28014D01*
Y27726D01*
X45450Y27447D01*
X45594Y27198D01*
X45798Y26994D01*
X46047Y26850D01*
X46326Y26775D01*
X46614D01*
X46767Y26816D01*
X47216Y26367D01*
X47211Y26306D01*
X47114Y26249D01*
X47075Y26245D01*
X46893Y26350D01*
X46614Y26425D01*
X46326D01*
X46047Y26350D01*
X45798Y26206D01*
X45594Y26002D01*
X45450Y25753D01*
X45375Y25474D01*
Y25186D01*
X45450Y24907D01*
X45594Y24658D01*
X45798Y24454D01*
X46047Y24310D01*
X46326Y24235D01*
X46614D01*
X46674Y24251D01*
X46742Y24138D01*
X46691Y24084D01*
X46632Y24100D01*
X46368D01*
X46114Y24032D01*
X45886Y23900D01*
X45700Y23714D01*
X45568Y23486D01*
X45500Y23232D01*
Y22968D01*
X45568Y22714D01*
X45700Y22486D01*
X45886Y22300D01*
X46114Y22168D01*
X46368Y22100D01*
X46632D01*
X46860Y22161D01*
X46921Y22089D01*
X46935Y22056D01*
X46792Y21914D01*
X46641Y21651D01*
X46563Y21359D01*
Y21056D01*
X46641Y20764D01*
X46792Y20501D01*
X47006Y20287D01*
X47269Y20136D01*
X47561Y20057D01*
X47864D01*
X48156Y20136D01*
X48419Y20287D01*
X48633Y20501D01*
X48784Y20764D01*
X48863Y21056D01*
Y21359D01*
X48784Y21651D01*
X48633Y21914D01*
X48419Y22128D01*
X48156Y22279D01*
X47864Y22357D01*
X47561D01*
X47269Y22279D01*
X47201Y22386D01*
X47300Y22486D01*
X47432Y22714D01*
X47500Y22968D01*
Y23232D01*
X47476Y23319D01*
X48179Y24021D01*
X48295Y24195D01*
X48319Y24318D01*
X48458Y24384D01*
X48587Y24310D01*
X48866Y24235D01*
X49154D01*
X49433Y24310D01*
X49682Y24454D01*
X49886Y24658D01*
X50030Y24907D01*
X50105Y25186D01*
Y25474D01*
X50030Y25753D01*
X49886Y26002D01*
X49682Y26206D01*
X49433Y26350D01*
X49154Y26425D01*
X48866D01*
X48587Y26350D01*
X48462Y26278D01*
X48335Y26351D01*
Y26540D01*
X48295Y26745D01*
X48179Y26919D01*
X47524Y27573D01*
X47565Y27726D01*
Y28014D01*
X47490Y28293D01*
X47346Y28542D01*
X47142Y28746D01*
X46893Y28890D01*
X46614Y28965D01*
D02*
G37*
G36*
X56780Y26320D02*
Y25480D01*
X57620D01*
X57557Y25714D01*
X57426Y25941D01*
X57241Y26126D01*
X57014Y26257D01*
X56780Y26320D01*
D02*
G37*
G36*
X56480D02*
X56246Y26257D01*
X56019Y26126D01*
X55834Y25941D01*
X55703Y25714D01*
X55640Y25480D01*
X56480D01*
Y26320D01*
D02*
G37*
G36*
X39000D02*
Y25480D01*
X39840D01*
X39777Y25714D01*
X39646Y25941D01*
X39461Y26126D01*
X39234Y26257D01*
X39000Y26320D01*
D02*
G37*
G36*
X18680D02*
Y25480D01*
X19520D01*
X19457Y25714D01*
X19326Y25941D01*
X19141Y26126D01*
X18914Y26257D01*
X18680Y26320D01*
D02*
G37*
G36*
X18380D02*
X18146Y26257D01*
X17919Y26126D01*
X17734Y25941D01*
X17603Y25714D01*
X17540Y25480D01*
X18380D01*
Y26320D01*
D02*
G37*
G36*
X57620Y25180D02*
X56780D01*
Y24340D01*
X57014Y24403D01*
X57241Y24534D01*
X57426Y24719D01*
X57557Y24946D01*
X57620Y25180D01*
D02*
G37*
G36*
X56480D02*
X55640D01*
X55703Y24946D01*
X55834Y24719D01*
X56019Y24534D01*
X56246Y24403D01*
X56480Y24340D01*
Y25180D01*
D02*
G37*
G36*
X19520D02*
X18680D01*
Y24340D01*
X18914Y24403D01*
X19141Y24534D01*
X19326Y24719D01*
X19457Y24946D01*
X19520Y25180D01*
D02*
G37*
G36*
X18380D02*
X17540D01*
X17603Y24946D01*
X17734Y24719D01*
X17919Y24534D01*
X18146Y24403D01*
X18380Y24340D01*
Y25180D01*
D02*
G37*
G36*
X64000Y26550D02*
X61750D01*
Y24300D01*
X61836D01*
X62300Y24392D01*
X62737Y24573D01*
X63130Y24836D01*
X63464Y25170D01*
X63727Y25563D01*
X63908Y26000D01*
X64000Y26464D01*
Y26550D01*
D02*
G37*
G36*
X61450D02*
X59200D01*
Y26464D01*
X59292Y26000D01*
X59473Y25563D01*
X59736Y25170D01*
X60070Y24836D01*
X60463Y24573D01*
X60900Y24392D01*
X61364Y24300D01*
X61450D01*
Y26550D01*
D02*
G37*
G36*
X6000D02*
X3750D01*
Y24300D01*
X3836D01*
X4300Y24392D01*
X4737Y24573D01*
X5130Y24836D01*
X5464Y25170D01*
X5727Y25563D01*
X5908Y26000D01*
X6000Y26464D01*
Y26550D01*
D02*
G37*
G36*
X3450D02*
X1200D01*
Y26464D01*
X1292Y26000D01*
X1473Y25563D01*
X1736Y25170D01*
X2070Y24836D01*
X2463Y24573D01*
X2900Y24392D01*
X3364Y24300D01*
X3450D01*
Y26550D01*
D02*
G37*
G36*
X54234Y26425D02*
X53946D01*
X53667Y26350D01*
X53418Y26206D01*
X53214Y26002D01*
X53070Y25753D01*
X52995Y25474D01*
Y25186D01*
X53070Y24907D01*
X53214Y24658D01*
X53418Y24454D01*
X53667Y24310D01*
X53946Y24235D01*
X54234D01*
X54513Y24310D01*
X54762Y24454D01*
X54966Y24658D01*
X55110Y24907D01*
X55185Y25186D01*
Y25474D01*
X55110Y25753D01*
X54966Y26002D01*
X54762Y26206D01*
X54513Y26350D01*
X54234Y26425D01*
D02*
G37*
G36*
X51694D02*
X51406D01*
X51127Y26350D01*
X50878Y26206D01*
X50674Y26002D01*
X50530Y25753D01*
X50455Y25474D01*
Y25186D01*
X50530Y24907D01*
X50674Y24658D01*
X50878Y24454D01*
X51127Y24310D01*
X51406Y24235D01*
X51694D01*
X51973Y24310D01*
X52222Y24454D01*
X52426Y24658D01*
X52570Y24907D01*
X52645Y25186D01*
Y25474D01*
X52570Y25753D01*
X52426Y26002D01*
X52222Y26206D01*
X51973Y26350D01*
X51694Y26425D01*
D02*
G37*
G36*
X44074D02*
X43786D01*
X43507Y26350D01*
X43258Y26206D01*
X43054Y26002D01*
X42910Y25753D01*
X42835Y25474D01*
Y25186D01*
X42910Y24907D01*
X43054Y24658D01*
X43258Y24454D01*
X43507Y24310D01*
X43786Y24235D01*
X44074D01*
X44353Y24310D01*
X44602Y24454D01*
X44806Y24658D01*
X44950Y24907D01*
X45025Y25186D01*
Y25474D01*
X44950Y25753D01*
X44806Y26002D01*
X44602Y26206D01*
X44353Y26350D01*
X44074Y26425D01*
D02*
G37*
G36*
X41534D02*
X41246D01*
X40967Y26350D01*
X40718Y26206D01*
X40514Y26002D01*
X40370Y25753D01*
X40295Y25474D01*
Y25186D01*
X40370Y24907D01*
X40514Y24658D01*
X40718Y24454D01*
X40967Y24310D01*
X41246Y24235D01*
X41534D01*
X41813Y24310D01*
X42062Y24454D01*
X42266Y24658D01*
X42410Y24907D01*
X42485Y25186D01*
Y25474D01*
X42410Y25753D01*
X42266Y26002D01*
X42062Y26206D01*
X41813Y26350D01*
X41534Y26425D01*
D02*
G37*
G36*
X33914D02*
X33626D01*
X33347Y26350D01*
X33098Y26206D01*
X32894Y26002D01*
X32750Y25753D01*
X32675Y25474D01*
Y25186D01*
X32750Y24907D01*
X32894Y24658D01*
X33098Y24454D01*
X33347Y24310D01*
X33626Y24235D01*
X33914D01*
X34193Y24310D01*
X34442Y24454D01*
X34646Y24658D01*
X34790Y24907D01*
X34865Y25186D01*
Y25474D01*
X34790Y25753D01*
X34646Y26002D01*
X34442Y26206D01*
X34193Y26350D01*
X33914Y26425D01*
D02*
G37*
G36*
X28834D02*
X28546D01*
X28267Y26350D01*
X28018Y26206D01*
X27814Y26002D01*
X27670Y25753D01*
X27595Y25474D01*
Y25186D01*
X27670Y24907D01*
X27814Y24658D01*
X28018Y24454D01*
X28267Y24310D01*
X28546Y24235D01*
X28834D01*
X29113Y24310D01*
X29362Y24454D01*
X29566Y24658D01*
X29710Y24907D01*
X29785Y25186D01*
Y25474D01*
X29710Y25753D01*
X29566Y26002D01*
X29362Y26206D01*
X29113Y26350D01*
X28834Y26425D01*
D02*
G37*
G36*
X26294D02*
X26006D01*
X25727Y26350D01*
X25478Y26206D01*
X25274Y26002D01*
X25130Y25753D01*
X25055Y25474D01*
Y25186D01*
X25130Y24907D01*
X25274Y24658D01*
X25478Y24454D01*
X25727Y24310D01*
X26006Y24235D01*
X26294D01*
X26573Y24310D01*
X26822Y24454D01*
X27026Y24658D01*
X27170Y24907D01*
X27245Y25186D01*
Y25474D01*
X27170Y25753D01*
X27026Y26002D01*
X26822Y26206D01*
X26573Y26350D01*
X26294Y26425D01*
D02*
G37*
G36*
X23754D02*
X23466D01*
X23187Y26350D01*
X22938Y26206D01*
X22734Y26002D01*
X22590Y25753D01*
X22515Y25474D01*
Y25186D01*
X22590Y24907D01*
X22734Y24658D01*
X22938Y24454D01*
X23187Y24310D01*
X23466Y24235D01*
X23754D01*
X24033Y24310D01*
X24282Y24454D01*
X24486Y24658D01*
X24630Y24907D01*
X24705Y25186D01*
Y25474D01*
X24630Y25753D01*
X24486Y26002D01*
X24282Y26206D01*
X24033Y26350D01*
X23754Y26425D01*
D02*
G37*
G36*
X21214D02*
X20926D01*
X20647Y26350D01*
X20398Y26206D01*
X20194Y26002D01*
X20050Y25753D01*
X19975Y25474D01*
Y25186D01*
X20050Y24907D01*
X20194Y24658D01*
X20398Y24454D01*
X20647Y24310D01*
X20926Y24235D01*
X21214D01*
X21493Y24310D01*
X21742Y24454D01*
X21946Y24658D01*
X22090Y24907D01*
X22165Y25186D01*
Y25474D01*
X22090Y25753D01*
X21946Y26002D01*
X21742Y26206D01*
X21493Y26350D01*
X21214Y26425D01*
D02*
G37*
G36*
X16134D02*
X15846D01*
X15567Y26350D01*
X15318Y26206D01*
X15114Y26002D01*
X14970Y25753D01*
X14895Y25474D01*
Y25186D01*
X14970Y24907D01*
X15114Y24658D01*
X15318Y24454D01*
X15567Y24310D01*
X15846Y24235D01*
X16134D01*
X16413Y24310D01*
X16662Y24454D01*
X16866Y24658D01*
X17010Y24907D01*
X17085Y25186D01*
Y25474D01*
X17010Y25753D01*
X16866Y26002D01*
X16662Y26206D01*
X16413Y26350D01*
X16134Y26425D01*
D02*
G37*
G36*
X13594D02*
X13306D01*
X13027Y26350D01*
X12778Y26206D01*
X12574Y26002D01*
X12430Y25753D01*
X12355Y25474D01*
Y25186D01*
X12430Y24907D01*
X12574Y24658D01*
X12778Y24454D01*
X13027Y24310D01*
X13306Y24235D01*
X13594D01*
X13873Y24310D01*
X14122Y24454D01*
X14326Y24658D01*
X14470Y24907D01*
X14545Y25186D01*
Y25474D01*
X14470Y25753D01*
X14326Y26002D01*
X14122Y26206D01*
X13873Y26350D01*
X13594Y26425D01*
D02*
G37*
G36*
X50807Y21557D02*
X50257D01*
Y21007D01*
X50807D01*
Y21557D01*
D02*
G37*
G36*
X49957D02*
X49407D01*
Y21007D01*
X49957D01*
Y21557D01*
D02*
G37*
G36*
X15350Y21800D02*
X14450D01*
Y21000D01*
X15350D01*
Y21800D01*
D02*
G37*
G36*
X14150D02*
X13250D01*
Y21000D01*
X14150D01*
Y21800D01*
D02*
G37*
G36*
X45324Y22357D02*
X45021D01*
X44729Y22279D01*
X44466Y22128D01*
X44252Y21914D01*
X44101Y21651D01*
X44023Y21359D01*
Y21056D01*
X44101Y20764D01*
X44252Y20501D01*
X44466Y20287D01*
X44729Y20136D01*
X45021Y20057D01*
X45324D01*
X45616Y20136D01*
X45879Y20287D01*
X46093Y20501D01*
X46244Y20764D01*
X46323Y21056D01*
Y21359D01*
X46244Y21651D01*
X46093Y21914D01*
X45879Y22128D01*
X45616Y22279D01*
X45324Y22357D01*
D02*
G37*
G36*
X6453Y21350D02*
X6450D01*
Y19950D01*
X7850D01*
Y19953D01*
X7790Y20252D01*
X7674Y20534D01*
X7504Y20788D01*
X7288Y21004D01*
X7034Y21174D01*
X6752Y21290D01*
X6453Y21350D01*
D02*
G37*
G36*
X6150D02*
X6147D01*
X5848Y21290D01*
X5566Y21174D01*
X5312Y21004D01*
X5096Y20788D01*
X4926Y20534D01*
X4810Y20252D01*
X4750Y19953D01*
Y19950D01*
X6150D01*
Y21350D01*
D02*
G37*
G36*
X50807Y20707D02*
X50107D01*
X49407D01*
X49407Y20223D01*
X49307Y20157D01*
Y20092D01*
X49307Y20092D01*
Y19893D01*
X48403D01*
X48198Y19852D01*
X48024Y19736D01*
X42974Y14686D01*
X42784Y14737D01*
X42481D01*
X42189Y14659D01*
X41926Y14508D01*
X41712Y14294D01*
X41561Y14031D01*
X41483Y13739D01*
Y13436D01*
X41561Y13144D01*
X41712Y12881D01*
X41926Y12667D01*
X42189Y12516D01*
X42481Y12437D01*
X42784D01*
X43076Y12516D01*
X43339Y12667D01*
X43553Y12881D01*
X43704Y13144D01*
X43783Y13436D01*
Y13739D01*
X43731Y13929D01*
X44119Y14317D01*
X44221Y14239D01*
X44101Y14031D01*
X44023Y13739D01*
Y13436D01*
X44101Y13144D01*
X44252Y12881D01*
X44466Y12667D01*
X44729Y12516D01*
X45021Y12437D01*
X45324D01*
X45616Y12516D01*
X45879Y12667D01*
X46093Y12881D01*
X46244Y13144D01*
X46323Y13436D01*
Y13739D01*
X46271Y13929D01*
X47807Y15465D01*
X48543D01*
X49307Y14700D01*
Y13923D01*
X49307Y13923D01*
X49307Y13857D01*
X49407Y13792D01*
X49407Y13730D01*
Y13307D01*
X50107D01*
Y13157D01*
D01*
Y13307D01*
X50807D01*
X50807Y13792D01*
X50907Y13857D01*
X51031Y13932D01*
X51320Y13932D01*
X51347Y13884D01*
X51524Y13707D01*
X51741Y13582D01*
X51982Y13517D01*
X52233D01*
X52474Y13582D01*
X52691Y13707D01*
X52868Y13884D01*
X52993Y14101D01*
X53057Y14342D01*
Y14593D01*
X52993Y14834D01*
X52868Y15051D01*
X52691Y15228D01*
X52474Y15353D01*
X52233Y15417D01*
X51982D01*
X51741Y15353D01*
X51524Y15228D01*
X51347Y15051D01*
X51320Y15003D01*
X50907Y15003D01*
Y15457D01*
X50064D01*
X49143Y16378D01*
X48970Y16495D01*
X48765Y16535D01*
X47585D01*
X47380Y16495D01*
X47207Y16378D01*
X45514Y14686D01*
X45324Y14737D01*
X45021D01*
X44729Y14659D01*
X44521Y14539D01*
X44443Y14641D01*
X48624Y18822D01*
X49307D01*
Y18557D01*
X50907D01*
Y18822D01*
X51157D01*
Y18397D01*
X53057D01*
Y20297D01*
X51157D01*
Y19893D01*
X50907D01*
Y20092D01*
X50907Y20092D01*
X50907Y20157D01*
X50807Y20223D01*
X50807Y20284D01*
Y20707D01*
D02*
G37*
G36*
X7850Y19650D02*
X6450D01*
Y18250D01*
X6453D01*
X6752Y18310D01*
X7034Y18426D01*
X7288Y18596D01*
X7504Y18812D01*
X7674Y19066D01*
X7790Y19348D01*
X7850Y19647D01*
Y19650D01*
D02*
G37*
G36*
X6150D02*
X4750D01*
Y19647D01*
X4810Y19348D01*
X4926Y19066D01*
X5096Y18812D01*
X5312Y18596D01*
X5566Y18426D01*
X5848Y18310D01*
X6147Y18250D01*
X6150D01*
Y19650D01*
D02*
G37*
G36*
X26143Y17507D02*
X25593D01*
Y16957D01*
X26143D01*
Y17507D01*
D02*
G37*
G36*
X61800Y16206D02*
X60400D01*
Y15150D01*
X62556D01*
Y15450D01*
X62531Y15646D01*
X62455Y15828D01*
X62335Y15985D01*
X62178Y16105D01*
X61996Y16181D01*
X61800Y16206D01*
D02*
G37*
G36*
X60100D02*
X58700D01*
X58504Y16181D01*
X58322Y16105D01*
X58165Y15985D01*
X58045Y15828D01*
X57969Y15646D01*
X57944Y15450D01*
Y15150D01*
X60100D01*
Y16206D01*
D02*
G37*
G36*
X16641Y14760D02*
X16339D01*
X16046Y14682D01*
X15784Y14530D01*
X15570Y14316D01*
X15477Y14155D01*
X15350Y14189D01*
Y14600D01*
X14450D01*
Y13800D01*
X15219D01*
X15340Y13761D01*
X15340Y13691D01*
Y13459D01*
X15418Y13166D01*
X15570Y12904D01*
X15784Y12690D01*
X16046Y12538D01*
X16339Y12460D01*
X16641D01*
X16934Y12538D01*
X17196Y12690D01*
X17410Y12904D01*
X17562Y13166D01*
X17640Y13459D01*
Y13761D01*
X17562Y14054D01*
X17410Y14316D01*
X17196Y14530D01*
X16934Y14682D01*
X16641Y14760D01*
D02*
G37*
G36*
X14150Y14600D02*
X13250D01*
Y13800D01*
X14150D01*
Y14600D01*
D02*
G37*
G36*
X62556Y14850D02*
X60400D01*
Y13794D01*
X61800D01*
X61996Y13819D01*
X62178Y13895D01*
X62335Y14015D01*
X62455Y14172D01*
X62531Y14354D01*
X62556Y14550D01*
Y14850D01*
D02*
G37*
G36*
X60100D02*
X57944D01*
Y14550D01*
X57969Y14354D01*
X58045Y14172D01*
X58165Y14015D01*
X58322Y13895D01*
X58504Y13819D01*
X58700Y13794D01*
X60100D01*
Y14850D01*
D02*
G37*
G36*
X47863Y14634D02*
Y13737D01*
X48759D01*
X48691Y13993D01*
X48553Y14232D01*
X48357Y14428D01*
X48118Y14566D01*
X47863Y14634D01*
D02*
G37*
G36*
X47563D02*
X47307Y14566D01*
X47068Y14428D01*
X46872Y14232D01*
X46734Y13993D01*
X46666Y13737D01*
X47563D01*
Y14634D01*
D02*
G37*
G36*
X48759Y13437D02*
X47863D01*
Y12541D01*
X48118Y12609D01*
X48357Y12747D01*
X48553Y12943D01*
X48691Y13182D01*
X48759Y13437D01*
D02*
G37*
G36*
X47563D02*
X46666D01*
X46734Y13182D01*
X46872Y12943D01*
X47068Y12747D01*
X47307Y12609D01*
X47563Y12541D01*
Y13437D01*
D02*
G37*
G36*
X50807Y13007D02*
X50257D01*
Y12457D01*
X50807D01*
Y13007D01*
D02*
G37*
G36*
X49957D02*
X49407D01*
Y12457D01*
X49957D01*
Y13007D01*
D02*
G37*
G36*
X40244Y14737D02*
X39941D01*
X39649Y14659D01*
X39386Y14508D01*
X39172Y14294D01*
X39021Y14031D01*
X38943Y13739D01*
Y13436D01*
X39021Y13144D01*
X39172Y12881D01*
X39386Y12667D01*
X39649Y12516D01*
X39941Y12437D01*
X40244D01*
X40536Y12516D01*
X40799Y12667D01*
X41013Y12881D01*
X41164Y13144D01*
X41243Y13436D01*
Y13739D01*
X41164Y14031D01*
X41013Y14294D01*
X40799Y14508D01*
X40536Y14659D01*
X40244Y14737D01*
D02*
G37*
G36*
X37704D02*
X37401D01*
X37109Y14659D01*
X36846Y14508D01*
X36632Y14294D01*
X36481Y14031D01*
X36403Y13739D01*
Y13436D01*
X36481Y13144D01*
X36632Y12881D01*
X36846Y12667D01*
X37109Y12516D01*
X37401Y12437D01*
X37704D01*
X37996Y12516D01*
X38259Y12667D01*
X38473Y12881D01*
X38624Y13144D01*
X38703Y13436D01*
Y13739D01*
X38624Y14031D01*
X38473Y14294D01*
X38259Y14508D01*
X37996Y14659D01*
X37704Y14737D01*
D02*
G37*
G36*
X55900Y14607D02*
X55000D01*
X54778Y14578D01*
X54571Y14492D01*
X54394Y14356D01*
X54258Y14179D01*
X54172Y13972D01*
X54143Y13750D01*
Y10650D01*
X54172Y10428D01*
X54258Y10221D01*
X54394Y10044D01*
X54571Y9908D01*
X54778Y9822D01*
X55000Y9793D01*
X55900D01*
X56122Y9822D01*
X56329Y9908D01*
X56506Y10044D01*
X56642Y10221D01*
X56728Y10428D01*
X56757Y10650D01*
Y13750D01*
X56728Y13972D01*
X56642Y14179D01*
X56506Y14356D01*
X56329Y14492D01*
X56122Y14578D01*
X55900Y14607D01*
D02*
G37*
G36*
X24260Y9577D02*
Y8680D01*
X25157D01*
X25088Y8935D01*
X24950Y9175D01*
X24755Y9370D01*
X24515Y9508D01*
X24260Y9577D01*
D02*
G37*
G36*
X23960D02*
X23705Y9508D01*
X23465Y9370D01*
X23270Y9175D01*
X23132Y8935D01*
X23063Y8680D01*
X23960D01*
Y9577D01*
D02*
G37*
G36*
X22600Y8900D02*
X22050D01*
Y8350D01*
X22600D01*
Y8900D01*
D02*
G37*
G36*
X21750D02*
X21200D01*
Y8350D01*
X21750D01*
Y8900D01*
D02*
G37*
G36*
X19500Y8750D02*
X18950D01*
Y8200D01*
X19500D01*
Y8750D01*
D02*
G37*
G36*
X18650D02*
X18100D01*
Y8200D01*
X18650D01*
Y8750D01*
D02*
G37*
G36*
X25157Y8380D02*
X24260D01*
Y7483D01*
X24515Y7552D01*
X24755Y7690D01*
X24950Y7885D01*
X25088Y8125D01*
X25157Y8380D01*
D02*
G37*
G36*
X23960D02*
X23063D01*
X23132Y8125D01*
X23270Y7885D01*
X23465Y7690D01*
X23705Y7552D01*
X23960Y7483D01*
Y8380D01*
D02*
G37*
G36*
X6463Y16450D02*
X6137D01*
X5819Y16387D01*
X5518Y16262D01*
X5248Y16082D01*
X5018Y15852D01*
X4838Y15582D01*
X4713Y15281D01*
X4650Y14963D01*
Y14637D01*
X4713Y14319D01*
X4838Y14018D01*
X5018Y13748D01*
X5248Y13518D01*
X5518Y13338D01*
X5790Y13225D01*
Y13200D01*
X5829Y13005D01*
X5940Y12840D01*
X6479Y12300D01*
X5940Y11760D01*
X5829Y11595D01*
X5790Y11400D01*
Y11375D01*
X5518Y11262D01*
X5248Y11082D01*
X5018Y10852D01*
X4838Y10582D01*
X4713Y10281D01*
X4650Y9963D01*
Y9637D01*
X4713Y9319D01*
X4838Y9018D01*
X5018Y8748D01*
X5248Y8518D01*
X5518Y8338D01*
X5819Y8213D01*
X6137Y8150D01*
X6463D01*
X6781Y8213D01*
X7082Y8338D01*
X7352Y8518D01*
X7582Y8748D01*
X7762Y9018D01*
X7887Y9319D01*
X7950Y9637D01*
Y9963D01*
X7887Y10281D01*
X7762Y10582D01*
X7582Y10852D01*
X7352Y11082D01*
X7082Y11262D01*
X7047Y11277D01*
X7022Y11401D01*
X7211Y11590D01*
X8623D01*
X10974Y9240D01*
X11139Y9129D01*
X11334Y9090D01*
X11590D01*
Y8900D01*
X11600Y8851D01*
Y7300D01*
X14200D01*
Y8851D01*
X14210Y8900D01*
Y9089D01*
X14211Y9090D01*
X15359D01*
X15412Y8997D01*
X15416Y8963D01*
X15340Y8681D01*
Y8379D01*
X15418Y8086D01*
X15570Y7824D01*
X15784Y7610D01*
X16046Y7458D01*
X16339Y7380D01*
X16641D01*
X16934Y7458D01*
X17196Y7610D01*
X17410Y7824D01*
X17562Y8086D01*
X17640Y8379D01*
Y8681D01*
X17562Y8974D01*
X17410Y9236D01*
X17196Y9450D01*
X16982Y9574D01*
X16961Y9678D01*
X16879Y9800D01*
X16961Y9922D01*
X16982Y10026D01*
X17196Y10150D01*
X17410Y10364D01*
X17562Y10626D01*
X17640Y10919D01*
Y11221D01*
X17562Y11514D01*
X17410Y11776D01*
X17196Y11990D01*
X16934Y12142D01*
X16641Y12220D01*
X16339D01*
X16046Y12142D01*
X15784Y11990D01*
X15570Y11776D01*
X15418Y11514D01*
X15340Y11221D01*
Y10919D01*
X15416Y10637D01*
X15412Y10603D01*
X15359Y10510D01*
X14211D01*
X14210Y10511D01*
Y10700D01*
X14200Y10749D01*
Y12300D01*
X11600D01*
Y10801D01*
X11481Y10750D01*
X11471Y10750D01*
X9360Y12860D01*
X9195Y12971D01*
X9000Y13010D01*
X7211D01*
X7022Y13199D01*
X7047Y13323D01*
X7082Y13338D01*
X7352Y13518D01*
X7582Y13748D01*
X7762Y14018D01*
X7887Y14319D01*
X7950Y14637D01*
Y14963D01*
X7887Y15281D01*
X7762Y15582D01*
X7582Y15852D01*
X7352Y16082D01*
X7082Y16262D01*
X6781Y16387D01*
X6463Y16450D01*
D02*
G37*
G36*
X19500Y7900D02*
X18800D01*
X18100D01*
X18100Y7415D01*
X18000Y7350D01*
Y7285D01*
X18000Y7285D01*
Y6525D01*
X17509D01*
X17410Y6696D01*
X17196Y6910D01*
X16934Y7062D01*
X16641Y7140D01*
X16339D01*
X16046Y7062D01*
X15784Y6910D01*
X15570Y6696D01*
X15418Y6434D01*
X15340Y6141D01*
Y5839D01*
X15418Y5546D01*
X15570Y5284D01*
X15784Y5070D01*
X16046Y4918D01*
X16339Y4840D01*
X16641D01*
X16934Y4918D01*
X17196Y5070D01*
X17410Y5284D01*
X17509Y5455D01*
X18240D01*
X18445Y5495D01*
X18618Y5611D01*
X18757Y5750D01*
X19600D01*
Y7285D01*
X19600Y7285D01*
X19600Y7350D01*
X19500Y7415D01*
X19500Y7477D01*
Y7900D01*
D02*
G37*
G36*
X61800Y10507D02*
X58700D01*
X58478Y10478D01*
X58271Y10392D01*
X58094Y10256D01*
X57958Y10079D01*
X57872Y9872D01*
X57843Y9650D01*
Y8803D01*
X57842Y8800D01*
Y7226D01*
X56250Y5634D01*
X56242Y5642D01*
X56054Y5786D01*
X55835Y5877D01*
X55600Y5908D01*
X53539D01*
X53487Y5960D01*
X53213Y6118D01*
X52908Y6200D01*
X52592D01*
X52287Y6118D01*
X52013Y5960D01*
X51961Y5908D01*
X50289D01*
X50237Y5960D01*
X49963Y6118D01*
X49658Y6200D01*
X49342D01*
X49037Y6118D01*
X48763Y5960D01*
X48711Y5908D01*
X47039D01*
X46987Y5960D01*
X46713Y6118D01*
X46408Y6200D01*
X46092D01*
X45787Y6118D01*
X45513Y5960D01*
X45461Y5908D01*
X43789D01*
X43737Y5960D01*
X43463Y6118D01*
X43158Y6200D01*
X42842D01*
X42537Y6118D01*
X42263Y5960D01*
X42211Y5908D01*
X40539D01*
X40487Y5960D01*
X40213Y6118D01*
X39908Y6200D01*
X39592D01*
X39287Y6118D01*
X39013Y5960D01*
X38790Y5737D01*
X38632Y5463D01*
X38550Y5158D01*
Y4842D01*
X38632Y4537D01*
X38790Y4263D01*
X39013Y4040D01*
X39287Y3882D01*
X39592Y3800D01*
X39908D01*
X40213Y3882D01*
X40487Y4040D01*
X40539Y4092D01*
X42211D01*
X42263Y4040D01*
X42537Y3882D01*
X42842Y3800D01*
X43158D01*
X43463Y3882D01*
X43737Y4040D01*
X43789Y4092D01*
X45461D01*
X45513Y4040D01*
X45787Y3882D01*
X46092Y3800D01*
X46408D01*
X46713Y3882D01*
X46987Y4040D01*
X47039Y4092D01*
X48711D01*
X48763Y4040D01*
X49037Y3882D01*
X49342Y3800D01*
X49658D01*
X49963Y3882D01*
X50237Y4040D01*
X50289Y4092D01*
X51961D01*
X52013Y4040D01*
X52287Y3882D01*
X52592Y3800D01*
X52908D01*
X53213Y3882D01*
X53487Y4040D01*
X53539Y4092D01*
X55100D01*
Y3400D01*
X55200D01*
Y2700D01*
X57300D01*
Y3400D01*
X57400D01*
Y4216D01*
X59392Y6208D01*
X59536Y6396D01*
X59627Y6615D01*
X59658Y6850D01*
Y7893D01*
X61800D01*
X62022Y7922D01*
X62229Y8008D01*
X62406Y8144D01*
X62542Y8321D01*
X62628Y8528D01*
X62657Y8750D01*
Y9650D01*
X62628Y9872D01*
X62542Y10079D01*
X62406Y10256D01*
X62229Y10392D01*
X62022Y10478D01*
X61800Y10507D01*
D02*
G37*
G36*
X61836Y6100D02*
X61750D01*
Y3850D01*
X64000D01*
Y3936D01*
X63908Y4400D01*
X63727Y4837D01*
X63464Y5230D01*
X63130Y5564D01*
X62737Y5827D01*
X62300Y6008D01*
X61836Y6100D01*
D02*
G37*
G36*
X61450D02*
X61364D01*
X60900Y6008D01*
X60463Y5827D01*
X60070Y5564D01*
X59736Y5230D01*
X59473Y4837D01*
X59292Y4400D01*
X59200Y3936D01*
Y3850D01*
X61450D01*
Y6100D01*
D02*
G37*
G36*
X3836D02*
X3750D01*
Y3850D01*
X6000D01*
Y3936D01*
X5908Y4400D01*
X5727Y4837D01*
X5464Y5230D01*
X5130Y5564D01*
X4737Y5827D01*
X4300Y6008D01*
X3836Y6100D01*
D02*
G37*
G36*
X3450D02*
X3364D01*
X2900Y6008D01*
X2463Y5827D01*
X2070Y5564D01*
X1736Y5230D01*
X1473Y4837D01*
X1292Y4400D01*
X1200Y3936D01*
Y3850D01*
X3450D01*
Y6100D01*
D02*
G37*
G36*
X49900Y3566D02*
X49650D01*
Y2610D01*
X50606D01*
Y2860D01*
X50582Y3043D01*
X50511Y3213D01*
X50399Y3359D01*
X50253Y3471D01*
X50083Y3542D01*
X49900Y3566D01*
D02*
G37*
G36*
X46650D02*
X46400D01*
Y2610D01*
X47356D01*
Y2860D01*
X47332Y3043D01*
X47261Y3213D01*
X47149Y3359D01*
X47003Y3471D01*
X46833Y3542D01*
X46650Y3566D01*
D02*
G37*
G36*
X43400D02*
X43150D01*
Y2610D01*
X44106D01*
Y2860D01*
X44082Y3043D01*
X44011Y3213D01*
X43899Y3359D01*
X43753Y3471D01*
X43583Y3542D01*
X43400Y3566D01*
D02*
G37*
G36*
X49350D02*
X49100D01*
X48917Y3542D01*
X48747Y3471D01*
X48601Y3359D01*
X48489Y3213D01*
X48418Y3043D01*
X48394Y2860D01*
Y2610D01*
X49350D01*
Y3566D01*
D02*
G37*
G36*
X46100D02*
X45850D01*
X45667Y3542D01*
X45497Y3471D01*
X45351Y3359D01*
X45239Y3213D01*
X45168Y3043D01*
X45144Y2860D01*
Y2610D01*
X46100D01*
Y3566D01*
D02*
G37*
G36*
X42850D02*
X42600D01*
X42417Y3542D01*
X42247Y3471D01*
X42101Y3359D01*
X41989Y3213D01*
X41918Y3043D01*
X41894Y2860D01*
Y2610D01*
X42850D01*
Y3566D01*
D02*
G37*
G36*
X53150D02*
X52900D01*
Y2610D01*
X53856D01*
Y2860D01*
X53832Y3043D01*
X53761Y3213D01*
X53649Y3359D01*
X53503Y3471D01*
X53333Y3542D01*
X53150Y3566D01*
D02*
G37*
G36*
X40150D02*
X39900D01*
Y2610D01*
X40856D01*
Y2860D01*
X40832Y3043D01*
X40761Y3213D01*
X40649Y3359D01*
X40503Y3471D01*
X40333Y3542D01*
X40150Y3566D01*
D02*
G37*
G36*
X52600D02*
X52350D01*
X52167Y3542D01*
X51997Y3471D01*
X51851Y3359D01*
X51739Y3213D01*
X51668Y3043D01*
X51644Y2860D01*
Y2610D01*
X52600D01*
Y3566D01*
D02*
G37*
G36*
X39600D02*
X39350D01*
X39167Y3542D01*
X38997Y3471D01*
X38851Y3359D01*
X38739Y3213D01*
X38668Y3043D01*
X38644Y2860D01*
Y2610D01*
X39600D01*
Y3566D01*
D02*
G37*
G36*
X57300Y2400D02*
X56400D01*
Y1600D01*
X57300D01*
Y2400D01*
D02*
G37*
G36*
X56100D02*
X55200D01*
Y1600D01*
X56100D01*
Y2400D01*
D02*
G37*
G36*
X53856Y2310D02*
X52900D01*
Y1354D01*
X53150D01*
X53333Y1378D01*
X53503Y1449D01*
X53649Y1561D01*
X53761Y1707D01*
X53832Y1877D01*
X53856Y2060D01*
Y2310D01*
D02*
G37*
G36*
X52600D02*
X51644D01*
Y2060D01*
X51668Y1877D01*
X51739Y1707D01*
X51851Y1561D01*
X51997Y1449D01*
X52167Y1378D01*
X52350Y1354D01*
X52600D01*
Y2310D01*
D02*
G37*
G36*
X50606Y2310D02*
X49650D01*
Y1354D01*
X49900D01*
X50083Y1378D01*
X50253Y1449D01*
X50399Y1561D01*
X50511Y1707D01*
X50582Y1877D01*
X50606Y2060D01*
Y2310D01*
D02*
G37*
G36*
X49350D02*
X48394D01*
Y2060D01*
X48418Y1877D01*
X48489Y1707D01*
X48601Y1561D01*
X48747Y1449D01*
X48917Y1378D01*
X49100Y1354D01*
X49350D01*
Y2310D01*
D02*
G37*
G36*
X47356D02*
X46400D01*
Y1354D01*
X46650D01*
X46833Y1378D01*
X47003Y1449D01*
X47149Y1561D01*
X47261Y1707D01*
X47332Y1877D01*
X47356Y2060D01*
Y2310D01*
D02*
G37*
G36*
X46100D02*
X45144D01*
Y2060D01*
X45168Y1877D01*
X45239Y1707D01*
X45351Y1561D01*
X45497Y1449D01*
X45667Y1378D01*
X45850Y1354D01*
X46100D01*
Y2310D01*
D02*
G37*
G36*
X44106D02*
X43150D01*
Y1354D01*
X43400D01*
X43583Y1378D01*
X43753Y1449D01*
X43899Y1561D01*
X44011Y1707D01*
X44082Y1877D01*
X44106Y2060D01*
Y2310D01*
D02*
G37*
G36*
X42850D02*
X41894D01*
Y2060D01*
X41918Y1877D01*
X41989Y1707D01*
X42101Y1561D01*
X42247Y1449D01*
X42417Y1378D01*
X42600Y1354D01*
X42850D01*
Y2310D01*
D02*
G37*
G36*
X40856Y2310D02*
X39900D01*
Y1354D01*
X40150D01*
X40333Y1378D01*
X40503Y1449D01*
X40649Y1561D01*
X40761Y1707D01*
X40832Y1877D01*
X40856Y2060D01*
Y2310D01*
D02*
G37*
G36*
X39600D02*
X38644D01*
Y2060D01*
X38668Y1877D01*
X38739Y1707D01*
X38851Y1561D01*
X38997Y1449D01*
X39167Y1378D01*
X39350Y1354D01*
X39600D01*
Y2310D01*
D02*
G37*
G36*
X64000Y3550D02*
X61750D01*
Y1300D01*
X61836D01*
X62300Y1392D01*
X62737Y1573D01*
X63130Y1836D01*
X63464Y2170D01*
X63727Y2563D01*
X63908Y3000D01*
X64000Y3464D01*
Y3550D01*
D02*
G37*
G36*
X61450D02*
X59200D01*
Y3464D01*
X59292Y3000D01*
X59473Y2563D01*
X59736Y2170D01*
X60070Y1836D01*
X60463Y1573D01*
X60900Y1392D01*
X61364Y1300D01*
X61450D01*
Y3550D01*
D02*
G37*
G36*
X6000D02*
X3750D01*
Y1300D01*
X3836D01*
X4300Y1392D01*
X4737Y1573D01*
X5130Y1836D01*
X5464Y2170D01*
X5727Y2563D01*
X5908Y3000D01*
X6000Y3464D01*
Y3550D01*
D02*
G37*
G36*
X3450D02*
X1200D01*
Y3464D01*
X1292Y3000D01*
X1473Y2563D01*
X1736Y2170D01*
X2070Y1836D01*
X2463Y1573D01*
X2900Y1392D01*
X3364Y1300D01*
X3450D01*
Y3550D01*
D02*
G37*
%LPD*%
D10*
X37775Y22700D02*
X38600D01*
X36310Y24165D02*
X37775Y22700D01*
X36310Y24165D02*
Y25330D01*
X38600Y22700D02*
X40093Y21207D01*
X35460Y23300D02*
X37553Y21207D01*
X40440Y23400D02*
X42633Y21207D01*
X37607Y24599D02*
Y26093D01*
X38805Y23400D02*
X40440D01*
X37607Y24599D02*
X38805Y23400D01*
X26939Y13134D02*
X27393Y13587D01*
X26939Y7439D02*
Y13134D01*
X25490Y5990D02*
X26939Y7439D01*
X24110Y13610D02*
X24295D01*
X27993Y17307D01*
X29493Y14366D02*
X29933Y13926D01*
Y13587D02*
Y13926D01*
X29493Y14366D02*
Y15557D01*
Y17307D01*
X26343Y19107D02*
X28043D01*
X26293Y19157D02*
X26343Y19107D01*
X29543D02*
X29818Y19382D01*
Y21092D01*
X29933Y21207D01*
X50297Y14467D02*
X52107Y14467D01*
X50107Y14657D02*
X50297Y14467D01*
X50107Y19357D02*
X52097D01*
X47585Y16000D02*
X48765D01*
X45173Y13587D02*
X47585Y16000D01*
X48765D02*
X50107Y14657D01*
X32400Y23300D02*
X35460D01*
X31230Y25330D02*
X31294Y25266D01*
Y24406D02*
X32400Y23300D01*
X31294Y24406D02*
Y25266D01*
X48403Y19357D02*
X50107D01*
X42633Y13587D02*
X48403Y19357D01*
X33770Y27870D02*
X35043Y26597D01*
X37103D01*
X37607Y26093D01*
X24110Y5990D02*
X25490D01*
X46500Y23100D02*
X47800Y24400D01*
Y26540D01*
X46470Y27870D02*
X47800Y26540D01*
X18240Y5990D02*
X18800Y6550D01*
X16490Y5990D02*
X18240D01*
D13*
X27157Y15257D02*
X27693D01*
X27100Y15200D02*
X27157Y15257D01*
X27693D02*
X27993Y15557D01*
X30650Y11300D02*
X30950Y11000D01*
X29728Y12204D02*
X30631Y11300D01*
X27785Y12204D02*
X29728D01*
X30631Y11300D02*
X30650D01*
X30700Y4300D02*
Y7300D01*
Y4300D02*
X31400Y3600D01*
X31800Y4300D02*
Y7000D01*
Y4300D02*
X32500Y3600D01*
X19700Y23400D02*
X30700D01*
X16700Y20400D02*
X19700Y23400D01*
X31600Y22500D02*
X33400D01*
X30700Y23400D02*
X31600Y22500D01*
X33400D02*
X33700Y22200D01*
Y11200D02*
Y22200D01*
X31200Y8700D02*
X33700Y11200D01*
X28800Y8700D02*
X31200D01*
X28100Y9400D02*
X28800Y8700D01*
X29600Y9400D02*
X31100D01*
X31800Y10100D01*
Y12400D01*
X31200Y13000D02*
Y21700D01*
Y13000D02*
X31800Y12400D01*
X20800Y22500D02*
X30400D01*
X31200Y21700D01*
X18700Y20400D02*
X20800Y22500D01*
X26188Y10988D02*
Y11613D01*
X25600Y12200D02*
X26188Y11613D01*
X29600Y9400D02*
Y10850D01*
X29450Y11000D02*
X29600Y10850D01*
X27987Y9621D02*
Y10688D01*
Y9621D02*
X28100Y9508D01*
Y9400D02*
Y9508D01*
X27688Y10988D02*
X27987Y10688D01*
X30700Y7300D02*
X33200Y9800D01*
X50490D01*
X52750Y7540D01*
X33800Y9000D02*
X48040D01*
X31800Y7000D02*
X33800Y9000D01*
X48040D02*
X49500Y7540D01*
X6300Y13200D02*
X7000Y12500D01*
X9000D01*
X6300Y13200D02*
Y14800D01*
X7000Y12100D02*
X8834D01*
X6300Y9800D02*
Y11400D01*
X7000Y12100D01*
X9000Y12500D02*
X11500Y10000D01*
X8834Y12100D02*
X11334Y9600D01*
X11983D01*
X11500Y10000D02*
X11983D01*
Y9600D02*
X12100Y9483D01*
X12650Y11250D02*
X12900D01*
X12100Y10700D02*
X12650Y11250D01*
Y8350D02*
X12900D01*
X12100Y8900D02*
Y9483D01*
Y10117D02*
Y10700D01*
X11983Y10000D02*
X12100Y10117D01*
Y8900D02*
X12650Y8350D01*
X12900D02*
X13150D01*
X13700Y8900D01*
Y9300D01*
X14000Y9600D01*
X12900Y11250D02*
X13150D01*
X13700Y10700D01*
Y10300D02*
Y10700D01*
Y10300D02*
X14000Y10000D01*
Y9600D02*
X16373D01*
X14000Y10000D02*
X16373D01*
X16490Y8530D02*
Y9483D01*
X16373Y9600D02*
X16490Y9483D01*
Y10117D02*
Y11070D01*
X16373Y10000D02*
X16490Y10117D01*
D15*
X21023Y16800D02*
X23400D01*
X20662Y17162D02*
X21023Y16800D01*
X23400D02*
X24200Y17600D01*
Y18200D01*
X25157Y19157D01*
X26293D01*
X22420Y11070D02*
X24110D01*
X21900Y10550D02*
X22420Y11070D01*
X26293Y20107D02*
X27393Y21207D01*
X26293Y19157D02*
Y20107D01*
X0Y3700D02*
G03*
X3700Y0I3700J0D01*
G01*
Y30400D02*
G03*
X0Y26700I0J-3700D01*
G01*
X65200D02*
G03*
X61500Y30400I-3700J0D01*
G01*
Y0D02*
G03*
X65200Y3700I0J3700D01*
G01*
X0D02*
G03*
X3700Y0I3700J0D01*
G01*
X61500D02*
G03*
X65200Y3700I0J3700D01*
G01*
Y26700D02*
G03*
X61500Y30400I-3700J0D01*
G01*
X3700D02*
G03*
X0Y26700I0J-3700D01*
G01*
Y3700D02*
G03*
X3700Y0I3700J0D01*
G01*
X0Y3700D02*
G03*
X3700Y0I3700J0D01*
G01*
X61500D02*
G03*
X65200Y3700I0J3700D01*
G01*
X61500Y0D02*
G03*
X65200Y3700I0J3700D01*
G01*
Y26700D02*
G03*
X61500Y30400I-3700J0D01*
G01*
X65200Y26700D02*
G03*
X61500Y30400I-3700J0D01*
G01*
X3700D02*
G03*
X0Y26700I0J-3700D01*
G01*
X3700Y30400D02*
G03*
X0Y26700I0J-3700D01*
G01*
Y3700D02*
Y26700D01*
X3700Y30400D02*
X61500D01*
X65200Y3700D02*
Y26700D01*
X3700Y0D02*
X61500D01*
X3700D02*
X61500D01*
X65200Y3700D02*
Y26700D01*
X3700Y30400D02*
X61500D01*
X0Y3700D02*
Y26700D01*
X3700Y0D02*
X61500D01*
X3700D02*
X61500D01*
X65200Y3700D02*
Y26700D01*
Y3700D02*
Y26700D01*
X3700Y30400D02*
X61500D01*
X3700D02*
X61500D01*
X0Y3700D02*
Y26700D01*
Y3700D02*
Y26700D01*
D18*
X18800Y6550D02*
D03*
Y8050D02*
D03*
X21900Y10550D02*
D03*
Y9050D02*
D03*
X50107Y13157D02*
D03*
Y20857D02*
D03*
X26293Y17657D02*
D03*
X50107Y14657D02*
D03*
X26293Y19157D02*
D03*
X50107Y19357D02*
D03*
D29*
X10910Y27870D02*
D03*
X13450D02*
D03*
X18530Y25330D02*
D03*
X31230Y27870D02*
D03*
X23610D02*
D03*
X38850Y25330D02*
D03*
X56630D02*
D03*
X43930Y27870D02*
D03*
X49010D02*
D03*
X31230Y25330D02*
D03*
X36310D02*
D03*
X33770Y27870D02*
D03*
Y25330D02*
D03*
X8370D02*
D03*
X36310Y27870D02*
D03*
X10910Y25330D02*
D03*
X13450D02*
D03*
X15990D02*
D03*
X21070D02*
D03*
X23610D02*
D03*
X26150D02*
D03*
X28690D02*
D03*
X41390D02*
D03*
X43930D02*
D03*
X46470D02*
D03*
X49010D02*
D03*
X51550D02*
D03*
X54090D02*
D03*
X15990Y27870D02*
D03*
X18530D02*
D03*
X21070D02*
D03*
X26150D02*
D03*
X28690D02*
D03*
X38850D02*
D03*
X41390D02*
D03*
X46470D02*
D03*
X51550D02*
D03*
X54090D02*
D03*
X56630D02*
D03*
D30*
X8370D02*
D03*
D33*
X52107Y19347D02*
D03*
D34*
Y14467D02*
D03*
D36*
X8370Y27870D02*
X10910D01*
X39795Y2505D02*
X56205D01*
X56250Y2550D01*
X39750Y2460D02*
X39795Y2505D01*
X58750Y8800D02*
X59150Y9200D01*
X56250Y4450D02*
X56350D01*
X58750Y6850D01*
Y8800D01*
X59150Y9200D02*
X60250D01*
X52750Y5000D02*
X55600D01*
X49500D02*
X52750D01*
X46250D02*
X49500D01*
X43000D02*
X46250D01*
X39750D02*
X43000D01*
X56150Y4450D02*
X56250D01*
X55600Y5000D02*
X56150Y4450D01*
X6300Y19800D02*
X6325Y19825D01*
X3600Y26700D02*
X6300Y29400D01*
X13406Y27870D02*
X13450D01*
X6300Y29400D02*
X11876D01*
X13406Y27870D01*
X3600Y20600D02*
X4400Y19800D01*
X3600Y20600D02*
Y26700D01*
X4400Y19800D02*
X6300D01*
X14275Y14725D02*
X14300Y14750D01*
X20662Y18362D02*
X20700Y18400D01*
X20662Y17162D02*
Y18362D01*
X20100Y16600D02*
X20662Y17162D01*
X14350Y16600D02*
X20100D01*
X14300Y16650D02*
X14350Y16600D01*
X12500Y16800D02*
X14150D01*
X11900Y17400D02*
X12500Y16800D01*
X14150D02*
X14300Y16650D01*
D38*
X60250Y9200D02*
D03*
Y15000D02*
D03*
D39*
X55450Y12200D02*
D03*
D40*
X39750Y7540D02*
D03*
Y5000D02*
D03*
X43000Y7540D02*
D03*
Y5000D02*
D03*
X46250Y7540D02*
D03*
Y5000D02*
D03*
X49500Y7540D02*
D03*
Y5000D02*
D03*
X52750Y7540D02*
D03*
Y5000D02*
D03*
D41*
X39750Y2460D02*
D03*
X43000D02*
D03*
X46250D02*
D03*
X49500D02*
D03*
X52750D02*
D03*
D42*
X33000Y2000D02*
D03*
X35000D02*
D03*
X37000D02*
D03*
X16700Y18400D02*
D03*
X18700D02*
D03*
X20700D02*
D03*
X22700D02*
D03*
X16700Y20400D02*
D03*
X22700D02*
D03*
X20700D02*
D03*
X18700D02*
D03*
X46500Y23100D02*
D03*
D43*
X16490Y13610D02*
D03*
Y11070D02*
D03*
Y8530D02*
D03*
Y5990D02*
D03*
X24110Y11070D02*
D03*
Y8530D02*
D03*
Y13610D02*
D03*
X47713Y13587D02*
D03*
Y21207D02*
D03*
X45173D02*
D03*
X42633D02*
D03*
X40093D02*
D03*
X37553D02*
D03*
X35013D02*
D03*
X32473D02*
D03*
X29933D02*
D03*
X27393D02*
D03*
X45173Y13587D02*
D03*
X42633D02*
D03*
X40093D02*
D03*
X37553D02*
D03*
X35013D02*
D03*
X32473D02*
D03*
X29933D02*
D03*
D44*
X24110Y5990D02*
D03*
D45*
X6300Y19800D02*
D03*
Y14800D02*
D03*
Y9800D02*
D03*
D46*
X3600Y26700D02*
D03*
X61600D02*
D03*
Y3700D02*
D03*
X3600D02*
D03*
D47*
X27393Y13587D02*
D03*
D48*
X27100Y15200D02*
D03*
X27785Y12204D02*
D03*
X30796Y12325D02*
D03*
X37200Y3600D02*
D03*
X26000Y8000D02*
D03*
X20500Y8500D02*
D03*
X14500Y13000D02*
D03*
X49000Y22500D02*
D03*
Y12000D02*
D03*
X38500Y11500D02*
D03*
X48000Y17500D02*
D03*
X45000D02*
D03*
X35000D02*
D03*
X25300Y17700D02*
D03*
X62500Y17500D02*
D03*
Y22500D02*
D03*
X28000Y1500D02*
D03*
X23000D02*
D03*
X18000D02*
D03*
X13000D02*
D03*
X8000D02*
D03*
X2000Y12500D02*
D03*
Y17500D02*
D03*
X21600Y14900D02*
D03*
X31400Y3600D02*
D03*
X32500D02*
D03*
X25600Y12200D02*
D03*
X29600Y9400D02*
D03*
X28100D02*
D03*
D49*
X14300Y18950D02*
D03*
X56250Y2550D02*
D03*
X14300Y20850D02*
D03*
Y14750D02*
D03*
Y16650D02*
D03*
X56250Y4450D02*
D03*
D50*
X27993Y15557D02*
D03*
X26188Y10988D02*
D03*
X27688D02*
D03*
X30950Y11000D02*
D03*
X29450Y11000D02*
D03*
X29493Y15557D02*
D03*
Y17307D02*
D03*
X27993D02*
D03*
X29543Y19107D02*
D03*
X28043D02*
D03*
D51*
X12900Y8350D02*
D03*
Y11250D02*
D03*
D52*
X14400Y18950D02*
X14900Y18450D01*
X16650D02*
X16700Y18400D01*
X14300Y18950D02*
X14400D01*
X14900Y18450D02*
X16650D01*
D53*
X10300Y19000D02*
X11900Y17400D01*
X10300Y19000D02*
Y21400D01*
X8370Y23330D02*
Y25330D01*
Y23330D02*
X10300Y21400D01*
M02*
