G04*
G04 #@! TF.GenerationSoftware,Altium Limited,Altium Designer,25.5.2 (35)*
G04*
G04 Layer_Physical_Order=2*
G04 Layer_Color=16711680*
%FSLAX43Y43*%
%MOMM*%
G71*
G04*
G04 #@! TF.SameCoordinates,51C913BF-DA63-4E7B-8E48-E79B6209455E*
G04*
G04*
G04 #@! TF.FilePolarity,Positive*
G04*
G01*
G75*
%ADD10C,0.200*%
%ADD11C,0.250*%
%ADD16C,0.500*%
%ADD17R,0.800X0.800*%
%ADD29R,1.390X1.390*%
%ADD30C,1.390*%
%ADD35R,1.100X1.100*%
%ADD36C,1.100*%
%ADD37C,1.000*%
%ADD39R,1.500X1.500*%
%ADD40C,1.500*%
%ADD41C,2.500*%
G04:AMPARAMS|DCode=42|XSize=1.6mm|YSize=1.6mm|CornerRadius=0.4mm|HoleSize=0mm|Usage=FLASHONLY|Rotation=90.000|XOffset=0mm|YOffset=0mm|HoleType=Round|Shape=RoundedRectangle|*
%AMROUNDEDRECTD42*
21,1,1.600,0.800,0,0,90.0*
21,1,0.800,1.600,0,0,90.0*
1,1,0.800,0.400,0.400*
1,1,0.800,0.400,-0.400*
1,1,0.800,-0.400,-0.400*
1,1,0.800,-0.400,0.400*
%
%ADD42ROUNDEDRECTD42*%
%ADD43R,1.500X1.500*%
%ADD44C,1.200*%
%ADD45C,6.100*%
G04:AMPARAMS|DCode=46|XSize=4mm|YSize=1.8mm|CornerRadius=0.45mm|HoleSize=0mm|Usage=FLASHONLY|Rotation=0.000|XOffset=0mm|YOffset=0mm|HoleType=Round|Shape=RoundedRectangle|*
%AMROUNDEDRECTD46*
21,1,4.000,0.900,0,0,0.0*
21,1,3.100,1.800,0,0,0.0*
1,1,0.900,1.550,-0.450*
1,1,0.900,-1.550,-0.450*
1,1,0.900,-1.550,0.450*
1,1,0.900,1.550,0.450*
%
%ADD46ROUNDEDRECTD46*%
%ADD47C,1.600*%
G04:AMPARAMS|DCode=48|XSize=4mm|YSize=1.8mm|CornerRadius=0.45mm|HoleSize=0mm|Usage=FLASHONLY|Rotation=90.000|XOffset=0mm|YOffset=0mm|HoleType=Round|Shape=RoundedRectangle|*
%AMROUNDEDRECTD48*
21,1,4.000,0.900,0,0,90.0*
21,1,3.100,1.800,0,0,90.0*
1,1,0.900,0.450,1.550*
1,1,0.900,0.450,-1.550*
1,1,0.900,-0.450,-1.550*
1,1,0.900,-0.450,1.550*
%
%ADD48ROUNDEDRECTD48*%
%ADD49C,0.600*%
%ADD50R,0.800X0.800*%
%ADD51R,1.500X1.300*%
%ADD52R,1.800X1.300*%
%ADD53C,0.300*%
%ADD54C,0.800*%
%ADD55C,0.350*%
G36*
X60090Y29690D02*
X59844Y29565D01*
X59418Y29255D01*
X59045Y28882D01*
X58735Y28456D01*
X58495Y27986D01*
X58332Y27484D01*
X58250Y26964D01*
Y26850D01*
X61600D01*
Y26700D01*
X61750D01*
Y23350D01*
X61864D01*
X62384Y23432D01*
X62886Y23595D01*
X63356Y23835D01*
X63782Y24145D01*
X64155Y24518D01*
X64465Y24944D01*
X64496Y25004D01*
X64690Y24958D01*
Y5442D01*
X64496Y5396D01*
X64465Y5456D01*
X64155Y5882D01*
X63782Y6255D01*
X63356Y6565D01*
X62886Y6805D01*
X62384Y6968D01*
X61864Y7050D01*
X61750D01*
Y3700D01*
X61600D01*
Y3550D01*
X58250D01*
Y3436D01*
X58332Y2916D01*
X58495Y2414D01*
X58735Y1944D01*
X59045Y1518D01*
X59418Y1145D01*
X59844Y835D01*
X60090Y710D01*
X60042Y510D01*
X5158D01*
X5110Y710D01*
X5356Y835D01*
X5782Y1145D01*
X6155Y1518D01*
X6465Y1944D01*
X6705Y2414D01*
X6868Y2916D01*
X6950Y3436D01*
Y3550D01*
X3600D01*
Y3700D01*
X3450D01*
Y7050D01*
X3336D01*
X2816Y6968D01*
X2314Y6805D01*
X1844Y6565D01*
X1418Y6255D01*
X1045Y5882D01*
X735Y5456D01*
X704Y5396D01*
X510Y5442D01*
Y24958D01*
X704Y25004D01*
X735Y24944D01*
X1045Y24518D01*
X1418Y24145D01*
X1844Y23835D01*
X2306Y23599D01*
X2299Y23609D01*
X1776Y24207D01*
X1465Y24522D01*
X3450D01*
Y26700D01*
X3600D01*
Y26850D01*
X6950D01*
Y26964D01*
X6868Y27484D01*
X6705Y27986D01*
X6465Y28456D01*
X6333Y28638D01*
X6331Y28634D01*
X6288Y28541D01*
X6259Y28451D01*
X6246Y28364D01*
X6248Y28282D01*
X6264Y28203D01*
X6295Y28128D01*
X5028Y29395D01*
X5103Y29364D01*
X5182Y29348D01*
X5264Y29346D01*
X5351Y29359D01*
X5441Y29388D01*
X5534Y29431D01*
X5538Y29433D01*
X5356Y29565D01*
X5110Y29690D01*
X5158Y29890D01*
X60042D01*
X60090Y29690D01*
D02*
G37*
%LPC*%
G36*
X49160Y28860D02*
Y28020D01*
X50000D01*
X49937Y28254D01*
X49806Y28481D01*
X49621Y28666D01*
X49394Y28797D01*
X49160Y28860D01*
D02*
G37*
G36*
X48860D02*
X48626Y28797D01*
X48399Y28666D01*
X48214Y28481D01*
X48083Y28254D01*
X48020Y28020D01*
X48860D01*
Y28860D01*
D02*
G37*
G36*
X44080D02*
Y28020D01*
X44920D01*
X44857Y28254D01*
X44726Y28481D01*
X44541Y28666D01*
X44314Y28797D01*
X44080Y28860D01*
D02*
G37*
G36*
X43780D02*
X43546Y28797D01*
X43319Y28666D01*
X43134Y28481D01*
X43003Y28254D01*
X42940Y28020D01*
X43780D01*
Y28860D01*
D02*
G37*
G36*
X31380D02*
Y28020D01*
X32220D01*
X32157Y28254D01*
X32026Y28481D01*
X31841Y28666D01*
X31614Y28797D01*
X31380Y28860D01*
D02*
G37*
G36*
X31080D02*
X30846Y28797D01*
X30619Y28666D01*
X30434Y28481D01*
X30303Y28254D01*
X30240Y28020D01*
X31080D01*
Y28860D01*
D02*
G37*
G36*
X23760D02*
Y28020D01*
X24600D01*
X24537Y28254D01*
X24406Y28481D01*
X24221Y28666D01*
X23994Y28797D01*
X23760Y28860D01*
D02*
G37*
G36*
X23460D02*
X23226Y28797D01*
X22999Y28666D01*
X22814Y28481D01*
X22683Y28254D01*
X22620Y28020D01*
X23460D01*
Y28860D01*
D02*
G37*
G36*
X13600D02*
Y28020D01*
X14440D01*
X14377Y28254D01*
X14246Y28481D01*
X14061Y28666D01*
X13834Y28797D01*
X13600Y28860D01*
D02*
G37*
G36*
X13300D02*
X13066Y28797D01*
X12839Y28666D01*
X12654Y28481D01*
X12523Y28254D01*
X12460Y28020D01*
X13300D01*
Y28860D01*
D02*
G37*
G36*
X36454Y28965D02*
X36166D01*
X35887Y28890D01*
X35638Y28746D01*
X35434Y28542D01*
X35290Y28293D01*
X35215Y28014D01*
Y27726D01*
X35290Y27447D01*
X35170Y27255D01*
X35150Y27247D01*
X34925Y27472D01*
X34920Y27482D01*
X34911Y27505D01*
X34901Y27539D01*
X34891Y27584D01*
X34884Y27634D01*
X34873Y27781D01*
X34873Y27866D01*
X34865Y27904D01*
Y28014D01*
X34790Y28293D01*
X34646Y28542D01*
X34442Y28746D01*
X34193Y28890D01*
X33914Y28965D01*
X33626D01*
X33347Y28890D01*
X33098Y28746D01*
X32894Y28542D01*
X32750Y28293D01*
X32675Y28014D01*
Y27726D01*
X32750Y27447D01*
X32894Y27198D01*
X33098Y26994D01*
X33347Y26850D01*
X33626Y26775D01*
X33732D01*
X33766Y26767D01*
X33941Y26762D01*
X34001Y26757D01*
X34056Y26749D01*
X34101Y26739D01*
X34135Y26729D01*
X34158Y26720D01*
X34168Y26715D01*
X34451Y26432D01*
X34328Y26272D01*
X34193Y26350D01*
X33914Y26425D01*
X33626D01*
X33347Y26350D01*
X33098Y26206D01*
X32894Y26002D01*
X32750Y25753D01*
X32675Y25474D01*
Y25186D01*
X32750Y24907D01*
X32894Y24658D01*
X33098Y24454D01*
X33347Y24310D01*
X33626Y24235D01*
X33914D01*
X34193Y24310D01*
X34442Y24454D01*
X34646Y24658D01*
X34790Y24907D01*
X34865Y25186D01*
Y25474D01*
X34790Y25753D01*
X34646Y26002D01*
X34792Y26133D01*
X34838Y26102D01*
X35043Y26061D01*
X35237D01*
X35352Y25861D01*
X35290Y25753D01*
X35215Y25474D01*
Y25186D01*
X35290Y24907D01*
X35434Y24658D01*
X35509Y24583D01*
X35527Y24553D01*
X35648Y24426D01*
X35686Y24379D01*
X35719Y24335D01*
X35744Y24296D01*
X35761Y24265D01*
X35771Y24243D01*
X35775Y24232D01*
Y24165D01*
X35815Y23960D01*
X35847Y23913D01*
X35703Y23769D01*
X35665Y23795D01*
X35460Y23835D01*
X32622D01*
X31953Y24504D01*
X32106Y24658D01*
X32250Y24907D01*
X32325Y25186D01*
Y25474D01*
X32250Y25753D01*
X32106Y26002D01*
X31902Y26206D01*
X31653Y26350D01*
X31374Y26425D01*
X31086D01*
X30807Y26350D01*
X30558Y26206D01*
X30354Y26002D01*
X30210Y25753D01*
X30135Y25474D01*
Y25186D01*
X30210Y24907D01*
X30354Y24658D01*
X30558Y24454D01*
X30774Y24329D01*
X30799Y24202D01*
X30882Y24078D01*
X30801Y23924D01*
X30770Y23896D01*
X30700Y23910D01*
X19700D01*
X19505Y23871D01*
X19340Y23760D01*
X17021Y21442D01*
X17009Y21438D01*
X16983Y21430D01*
X16947Y21423D01*
X16905Y21417D01*
X16777Y21408D01*
X16703Y21408D01*
X16665Y21400D01*
X16568D01*
X16314Y21332D01*
X16086Y21200D01*
X15900Y21014D01*
X15768Y20786D01*
X15700Y20532D01*
Y20268D01*
X15768Y20014D01*
X15900Y19786D01*
X16086Y19600D01*
X16242Y19510D01*
X16243Y19507D01*
Y19293D01*
X16242Y19290D01*
X16191Y19261D01*
X15938Y19258D01*
X15934Y19257D01*
X15861D01*
X15858Y19258D01*
X15718Y19261D01*
X15610Y19271D01*
X15525Y19285D01*
X15465Y19301D01*
X15450Y19307D01*
Y20000D01*
X15350D01*
Y20700D01*
X14300D01*
X13250D01*
Y20000D01*
X13150D01*
Y17900D01*
X14309D01*
X14329Y17879D01*
X14497Y17751D01*
X14691Y17671D01*
X14900Y17643D01*
X15842D01*
X15847Y17642D01*
X15849Y17643D01*
X15851Y17642D01*
X15914Y17642D01*
X16048Y17638D01*
X16086Y17600D01*
X16314Y17468D01*
X16568Y17400D01*
X16832D01*
X17086Y17468D01*
X17314Y17600D01*
X17500Y17786D01*
X17632Y18014D01*
X17648Y18075D01*
X17855D01*
X17861Y18053D01*
X17980Y17847D01*
X18147Y17680D01*
X18353Y17561D01*
X18550Y17508D01*
Y18400D01*
X18850D01*
Y17508D01*
X19047Y17561D01*
X19253Y17680D01*
X19420Y17847D01*
X19450Y17899D01*
X19700Y17931D01*
X19754Y17876D01*
Y17176D01*
X19586Y17008D01*
X12676D01*
X11308Y18376D01*
Y21300D01*
X11308Y21300D01*
X11277Y21535D01*
X11186Y21754D01*
X11042Y21942D01*
X9352Y23631D01*
Y24842D01*
X9390Y24907D01*
X9465Y25186D01*
Y25474D01*
X9390Y25753D01*
X9246Y26002D01*
X9042Y26206D01*
X8793Y26350D01*
X8514Y26425D01*
X8226D01*
X7947Y26350D01*
X7698Y26206D01*
X7494Y26002D01*
X7350Y25753D01*
X7275Y25474D01*
Y25186D01*
X7350Y24907D01*
X7494Y24658D01*
X7537Y24615D01*
Y23255D01*
X7568Y23020D01*
X7658Y22801D01*
X7803Y22613D01*
X9492Y20924D01*
Y18000D01*
X9523Y17765D01*
X9614Y17546D01*
X9758Y17358D01*
X11658Y15458D01*
X11846Y15314D01*
X12065Y15223D01*
X12300Y15192D01*
X18850D01*
Y14000D01*
X18950D01*
Y13300D01*
X21050D01*
Y14000D01*
X21150D01*
Y15892D01*
X23600D01*
X23835Y15923D01*
X24054Y16014D01*
X24242Y16158D01*
X24942Y16858D01*
X24942Y16858D01*
X25086Y17046D01*
X25177Y17265D01*
X25208Y17500D01*
X25208Y17500D01*
Y18196D01*
X25262Y18250D01*
X25593D01*
Y17807D01*
X26293D01*
Y17657D01*
X26443D01*
Y16957D01*
X26624D01*
X26701Y16773D01*
X24671Y14743D01*
X24666Y14741D01*
X24649Y14735D01*
X24621Y14730D01*
X24582Y14726D01*
X24533Y14725D01*
X24473Y14727D01*
X24403Y14735D01*
X24314Y14750D01*
X24302Y14749D01*
X24261Y14760D01*
X23959D01*
X23666Y14682D01*
X23404Y14530D01*
X23190Y14316D01*
X23038Y14054D01*
X22960Y13761D01*
Y13459D01*
X23038Y13166D01*
X23190Y12904D01*
X23404Y12690D01*
X23666Y12538D01*
X23959Y12460D01*
X24261D01*
X24554Y12538D01*
X24816Y12690D01*
X25030Y12904D01*
X25182Y13166D01*
X25240Y13386D01*
X25250Y13410D01*
X25259Y13454D01*
X25260Y13459D01*
Y13461D01*
X25291Y13625D01*
X25310Y13704D01*
X25352Y13850D01*
X25369Y13896D01*
X25385Y13933D01*
X25397Y13955D01*
X26043Y14600D01*
X26243Y14518D01*
Y12830D01*
X26043Y12747D01*
X26030Y12760D01*
X25870Y12852D01*
X25692Y12900D01*
X25508D01*
X25330Y12852D01*
X25170Y12760D01*
X25040Y12630D01*
X24948Y12470D01*
X24900Y12292D01*
Y12173D01*
X24764Y12069D01*
X24708Y12053D01*
X24554Y12142D01*
X24261Y12220D01*
X23959D01*
X23666Y12142D01*
X23404Y11990D01*
X23323Y11909D01*
X23293Y11890D01*
X23248Y11848D01*
X23215Y11820D01*
X23182Y11796D01*
X23150Y11777D01*
X23119Y11762D01*
X23088Y11750D01*
X23057Y11741D01*
X23024Y11734D01*
X22990Y11730D01*
X22937Y11728D01*
X22929Y11726D01*
X22420D01*
X22250Y11703D01*
X22092Y11638D01*
X21956Y11534D01*
X21773Y11350D01*
X21100D01*
Y9909D01*
X21100Y9750D01*
X21200Y9591D01*
Y9200D01*
X21900D01*
X22600D01*
Y9591D01*
X22700Y9750D01*
X22700Y9909D01*
Y10414D01*
X22929D01*
X22937Y10412D01*
X22990Y10410D01*
X23024Y10406D01*
X23057Y10399D01*
X23088Y10390D01*
X23119Y10378D01*
X23150Y10363D01*
X23182Y10344D01*
X23215Y10320D01*
X23248Y10292D01*
X23293Y10250D01*
X23323Y10231D01*
X23404Y10150D01*
X23666Y9998D01*
X23959Y9920D01*
X24261D01*
X24554Y9998D01*
X24816Y10150D01*
X25030Y10364D01*
X25182Y10626D01*
X25188Y10648D01*
X25388Y10622D01*
Y10188D01*
X26404D01*
Y7661D01*
X25460Y6717D01*
X25260Y6800D01*
Y7140D01*
X22960D01*
Y4840D01*
X25260D01*
Y5455D01*
X25490D01*
X25695Y5495D01*
X25868Y5611D01*
X27317Y7060D01*
X27433Y7234D01*
X27474Y7439D01*
Y8753D01*
X27670Y8840D01*
X27830Y8748D01*
X28008Y8700D01*
X28059D01*
X28085Y8694D01*
X28440Y8340D01*
X28605Y8229D01*
X28800Y8190D01*
X30608D01*
X30684Y8005D01*
X30340Y7660D01*
X30229Y7495D01*
X30190Y7300D01*
Y4300D01*
X30229Y4105D01*
X30340Y3940D01*
X30694Y3585D01*
X30700Y3559D01*
Y3508D01*
X30748Y3330D01*
X30840Y3170D01*
X30970Y3040D01*
X31130Y2948D01*
X31308Y2900D01*
X31492D01*
X31670Y2948D01*
X31830Y3040D01*
X31950Y3160D01*
X32070Y3040D01*
X32230Y2948D01*
X32248Y2943D01*
X32306Y2720D01*
X32200Y2614D01*
X32068Y2386D01*
X32000Y2132D01*
Y1868D01*
X32068Y1614D01*
X32200Y1386D01*
X32386Y1200D01*
X32614Y1068D01*
X32868Y1000D01*
X33132D01*
X33386Y1068D01*
X33614Y1200D01*
X33800Y1386D01*
X33890Y1542D01*
X33893Y1543D01*
X34107D01*
X34110Y1542D01*
X34200Y1386D01*
X34386Y1200D01*
X34614Y1068D01*
X34868Y1000D01*
X35132D01*
X35386Y1068D01*
X35614Y1200D01*
X35800Y1386D01*
X35890Y1542D01*
X35893Y1543D01*
X36107D01*
X36110Y1542D01*
X36200Y1386D01*
X36386Y1200D01*
X36614Y1068D01*
X36868Y1000D01*
X37132D01*
X37386Y1068D01*
X37614Y1200D01*
X37800Y1386D01*
X37932Y1614D01*
X38000Y1868D01*
Y2132D01*
X37932Y2386D01*
X37800Y2614D01*
X37614Y2800D01*
X37386Y2932D01*
X37132Y3000D01*
X36868D01*
X36614Y2932D01*
X36386Y2800D01*
X36200Y2614D01*
X36110Y2458D01*
X36107Y2457D01*
X35893D01*
X35890Y2458D01*
X35800Y2614D01*
X35614Y2800D01*
X35386Y2932D01*
X35132Y3000D01*
X34868D01*
X34614Y2932D01*
X34386Y2800D01*
X34200Y2614D01*
X34110Y2458D01*
X34107Y2457D01*
X33893D01*
X33890Y2458D01*
X33800Y2614D01*
X33614Y2800D01*
X33386Y2932D01*
X33164Y2991D01*
X33108Y3088D01*
X33077Y3200D01*
X33152Y3330D01*
X33200Y3508D01*
Y3692D01*
X33152Y3870D01*
X33060Y4030D01*
X32930Y4160D01*
X32770Y4252D01*
X32592Y4300D01*
X32541D01*
X32515Y4306D01*
X32310Y4511D01*
Y6789D01*
X34011Y8490D01*
X38742D01*
X38818Y8305D01*
X38790Y8277D01*
X38632Y8003D01*
X38550Y7698D01*
Y7382D01*
X38632Y7077D01*
X38790Y6803D01*
X39013Y6580D01*
X39287Y6422D01*
X39467Y6374D01*
Y6166D01*
X39287Y6118D01*
X39013Y5960D01*
X38790Y5737D01*
X38632Y5463D01*
X38550Y5158D01*
Y4842D01*
X38632Y4537D01*
X38790Y4263D01*
X39013Y4040D01*
X39287Y3882D01*
X39592Y3800D01*
X39908D01*
X40213Y3882D01*
X40487Y4040D01*
X40522Y4075D01*
X40778Y4092D01*
X40857Y4092D01*
X40857Y4092D01*
X41888D01*
X42122Y4087D01*
X42223Y4079D01*
X42224Y4079D01*
X42263Y4040D01*
X42537Y3882D01*
X42842Y3800D01*
X43158D01*
X43463Y3882D01*
X43737Y4040D01*
X43772Y4075D01*
X44028Y4092D01*
X44107Y4092D01*
X44107Y4092D01*
X45138D01*
X45372Y4087D01*
X45473Y4079D01*
X45474Y4079D01*
X45513Y4040D01*
X45787Y3882D01*
X46092Y3800D01*
X46408D01*
X46713Y3882D01*
X46987Y4040D01*
X47022Y4075D01*
X47278Y4092D01*
X47357Y4092D01*
X47357Y4092D01*
X48388D01*
X48622Y4087D01*
X48723Y4079D01*
X48724Y4079D01*
X48763Y4040D01*
X49037Y3882D01*
X49342Y3800D01*
X49658D01*
X49963Y3882D01*
X50237Y4040D01*
X50272Y4075D01*
X50528Y4092D01*
X50607Y4092D01*
X50607Y4092D01*
X51638D01*
X51872Y4087D01*
X51973Y4079D01*
X51974Y4079D01*
X52013Y4040D01*
X52287Y3882D01*
X52592Y3800D01*
X52908D01*
X53213Y3882D01*
X53487Y4040D01*
X53522Y4075D01*
X53778Y4092D01*
X53857Y4092D01*
X53857Y4092D01*
X54495D01*
X54670Y4088D01*
X54812Y4075D01*
X54927Y4056D01*
X55013Y4033D01*
X55070Y4010D01*
X55096Y3993D01*
X55100Y3962D01*
Y3400D01*
X55200D01*
Y3045D01*
X55253Y3053D01*
X55343Y3074D01*
X55413Y3099D01*
X55463Y3128D01*
X55493Y3160D01*
X55503Y3197D01*
Y2700D01*
X57300D01*
Y3400D01*
X57400D01*
Y5061D01*
X57434Y5096D01*
X57561Y5182D01*
X57576Y5190D01*
X57614Y5168D01*
X57868Y5100D01*
X58132D01*
X58360Y5161D01*
X58429Y5111D01*
X58506Y5006D01*
X58495Y4986D01*
X58332Y4484D01*
X58250Y3964D01*
Y3850D01*
X61450D01*
Y7050D01*
X61336D01*
X60816Y6968D01*
X60314Y6805D01*
X59844Y6565D01*
X59418Y6255D01*
X59200Y6038D01*
X59000Y6120D01*
Y6232D01*
X58932Y6486D01*
X58800Y6714D01*
X58614Y6900D01*
X58471Y6983D01*
X58400Y7195D01*
X58505Y7300D01*
X58636Y7425D01*
X58760Y7530D01*
X58880Y7620D01*
X58998Y7697D01*
X59112Y7760D01*
X59223Y7810D01*
X59330Y7848D01*
X59434Y7874D01*
X59537Y7890D01*
X59576Y7892D01*
X59850D01*
X59853Y7893D01*
X61800D01*
X62022Y7922D01*
X62229Y8008D01*
X62406Y8144D01*
X62542Y8321D01*
X62628Y8528D01*
X62657Y8750D01*
Y9650D01*
X62628Y9872D01*
X62542Y10079D01*
X62406Y10256D01*
X62229Y10392D01*
X62022Y10478D01*
X61800Y10507D01*
X58700D01*
X58478Y10478D01*
X58271Y10392D01*
X58094Y10256D01*
X57958Y10079D01*
X57872Y9872D01*
X57865Y9821D01*
X57855Y9793D01*
X57837Y9656D01*
X57811Y9536D01*
X57776Y9418D01*
X57732Y9302D01*
X57679Y9187D01*
X57616Y9072D01*
X57542Y8958D01*
X57457Y8844D01*
X57362Y8731D01*
X57250Y8612D01*
X56419Y7781D01*
X55608Y6971D01*
X55464Y6783D01*
X55373Y6564D01*
X55342Y6329D01*
Y6102D01*
X55342Y6102D01*
X55340Y5922D01*
X55339Y5908D01*
X54503D01*
X54503Y5908D01*
X54503Y5908D01*
X54499D01*
X54499Y5908D01*
X54499Y5908D01*
X53862D01*
X53628Y5913D01*
X53527Y5921D01*
X53526Y5921D01*
X53487Y5960D01*
X53213Y6118D01*
X53033Y6166D01*
Y6374D01*
X53213Y6422D01*
X53487Y6580D01*
X53710Y6803D01*
X53868Y7077D01*
X53950Y7382D01*
Y7698D01*
X53868Y8003D01*
X53710Y8277D01*
X53487Y8500D01*
X53213Y8658D01*
X52908Y8740D01*
X52782D01*
X52744Y8748D01*
X52630Y8748D01*
X52433Y8759D01*
X52361Y8768D01*
X52298Y8779D01*
X52250Y8791D01*
X52217Y8802D01*
X52203Y8808D01*
X50850Y10160D01*
X50685Y10271D01*
X50490Y10310D01*
X33792D01*
X33716Y10495D01*
X34060Y10840D01*
X34171Y11005D01*
X34210Y11200D01*
Y12492D01*
X34410Y12608D01*
X34569Y12516D01*
X34861Y12437D01*
X35164D01*
X35456Y12516D01*
X35719Y12667D01*
X35933Y12881D01*
X36084Y13144D01*
X36163Y13436D01*
Y13739D01*
X36084Y14031D01*
X35933Y14294D01*
X35719Y14508D01*
X35456Y14659D01*
X35164Y14737D01*
X34861D01*
X34569Y14659D01*
X34410Y14567D01*
X34210Y14683D01*
Y20112D01*
X34410Y20228D01*
X34569Y20136D01*
X34861Y20057D01*
X35164D01*
X35456Y20136D01*
X35719Y20287D01*
X35933Y20501D01*
X36084Y20764D01*
X36163Y21056D01*
Y21359D01*
X36138Y21452D01*
X36163Y21524D01*
X36280Y21612D01*
X36370Y21556D01*
X36375Y21533D01*
X36383Y21475D01*
X36394Y21308D01*
X36395Y21212D01*
X36403Y21174D01*
Y21056D01*
X36481Y20764D01*
X36632Y20501D01*
X36846Y20287D01*
X37109Y20136D01*
X37401Y20057D01*
X37704D01*
X37996Y20136D01*
X38259Y20287D01*
X38473Y20501D01*
X38624Y20764D01*
X38703Y21056D01*
Y21359D01*
X38678Y21452D01*
X38703Y21524D01*
X38820Y21612D01*
X38910Y21556D01*
X38915Y21533D01*
X38923Y21475D01*
X38934Y21308D01*
X38935Y21212D01*
X38943Y21174D01*
Y21056D01*
X39021Y20764D01*
X39172Y20501D01*
X39386Y20287D01*
X39649Y20136D01*
X39941Y20057D01*
X40244D01*
X40536Y20136D01*
X40799Y20287D01*
X41013Y20501D01*
X41164Y20764D01*
X41243Y21056D01*
Y21359D01*
X41218Y21452D01*
X41243Y21524D01*
X41360Y21612D01*
X41450Y21556D01*
X41455Y21533D01*
X41463Y21475D01*
X41474Y21308D01*
X41475Y21212D01*
X41483Y21174D01*
Y21056D01*
X41561Y20764D01*
X41712Y20501D01*
X41926Y20287D01*
X42189Y20136D01*
X42481Y20057D01*
X42784D01*
X43076Y20136D01*
X43339Y20287D01*
X43553Y20501D01*
X43704Y20764D01*
X43783Y21056D01*
Y21359D01*
X43704Y21651D01*
X43553Y21914D01*
X43339Y22128D01*
X43076Y22279D01*
X42784Y22357D01*
X42666D01*
X42628Y22365D01*
X42532Y22366D01*
X42365Y22377D01*
X42307Y22385D01*
X42255Y22396D01*
X42215Y22407D01*
X42187Y22418D01*
X42172Y22425D01*
X40819Y23778D01*
X40645Y23895D01*
X40440Y23935D01*
X39027D01*
X38827Y24135D01*
X38910Y24335D01*
X38981D01*
X39234Y24403D01*
X39461Y24534D01*
X39646Y24719D01*
X39777Y24946D01*
X39840Y25180D01*
X38850D01*
Y25330D01*
X38700D01*
Y26320D01*
X38466Y26257D01*
X38329Y26178D01*
X38121Y26255D01*
X38106Y26271D01*
X38101Y26298D01*
X37985Y26472D01*
X37482Y26975D01*
X37335Y27073D01*
X37307Y27097D01*
X37249Y27307D01*
X37330Y27447D01*
X37405Y27726D01*
Y28014D01*
X37330Y28293D01*
X37186Y28542D01*
X36982Y28746D01*
X36733Y28890D01*
X36454Y28965D01*
D02*
G37*
G36*
X50000Y27720D02*
X49160D01*
Y26880D01*
X49394Y26943D01*
X49621Y27074D01*
X49806Y27259D01*
X49937Y27486D01*
X50000Y27720D01*
D02*
G37*
G36*
X48860D02*
X48020D01*
X48083Y27486D01*
X48214Y27259D01*
X48399Y27074D01*
X48626Y26943D01*
X48860Y26880D01*
Y27720D01*
D02*
G37*
G36*
X44920D02*
X44080D01*
Y26880D01*
X44314Y26943D01*
X44541Y27074D01*
X44726Y27259D01*
X44857Y27486D01*
X44920Y27720D01*
D02*
G37*
G36*
X43780D02*
X42940D01*
X43003Y27486D01*
X43134Y27259D01*
X43319Y27074D01*
X43546Y26943D01*
X43780Y26880D01*
Y27720D01*
D02*
G37*
G36*
X32220D02*
X31380D01*
Y26880D01*
X31614Y26943D01*
X31841Y27074D01*
X32026Y27259D01*
X32157Y27486D01*
X32220Y27720D01*
D02*
G37*
G36*
X31080D02*
X30240D01*
X30303Y27486D01*
X30434Y27259D01*
X30619Y27074D01*
X30846Y26943D01*
X31080Y26880D01*
Y27720D01*
D02*
G37*
G36*
X24600D02*
X23760D01*
Y26880D01*
X23994Y26943D01*
X24221Y27074D01*
X24406Y27259D01*
X24537Y27486D01*
X24600Y27720D01*
D02*
G37*
G36*
X23460D02*
X22620D01*
X22683Y27486D01*
X22814Y27259D01*
X22999Y27074D01*
X23226Y26943D01*
X23460Y26880D01*
Y27720D01*
D02*
G37*
G36*
X14440D02*
X13600D01*
Y26880D01*
X13834Y26943D01*
X14061Y27074D01*
X14246Y27259D01*
X14377Y27486D01*
X14440Y27720D01*
D02*
G37*
G36*
X13300D02*
X12460D01*
X12523Y27486D01*
X12654Y27259D01*
X12839Y27074D01*
X13066Y26943D01*
X13300Y26880D01*
Y27720D01*
D02*
G37*
G36*
X56774Y28965D02*
X56486D01*
X56207Y28890D01*
X55958Y28746D01*
X55754Y28542D01*
X55610Y28293D01*
X55535Y28014D01*
Y27726D01*
X55610Y27447D01*
X55754Y27198D01*
X55958Y26994D01*
X56207Y26850D01*
X56486Y26775D01*
X56774D01*
X57053Y26850D01*
X57302Y26994D01*
X57506Y27198D01*
X57650Y27447D01*
X57725Y27726D01*
Y28014D01*
X57650Y28293D01*
X57506Y28542D01*
X57302Y28746D01*
X57053Y28890D01*
X56774Y28965D01*
D02*
G37*
G36*
X54234D02*
X53946D01*
X53667Y28890D01*
X53418Y28746D01*
X53214Y28542D01*
X53070Y28293D01*
X52995Y28014D01*
Y27726D01*
X53070Y27447D01*
X53214Y27198D01*
X53418Y26994D01*
X53667Y26850D01*
X53946Y26775D01*
X54234D01*
X54513Y26850D01*
X54762Y26994D01*
X54966Y27198D01*
X55110Y27447D01*
X55185Y27726D01*
Y28014D01*
X55110Y28293D01*
X54966Y28542D01*
X54762Y28746D01*
X54513Y28890D01*
X54234Y28965D01*
D02*
G37*
G36*
X51694D02*
X51406D01*
X51127Y28890D01*
X50878Y28746D01*
X50674Y28542D01*
X50530Y28293D01*
X50455Y28014D01*
Y27726D01*
X50530Y27447D01*
X50674Y27198D01*
X50878Y26994D01*
X51127Y26850D01*
X51406Y26775D01*
X51694D01*
X51973Y26850D01*
X52222Y26994D01*
X52426Y27198D01*
X52570Y27447D01*
X52645Y27726D01*
Y28014D01*
X52570Y28293D01*
X52426Y28542D01*
X52222Y28746D01*
X51973Y28890D01*
X51694Y28965D01*
D02*
G37*
G36*
X41534D02*
X41246D01*
X40967Y28890D01*
X40718Y28746D01*
X40514Y28542D01*
X40370Y28293D01*
X40295Y28014D01*
Y27726D01*
X40370Y27447D01*
X40514Y27198D01*
X40718Y26994D01*
X40967Y26850D01*
X41246Y26775D01*
X41534D01*
X41813Y26850D01*
X42062Y26994D01*
X42266Y27198D01*
X42410Y27447D01*
X42485Y27726D01*
Y28014D01*
X42410Y28293D01*
X42266Y28542D01*
X42062Y28746D01*
X41813Y28890D01*
X41534Y28965D01*
D02*
G37*
G36*
X38994D02*
X38706D01*
X38427Y28890D01*
X38178Y28746D01*
X37974Y28542D01*
X37830Y28293D01*
X37755Y28014D01*
Y27726D01*
X37830Y27447D01*
X37974Y27198D01*
X38178Y26994D01*
X38427Y26850D01*
X38706Y26775D01*
X38994D01*
X39273Y26850D01*
X39522Y26994D01*
X39726Y27198D01*
X39870Y27447D01*
X39945Y27726D01*
Y28014D01*
X39870Y28293D01*
X39726Y28542D01*
X39522Y28746D01*
X39273Y28890D01*
X38994Y28965D01*
D02*
G37*
G36*
X28834D02*
X28546D01*
X28267Y28890D01*
X28018Y28746D01*
X27814Y28542D01*
X27670Y28293D01*
X27595Y28014D01*
Y27726D01*
X27670Y27447D01*
X27814Y27198D01*
X28018Y26994D01*
X28267Y26850D01*
X28546Y26775D01*
X28834D01*
X29113Y26850D01*
X29362Y26994D01*
X29566Y27198D01*
X29710Y27447D01*
X29785Y27726D01*
Y28014D01*
X29710Y28293D01*
X29566Y28542D01*
X29362Y28746D01*
X29113Y28890D01*
X28834Y28965D01*
D02*
G37*
G36*
X26294D02*
X26006D01*
X25727Y28890D01*
X25478Y28746D01*
X25274Y28542D01*
X25130Y28293D01*
X25055Y28014D01*
Y27726D01*
X25130Y27447D01*
X25274Y27198D01*
X25478Y26994D01*
X25727Y26850D01*
X26006Y26775D01*
X26294D01*
X26573Y26850D01*
X26822Y26994D01*
X27026Y27198D01*
X27170Y27447D01*
X27245Y27726D01*
Y28014D01*
X27170Y28293D01*
X27026Y28542D01*
X26822Y28746D01*
X26573Y28890D01*
X26294Y28965D01*
D02*
G37*
G36*
X21214D02*
X20926D01*
X20647Y28890D01*
X20398Y28746D01*
X20194Y28542D01*
X20050Y28293D01*
X19975Y28014D01*
Y27726D01*
X20050Y27447D01*
X20194Y27198D01*
X20398Y26994D01*
X20647Y26850D01*
X20926Y26775D01*
X21214D01*
X21493Y26850D01*
X21742Y26994D01*
X21946Y27198D01*
X22090Y27447D01*
X22165Y27726D01*
Y28014D01*
X22090Y28293D01*
X21946Y28542D01*
X21742Y28746D01*
X21493Y28890D01*
X21214Y28965D01*
D02*
G37*
G36*
X18674D02*
X18386D01*
X18107Y28890D01*
X17858Y28746D01*
X17654Y28542D01*
X17510Y28293D01*
X17435Y28014D01*
Y27726D01*
X17510Y27447D01*
X17654Y27198D01*
X17858Y26994D01*
X18107Y26850D01*
X18386Y26775D01*
X18674D01*
X18953Y26850D01*
X19202Y26994D01*
X19406Y27198D01*
X19550Y27447D01*
X19625Y27726D01*
Y28014D01*
X19550Y28293D01*
X19406Y28542D01*
X19202Y28746D01*
X18953Y28890D01*
X18674Y28965D01*
D02*
G37*
G36*
X16134D02*
X15846D01*
X15567Y28890D01*
X15318Y28746D01*
X15114Y28542D01*
X14970Y28293D01*
X14895Y28014D01*
Y27726D01*
X14970Y27447D01*
X15114Y27198D01*
X15318Y26994D01*
X15567Y26850D01*
X15846Y26775D01*
X16134D01*
X16413Y26850D01*
X16662Y26994D01*
X16866Y27198D01*
X17010Y27447D01*
X17085Y27726D01*
Y28014D01*
X17010Y28293D01*
X16866Y28542D01*
X16662Y28746D01*
X16413Y28890D01*
X16134Y28965D01*
D02*
G37*
G36*
X9062Y28970D02*
X9038Y28965D01*
X7275D01*
Y26775D01*
X9038D01*
X9062Y26770D01*
X9086Y26775D01*
X9090D01*
X9113Y26773D01*
X9118Y26775D01*
X9465D01*
Y26933D01*
X9467Y26933D01*
X9887Y26960D01*
X10066Y26962D01*
X10066Y26962D01*
X10292D01*
X10487Y26850D01*
X10766Y26775D01*
X11054D01*
X11333Y26850D01*
X11582Y26994D01*
X11786Y27198D01*
X11930Y27447D01*
X12005Y27726D01*
Y28014D01*
X11930Y28293D01*
X11786Y28542D01*
X11582Y28746D01*
X11333Y28890D01*
X11054Y28965D01*
X10766D01*
X10487Y28890D01*
X10292Y28778D01*
X10066D01*
X10066Y28778D01*
X9884Y28780D01*
X9583Y28794D01*
X9475Y28805D01*
X9465Y28807D01*
Y28965D01*
X9118D01*
X9113Y28967D01*
X9090Y28965D01*
X9086D01*
X9062Y28970D01*
D02*
G37*
G36*
X46614Y28965D02*
X46326D01*
X46047Y28890D01*
X45798Y28746D01*
X45594Y28542D01*
X45450Y28293D01*
X45375Y28014D01*
Y27726D01*
X45450Y27447D01*
X45594Y27198D01*
X45798Y26994D01*
X46047Y26850D01*
X46326Y26775D01*
X46432D01*
X46466Y26767D01*
X46641Y26762D01*
X46701Y26757D01*
X46756Y26749D01*
X46801Y26739D01*
X46835Y26729D01*
X46858Y26720D01*
X46868Y26715D01*
X47151Y26432D01*
X47028Y26272D01*
X46893Y26350D01*
X46614Y26425D01*
X46326D01*
X46047Y26350D01*
X45798Y26206D01*
X45594Y26002D01*
X45450Y25753D01*
X45375Y25474D01*
Y25186D01*
X45450Y24907D01*
X45594Y24658D01*
X45798Y24454D01*
X46047Y24310D01*
X46213Y24265D01*
Y24058D01*
X46114Y24032D01*
X45886Y23900D01*
X45700Y23714D01*
X45568Y23486D01*
X45500Y23232D01*
Y22968D01*
X45568Y22714D01*
X45700Y22486D01*
X45757Y22429D01*
X45634Y22269D01*
X45616Y22279D01*
X45324Y22357D01*
X45021D01*
X44729Y22279D01*
X44466Y22128D01*
X44252Y21914D01*
X44101Y21651D01*
X44023Y21359D01*
Y21056D01*
X44101Y20764D01*
X44252Y20501D01*
X44466Y20287D01*
X44729Y20136D01*
X45021Y20057D01*
X45324D01*
X45616Y20136D01*
X45879Y20287D01*
X46093Y20501D01*
X46244Y20764D01*
X46323Y21056D01*
Y21359D01*
X46244Y21651D01*
X46093Y21914D01*
X46008Y21999D01*
X46114Y22168D01*
X46368Y22100D01*
X46632D01*
X46719Y22124D01*
X46823Y21944D01*
X46792Y21914D01*
X46641Y21651D01*
X46563Y21359D01*
Y21056D01*
X46641Y20764D01*
X46792Y20501D01*
X47006Y20287D01*
X47269Y20136D01*
X47561Y20057D01*
X47864D01*
X48156Y20136D01*
X48419Y20287D01*
X48633Y20501D01*
X48784Y20764D01*
X48863Y21056D01*
Y21359D01*
X48784Y21651D01*
X48633Y21914D01*
X48709Y22121D01*
X48886Y22168D01*
X49114Y22300D01*
X49300Y22486D01*
X49432Y22714D01*
X49500Y22968D01*
Y23232D01*
X49444Y23439D01*
X49443Y23454D01*
X49438Y23462D01*
X49437Y23465D01*
X49436Y23473D01*
X49433Y23480D01*
X49432Y23486D01*
X49430Y23489D01*
X49421Y23514D01*
X49418Y23525D01*
X49433Y23555D01*
X49505Y23662D01*
X49545Y23867D01*
Y24232D01*
X49549Y24243D01*
X49559Y24265D01*
X49576Y24296D01*
X49601Y24335D01*
X49631Y24375D01*
X49728Y24487D01*
X49787Y24548D01*
X49808Y24580D01*
X49886Y24658D01*
X50030Y24907D01*
X50105Y25186D01*
Y25474D01*
X50030Y25753D01*
X49886Y26002D01*
X49682Y26206D01*
X49433Y26350D01*
X49154Y26425D01*
X48866D01*
X48587Y26350D01*
X48535Y26320D01*
X48335Y26436D01*
Y26540D01*
X48295Y26745D01*
X48179Y26919D01*
X47625Y27472D01*
X47620Y27482D01*
X47611Y27505D01*
X47601Y27539D01*
X47591Y27584D01*
X47584Y27634D01*
X47573Y27781D01*
X47573Y27866D01*
X47565Y27904D01*
Y28014D01*
X47490Y28293D01*
X47346Y28542D01*
X47142Y28746D01*
X46893Y28890D01*
X46614Y28965D01*
D02*
G37*
G36*
X56780Y26320D02*
Y25480D01*
X57620D01*
X57557Y25714D01*
X57426Y25941D01*
X57241Y26126D01*
X57014Y26257D01*
X56780Y26320D01*
D02*
G37*
G36*
X56480D02*
X56246Y26257D01*
X56019Y26126D01*
X55834Y25941D01*
X55703Y25714D01*
X55640Y25480D01*
X56480D01*
Y26320D01*
D02*
G37*
G36*
X39000D02*
Y25480D01*
X39840D01*
X39777Y25714D01*
X39646Y25941D01*
X39461Y26126D01*
X39234Y26257D01*
X39000Y26320D01*
D02*
G37*
G36*
X18680D02*
Y25480D01*
X19520D01*
X19457Y25714D01*
X19326Y25941D01*
X19141Y26126D01*
X18914Y26257D01*
X18680Y26320D01*
D02*
G37*
G36*
X18380D02*
X18146Y26257D01*
X17919Y26126D01*
X17734Y25941D01*
X17603Y25714D01*
X17540Y25480D01*
X18380D01*
Y26320D01*
D02*
G37*
G36*
X57620Y25180D02*
X56780D01*
Y24340D01*
X57014Y24403D01*
X57241Y24534D01*
X57426Y24719D01*
X57557Y24946D01*
X57620Y25180D01*
D02*
G37*
G36*
X56480D02*
X55640D01*
X55703Y24946D01*
X55834Y24719D01*
X56019Y24534D01*
X56246Y24403D01*
X56480Y24340D01*
Y25180D01*
D02*
G37*
G36*
X19520D02*
X18680D01*
Y24340D01*
X18914Y24403D01*
X19141Y24534D01*
X19326Y24719D01*
X19457Y24946D01*
X19520Y25180D01*
D02*
G37*
G36*
X18380D02*
X17540D01*
X17603Y24946D01*
X17734Y24719D01*
X17919Y24534D01*
X18146Y24403D01*
X18380Y24340D01*
Y25180D01*
D02*
G37*
G36*
X54234Y26425D02*
X53946D01*
X53667Y26350D01*
X53418Y26206D01*
X53214Y26002D01*
X53070Y25753D01*
X52995Y25474D01*
Y25186D01*
X53070Y24907D01*
X53214Y24658D01*
X53418Y24454D01*
X53667Y24310D01*
X53946Y24235D01*
X54234D01*
X54513Y24310D01*
X54762Y24454D01*
X54966Y24658D01*
X55110Y24907D01*
X55185Y25186D01*
Y25474D01*
X55110Y25753D01*
X54966Y26002D01*
X54762Y26206D01*
X54513Y26350D01*
X54234Y26425D01*
D02*
G37*
G36*
X51694D02*
X51406D01*
X51127Y26350D01*
X50878Y26206D01*
X50674Y26002D01*
X50530Y25753D01*
X50455Y25474D01*
Y25186D01*
X50530Y24907D01*
X50674Y24658D01*
X50878Y24454D01*
X51127Y24310D01*
X51406Y24235D01*
X51694D01*
X51973Y24310D01*
X52222Y24454D01*
X52426Y24658D01*
X52570Y24907D01*
X52645Y25186D01*
Y25474D01*
X52570Y25753D01*
X52426Y26002D01*
X52222Y26206D01*
X51973Y26350D01*
X51694Y26425D01*
D02*
G37*
G36*
X44074D02*
X43786D01*
X43507Y26350D01*
X43258Y26206D01*
X43054Y26002D01*
X42910Y25753D01*
X42835Y25474D01*
Y25186D01*
X42910Y24907D01*
X43054Y24658D01*
X43258Y24454D01*
X43507Y24310D01*
X43786Y24235D01*
X44074D01*
X44353Y24310D01*
X44602Y24454D01*
X44806Y24658D01*
X44950Y24907D01*
X45025Y25186D01*
Y25474D01*
X44950Y25753D01*
X44806Y26002D01*
X44602Y26206D01*
X44353Y26350D01*
X44074Y26425D01*
D02*
G37*
G36*
X41534D02*
X41246D01*
X40967Y26350D01*
X40718Y26206D01*
X40514Y26002D01*
X40370Y25753D01*
X40295Y25474D01*
Y25186D01*
X40370Y24907D01*
X40514Y24658D01*
X40718Y24454D01*
X40967Y24310D01*
X41246Y24235D01*
X41534D01*
X41813Y24310D01*
X42062Y24454D01*
X42266Y24658D01*
X42410Y24907D01*
X42485Y25186D01*
Y25474D01*
X42410Y25753D01*
X42266Y26002D01*
X42062Y26206D01*
X41813Y26350D01*
X41534Y26425D01*
D02*
G37*
G36*
X28834D02*
X28546D01*
X28267Y26350D01*
X28018Y26206D01*
X27814Y26002D01*
X27670Y25753D01*
X27595Y25474D01*
Y25186D01*
X27670Y24907D01*
X27814Y24658D01*
X28018Y24454D01*
X28267Y24310D01*
X28546Y24235D01*
X28834D01*
X29113Y24310D01*
X29362Y24454D01*
X29566Y24658D01*
X29710Y24907D01*
X29785Y25186D01*
Y25474D01*
X29710Y25753D01*
X29566Y26002D01*
X29362Y26206D01*
X29113Y26350D01*
X28834Y26425D01*
D02*
G37*
G36*
X26294D02*
X26006D01*
X25727Y26350D01*
X25478Y26206D01*
X25274Y26002D01*
X25130Y25753D01*
X25055Y25474D01*
Y25186D01*
X25130Y24907D01*
X25274Y24658D01*
X25478Y24454D01*
X25727Y24310D01*
X26006Y24235D01*
X26294D01*
X26573Y24310D01*
X26822Y24454D01*
X27026Y24658D01*
X27170Y24907D01*
X27245Y25186D01*
Y25474D01*
X27170Y25753D01*
X27026Y26002D01*
X26822Y26206D01*
X26573Y26350D01*
X26294Y26425D01*
D02*
G37*
G36*
X23754D02*
X23466D01*
X23187Y26350D01*
X22938Y26206D01*
X22734Y26002D01*
X22590Y25753D01*
X22515Y25474D01*
Y25186D01*
X22590Y24907D01*
X22734Y24658D01*
X22938Y24454D01*
X23187Y24310D01*
X23466Y24235D01*
X23754D01*
X24033Y24310D01*
X24282Y24454D01*
X24486Y24658D01*
X24630Y24907D01*
X24705Y25186D01*
Y25474D01*
X24630Y25753D01*
X24486Y26002D01*
X24282Y26206D01*
X24033Y26350D01*
X23754Y26425D01*
D02*
G37*
G36*
X21214D02*
X20926D01*
X20647Y26350D01*
X20398Y26206D01*
X20194Y26002D01*
X20050Y25753D01*
X19975Y25474D01*
Y25186D01*
X20050Y24907D01*
X20194Y24658D01*
X20398Y24454D01*
X20647Y24310D01*
X20926Y24235D01*
X21214D01*
X21493Y24310D01*
X21742Y24454D01*
X21946Y24658D01*
X22090Y24907D01*
X22165Y25186D01*
Y25474D01*
X22090Y25753D01*
X21946Y26002D01*
X21742Y26206D01*
X21493Y26350D01*
X21214Y26425D01*
D02*
G37*
G36*
X16134D02*
X15846D01*
X15567Y26350D01*
X15318Y26206D01*
X15114Y26002D01*
X14970Y25753D01*
X14895Y25474D01*
Y25186D01*
X14970Y24907D01*
X15114Y24658D01*
X15318Y24454D01*
X15567Y24310D01*
X15846Y24235D01*
X16134D01*
X16413Y24310D01*
X16662Y24454D01*
X16866Y24658D01*
X17010Y24907D01*
X17085Y25186D01*
Y25474D01*
X17010Y25753D01*
X16866Y26002D01*
X16662Y26206D01*
X16413Y26350D01*
X16134Y26425D01*
D02*
G37*
G36*
X13594D02*
X13306D01*
X13027Y26350D01*
X12778Y26206D01*
X12574Y26002D01*
X12430Y25753D01*
X12355Y25474D01*
Y25186D01*
X12430Y24907D01*
X12574Y24658D01*
X12778Y24454D01*
X13027Y24310D01*
X13306Y24235D01*
X13594D01*
X13873Y24310D01*
X14122Y24454D01*
X14326Y24658D01*
X14470Y24907D01*
X14545Y25186D01*
Y25474D01*
X14470Y25753D01*
X14326Y26002D01*
X14122Y26206D01*
X13873Y26350D01*
X13594Y26425D01*
D02*
G37*
G36*
X11054D02*
X10766D01*
X10487Y26350D01*
X10238Y26206D01*
X10034Y26002D01*
X9890Y25753D01*
X9815Y25474D01*
Y25186D01*
X9890Y24907D01*
X10034Y24658D01*
X10238Y24454D01*
X10487Y24310D01*
X10766Y24235D01*
X11054D01*
X11333Y24310D01*
X11582Y24454D01*
X11786Y24658D01*
X11930Y24907D01*
X12005Y25186D01*
Y25474D01*
X11930Y25753D01*
X11786Y26002D01*
X11582Y26206D01*
X11333Y26350D01*
X11054Y26425D01*
D02*
G37*
G36*
X6950Y26550D02*
X3750D01*
Y24522D01*
X5735D01*
X5424Y24207D01*
X4901Y23609D01*
X4894Y23599D01*
X5356Y23835D01*
X5782Y24145D01*
X6155Y24518D01*
X6465Y24944D01*
X6705Y25414D01*
X6868Y25916D01*
X6950Y26436D01*
Y26550D01*
D02*
G37*
G36*
X61450D02*
X58250D01*
Y26436D01*
X58332Y25916D01*
X58495Y25414D01*
X58735Y24944D01*
X59045Y24518D01*
X59418Y24145D01*
X59844Y23835D01*
X60314Y23595D01*
X60816Y23432D01*
X61336Y23350D01*
X61450D01*
Y26550D01*
D02*
G37*
G36*
X50807Y21557D02*
X50257D01*
Y21007D01*
X50807D01*
Y21557D01*
D02*
G37*
G36*
X49957D02*
X49407D01*
Y21007D01*
X49957D01*
Y21557D01*
D02*
G37*
G36*
X15350Y21800D02*
X14450D01*
Y21000D01*
X15350D01*
Y21800D01*
D02*
G37*
G36*
X14150D02*
X13250D01*
Y21000D01*
X14150D01*
Y21800D01*
D02*
G37*
G36*
X6453Y21350D02*
X6450D01*
Y19950D01*
X7850D01*
Y19953D01*
X7790Y20252D01*
X7674Y20534D01*
X7504Y20788D01*
X7288Y21004D01*
X7034Y21174D01*
X6752Y21290D01*
X6453Y21350D01*
D02*
G37*
G36*
X6150D02*
X6147D01*
X5848Y21290D01*
X5566Y21174D01*
X5312Y21004D01*
X5096Y20788D01*
X4926Y20534D01*
X4843Y20334D01*
X4887Y20341D01*
X4982Y20365D01*
X5067Y20393D01*
X5142Y20427D01*
X5207Y20465D01*
X5262Y20509D01*
X5306Y20558D01*
Y19950D01*
X6150D01*
Y21350D01*
D02*
G37*
G36*
Y19650D02*
X5306D01*
Y19042D01*
X5262Y19091D01*
X5207Y19135D01*
X5142Y19173D01*
X5067Y19207D01*
X4982Y19235D01*
X4887Y19259D01*
X4843Y19266D01*
X4926Y19066D01*
X5096Y18812D01*
X5312Y18596D01*
X5566Y18426D01*
X5848Y18310D01*
X6147Y18250D01*
X6150D01*
Y19650D01*
D02*
G37*
G36*
X50807Y20707D02*
X50107D01*
X49407D01*
Y20316D01*
X49307Y20157D01*
X49307Y20034D01*
X49166Y19893D01*
X48403D01*
X48198Y19852D01*
X48024Y19736D01*
X43093Y14805D01*
X43078Y14798D01*
X43050Y14787D01*
X43010Y14776D01*
X42958Y14765D01*
X42900Y14757D01*
X42733Y14746D01*
X42637Y14745D01*
X42599Y14737D01*
X42481D01*
X42189Y14659D01*
X41926Y14508D01*
X41712Y14294D01*
X41561Y14031D01*
X41483Y13739D01*
Y13436D01*
X41561Y13144D01*
X41712Y12881D01*
X41926Y12667D01*
X42189Y12516D01*
X42481Y12437D01*
X42784D01*
X43076Y12516D01*
X43339Y12667D01*
X43553Y12881D01*
X43704Y13144D01*
X43783Y13436D01*
Y13554D01*
X43790Y13592D01*
X43791Y13688D01*
X43802Y13855D01*
X43811Y13913D01*
X43815Y13936D01*
X43905Y13992D01*
X44022Y13904D01*
X44047Y13832D01*
X44023Y13739D01*
Y13436D01*
X44101Y13144D01*
X44252Y12881D01*
X44466Y12667D01*
X44729Y12516D01*
X45021Y12437D01*
X45324D01*
X45616Y12516D01*
X45879Y12667D01*
X46093Y12881D01*
X46244Y13144D01*
X46323Y13436D01*
Y13554D01*
X46330Y13592D01*
X46331Y13688D01*
X46342Y13855D01*
X46351Y13913D01*
X46361Y13965D01*
X46372Y14005D01*
X46383Y14033D01*
X46390Y14048D01*
X47807Y15465D01*
X48543D01*
X49277Y14731D01*
X49279Y14729D01*
X49289Y14715D01*
X49297Y14703D01*
X49301Y14695D01*
X49303Y14692D01*
X49303Y14680D01*
X49307Y14663D01*
Y13857D01*
X49407Y13857D01*
Y13307D01*
X50107D01*
X50807D01*
Y13699D01*
X50907Y13857D01*
X51081Y13932D01*
X51245Y13932D01*
X51256Y13928D01*
X51273Y13920D01*
X51295Y13906D01*
X51317Y13891D01*
X51390Y13829D01*
X51430Y13791D01*
X51461Y13770D01*
X51524Y13707D01*
X51741Y13582D01*
X51982Y13517D01*
X52233D01*
X52474Y13582D01*
X52691Y13707D01*
X52868Y13884D01*
X52993Y14101D01*
X53057Y14342D01*
Y14593D01*
X52993Y14834D01*
X52868Y15051D01*
X52691Y15228D01*
X52474Y15353D01*
X52233Y15417D01*
X51982D01*
X51741Y15353D01*
X51524Y15228D01*
X51461Y15165D01*
X51430Y15144D01*
X51386Y15102D01*
X51352Y15071D01*
X51321Y15047D01*
X51295Y15028D01*
X51273Y15015D01*
X51256Y15007D01*
X51245Y15003D01*
X50907Y15003D01*
Y15457D01*
X50101D01*
X50084Y15462D01*
X50073Y15462D01*
X50070Y15464D01*
X50062Y15468D01*
X50050Y15476D01*
X50036Y15486D01*
X50034Y15488D01*
X49143Y16378D01*
X48970Y16495D01*
X48765Y16535D01*
X47585D01*
X47380Y16495D01*
X47207Y16378D01*
X45633Y14805D01*
X45618Y14798D01*
X45590Y14787D01*
X45550Y14776D01*
X45498Y14765D01*
X45440Y14757D01*
X45273Y14746D01*
X45177Y14745D01*
X45139Y14737D01*
X45021D01*
X44928Y14713D01*
X44692Y14854D01*
X44685Y14883D01*
X48624Y18822D01*
X49307D01*
Y18557D01*
X50907D01*
Y18822D01*
X51157D01*
Y18397D01*
X53057D01*
Y20297D01*
X51157D01*
Y20067D01*
X50957Y19984D01*
X50907Y20034D01*
Y20157D01*
X50807Y20316D01*
Y20357D01*
Y20707D01*
D02*
G37*
G36*
X7850Y19650D02*
X6450D01*
Y18250D01*
X6453D01*
X6752Y18310D01*
X7034Y18426D01*
X7288Y18596D01*
X7504Y18812D01*
X7674Y19066D01*
X7790Y19348D01*
X7850Y19647D01*
Y19650D01*
D02*
G37*
G36*
X26143Y17507D02*
X25593D01*
Y16957D01*
X26143D01*
Y17507D01*
D02*
G37*
G36*
X61800Y16206D02*
X60400D01*
Y15150D01*
X62556D01*
Y15450D01*
X62531Y15646D01*
X62455Y15828D01*
X62335Y15985D01*
X62178Y16105D01*
X61996Y16181D01*
X61800Y16206D01*
D02*
G37*
G36*
X60100D02*
X58700D01*
X58504Y16181D01*
X58322Y16105D01*
X58165Y15985D01*
X58045Y15828D01*
X57969Y15646D01*
X57944Y15450D01*
Y15150D01*
X60100D01*
Y16206D01*
D02*
G37*
G36*
X62556Y14850D02*
X60400D01*
Y13794D01*
X61800D01*
X61996Y13819D01*
X62178Y13895D01*
X62335Y14015D01*
X62455Y14172D01*
X62531Y14354D01*
X62556Y14550D01*
Y14850D01*
D02*
G37*
G36*
X60100D02*
X57944D01*
Y14550D01*
X57969Y14354D01*
X58045Y14172D01*
X58165Y14015D01*
X58322Y13895D01*
X58504Y13819D01*
X58700Y13794D01*
X60100D01*
Y14850D01*
D02*
G37*
G36*
X47863Y14634D02*
Y13737D01*
X48759D01*
X48691Y13993D01*
X48553Y14232D01*
X48357Y14428D01*
X48118Y14566D01*
X47863Y14634D01*
D02*
G37*
G36*
X47563D02*
X47307Y14566D01*
X47068Y14428D01*
X46872Y14232D01*
X46734Y13993D01*
X46666Y13737D01*
X47563D01*
Y14634D01*
D02*
G37*
G36*
X48759Y13437D02*
X47863D01*
Y12541D01*
X48118Y12609D01*
X48357Y12747D01*
X48553Y12943D01*
X48691Y13182D01*
X48759Y13437D01*
D02*
G37*
G36*
X47563D02*
X46666D01*
X46734Y13182D01*
X46872Y12943D01*
X47068Y12747D01*
X47307Y12609D01*
X47563Y12541D01*
Y13437D01*
D02*
G37*
G36*
X6463Y16450D02*
X6137D01*
X5819Y16387D01*
X5518Y16262D01*
X5248Y16082D01*
X5018Y15852D01*
X4838Y15582D01*
X4713Y15281D01*
X4650Y14963D01*
Y14637D01*
X4713Y14319D01*
X4838Y14018D01*
X5018Y13748D01*
X5248Y13518D01*
X5518Y13338D01*
X5819Y13213D01*
X6137Y13150D01*
X6463D01*
X6726Y13202D01*
X6745Y13203D01*
X6827Y13224D01*
X6886Y13233D01*
X6937Y13237D01*
X6981Y13236D01*
X7017Y13231D01*
X7048Y13223D01*
X7075Y13213D01*
X7101Y13199D01*
X7126Y13181D01*
X7153Y13153D01*
X7167Y13144D01*
X7172Y13140D01*
X7185Y13132D01*
X7335Y13032D01*
X7550Y12989D01*
X8700D01*
Y12500D01*
X10443D01*
X10447Y12499D01*
X10469Y12498D01*
X10473Y12497D01*
X10479Y12495D01*
X10488Y12492D01*
X10500Y12487D01*
X10516Y12478D01*
X10535Y12466D01*
X10557Y12449D01*
X10564Y12443D01*
X11107Y11900D01*
X11024Y11700D01*
X10922D01*
X10899Y11705D01*
X10874Y11700D01*
X10872D01*
X10848Y11702D01*
X10842Y11700D01*
X8700D01*
Y10368D01*
X8500Y10261D01*
X8415Y10318D01*
X8251Y10351D01*
X8228Y10357D01*
X8215Y10358D01*
X8200Y10361D01*
X8171D01*
X8167Y10361D01*
X8129Y10369D01*
X8086Y10383D01*
X8036Y10407D01*
X7979Y10441D01*
X7916Y10488D01*
X7848Y10547D01*
X7775Y10620D01*
X7698Y10706D01*
X7612Y10813D01*
X7601Y10822D01*
X7582Y10852D01*
X7352Y11082D01*
X7082Y11262D01*
X6781Y11387D01*
X6463Y11450D01*
X6137D01*
X5819Y11387D01*
X5518Y11262D01*
X5248Y11082D01*
X5018Y10852D01*
X4838Y10582D01*
X4713Y10281D01*
X4650Y9963D01*
Y9637D01*
X4713Y9319D01*
X4838Y9018D01*
X5018Y8748D01*
X5248Y8518D01*
X5518Y8338D01*
X5819Y8213D01*
X6137Y8150D01*
X6463D01*
X6781Y8213D01*
X7082Y8338D01*
X7352Y8518D01*
X7582Y8748D01*
X7601Y8778D01*
X7612Y8787D01*
X7698Y8894D01*
X7775Y8980D01*
X7848Y9053D01*
X7916Y9112D01*
X7979Y9159D01*
X8022Y9185D01*
X8303Y8903D01*
X8485Y8782D01*
X8700Y8739D01*
X12863D01*
X12865Y8736D01*
X12877Y8718D01*
X12885Y8703D01*
X12890Y8691D01*
X12893Y8684D01*
Y8030D01*
X12921Y7821D01*
X13001Y7627D01*
X13129Y7459D01*
X13297Y7331D01*
X13491Y7251D01*
X13700Y7223D01*
X14500D01*
X14709Y7251D01*
X14903Y7331D01*
X15071Y7459D01*
X15199Y7627D01*
X15258Y7769D01*
X15316Y7807D01*
X15420Y7844D01*
X15476Y7853D01*
X15525Y7821D01*
X15654Y7722D01*
X15724Y7662D01*
X15742Y7651D01*
X15784Y7610D01*
X16046Y7458D01*
X16339Y7380D01*
X16641D01*
X16934Y7458D01*
X17196Y7610D01*
X17410Y7824D01*
X17562Y8086D01*
X17640Y8379D01*
Y8681D01*
X17562Y8974D01*
X17410Y9236D01*
X17196Y9450D01*
X16934Y9602D01*
X16641Y9680D01*
X16339D01*
X16046Y9602D01*
X15784Y9450D01*
X15645Y9312D01*
X15617Y9290D01*
X15557Y9224D01*
X15507Y9173D01*
X15461Y9132D01*
X15458Y9129D01*
X15303Y9141D01*
X15261Y9157D01*
X15235Y9174D01*
X15215Y9194D01*
X15199Y9233D01*
X15071Y9401D01*
X14903Y9529D01*
X14709Y9609D01*
X14500Y9637D01*
X14503Y9836D01*
X14563Y9852D01*
X14837Y10010D01*
X15060Y10233D01*
X15218Y10507D01*
X15233Y10564D01*
X15283Y10580D01*
X15445Y10580D01*
X15570Y10364D01*
X15784Y10150D01*
X16046Y9998D01*
X16339Y9920D01*
X16641D01*
X16934Y9998D01*
X17196Y10150D01*
X17410Y10364D01*
X17562Y10626D01*
X17640Y10919D01*
Y11221D01*
X17562Y11514D01*
X17410Y11776D01*
X17196Y11990D01*
X16934Y12142D01*
X16641Y12220D01*
X16528D01*
X16495Y12228D01*
X16313Y12233D01*
X16250Y12240D01*
X16193Y12249D01*
X16191Y12249D01*
X16156Y12302D01*
X16277Y12472D01*
X16279Y12473D01*
X16287Y12474D01*
X16339Y12460D01*
X16641D01*
X16934Y12538D01*
X17196Y12690D01*
X17410Y12904D01*
X17562Y13166D01*
X17640Y13459D01*
Y13761D01*
X17562Y14054D01*
X17410Y14316D01*
X17196Y14530D01*
X16934Y14682D01*
X16641Y14760D01*
X16339D01*
X16046Y14682D01*
X15784Y14530D01*
X15570Y14316D01*
X15418Y14054D01*
X15340Y13761D01*
Y13459D01*
X15418Y13166D01*
X15570Y12904D01*
X15626Y12848D01*
X15527Y12663D01*
X15440Y12681D01*
X11912D01*
X11357Y13236D01*
X11351Y13243D01*
X11334Y13265D01*
X11322Y13284D01*
X11313Y13300D01*
X11308Y13312D01*
X11305Y13321D01*
X11303Y13327D01*
X11302Y13331D01*
X11301Y13353D01*
X11300Y13357D01*
Y14600D01*
X8700D01*
Y14111D01*
X8044D01*
X7995Y14139D01*
X7942Y14199D01*
X7886Y14311D01*
X7897Y14355D01*
X7898Y14374D01*
X7950Y14637D01*
Y14963D01*
X7887Y15281D01*
X7762Y15582D01*
X7582Y15852D01*
X7352Y16082D01*
X7082Y16262D01*
X6781Y16387D01*
X6463Y16450D01*
D02*
G37*
G36*
X50807Y13007D02*
X50257D01*
Y12457D01*
X50807D01*
Y13007D01*
D02*
G37*
G36*
X49957D02*
X49407D01*
Y12457D01*
X49957D01*
Y13007D01*
D02*
G37*
G36*
X40244Y14737D02*
X39941D01*
X39649Y14659D01*
X39386Y14508D01*
X39172Y14294D01*
X39021Y14031D01*
X38943Y13739D01*
Y13436D01*
X39021Y13144D01*
X39172Y12881D01*
X39386Y12667D01*
X39649Y12516D01*
X39941Y12437D01*
X40244D01*
X40536Y12516D01*
X40799Y12667D01*
X41013Y12881D01*
X41164Y13144D01*
X41243Y13436D01*
Y13739D01*
X41164Y14031D01*
X41013Y14294D01*
X40799Y14508D01*
X40536Y14659D01*
X40244Y14737D01*
D02*
G37*
G36*
X37704D02*
X37401D01*
X37109Y14659D01*
X36846Y14508D01*
X36632Y14294D01*
X36481Y14031D01*
X36403Y13739D01*
Y13436D01*
X36481Y13144D01*
X36632Y12881D01*
X36846Y12667D01*
X37109Y12516D01*
X37401Y12437D01*
X37704D01*
X37996Y12516D01*
X38259Y12667D01*
X38473Y12881D01*
X38624Y13144D01*
X38703Y13436D01*
Y13739D01*
X38624Y14031D01*
X38473Y14294D01*
X38259Y14508D01*
X37996Y14659D01*
X37704Y14737D01*
D02*
G37*
G36*
X21050Y13000D02*
X20150D01*
Y12200D01*
X21050D01*
Y13000D01*
D02*
G37*
G36*
X19850D02*
X18950D01*
Y12200D01*
X19850D01*
Y13000D01*
D02*
G37*
G36*
X55900Y14607D02*
X55000D01*
X54778Y14578D01*
X54571Y14492D01*
X54394Y14356D01*
X54258Y14179D01*
X54172Y13972D01*
X54143Y13750D01*
Y10650D01*
X54172Y10428D01*
X54258Y10221D01*
X54394Y10044D01*
X54571Y9908D01*
X54778Y9822D01*
X55000Y9793D01*
X55900D01*
X56122Y9822D01*
X56329Y9908D01*
X56506Y10044D01*
X56642Y10221D01*
X56728Y10428D01*
X56757Y10650D01*
Y13750D01*
X56728Y13972D01*
X56642Y14179D01*
X56506Y14356D01*
X56329Y14492D01*
X56122Y14578D01*
X55900Y14607D01*
D02*
G37*
G36*
X24260Y9577D02*
Y8680D01*
X25157D01*
X25088Y8935D01*
X24950Y9175D01*
X24755Y9370D01*
X24515Y9508D01*
X24260Y9577D01*
D02*
G37*
G36*
X23960D02*
X23705Y9508D01*
X23465Y9370D01*
X23270Y9175D01*
X23132Y8935D01*
X23063Y8680D01*
X23960D01*
Y9577D01*
D02*
G37*
G36*
X22600Y8900D02*
X22050D01*
Y8350D01*
X22600D01*
Y8900D01*
D02*
G37*
G36*
X21750D02*
X21200D01*
Y8350D01*
X21750D01*
Y8900D01*
D02*
G37*
G36*
X19500Y8750D02*
X18950D01*
Y8200D01*
X19500D01*
Y8750D01*
D02*
G37*
G36*
X18650D02*
X18100D01*
Y8200D01*
X18650D01*
Y8750D01*
D02*
G37*
G36*
X25157Y8380D02*
X24260D01*
Y7483D01*
X24515Y7552D01*
X24755Y7690D01*
X24950Y7885D01*
X25088Y8125D01*
X25157Y8380D01*
D02*
G37*
G36*
X23960D02*
X23063D01*
X23132Y8125D01*
X23270Y7885D01*
X23465Y7690D01*
X23705Y7552D01*
X23960Y7483D01*
Y8380D01*
D02*
G37*
G36*
X19500Y7900D02*
X18800D01*
X18100D01*
Y7509D01*
X18000Y7350D01*
X18000Y7191D01*
Y6525D01*
X17677D01*
X17661Y6531D01*
X17634Y6543D01*
X17598Y6563D01*
X17553Y6593D01*
X17506Y6628D01*
X17380Y6738D01*
X17312Y6805D01*
X17280Y6827D01*
X17196Y6910D01*
X16934Y7062D01*
X16641Y7140D01*
X16339D01*
X16046Y7062D01*
X15784Y6910D01*
X15570Y6696D01*
X15418Y6434D01*
X15340Y6141D01*
Y5839D01*
X15418Y5546D01*
X15570Y5284D01*
X15784Y5070D01*
X16046Y4918D01*
X16339Y4840D01*
X16641D01*
X16934Y4918D01*
X17196Y5070D01*
X17280Y5153D01*
X17312Y5175D01*
X17380Y5242D01*
X17506Y5352D01*
X17553Y5387D01*
X17598Y5417D01*
X17634Y5437D01*
X17661Y5449D01*
X17677Y5455D01*
X18240D01*
X18445Y5495D01*
X18618Y5611D01*
X18732Y5725D01*
X18732Y5725D01*
X18748Y5737D01*
X18760Y5745D01*
X18765Y5749D01*
X18768Y5749D01*
X18770Y5750D01*
X19600D01*
Y7191D01*
X19600Y7350D01*
X19500Y7509D01*
Y7550D01*
Y7900D01*
D02*
G37*
G36*
X3864Y7050D02*
X3750D01*
Y3850D01*
X6950D01*
Y3964D01*
X6868Y4484D01*
X6705Y4986D01*
X6465Y5456D01*
X6155Y5882D01*
X5782Y6255D01*
X5356Y6565D01*
X4886Y6805D01*
X4384Y6968D01*
X3864Y7050D01*
D02*
G37*
G36*
X53150Y3566D02*
X52900D01*
Y2610D01*
X53372D01*
Y3192D01*
X53424Y3156D01*
X53490Y3124D01*
X53571Y3096D01*
X53665Y3072D01*
X53773Y3052D01*
X53831Y3045D01*
X53761Y3213D01*
X53649Y3359D01*
X53503Y3471D01*
X53333Y3542D01*
X53150Y3566D01*
D02*
G37*
G36*
X49900D02*
X49650D01*
Y2610D01*
X50122D01*
Y3192D01*
X50174Y3156D01*
X50240Y3124D01*
X50321Y3096D01*
X50415Y3072D01*
X50523Y3052D01*
X50581Y3045D01*
X50511Y3213D01*
X50399Y3359D01*
X50253Y3471D01*
X50083Y3542D01*
X49900Y3566D01*
D02*
G37*
G36*
X46650D02*
X46400D01*
Y2610D01*
X46872D01*
Y3192D01*
X46924Y3156D01*
X46990Y3124D01*
X47071Y3096D01*
X47165Y3072D01*
X47273Y3052D01*
X47331Y3045D01*
X47261Y3213D01*
X47149Y3359D01*
X47003Y3471D01*
X46833Y3542D01*
X46650Y3566D01*
D02*
G37*
G36*
X43400D02*
X43150D01*
Y2610D01*
X43622D01*
Y3192D01*
X43674Y3156D01*
X43740Y3124D01*
X43821Y3096D01*
X43915Y3072D01*
X44023Y3052D01*
X44081Y3045D01*
X44011Y3213D01*
X43899Y3359D01*
X43753Y3471D01*
X43583Y3542D01*
X43400Y3566D01*
D02*
G37*
G36*
X40150D02*
X39900D01*
Y2610D01*
X40372D01*
Y3192D01*
X40424Y3156D01*
X40490Y3124D01*
X40571Y3096D01*
X40665Y3072D01*
X40773Y3052D01*
X40831Y3045D01*
X40761Y3213D01*
X40649Y3359D01*
X40503Y3471D01*
X40333Y3542D01*
X40150Y3566D01*
D02*
G37*
G36*
X49350D02*
X49100D01*
X48917Y3542D01*
X48747Y3471D01*
X48601Y3359D01*
X48489Y3213D01*
X48420Y3047D01*
X48477Y3052D01*
X48585Y3072D01*
X48679Y3096D01*
X48760Y3124D01*
X48826Y3156D01*
X48878Y3192D01*
Y2610D01*
X49350D01*
Y3566D01*
D02*
G37*
G36*
X46100D02*
X45850D01*
X45667Y3542D01*
X45497Y3471D01*
X45351Y3359D01*
X45239Y3213D01*
X45170Y3047D01*
X45227Y3052D01*
X45335Y3072D01*
X45429Y3096D01*
X45510Y3124D01*
X45576Y3156D01*
X45628Y3192D01*
Y2610D01*
X46100D01*
Y3566D01*
D02*
G37*
G36*
X42850D02*
X42600D01*
X42417Y3542D01*
X42247Y3471D01*
X42101Y3359D01*
X41989Y3213D01*
X41920Y3047D01*
X41977Y3052D01*
X42085Y3072D01*
X42179Y3096D01*
X42260Y3124D01*
X42326Y3156D01*
X42378Y3192D01*
Y2610D01*
X42850D01*
Y3566D01*
D02*
G37*
G36*
X52600D02*
X52350D01*
X52167Y3542D01*
X51997Y3471D01*
X51851Y3359D01*
X51739Y3213D01*
X51670Y3047D01*
X51727Y3052D01*
X51835Y3072D01*
X51929Y3096D01*
X52010Y3124D01*
X52076Y3156D01*
X52128Y3192D01*
Y2610D01*
X52600D01*
Y3566D01*
D02*
G37*
G36*
X39600D02*
X39350D01*
X39167Y3542D01*
X38997Y3471D01*
X38851Y3359D01*
X38739Y3213D01*
X38668Y3043D01*
X38644Y2860D01*
Y2610D01*
X39600D01*
Y3566D01*
D02*
G37*
G36*
X56100Y2400D02*
X55503D01*
Y1903D01*
X55493Y1922D01*
X55463Y1940D01*
X55413Y1955D01*
X55343Y1968D01*
X55253Y1980D01*
X55200Y1983D01*
Y1600D01*
X56100D01*
Y2400D01*
D02*
G37*
G36*
X52600Y2310D02*
X52128D01*
Y1728D01*
X52056Y1781D01*
X51974Y1828D01*
X51881Y1869D01*
X51779Y1905D01*
X51667Y1936D01*
X51660Y1937D01*
X51668Y1877D01*
X51739Y1707D01*
X51851Y1561D01*
X51997Y1449D01*
X52167Y1378D01*
X52350Y1354D01*
X52600D01*
Y2310D01*
D02*
G37*
G36*
X49350Y2310D02*
X48878D01*
Y1728D01*
X48806Y1781D01*
X48724Y1828D01*
X48631Y1869D01*
X48529Y1905D01*
X48417Y1936D01*
X48410Y1937D01*
X48418Y1877D01*
X48489Y1707D01*
X48601Y1561D01*
X48747Y1449D01*
X48917Y1378D01*
X49100Y1354D01*
X49350D01*
Y2310D01*
D02*
G37*
G36*
X46100D02*
X45628D01*
Y1728D01*
X45556Y1781D01*
X45474Y1828D01*
X45381Y1869D01*
X45279Y1905D01*
X45167Y1936D01*
X45160Y1937D01*
X45168Y1877D01*
X45239Y1707D01*
X45351Y1561D01*
X45497Y1449D01*
X45667Y1378D01*
X45850Y1354D01*
X46100D01*
Y2310D01*
D02*
G37*
G36*
X42850D02*
X42378D01*
Y1728D01*
X42306Y1781D01*
X42224Y1828D01*
X42131Y1869D01*
X42029Y1905D01*
X41917Y1936D01*
X41910Y1937D01*
X41918Y1877D01*
X41989Y1707D01*
X42101Y1561D01*
X42247Y1449D01*
X42417Y1378D01*
X42600Y1354D01*
X42850D01*
Y2310D01*
D02*
G37*
G36*
X57300Y2400D02*
X56400D01*
Y1600D01*
X57300D01*
Y2400D01*
D02*
G37*
G36*
X53372Y2310D02*
X52900D01*
Y1354D01*
X53150D01*
X53333Y1378D01*
X53503Y1449D01*
X53649Y1561D01*
X53761Y1707D01*
X53832Y1877D01*
X53840Y1937D01*
X53833Y1936D01*
X53721Y1905D01*
X53619Y1869D01*
X53526Y1828D01*
X53444Y1781D01*
X53372Y1728D01*
Y2310D01*
D02*
G37*
G36*
X50122Y2310D02*
X49650D01*
Y1354D01*
X49900D01*
X50083Y1378D01*
X50253Y1449D01*
X50399Y1561D01*
X50511Y1707D01*
X50582Y1877D01*
X50590Y1937D01*
X50583Y1936D01*
X50471Y1905D01*
X50369Y1869D01*
X50276Y1828D01*
X50194Y1781D01*
X50122Y1728D01*
Y2310D01*
D02*
G37*
G36*
X46872D02*
X46400D01*
Y1354D01*
X46650D01*
X46833Y1378D01*
X47003Y1449D01*
X47149Y1561D01*
X47261Y1707D01*
X47332Y1877D01*
X47340Y1937D01*
X47333Y1936D01*
X47221Y1905D01*
X47119Y1869D01*
X47026Y1828D01*
X46944Y1781D01*
X46872Y1728D01*
Y2310D01*
D02*
G37*
G36*
X43622D02*
X43150D01*
Y1354D01*
X43400D01*
X43583Y1378D01*
X43753Y1449D01*
X43899Y1561D01*
X44011Y1707D01*
X44082Y1877D01*
X44090Y1937D01*
X44083Y1936D01*
X43971Y1905D01*
X43869Y1869D01*
X43776Y1828D01*
X43694Y1781D01*
X43622Y1728D01*
Y2310D01*
D02*
G37*
G36*
X40372Y2310D02*
X39900D01*
Y1354D01*
X40150D01*
X40333Y1378D01*
X40503Y1449D01*
X40649Y1561D01*
X40761Y1707D01*
X40832Y1877D01*
X40840Y1937D01*
X40833Y1936D01*
X40721Y1905D01*
X40619Y1869D01*
X40526Y1828D01*
X40444Y1781D01*
X40372Y1728D01*
Y2310D01*
D02*
G37*
G36*
X39600D02*
X38644D01*
Y2060D01*
X38668Y1877D01*
X38739Y1707D01*
X38851Y1561D01*
X38997Y1449D01*
X39167Y1378D01*
X39350Y1354D01*
X39600D01*
Y2310D01*
D02*
G37*
%LPD*%
G36*
X34466Y27765D02*
X34478Y27589D01*
X34490Y27511D01*
X34505Y27439D01*
X34524Y27374D01*
X34547Y27316D01*
X34573Y27264D01*
X34603Y27219D01*
X34637Y27180D01*
X34460Y27003D01*
X34421Y27037D01*
X34376Y27067D01*
X34324Y27093D01*
X34266Y27116D01*
X34201Y27135D01*
X34129Y27150D01*
X34051Y27162D01*
X33966Y27170D01*
X33777Y27175D01*
X34465Y27863D01*
X34466Y27765D01*
D02*
G37*
G36*
X31531Y24701D02*
X31507Y24681D01*
X31487Y24658D01*
X31469Y24632D01*
X31453Y24602D01*
X31441Y24570D01*
X31431Y24534D01*
X31424Y24494D01*
X31420Y24452D01*
X31419Y24406D01*
X31169D01*
X31167Y24448D01*
X31163Y24485D01*
X31155Y24520D01*
X31145Y24551D01*
X31131Y24579D01*
X31115Y24603D01*
X31096Y24624D01*
X31073Y24642D01*
X31048Y24656D01*
X31020Y24668D01*
X31557Y24717D01*
X31531Y24701D01*
D02*
G37*
G36*
X36728Y24764D02*
X36612Y24630D01*
X36565Y24567D01*
X36525Y24505D01*
X36493Y24446D01*
X36468Y24389D01*
X36449Y24333D01*
X36439Y24280D01*
X36435Y24229D01*
X36185D01*
X36181Y24280D01*
X36171Y24333D01*
X36152Y24389D01*
X36127Y24446D01*
X36095Y24505D01*
X36055Y24567D01*
X36008Y24630D01*
X35954Y24696D01*
X35824Y24834D01*
X36797D01*
X36728Y24764D01*
D02*
G37*
G36*
X41921Y22102D02*
X41969Y22071D01*
X42025Y22043D01*
X42088Y22019D01*
X42159Y22000D01*
X42237Y21983D01*
X42323Y21971D01*
X42517Y21958D01*
X42625Y21957D01*
X41883Y21215D01*
X41882Y21323D01*
X41869Y21517D01*
X41857Y21603D01*
X41840Y21681D01*
X41821Y21752D01*
X41797Y21815D01*
X41769Y21871D01*
X41738Y21919D01*
X41703Y21960D01*
X41880Y22137D01*
X41921Y22102D01*
D02*
G37*
G36*
X39381D02*
X39429Y22071D01*
X39485Y22043D01*
X39548Y22019D01*
X39619Y22000D01*
X39697Y21983D01*
X39783Y21971D01*
X39977Y21958D01*
X40085Y21957D01*
X39343Y21215D01*
X39342Y21323D01*
X39329Y21517D01*
X39317Y21603D01*
X39300Y21681D01*
X39281Y21752D01*
X39257Y21815D01*
X39229Y21871D01*
X39198Y21919D01*
X39163Y21960D01*
X39340Y22137D01*
X39381Y22102D01*
D02*
G37*
G36*
X36841D02*
X36889Y22071D01*
X36945Y22043D01*
X37008Y22019D01*
X37079Y22000D01*
X37157Y21983D01*
X37243Y21971D01*
X37437Y21958D01*
X37545Y21957D01*
X36803Y21215D01*
X36802Y21323D01*
X36789Y21517D01*
X36777Y21603D01*
X36761Y21681D01*
X36741Y21752D01*
X36717Y21815D01*
X36689Y21871D01*
X36658Y21919D01*
X36623Y21960D01*
X36800Y22137D01*
X36841Y22102D01*
D02*
G37*
G36*
X19444Y21002D02*
X19416Y20970D01*
X19390Y20931D01*
X19368Y20886D01*
X19350Y20836D01*
X19334Y20779D01*
X19321Y20716D01*
X19311Y20648D01*
X19301Y20493D01*
X19300Y20406D01*
X18706Y21000D01*
X18793Y21001D01*
X18948Y21011D01*
X19016Y21021D01*
X19079Y21034D01*
X19136Y21050D01*
X19186Y21068D01*
X19231Y21090D01*
X19270Y21115D01*
X19302Y21144D01*
X19444Y21002D01*
D02*
G37*
G36*
X17444D02*
X17416Y20970D01*
X17390Y20931D01*
X17368Y20886D01*
X17350Y20836D01*
X17334Y20779D01*
X17321Y20716D01*
X17311Y20648D01*
X17301Y20493D01*
X17300Y20406D01*
X16706Y21000D01*
X16793Y21001D01*
X16948Y21011D01*
X17016Y21021D01*
X17079Y21034D01*
X17136Y21050D01*
X17186Y21068D01*
X17231Y21090D01*
X17270Y21115D01*
X17302Y21144D01*
X17444Y21002D01*
D02*
G37*
G36*
X27385Y20457D02*
X27375Y20454D01*
X27360Y20445D01*
X27339Y20429D01*
X27279Y20378D01*
X27093Y20201D01*
X27033Y20140D01*
X26326Y20848D01*
X26643Y21200D01*
X27385Y20457D01*
D02*
G37*
G36*
X30369Y20598D02*
X30288Y20537D01*
X30152Y20416D01*
X30096Y20357D01*
X30049Y20297D01*
X30011Y20239D01*
X29981Y20180D01*
X29960Y20122D01*
X29947Y20065D01*
X29943Y20008D01*
X29693Y20047D01*
X29689Y20095D01*
X29678Y20148D01*
X29660Y20207D01*
X29635Y20270D01*
X29602Y20339D01*
X29516Y20492D01*
X29462Y20576D01*
X29332Y20759D01*
X30369Y20598D01*
D02*
G37*
G36*
X29940Y19504D02*
X29568D01*
X29591Y19507D01*
X29613Y19514D01*
X29631Y19527D01*
X29648Y19544D01*
X29661Y19567D01*
X29673Y19594D01*
X29681Y19627D01*
X29688Y19664D01*
X29691Y19707D01*
X29693Y19754D01*
X29943D01*
X29940Y19504D01*
D02*
G37*
G36*
X26694Y19517D02*
X26709Y19484D01*
X26735Y19454D01*
X26769Y19428D01*
X26785Y19421D01*
X26837Y19408D01*
X26919Y19395D01*
X27134Y19374D01*
X27347Y19367D01*
X27401Y19371D01*
X27466Y19381D01*
X27521Y19394D01*
X27566Y19410D01*
X27601Y19429D01*
X27626Y19452D01*
X27641Y19476D01*
X27646Y19504D01*
Y19358D01*
X27776Y19357D01*
Y18857D01*
X27646Y18857D01*
Y18711D01*
X27641Y18738D01*
X27626Y18763D01*
X27601Y18785D01*
X27566Y18805D01*
X27521Y18821D01*
X27466Y18834D01*
X27402Y18844D01*
X26837Y18807D01*
X26772Y18791D01*
X26725Y18773D01*
X26696Y18754D01*
Y18780D01*
X26694Y18779D01*
X26689Y18761D01*
Y19554D01*
X26694Y19517D01*
D02*
G37*
G36*
X15052Y19174D02*
X15077Y19106D01*
X15117Y19046D01*
X15174Y18994D01*
X15246Y18950D01*
X15334Y18914D01*
X15439Y18886D01*
X15559Y18866D01*
X15695Y18854D01*
X15847Y18850D01*
Y18050D01*
X15047Y18303D01*
X15044Y19250D01*
X15052Y19174D01*
D02*
G37*
G36*
X16238Y18017D02*
X16229Y18023D01*
X16214Y18029D01*
X16192Y18034D01*
X16163Y18038D01*
X16086Y18045D01*
X15921Y18050D01*
X15853Y18050D01*
X15943Y18850D01*
X16308Y18854D01*
X16238Y18017D01*
D02*
G37*
G36*
X27949Y16910D02*
X27914Y16909D01*
X27878Y16903D01*
X27843Y16895D01*
X27808Y16882D01*
X27772Y16866D01*
X27737Y16847D01*
X27702Y16824D01*
X27666Y16797D01*
X27631Y16767D01*
X27596Y16734D01*
X27419Y16910D01*
X27452Y16946D01*
X27482Y16981D01*
X27509Y17017D01*
X27532Y17052D01*
X27551Y17087D01*
X27567Y17123D01*
X27580Y17158D01*
X27589Y17193D01*
X27594Y17229D01*
X27596Y17264D01*
X27949Y16910D01*
D02*
G37*
G36*
X29719Y16908D02*
X29698Y16900D01*
X29679Y16888D01*
X29663Y16871D01*
X29649Y16848D01*
X29638Y16820D01*
X29629Y16788D01*
X29623Y16750D01*
X29619Y16708D01*
X29618Y16661D01*
X29368D01*
X29366Y16708D01*
X29363Y16750D01*
X29356Y16788D01*
X29348Y16820D01*
X29336Y16848D01*
X29323Y16871D01*
X29306Y16888D01*
X29288Y16900D01*
X29266Y16908D01*
X29243Y16910D01*
X29743D01*
X29719Y16908D01*
D02*
G37*
G36*
X29619Y16157D02*
X29623Y16114D01*
X29629Y16077D01*
X29638Y16044D01*
X29649Y16016D01*
X29663Y15993D01*
X29679Y15975D01*
X29698Y15962D01*
X29719Y15954D01*
X29743Y15951D01*
X29243D01*
X29266Y15954D01*
X29288Y15962D01*
X29306Y15975D01*
X29323Y15993D01*
X29336Y16016D01*
X29348Y16044D01*
X29356Y16077D01*
X29363Y16114D01*
X29366Y16157D01*
X29368Y16204D01*
X29618D01*
X29619Y16157D01*
D02*
G37*
G36*
X27596Y15161D02*
X27576Y15160D01*
X27577Y15157D01*
X27548Y15156D01*
X27521Y15153D01*
X27495Y15146D01*
X27471Y15138D01*
X27447Y15127D01*
X27425Y15113D01*
X27405Y15097D01*
X27385Y15079D01*
X27367Y15058D01*
X27350Y15035D01*
X27270Y15447D01*
X27296Y15430D01*
X27349Y15401D01*
X27375Y15390D01*
X27402Y15380D01*
X27428Y15372D01*
X27455Y15366D01*
X27473Y15362D01*
X27498Y15366D01*
X27524Y15373D01*
X27546Y15382D01*
X27565Y15393D01*
X27579Y15406D01*
X27590Y15421D01*
X27596Y15438D01*
X27599Y15457D01*
X27596Y15161D01*
D02*
G37*
G36*
X21064Y16486D02*
X20946Y16341D01*
X20841Y16193D01*
X20751Y16041D01*
X20674Y15885D01*
X20611Y15725D01*
X20563Y15562D01*
X20528Y15395D01*
X20507Y15224D01*
X20500Y15050D01*
X20000Y16138D01*
X19646Y16492D01*
X21196Y16627D01*
X21064Y16486D01*
D02*
G37*
G36*
X29719Y15158D02*
X29698Y15151D01*
X29679Y15138D01*
X29663Y15121D01*
X29649Y15098D01*
X29638Y15071D01*
X29629Y15038D01*
X29623Y15001D01*
X29619Y14958D01*
X29618Y14911D01*
X29368D01*
X29366Y14958D01*
X29363Y15001D01*
X29356Y15038D01*
X29348Y15071D01*
X29336Y15098D01*
X29323Y15121D01*
X29306Y15138D01*
X29288Y15151D01*
X29266Y15158D01*
X29243Y15161D01*
X29743D01*
X29719Y15158D01*
D02*
G37*
G36*
X25108Y14246D02*
X25077Y14210D01*
X25047Y14165D01*
X25018Y14111D01*
X24991Y14049D01*
X24964Y13977D01*
X24915Y13808D01*
X24892Y13709D01*
X24850Y13487D01*
X24248Y14347D01*
X24347Y14331D01*
X24440Y14321D01*
X24527Y14317D01*
X24608Y14318D01*
X24683Y14326D01*
X24751Y14340D01*
X24813Y14359D01*
X24869Y14385D01*
X24919Y14417D01*
X24963Y14454D01*
X25108Y14246D01*
D02*
G37*
G36*
X29609Y14427D02*
X29699Y14348D01*
X29717Y14336D01*
X29732Y14327D01*
X29745Y14321D01*
X29757Y14318D01*
X29766Y14319D01*
X29451Y14162D01*
X29457Y14169D01*
X29461Y14177D01*
X29462Y14186D01*
X29461Y14196D01*
X29458Y14207D01*
X29452Y14219D01*
X29444Y14232D01*
X29433Y14246D01*
X29420Y14261D01*
X29404Y14277D01*
X29581Y14454D01*
X29609Y14427D01*
D02*
G37*
G36*
X27165Y12838D02*
X27144Y12831D01*
X27125Y12818D01*
X27109Y12801D01*
X27095Y12778D01*
X27084Y12751D01*
X27075Y12718D01*
X27069Y12681D01*
X27065Y12638D01*
X27064Y12591D01*
X26814D01*
X26813Y12638D01*
X26809Y12681D01*
X26803Y12718D01*
X26794Y12751D01*
X26783Y12778D01*
X26769Y12801D01*
X26753Y12818D01*
X26734Y12831D01*
X26713Y12838D01*
X26689Y12841D01*
X27189D01*
X27165Y12838D01*
D02*
G37*
G36*
X28021Y12393D02*
X28044Y12374D01*
X28067Y12358D01*
X28091Y12343D01*
X28115Y12331D01*
X28140Y12321D01*
X28166Y12314D01*
X28193Y12308D01*
X28220Y12305D01*
X28248Y12304D01*
Y12104D01*
X28220Y12103D01*
X28193Y12099D01*
X28166Y12094D01*
X28140Y12086D01*
X28115Y12076D01*
X28091Y12064D01*
X28067Y12050D01*
X28044Y12033D01*
X28021Y12015D01*
X27999Y11994D01*
Y12414D01*
X28021Y12393D01*
D02*
G37*
G36*
X25901Y12167D02*
X25903Y12138D01*
X25908Y12109D01*
X25915Y12083D01*
X25924Y12057D01*
X25935Y12032D01*
X25947Y12008D01*
X25962Y11985D01*
X25979Y11964D01*
X25998Y11943D01*
X25857Y11802D01*
X25836Y11821D01*
X25815Y11838D01*
X25792Y11853D01*
X25768Y11865D01*
X25743Y11876D01*
X25718Y11885D01*
X25691Y11892D01*
X25662Y11897D01*
X25633Y11899D01*
X25603Y11900D01*
X25900Y12197D01*
X25901Y12167D01*
D02*
G37*
G36*
X26288Y11546D02*
X26292Y11512D01*
X26296Y11482D01*
X26303Y11456D01*
X26312Y11434D01*
X26323Y11416D01*
X26337Y11402D01*
X26351Y11392D01*
X26368Y11386D01*
X26388Y11384D01*
X25987D01*
X26007Y11386D01*
X26024Y11392D01*
X26038Y11402D01*
X26052Y11416D01*
X26062Y11434D01*
X26072Y11456D01*
X26079Y11482D01*
X26083Y11512D01*
X26087Y11546D01*
X26087Y11584D01*
X26288D01*
X26288Y11546D01*
D02*
G37*
G36*
X30563Y11511D02*
X30591Y11487D01*
X30619Y11466D01*
X30648Y11447D01*
X30676Y11432D01*
X30704Y11418D01*
X30732Y11408D01*
X30761Y11401D01*
X30789Y11396D01*
X30817Y11394D01*
X30556Y11096D01*
X30554Y11124D01*
X30549Y11152D01*
X30542Y11180D01*
X30532Y11209D01*
X30518Y11237D01*
X30503Y11265D01*
X30484Y11294D01*
X30463Y11322D01*
X30439Y11350D01*
X30412Y11378D01*
X30534Y11538D01*
X30563Y11511D01*
D02*
G37*
G36*
X23574Y10545D02*
X23520Y10597D01*
X23463Y10644D01*
X23405Y10685D01*
X23346Y10721D01*
X23284Y10751D01*
X23221Y10776D01*
X23157Y10795D01*
X23090Y10809D01*
X23022Y10817D01*
X22953Y10820D01*
Y11320D01*
X23022Y11323D01*
X23090Y11331D01*
X23157Y11345D01*
X23221Y11364D01*
X23284Y11389D01*
X23346Y11419D01*
X23405Y11455D01*
X23463Y11496D01*
X23520Y11543D01*
X23574Y11595D01*
Y10545D01*
D02*
G37*
G36*
X29781Y10601D02*
X29764Y10595D01*
X29749Y10585D01*
X29736Y10571D01*
X29725Y10553D01*
X29716Y10531D01*
X29709Y10505D01*
X29704Y10475D01*
X29701Y10441D01*
X29700Y10403D01*
X29500D01*
X29499Y10441D01*
X29496Y10475D01*
X29491Y10505D01*
X29484Y10531D01*
X29475Y10553D01*
X29464Y10571D01*
X29451Y10585D01*
X29436Y10595D01*
X29419Y10601D01*
X29400Y10603D01*
X29800D01*
X29781Y10601D01*
D02*
G37*
G36*
X28084Y10591D02*
X28087Y10391D01*
X27888D01*
X27886Y10429D01*
X27883Y10463D01*
X27878Y10493D01*
X27872Y10519D01*
X27862Y10541D01*
X27851Y10560D01*
X27838Y10574D01*
X27823Y10585D01*
X27806Y10591D01*
X27788Y10594D01*
X28084Y10591D01*
D02*
G37*
G36*
X29701Y9835D02*
X29704Y9808D01*
X29710Y9781D01*
X29718Y9755D01*
X29727Y9730D01*
X29740Y9706D01*
X29754Y9682D01*
X29770Y9659D01*
X29789Y9636D01*
X29810Y9614D01*
X29390D01*
X29411Y9636D01*
X29430Y9659D01*
X29446Y9682D01*
X29460Y9706D01*
X29472Y9730D01*
X29482Y9755D01*
X29490Y9781D01*
X29496Y9808D01*
X29499Y9835D01*
X29500Y9863D01*
X29700D01*
X29701Y9835D01*
D02*
G37*
G36*
X28089Y9851D02*
X28093Y9824D01*
X28099Y9798D01*
X28108Y9775D01*
X28119Y9754D01*
X28133Y9735D01*
X28150Y9718D01*
X28169Y9702D01*
X28190Y9689D01*
X28214Y9677D01*
X27825Y9520D01*
X27837Y9549D01*
X27857Y9611D01*
X27865Y9643D01*
X27878Y9710D01*
X27882Y9746D01*
X27887Y9820D01*
X27888Y9858D01*
X28087Y9880D01*
X28089Y9851D01*
D02*
G37*
G36*
X29836Y9589D02*
X29859Y9570D01*
X29882Y9554D01*
X29906Y9540D01*
X29930Y9528D01*
X29955Y9518D01*
X29981Y9510D01*
X30008Y9504D01*
X30035Y9501D01*
X30063Y9500D01*
Y9300D01*
X30035Y9299D01*
X30008Y9296D01*
X29981Y9290D01*
X29955Y9282D01*
X29930Y9273D01*
X29906Y9260D01*
X29882Y9246D01*
X29859Y9230D01*
X29836Y9211D01*
X29814Y9190D01*
Y9610D01*
X29836Y9589D01*
D02*
G37*
G36*
X28401Y9367D02*
X28403Y9338D01*
X28408Y9309D01*
X28415Y9283D01*
X28424Y9257D01*
X28435Y9232D01*
X28447Y9208D01*
X28462Y9185D01*
X28479Y9164D01*
X28498Y9143D01*
X28357Y9002D01*
X28336Y9021D01*
X28315Y9038D01*
X28292Y9053D01*
X28268Y9065D01*
X28243Y9076D01*
X28218Y9085D01*
X28191Y9092D01*
X28162Y9097D01*
X28133Y9099D01*
X28103Y9100D01*
X28400Y9397D01*
X28401Y9367D01*
D02*
G37*
G36*
X59636Y8304D02*
X59495Y8296D01*
X59353Y8275D01*
X59212Y8239D01*
X59070Y8189D01*
X58929Y8125D01*
X58788Y8047D01*
X58646Y7955D01*
X58505Y7848D01*
X58363Y7728D01*
X58222Y7594D01*
X57544Y8330D01*
X57666Y8459D01*
X57777Y8591D01*
X57877Y8725D01*
X57966Y8862D01*
X58043Y9002D01*
X58109Y9144D01*
X58163Y9289D01*
X58207Y9436D01*
X58239Y9585D01*
X58260Y9738D01*
X59636Y8304D01*
D02*
G37*
G36*
X51960Y8478D02*
X52010Y8448D01*
X52069Y8421D01*
X52137Y8399D01*
X52214Y8380D01*
X52301Y8364D01*
X52397Y8353D01*
X52618Y8341D01*
X52742Y8340D01*
X51950Y7548D01*
X51949Y7672D01*
X51926Y7989D01*
X51910Y8076D01*
X51891Y8153D01*
X51869Y8221D01*
X51842Y8280D01*
X51812Y8330D01*
X51779Y8370D01*
X51920Y8511D01*
X51960Y8478D01*
D02*
G37*
G36*
X48710D02*
X48760Y8448D01*
X48819Y8421D01*
X48887Y8399D01*
X48964Y8380D01*
X49051Y8364D01*
X49147Y8353D01*
X49368Y8341D01*
X49492Y8340D01*
X48700Y7548D01*
X48699Y7672D01*
X48676Y7989D01*
X48660Y8076D01*
X48641Y8153D01*
X48619Y8221D01*
X48592Y8280D01*
X48562Y8330D01*
X48529Y8370D01*
X48670Y8511D01*
X48710Y8478D01*
D02*
G37*
G36*
X24857Y6216D02*
X24865Y6195D01*
X24878Y6176D01*
X24896Y6160D01*
X24919Y6146D01*
X24946Y6135D01*
X24979Y6126D01*
X25017Y6120D01*
X25059Y6116D01*
X25107Y6115D01*
Y5865D01*
X25059Y5864D01*
X25017Y5860D01*
X24979Y5854D01*
X24946Y5845D01*
X24919Y5834D01*
X24896Y5820D01*
X24878Y5804D01*
X24865Y5785D01*
X24857Y5764D01*
X24854Y5740D01*
Y6240D01*
X24857Y6216D01*
D02*
G37*
G36*
X56752Y5907D02*
X56790Y5457D01*
X56812Y5347D01*
X56839Y5257D01*
X56871Y5187D01*
X56908Y5137D01*
X56950Y5107D01*
X56997Y5097D01*
X55503D01*
X55550Y5107D01*
X55592Y5137D01*
X55629Y5187D01*
X55661Y5257D01*
X55688Y5347D01*
X55710Y5457D01*
X55728Y5587D01*
X55748Y5907D01*
X55750Y6097D01*
X56750D01*
X56752Y5907D01*
D02*
G37*
G36*
X53337Y5549D02*
X53361Y5538D01*
X53394Y5529D01*
X53435Y5522D01*
X53484Y5515D01*
X53607Y5505D01*
X53854Y5500D01*
Y4500D01*
X53764Y4499D01*
X53435Y4478D01*
X53394Y4471D01*
X53361Y4462D01*
X53337Y4451D01*
X53321Y4440D01*
Y5560D01*
X53337Y5549D01*
D02*
G37*
G36*
X52179Y4440D02*
X52163Y4451D01*
X52139Y4462D01*
X52106Y4471D01*
X52065Y4478D01*
X52016Y4485D01*
X51893Y4495D01*
X51646Y4500D01*
Y5500D01*
X51736Y5501D01*
X52065Y5522D01*
X52106Y5529D01*
X52139Y5538D01*
X52163Y5549D01*
X52179Y5560D01*
Y4440D01*
D02*
G37*
G36*
X50087Y5549D02*
X50111Y5538D01*
X50144Y5529D01*
X50185Y5522D01*
X50234Y5515D01*
X50357Y5505D01*
X50604Y5500D01*
Y4500D01*
X50514Y4499D01*
X50185Y4478D01*
X50144Y4471D01*
X50111Y4462D01*
X50087Y4451D01*
X50071Y4440D01*
Y5560D01*
X50087Y5549D01*
D02*
G37*
G36*
X48929Y4440D02*
X48913Y4451D01*
X48889Y4462D01*
X48856Y4471D01*
X48815Y4478D01*
X48766Y4485D01*
X48643Y4495D01*
X48396Y4500D01*
Y5500D01*
X48486Y5501D01*
X48815Y5522D01*
X48856Y5529D01*
X48889Y5538D01*
X48913Y5549D01*
X48929Y5560D01*
Y4440D01*
D02*
G37*
G36*
X46837Y5549D02*
X46861Y5538D01*
X46894Y5529D01*
X46935Y5522D01*
X46984Y5515D01*
X47107Y5505D01*
X47354Y5500D01*
Y4500D01*
X47264Y4499D01*
X46935Y4478D01*
X46894Y4471D01*
X46861Y4462D01*
X46837Y4451D01*
X46821Y4440D01*
Y5560D01*
X46837Y5549D01*
D02*
G37*
G36*
X45679Y4440D02*
X45663Y4451D01*
X45639Y4462D01*
X45606Y4471D01*
X45565Y4478D01*
X45516Y4485D01*
X45393Y4495D01*
X45146Y4500D01*
Y5500D01*
X45236Y5501D01*
X45565Y5522D01*
X45606Y5529D01*
X45639Y5538D01*
X45663Y5549D01*
X45679Y5560D01*
Y4440D01*
D02*
G37*
G36*
X43587Y5549D02*
X43611Y5538D01*
X43644Y5529D01*
X43685Y5522D01*
X43734Y5515D01*
X43857Y5505D01*
X44104Y5500D01*
Y4500D01*
X44014Y4499D01*
X43685Y4478D01*
X43644Y4471D01*
X43611Y4462D01*
X43587Y4451D01*
X43571Y4440D01*
Y5560D01*
X43587Y5549D01*
D02*
G37*
G36*
X42429Y4440D02*
X42413Y4451D01*
X42389Y4462D01*
X42356Y4471D01*
X42315Y4478D01*
X42266Y4485D01*
X42143Y4495D01*
X41896Y4500D01*
Y5500D01*
X41986Y5501D01*
X42315Y5522D01*
X42356Y5529D01*
X42389Y5538D01*
X42413Y5549D01*
X42429Y5560D01*
Y4440D01*
D02*
G37*
G36*
X40337Y5549D02*
X40361Y5538D01*
X40394Y5529D01*
X40435Y5522D01*
X40484Y5515D01*
X40607Y5505D01*
X40854Y5500D01*
Y4500D01*
X40764Y4499D01*
X40435Y4478D01*
X40394Y4471D01*
X40361Y4462D01*
X40337Y4451D01*
X40321Y4440D01*
Y5560D01*
X40337Y5549D01*
D02*
G37*
G36*
X55503Y5097D02*
X55506Y4000D01*
X55496Y4095D01*
X55465Y4180D01*
X55415Y4255D01*
X55344Y4320D01*
X55254Y4375D01*
X55144Y4420D01*
X55013Y4455D01*
X54863Y4480D01*
X54693Y4495D01*
X54503Y4500D01*
Y5500D01*
X55503Y5097D01*
D02*
G37*
G36*
X32264Y3979D02*
X32285Y3962D01*
X32308Y3947D01*
X32332Y3935D01*
X32357Y3924D01*
X32382Y3915D01*
X32409Y3908D01*
X32438Y3903D01*
X32467Y3901D01*
X32497Y3900D01*
X32200Y3603D01*
X32199Y3633D01*
X32197Y3662D01*
X32192Y3691D01*
X32185Y3717D01*
X32176Y3743D01*
X32165Y3768D01*
X32153Y3792D01*
X32138Y3815D01*
X32121Y3836D01*
X32102Y3857D01*
X32243Y3998D01*
X32264Y3979D01*
D02*
G37*
G36*
X31164D02*
X31185Y3962D01*
X31208Y3947D01*
X31232Y3935D01*
X31257Y3924D01*
X31282Y3915D01*
X31309Y3908D01*
X31338Y3903D01*
X31367Y3901D01*
X31397Y3900D01*
X31100Y3603D01*
X31099Y3633D01*
X31097Y3662D01*
X31092Y3691D01*
X31085Y3717D01*
X31076Y3743D01*
X31065Y3768D01*
X31053Y3792D01*
X31038Y3815D01*
X31021Y3836D01*
X31002Y3857D01*
X31143Y3998D01*
X31164Y3979D01*
D02*
G37*
G36*
X9072Y28525D02*
X9102Y28493D01*
X9152Y28464D01*
X9222Y28439D01*
X9312Y28418D01*
X9422Y28401D01*
X9552Y28387D01*
X9872Y28372D01*
X10062Y28370D01*
Y27370D01*
X9872Y27368D01*
X9422Y27339D01*
X9312Y27322D01*
X9222Y27301D01*
X9152Y27276D01*
X9102Y27247D01*
X9072Y27215D01*
X9062Y27178D01*
Y28562D01*
X9072Y28525D01*
D02*
G37*
G36*
X47166Y27765D02*
X47178Y27589D01*
X47190Y27511D01*
X47205Y27439D01*
X47224Y27374D01*
X47247Y27316D01*
X47273Y27264D01*
X47303Y27219D01*
X47337Y27180D01*
X47160Y27003D01*
X47121Y27037D01*
X47076Y27067D01*
X47024Y27093D01*
X46966Y27116D01*
X46901Y27135D01*
X46829Y27150D01*
X46751Y27162D01*
X46666Y27170D01*
X46477Y27175D01*
X47165Y27863D01*
X47166Y27765D01*
D02*
G37*
G36*
X49428Y24764D02*
X49312Y24630D01*
X49265Y24567D01*
X49225Y24505D01*
X49193Y24446D01*
X49168Y24389D01*
X49149Y24333D01*
X49139Y24280D01*
X49135Y24229D01*
X48885D01*
X48881Y24280D01*
X48871Y24333D01*
X48852Y24389D01*
X48827Y24446D01*
X48795Y24505D01*
X48755Y24567D01*
X48708Y24630D01*
X48654Y24696D01*
X48523Y24834D01*
X49496D01*
X49428Y24764D01*
D02*
G37*
G36*
X49098Y23779D02*
X49069Y23745D01*
X49045Y23709D01*
X49026Y23670D01*
X49013Y23629D01*
X49006Y23585D01*
X49004Y23539D01*
X49008Y23490D01*
X49018Y23439D01*
X49033Y23386D01*
X49054Y23330D01*
X48368Y23685D01*
X48439Y23703D01*
X48570Y23743D01*
X48629Y23765D01*
X48736Y23815D01*
X48784Y23843D01*
X48827Y23872D01*
X48867Y23903D01*
X48902Y23936D01*
X49098Y23779D01*
D02*
G37*
G36*
X47258Y23681D02*
X47227Y23646D01*
X47200Y23606D01*
X47176Y23561D01*
X47155Y23511D01*
X47137Y23456D01*
X47123Y23396D01*
X47112Y23331D01*
X47105Y23261D01*
X47100Y23106D01*
X46506Y23700D01*
X46586Y23701D01*
X46731Y23712D01*
X46796Y23723D01*
X46856Y23737D01*
X46911Y23755D01*
X46961Y23776D01*
X47006Y23800D01*
X47046Y23827D01*
X47081Y23858D01*
X47258Y23681D01*
D02*
G37*
G36*
X51564Y19107D02*
X51560Y19131D01*
X51552Y19152D01*
X51540Y19171D01*
X51522Y19187D01*
X51499Y19201D01*
X51471Y19212D01*
X51438Y19221D01*
X51401Y19227D01*
X51358Y19231D01*
X51311Y19232D01*
Y19482D01*
X51358Y19484D01*
X51401Y19487D01*
X51438Y19494D01*
X51471Y19502D01*
X51499Y19514D01*
X51522Y19527D01*
X51540Y19544D01*
X51552Y19562D01*
X51560Y19584D01*
X51564Y19607D01*
Y19107D01*
D02*
G37*
G36*
X50507Y19584D02*
X50514Y19562D01*
X50527Y19544D01*
X50544Y19527D01*
X50567Y19514D01*
X50594Y19502D01*
X50627Y19494D01*
X50664Y19487D01*
X50707Y19484D01*
X50754Y19482D01*
Y19232D01*
X50707Y19231D01*
X50664Y19227D01*
X50627Y19221D01*
X50594Y19212D01*
X50567Y19201D01*
X50544Y19187D01*
X50527Y19171D01*
X50514Y19152D01*
X50507Y19131D01*
X50504Y19107D01*
Y19607D01*
X50507Y19584D01*
D02*
G37*
G36*
X49714Y19107D02*
X49710Y19131D01*
X49702Y19152D01*
X49689Y19171D01*
X49672Y19187D01*
X49649Y19201D01*
X49621Y19212D01*
X49588Y19221D01*
X49551Y19227D01*
X49508Y19231D01*
X49461Y19232D01*
Y19482D01*
X49508Y19484D01*
X49551Y19487D01*
X49588Y19494D01*
X49621Y19502D01*
X49649Y19514D01*
X49672Y19527D01*
X49689Y19544D01*
X49702Y19562D01*
X49710Y19584D01*
X49714Y19607D01*
Y19107D01*
D02*
G37*
G36*
X49746Y15198D02*
X49781Y15168D01*
X49817Y15141D01*
X49852Y15118D01*
X49887Y15099D01*
X49923Y15083D01*
X49958Y15070D01*
X49993Y15061D01*
X50029Y15056D01*
X50064Y15054D01*
X49711Y14701D01*
X49709Y14736D01*
X49703Y14772D01*
X49695Y14807D01*
X49682Y14842D01*
X49666Y14878D01*
X49647Y14913D01*
X49624Y14948D01*
X49597Y14984D01*
X49567Y15019D01*
X49534Y15054D01*
X49711Y15231D01*
X49746Y15198D01*
D02*
G37*
G36*
X50504Y14694D02*
X50512Y14672D01*
X50525Y14654D01*
X50543Y14637D01*
X50566Y14624D01*
X50594Y14612D01*
X50627Y14604D01*
X50664Y14597D01*
X50707Y14594D01*
X50754Y14592D01*
Y14342D01*
X50707Y14342D01*
X50627Y14335D01*
X50594Y14329D01*
X50567Y14322D01*
X50544Y14313D01*
X50527Y14302D01*
X50514Y14290D01*
X50507Y14276D01*
X50504Y14260D01*
X50501Y14717D01*
X50504Y14694D01*
D02*
G37*
G36*
X51715Y14082D02*
X51664Y14132D01*
X51565Y14215D01*
X51517Y14249D01*
X51469Y14277D01*
X51422Y14301D01*
X51376Y14319D01*
X51331Y14332D01*
X51286Y14340D01*
X51242Y14342D01*
Y14592D01*
X51286Y14595D01*
X51331Y14603D01*
X51376Y14616D01*
X51422Y14634D01*
X51469Y14657D01*
X51517Y14686D01*
X51565Y14720D01*
X51614Y14759D01*
X51664Y14803D01*
X51715Y14852D01*
Y14082D01*
D02*
G37*
G36*
X46102Y14340D02*
X46067Y14299D01*
X46036Y14251D01*
X46008Y14195D01*
X45984Y14132D01*
X45965Y14061D01*
X45949Y13983D01*
X45936Y13897D01*
X45923Y13703D01*
X45923Y13595D01*
X45180Y14337D01*
X45288Y14338D01*
X45482Y14351D01*
X45568Y14363D01*
X45646Y14380D01*
X45717Y14399D01*
X45780Y14423D01*
X45836Y14451D01*
X45884Y14482D01*
X45925Y14517D01*
X46102Y14340D01*
D02*
G37*
G36*
X43562D02*
X43527Y14299D01*
X43496Y14251D01*
X43468Y14195D01*
X43444Y14132D01*
X43425Y14061D01*
X43409Y13983D01*
X43396Y13897D01*
X43383Y13703D01*
X43383Y13595D01*
X42640Y14337D01*
X42748Y14338D01*
X42942Y14351D01*
X43028Y14363D01*
X43106Y14380D01*
X43177Y14399D01*
X43240Y14423D01*
X43296Y14451D01*
X43344Y14482D01*
X43385Y14517D01*
X43562Y14340D01*
D02*
G37*
G36*
X7477Y14356D02*
X7461Y14262D01*
X7455Y14172D01*
X7457Y14087D01*
X7468Y14005D01*
X7488Y13927D01*
X7517Y13853D01*
X7554Y13784D01*
X7601Y13718D01*
X7656Y13656D01*
X7444Y13444D01*
X7382Y13499D01*
X7316Y13546D01*
X7247Y13583D01*
X7173Y13612D01*
X7095Y13632D01*
X7013Y13643D01*
X6928Y13645D01*
X6838Y13639D01*
X6744Y13623D01*
X6647Y13599D01*
X7501Y14453D01*
X7477Y14356D01*
D02*
G37*
G36*
X9106Y13250D02*
X9103Y13278D01*
X9093Y13304D01*
X9078Y13326D01*
X9056Y13346D01*
X9029Y13363D01*
X8996Y13376D01*
X8956Y13387D01*
X8911Y13394D01*
X8860Y13399D01*
X8803Y13400D01*
Y13700D01*
X8860Y13701D01*
X8911Y13706D01*
X8956Y13714D01*
X8996Y13724D01*
X9029Y13738D01*
X9056Y13754D01*
X9078Y13774D01*
X9093Y13796D01*
X9103Y13821D01*
X9106Y13850D01*
Y13250D01*
D02*
G37*
G36*
X10897Y13285D02*
X10903Y13242D01*
X10915Y13200D01*
X10930Y13158D01*
X10949Y13115D01*
X10973Y13073D01*
X11001Y13030D01*
X11033Y12988D01*
X11069Y12945D01*
X11109Y12903D01*
X10897Y12691D01*
X10855Y12731D01*
X10812Y12767D01*
X10770Y12799D01*
X10727Y12827D01*
X10685Y12851D01*
X10642Y12870D01*
X10600Y12885D01*
X10558Y12897D01*
X10515Y12903D01*
X10473Y12906D01*
X10894Y13327D01*
X10897Y13285D01*
D02*
G37*
G36*
X15801Y11976D02*
X15851Y11942D01*
X15907Y11913D01*
X15970Y11887D01*
X16039Y11866D01*
X16115Y11848D01*
X16197Y11835D01*
X16285Y11826D01*
X16483Y11820D01*
X15740Y11078D01*
X15739Y11179D01*
X15725Y11363D01*
X15712Y11445D01*
X15694Y11521D01*
X15673Y11590D01*
X15647Y11653D01*
X15618Y11709D01*
X15584Y11759D01*
X15546Y11802D01*
X15758Y12014D01*
X15801Y11976D01*
D02*
G37*
G36*
X10900Y11268D02*
X10911Y11242D01*
X10928Y11219D01*
X10953Y11200D01*
X10984Y11183D01*
X11023Y11169D01*
X11068Y11159D01*
X11121Y11151D01*
X11180Y11147D01*
X11247Y11145D01*
Y10795D01*
X11180Y10793D01*
X11121Y10788D01*
X11068Y10779D01*
X11022Y10767D01*
X10984Y10751D01*
X10952Y10732D01*
X10927Y10709D01*
X10909Y10683D01*
X10898Y10653D01*
X10894Y10620D01*
X10897Y11297D01*
X10900Y11268D01*
D02*
G37*
G36*
X13529Y10410D02*
X13454Y10483D01*
X13308Y10606D01*
X13237Y10656D01*
X13168Y10699D01*
X13099Y10733D01*
X13032Y10760D01*
X12967Y10780D01*
X12902Y10791D01*
X12839Y10795D01*
Y11145D01*
X12902Y11149D01*
X12967Y11160D01*
X13032Y11180D01*
X13099Y11207D01*
X13168Y11241D01*
X13237Y11284D01*
X13308Y11334D01*
X13380Y11391D01*
X13454Y11457D01*
X13529Y11530D01*
Y10410D01*
D02*
G37*
G36*
X7386Y10443D02*
X7479Y10339D01*
X7570Y10248D01*
X7662Y10169D01*
X7752Y10102D01*
X7843Y10047D01*
X7933Y10005D01*
X8022Y9974D01*
X8111Y9956D01*
X8200Y9950D01*
Y9650D01*
X8111Y9644D01*
X8022Y9626D01*
X7933Y9595D01*
X7843Y9553D01*
X7752Y9498D01*
X7662Y9431D01*
X7570Y9352D01*
X7479Y9261D01*
X7386Y9157D01*
X7294Y9042D01*
Y10558D01*
X7386Y10443D01*
D02*
G37*
G36*
X13289Y9325D02*
X13327Y9293D01*
X13365Y9267D01*
X13401Y9245D01*
X13437Y9227D01*
X13473Y9215D01*
X13507Y9208D01*
X13542Y9205D01*
X13575Y9207D01*
X13608Y9214D01*
X13304Y8675D01*
X13302Y8717D01*
X13295Y8759D01*
X13284Y8801D01*
X13269Y8844D01*
X13250Y8885D01*
X13227Y8927D01*
X13200Y8969D01*
X13169Y9011D01*
X13133Y9052D01*
X13094Y9094D01*
X13251Y9361D01*
X13289Y9325D01*
D02*
G37*
G36*
X14899Y8752D02*
X14909Y8726D01*
X14924Y8703D01*
X14946Y8684D01*
X14973Y8667D01*
X15006Y8654D01*
X15046Y8644D01*
X15091Y8636D01*
X15142Y8632D01*
X15199Y8630D01*
Y8330D01*
X15142Y8328D01*
X15091Y8324D01*
X15046Y8316D01*
X15006Y8306D01*
X14973Y8292D01*
X14946Y8276D01*
X14924Y8257D01*
X14909Y8234D01*
X14899Y8208D01*
X14896Y8180D01*
Y8780D01*
X14899Y8752D01*
D02*
G37*
G36*
X15991Y7970D02*
X15911Y8039D01*
X15761Y8154D01*
X15689Y8201D01*
X15621Y8240D01*
X15555Y8272D01*
X15491Y8298D01*
X15431Y8316D01*
X15373Y8326D01*
X15317Y8330D01*
X15297Y8630D01*
X15355Y8634D01*
X15415Y8646D01*
X15475Y8665D01*
X15536Y8692D01*
X15598Y8727D01*
X15661Y8770D01*
X15725Y8820D01*
X15789Y8878D01*
X15854Y8944D01*
X15921Y9018D01*
X15991Y7970D01*
D02*
G37*
G36*
X18729Y6153D02*
X18699Y6151D01*
X18668Y6146D01*
X18637Y6137D01*
X18605Y6125D01*
X18573Y6109D01*
X18540Y6089D01*
X18507Y6066D01*
X18473Y6040D01*
X18438Y6010D01*
X18403Y5976D01*
X18226Y6153D01*
X18260Y6188D01*
X18316Y6257D01*
X18339Y6290D01*
X18359Y6323D01*
X18375Y6355D01*
X18387Y6387D01*
X18396Y6418D01*
X18401Y6449D01*
X18403Y6479D01*
X18729Y6153D01*
D02*
G37*
G36*
X17103Y6439D02*
X17249Y6311D01*
X17318Y6259D01*
X17385Y6215D01*
X17449Y6179D01*
X17511Y6151D01*
X17570Y6131D01*
X17626Y6119D01*
X17680Y6115D01*
Y5865D01*
X17626Y5861D01*
X17570Y5849D01*
X17511Y5829D01*
X17449Y5801D01*
X17385Y5765D01*
X17318Y5721D01*
X17249Y5669D01*
X17103Y5541D01*
X17026Y5465D01*
Y6515D01*
X17103Y6439D01*
D02*
G37*
D10*
X27693Y15257D02*
X27993Y15557D01*
X27100Y15200D02*
X27157Y15257D01*
X27693D01*
X30650Y11300D02*
X30950Y11000D01*
X29728Y12204D02*
X30631Y11300D01*
X27785Y12204D02*
X29728D01*
X30631Y11300D02*
X30650D01*
X30700Y4300D02*
Y7300D01*
Y4300D02*
X31400Y3600D01*
X31800Y4300D02*
Y7000D01*
Y4300D02*
X32500Y3600D01*
X19700Y23400D02*
X30700D01*
X16700Y20400D02*
X19700Y23400D01*
X31600Y22500D02*
X33400D01*
X30700Y23400D02*
X31600Y22500D01*
X33400D02*
X33700Y22200D01*
Y11200D02*
Y22200D01*
X31200Y8700D02*
X33700Y11200D01*
X28800Y8700D02*
X31200D01*
X28100Y9400D02*
X28800Y8700D01*
X29600Y9400D02*
X31100D01*
X31800Y10100D01*
Y12400D01*
X31200Y13000D02*
Y21700D01*
Y13000D02*
X31800Y12400D01*
X20800Y22500D02*
X30400D01*
X31200Y21700D01*
X18700Y20400D02*
X20800Y22500D01*
X26188Y10988D02*
Y11613D01*
X25600Y12200D02*
X26188Y11613D01*
X29600Y9400D02*
Y10850D01*
X29450Y11000D02*
X29600Y10850D01*
X27987Y9621D02*
Y10688D01*
Y9621D02*
X28100Y9508D01*
Y9400D02*
Y9508D01*
X27688Y10988D02*
X27987Y10688D01*
X30700Y7300D02*
X33200Y9800D01*
X50490D01*
X52750Y7540D01*
X33800Y9000D02*
X48040D01*
X31800Y7000D02*
X33800Y9000D01*
X48040D02*
X49500Y7540D01*
D11*
X24295Y13610D02*
X27993Y17307D01*
X24110Y13610D02*
X24295D01*
X24110Y5990D02*
X25490D01*
X26939Y7439D01*
Y13134D01*
X27393Y13587D01*
X16490Y5990D02*
X18240D01*
X18800Y6550D01*
X48500Y23357D02*
X49010Y23867D01*
Y25330D01*
X48500Y23100D02*
Y23357D01*
X37775Y22700D02*
X38600D01*
X36310Y24165D02*
X37775Y22700D01*
X36310Y24165D02*
Y25330D01*
X38600Y22700D02*
X40093Y21207D01*
X35460Y23300D02*
X37553Y21207D01*
X40440Y23400D02*
X42633Y21207D01*
X37607Y24599D02*
Y26093D01*
X38805Y23400D02*
X40440D01*
X37607Y24599D02*
X38805Y23400D01*
X29493Y14366D02*
X29933Y13926D01*
Y13587D02*
Y13926D01*
X29493Y14366D02*
Y15557D01*
Y17307D01*
X29543Y19107D02*
X29818Y19382D01*
Y21092D01*
X29933Y21207D01*
X50297Y14467D02*
X52107Y14467D01*
X50107Y14657D02*
X50297Y14467D01*
X50107Y19357D02*
X52097D01*
X47585Y16000D02*
X48765D01*
X45173Y13587D02*
X47585Y16000D01*
X48765D02*
X50107Y14657D01*
X32400Y23300D02*
X35460D01*
X31230Y25330D02*
X31294Y25266D01*
Y24406D02*
X32400Y23300D01*
X31294Y24406D02*
Y25266D01*
X48403Y19357D02*
X50107D01*
X42633Y13587D02*
X48403Y19357D01*
X33770Y27870D02*
X35043Y26597D01*
X37103D01*
X37607Y26093D01*
X46500Y23100D02*
X47800Y24400D01*
Y26540D01*
X46470Y27870D02*
X47800Y26540D01*
D16*
X21900Y10550D02*
X22420Y11070D01*
X24110D01*
X26343Y19107D02*
X28043D01*
X0Y3700D02*
G03*
X3700Y0I3700J0D01*
G01*
Y30400D02*
G03*
X0Y26700I0J-3700D01*
G01*
X65200D02*
G03*
X61500Y30400I-3700J0D01*
G01*
Y0D02*
G03*
X65200Y3700I0J3700D01*
G01*
X0D02*
G03*
X3700Y0I3700J0D01*
G01*
X61500D02*
G03*
X65200Y3700I0J3700D01*
G01*
Y26700D02*
G03*
X61500Y30400I-3700J0D01*
G01*
X3700D02*
G03*
X0Y26700I0J-3700D01*
G01*
Y3700D02*
G03*
X3700Y0I3700J0D01*
G01*
X0Y3700D02*
G03*
X3700Y0I3700J0D01*
G01*
X61500D02*
G03*
X65200Y3700I0J3700D01*
G01*
X61500Y0D02*
G03*
X65200Y3700I0J3700D01*
G01*
Y26700D02*
G03*
X61500Y30400I-3700J0D01*
G01*
X65200Y26700D02*
G03*
X61500Y30400I-3700J0D01*
G01*
X3700D02*
G03*
X0Y26700I0J-3700D01*
G01*
X3700Y30400D02*
G03*
X0Y26700I0J-3700D01*
G01*
Y3700D02*
Y26700D01*
X3700Y30400D02*
X61500D01*
X65200Y3700D02*
Y26700D01*
X3700Y0D02*
X61500D01*
X3700D02*
X61500D01*
X65200Y3700D02*
Y26700D01*
X3700Y30400D02*
X61500D01*
X0Y3700D02*
Y26700D01*
X3700Y0D02*
X61500D01*
X3700D02*
X61500D01*
X65200Y3700D02*
Y26700D01*
Y3700D02*
Y26700D01*
X3700Y30400D02*
X61500D01*
X3700D02*
X61500D01*
X0Y3700D02*
Y26700D01*
Y3700D02*
Y26700D01*
D17*
X18800Y8050D02*
D03*
Y6550D02*
D03*
X21900Y9050D02*
D03*
Y10550D02*
D03*
X26293Y17657D02*
D03*
X50107Y20857D02*
D03*
Y13157D02*
D03*
Y14657D02*
D03*
X26293Y19157D02*
D03*
X50107Y19357D02*
D03*
D29*
X8370Y27870D02*
D03*
D30*
X10910D02*
D03*
X49010D02*
D03*
X43930D02*
D03*
X56630Y25330D02*
D03*
X38850D02*
D03*
X23610Y27870D02*
D03*
X31230D02*
D03*
X18530Y25330D02*
D03*
X13450Y27870D02*
D03*
X31230Y25330D02*
D03*
X36310D02*
D03*
X33770Y27870D02*
D03*
Y25330D02*
D03*
X8370D02*
D03*
X36310Y27870D02*
D03*
X10910Y25330D02*
D03*
X13450D02*
D03*
X15990D02*
D03*
X21070D02*
D03*
X23610D02*
D03*
X26150D02*
D03*
X28690D02*
D03*
X41390D02*
D03*
X43930D02*
D03*
X46470D02*
D03*
X49010D02*
D03*
X51550D02*
D03*
X54090D02*
D03*
X15990Y27870D02*
D03*
X18530D02*
D03*
X21070D02*
D03*
X26150D02*
D03*
X28690D02*
D03*
X38850D02*
D03*
X41390D02*
D03*
X46470D02*
D03*
X51550D02*
D03*
X54090D02*
D03*
X56630D02*
D03*
D35*
X52107Y19347D02*
D03*
D36*
Y14467D02*
D03*
D37*
X8370Y27870D02*
X10910D01*
X19975Y13125D02*
X20000Y13150D01*
X4400Y19800D02*
X6300D01*
X3600Y20600D02*
Y26700D01*
Y20600D02*
X4400Y19800D01*
X11876Y29400D02*
X13406Y27870D01*
X6300Y29400D02*
X11876D01*
X13406Y27870D02*
X13450D01*
X3600Y26700D02*
X6300Y29400D01*
Y19800D02*
X6325Y19825D01*
X39750Y2460D02*
X39795Y2505D01*
X56205D02*
X56250Y2550D01*
X39795Y2505D02*
X56205D01*
X19962Y16100D02*
X20000Y16138D01*
X12300Y16100D02*
X19962D01*
X10400Y18000D02*
X12300Y16100D01*
X10400Y18000D02*
Y21300D01*
X8445Y23255D02*
X10400Y21300D01*
X8370Y25330D02*
X8445Y25255D01*
Y23255D02*
Y25255D01*
X20843Y16981D02*
X21023Y16800D01*
X20662Y17162D02*
X20843Y16981D01*
X20000Y16138D02*
X20843Y16981D01*
X20000Y15050D02*
Y16138D01*
X20662Y17162D02*
Y18362D01*
X24886Y19157D02*
X26293D01*
X24300Y18572D02*
X24886Y19157D01*
X24300Y17500D02*
Y18572D01*
X21023Y16800D02*
X23600D01*
X24300Y17500D01*
X57061Y7140D02*
X58721Y8800D01*
X56250Y6329D02*
X57061Y7140D01*
Y7094D02*
X58000Y6154D01*
X57061Y7094D02*
Y7140D01*
X58000Y6100D02*
Y6154D01*
X56250Y4450D02*
Y6329D01*
X58721Y8800D02*
X59850D01*
X60250Y9200D01*
X56150Y4450D02*
X56250D01*
X55600Y5000D02*
X56150Y4450D01*
X52750Y5000D02*
X55600D01*
X49500D02*
X52750D01*
X46250D02*
X49500D01*
X43000D02*
X46250D01*
X39750D02*
X43000D01*
X26293Y20107D02*
X27393Y21207D01*
X26293Y19157D02*
Y20107D01*
Y19157D02*
X26343Y19107D01*
D39*
X24110Y5990D02*
D03*
D40*
Y13610D02*
D03*
Y8530D02*
D03*
Y11070D02*
D03*
X16490Y5990D02*
D03*
Y8530D02*
D03*
Y11070D02*
D03*
Y13610D02*
D03*
X47713Y13587D02*
D03*
Y21207D02*
D03*
X45173D02*
D03*
X42633D02*
D03*
X40093D02*
D03*
X37553D02*
D03*
X35013D02*
D03*
X32473D02*
D03*
X29933D02*
D03*
X27393D02*
D03*
X45173Y13587D02*
D03*
X42633D02*
D03*
X40093D02*
D03*
X37553D02*
D03*
X35013D02*
D03*
X32473D02*
D03*
X29933D02*
D03*
D41*
X6300Y9800D02*
D03*
Y14800D02*
D03*
Y19800D02*
D03*
D42*
X14100Y8430D02*
D03*
X52750Y2460D02*
D03*
X49500D02*
D03*
X46250D02*
D03*
X43000D02*
D03*
X39750D02*
D03*
D43*
X27393Y13587D02*
D03*
D44*
X16700Y18400D02*
D03*
X18700D02*
D03*
X58000Y6100D02*
D03*
X48500Y23100D02*
D03*
X33000Y2000D02*
D03*
X35000D02*
D03*
X37000D02*
D03*
X20700Y18400D02*
D03*
X22700D02*
D03*
X16700Y20400D02*
D03*
X22700D02*
D03*
X20700D02*
D03*
X18700D02*
D03*
X46500Y23100D02*
D03*
D45*
X3600Y26700D02*
D03*
Y3700D02*
D03*
X61600Y26700D02*
D03*
Y3700D02*
D03*
D46*
X60250Y15000D02*
D03*
Y9200D02*
D03*
D47*
X14100Y10970D02*
D03*
X39750Y5000D02*
D03*
Y7540D02*
D03*
X43000D02*
D03*
Y5000D02*
D03*
X46250D02*
D03*
Y7540D02*
D03*
X49500D02*
D03*
Y5000D02*
D03*
X52750D02*
D03*
Y7540D02*
D03*
D48*
X55450Y12200D02*
D03*
D49*
X27800Y7700D02*
D03*
X29800D02*
D03*
X21600Y14900D02*
D03*
X2000Y17500D02*
D03*
Y12500D02*
D03*
X8000Y1500D02*
D03*
X13000D02*
D03*
X18000D02*
D03*
X23000D02*
D03*
X28000D02*
D03*
X62500Y22500D02*
D03*
Y17500D02*
D03*
X25300Y17700D02*
D03*
X35000Y17500D02*
D03*
X45000D02*
D03*
X48000D02*
D03*
X38500Y11500D02*
D03*
X49000Y12000D02*
D03*
X50100Y22100D02*
D03*
X14400Y14300D02*
D03*
X20500Y8500D02*
D03*
X26000Y8000D02*
D03*
X37200Y3600D02*
D03*
X30796Y12325D02*
D03*
X27100Y15200D02*
D03*
X27785Y12204D02*
D03*
X31400Y3600D02*
D03*
X32500D02*
D03*
X25600Y12200D02*
D03*
X29600Y9400D02*
D03*
X28100D02*
D03*
D50*
X27993Y17307D02*
D03*
Y15557D02*
D03*
X26188Y10988D02*
D03*
X27688D02*
D03*
X30950Y11000D02*
D03*
X29450Y11000D02*
D03*
X29493Y15557D02*
D03*
Y17307D02*
D03*
X29543Y19107D02*
D03*
X28043D02*
D03*
D51*
X14300Y18950D02*
D03*
X20000Y13150D02*
D03*
X14300Y20850D02*
D03*
X56250Y2550D02*
D03*
X20000Y15050D02*
D03*
X56250Y4450D02*
D03*
D52*
X10000Y13550D02*
D03*
Y10650D02*
D03*
D53*
X8200Y9800D02*
X8700Y9300D01*
X6300Y9800D02*
X8200D01*
X8700Y9300D02*
X13100D01*
X13970Y8430D01*
X14100D01*
X16440Y8480D02*
X16490Y8530D01*
X14150Y8480D02*
X16440D01*
X14100Y8430D02*
X14150Y8480D01*
X7550Y13550D02*
X10000D01*
X6300Y14800D02*
X7550Y13550D01*
X10250D02*
X11680Y12120D01*
X15440D01*
X16490Y11070D01*
X10000Y13550D02*
X10250D01*
D54*
X14900Y18450D02*
X16650D01*
X14300Y18950D02*
X14400D01*
X16650Y18450D02*
X16700Y18400D01*
X14400Y18950D02*
X14900Y18450D01*
D55*
X10320Y10970D02*
X14100D01*
X10000Y10650D02*
X10320Y10970D01*
M02*
