G04*
G04 #@! TF.GenerationSoftware,Altium Limited,Altium Designer,25.5.2 (35)*
G04*
G04 Layer_Color=65280*
%FSLAX43Y43*%
%MOMM*%
G71*
G04*
G04 #@! TF.SameCoordinates,00E1866A-524C-438D-B9AB-9AB39CCCA5DC*
G04*
G04*
G04 #@! TF.FilePolarity,Positive*
G04*
G01*
G75*
%ADD14C,0.500*%
D14*
X0Y3700D02*
G03*
X3700Y0I3700J0D01*
G01*
Y30400D02*
G03*
X0Y26700I0J-3700D01*
G01*
X65200D02*
G03*
X61500Y30400I-3700J0D01*
G01*
Y0D02*
G03*
X65200Y3700I0J3700D01*
G01*
X0D02*
G03*
X3700Y0I3700J0D01*
G01*
X61500D02*
G03*
X65200Y3700I0J3700D01*
G01*
Y26700D02*
G03*
X61500Y30400I-3700J0D01*
G01*
X3700D02*
G03*
X0Y26700I0J-3700D01*
G01*
Y3700D02*
G03*
X3700Y0I3700J0D01*
G01*
X0Y3700D02*
G03*
X3700Y0I3700J0D01*
G01*
X61500D02*
G03*
X65200Y3700I0J3700D01*
G01*
X61500Y0D02*
G03*
X65200Y3700I0J3700D01*
G01*
Y26700D02*
G03*
X61500Y30400I-3700J0D01*
G01*
X65200Y26700D02*
G03*
X61500Y30400I-3700J0D01*
G01*
X3700D02*
G03*
X0Y26700I0J-3700D01*
G01*
X3700Y30400D02*
G03*
X0Y26700I0J-3700D01*
G01*
Y3700D02*
Y26700D01*
X3700Y30400D02*
X61500D01*
X65200Y3700D02*
Y26700D01*
X3700Y0D02*
X61500D01*
X3700D02*
X61500D01*
X65200Y3700D02*
Y26700D01*
X3700Y30400D02*
X61500D01*
X0Y3700D02*
Y26700D01*
X3700Y0D02*
X61500D01*
X3700D02*
X61500D01*
X65200Y3700D02*
Y26700D01*
Y3700D02*
Y26700D01*
X3700Y30400D02*
X61500D01*
X3700D02*
X61500D01*
X0Y3700D02*
Y26700D01*
Y3700D02*
Y26700D01*
Y3700D02*
G03*
X3700Y0I3700J0D01*
G01*
Y30400D02*
G03*
X0Y26700I0J-3700D01*
G01*
X65200D02*
G03*
X61500Y30400I-3700J0D01*
G01*
Y0D02*
G03*
X65200Y3700I0J3700D01*
G01*
X0D02*
G03*
X3700Y0I3700J0D01*
G01*
X61500D02*
G03*
X65200Y3700I0J3700D01*
G01*
Y26700D02*
G03*
X61500Y30400I-3700J0D01*
G01*
X3700D02*
G03*
X0Y26700I0J-3700D01*
G01*
Y3700D02*
G03*
X3700Y0I3700J0D01*
G01*
X0Y3700D02*
G03*
X3700Y0I3700J0D01*
G01*
X61500D02*
G03*
X65200Y3700I0J3700D01*
G01*
X61500Y0D02*
G03*
X65200Y3700I0J3700D01*
G01*
Y26700D02*
G03*
X61500Y30400I-3700J0D01*
G01*
X65200Y26700D02*
G03*
X61500Y30400I-3700J0D01*
G01*
X3700D02*
G03*
X0Y26700I0J-3700D01*
G01*
X3700Y30400D02*
G03*
X0Y26700I0J-3700D01*
G01*
Y3700D02*
Y26700D01*
X3700Y30400D02*
X61500D01*
X65200Y3700D02*
Y26700D01*
X3700Y0D02*
X61500D01*
X3700D02*
X61500D01*
X65200Y3700D02*
Y26700D01*
X3700Y30400D02*
X61500D01*
X0Y3700D02*
Y26700D01*
X3700Y0D02*
X61500D01*
X3700D02*
X61500D01*
X65200Y3700D02*
Y26700D01*
Y3700D02*
Y26700D01*
X3700Y30400D02*
X61500D01*
X3700D02*
X61500D01*
X0Y3700D02*
Y26700D01*
Y3700D02*
Y26700D01*
M02*
