G04*
G04 #@! TF.GenerationSoftware,Altium Limited,Altium Designer,25.5.2 (35)*
G04*
G04 Layer_Physical_Order=2*
G04 Layer_Color=16711680*
%FSLAX43Y43*%
%MOMM*%
G71*
G04*
G04 #@! TF.SameCoordinates,00E1866A-524C-438D-B9AB-9AB39CCCA5DC*
G04*
G04*
G04 #@! TF.FilePolarity,Positive*
G04*
G01*
G75*
%ADD10C,0.200*%
%ADD11C,0.250*%
%ADD14C,0.500*%
%ADD17C,1.390*%
%ADD22R,1.390X1.390*%
%ADD23C,1.100*%
%ADD24R,1.100X1.100*%
%ADD25C,1.000*%
%ADD27R,1.500X1.500*%
%ADD28C,1.500*%
%ADD29C,1.200*%
%ADD30R,1.500X1.500*%
%ADD31C,4.200*%
%ADD32C,2.500*%
%ADD33R,0.800X0.800*%
%ADD34R,0.800X0.800*%
%ADD35R,1.500X1.300*%
%ADD36R,1.800X1.300*%
%ADD37C,2.000*%
%ADD38C,0.800*%
G36*
X62124Y29836D02*
X62528Y29727D01*
X62914Y29567D01*
X63276Y29358D01*
X63608Y29104D01*
X63904Y28808D01*
X64158Y28476D01*
X64367Y28114D01*
X64527Y27728D01*
X64636Y27324D01*
X64690Y26909D01*
Y26700D01*
Y3700D01*
Y3491D01*
X64636Y3076D01*
X64527Y2672D01*
X64367Y2286D01*
X64158Y1924D01*
X63904Y1592D01*
X63608Y1296D01*
X63276Y1042D01*
X62914Y833D01*
X62528Y673D01*
X62124Y564D01*
X61709Y510D01*
X3491D01*
X3076Y564D01*
X2672Y673D01*
X2286Y833D01*
X1924Y1042D01*
X1592Y1296D01*
X1296Y1592D01*
X1042Y1924D01*
X833Y2286D01*
X673Y2672D01*
X564Y3076D01*
X510Y3491D01*
Y3700D01*
Y26700D01*
Y26909D01*
X564Y27324D01*
X673Y27728D01*
X833Y28114D01*
X1042Y28476D01*
X1296Y28808D01*
X1592Y29104D01*
X1924Y29358D01*
X2286Y29567D01*
X2672Y29727D01*
X3076Y29836D01*
X3491Y29890D01*
X61709D01*
X62124Y29836D01*
D02*
G37*
%LPC*%
G36*
X49160Y28860D02*
Y28020D01*
X50000D01*
X49937Y28254D01*
X49806Y28481D01*
X49621Y28666D01*
X49394Y28797D01*
X49160Y28860D01*
D02*
G37*
G36*
X48860D02*
X48626Y28797D01*
X48399Y28666D01*
X48214Y28481D01*
X48083Y28254D01*
X48020Y28020D01*
X48860D01*
Y28860D01*
D02*
G37*
G36*
X44080D02*
Y28020D01*
X44920D01*
X44857Y28254D01*
X44726Y28481D01*
X44541Y28666D01*
X44314Y28797D01*
X44080Y28860D01*
D02*
G37*
G36*
X43780D02*
X43546Y28797D01*
X43319Y28666D01*
X43134Y28481D01*
X43003Y28254D01*
X42940Y28020D01*
X43780D01*
Y28860D01*
D02*
G37*
G36*
X31380D02*
Y28020D01*
X32220D01*
X32157Y28254D01*
X32026Y28481D01*
X31841Y28666D01*
X31614Y28797D01*
X31380Y28860D01*
D02*
G37*
G36*
X31080D02*
X30846Y28797D01*
X30619Y28666D01*
X30434Y28481D01*
X30303Y28254D01*
X30240Y28020D01*
X31080D01*
Y28860D01*
D02*
G37*
G36*
X23760D02*
Y28020D01*
X24600D01*
X24537Y28254D01*
X24406Y28481D01*
X24221Y28666D01*
X23994Y28797D01*
X23760Y28860D01*
D02*
G37*
G36*
X23460D02*
X23226Y28797D01*
X22999Y28666D01*
X22814Y28481D01*
X22683Y28254D01*
X22620Y28020D01*
X23460D01*
Y28860D01*
D02*
G37*
G36*
X13600D02*
Y28020D01*
X14440D01*
X14377Y28254D01*
X14246Y28481D01*
X14061Y28666D01*
X13834Y28797D01*
X13600Y28860D01*
D02*
G37*
G36*
X13300D02*
X13066Y28797D01*
X12839Y28666D01*
X12654Y28481D01*
X12523Y28254D01*
X12460Y28020D01*
X13300D01*
Y28860D01*
D02*
G37*
G36*
X36467Y29065D02*
X36153D01*
X35849Y28984D01*
X35576Y28826D01*
X35354Y28604D01*
X35196Y28331D01*
X35115Y28027D01*
Y27713D01*
X35154Y27567D01*
X35040Y27501D01*
X34936Y27605D01*
X34965Y27713D01*
Y28027D01*
X34884Y28331D01*
X34726Y28604D01*
X34504Y28826D01*
X34231Y28984D01*
X33927Y29065D01*
X33613D01*
X33309Y28984D01*
X33036Y28826D01*
X32814Y28604D01*
X32656Y28331D01*
X32575Y28027D01*
Y27713D01*
X32656Y27409D01*
X32814Y27136D01*
X33036Y26914D01*
X33309Y26756D01*
X33613Y26675D01*
X33927D01*
X34035Y26704D01*
X34139Y26600D01*
X34073Y26486D01*
X33927Y26525D01*
X33613D01*
X33309Y26444D01*
X33036Y26286D01*
X32814Y26064D01*
X32656Y25791D01*
X32575Y25487D01*
Y25173D01*
X32656Y24869D01*
X32814Y24596D01*
X33036Y24374D01*
X33309Y24216D01*
X33613Y24135D01*
X33927D01*
X34231Y24216D01*
X34504Y24374D01*
X34726Y24596D01*
X34884Y24869D01*
X34965Y25173D01*
Y25487D01*
X34884Y25791D01*
X34838Y25871D01*
X34919Y25984D01*
X35043Y25959D01*
X35167D01*
X35230Y25849D01*
X35196Y25791D01*
X35115Y25487D01*
Y25173D01*
X35196Y24869D01*
X35354Y24596D01*
X35576Y24374D01*
X35849Y24216D01*
X36153Y24135D01*
X36434D01*
X41892Y18677D01*
X41875Y18637D01*
X41818Y18571D01*
X41525Y18650D01*
X41195D01*
X41050Y18611D01*
X37311Y22351D01*
X37104Y22489D01*
X36860Y22537D01*
X33064D01*
X31867Y23734D01*
Y24318D01*
X31964Y24374D01*
X32186Y24596D01*
X32344Y24869D01*
X32425Y25173D01*
Y25487D01*
X32344Y25791D01*
X32186Y26064D01*
X31964Y26286D01*
X31691Y26444D01*
X31387Y26525D01*
X31073D01*
X30769Y26444D01*
X30496Y26286D01*
X30274Y26064D01*
X30116Y25791D01*
X30035Y25487D01*
Y25173D01*
X30116Y24869D01*
X30274Y24596D01*
X30496Y24374D01*
X30593Y24318D01*
Y23470D01*
X30641Y23226D01*
X30779Y23019D01*
X32349Y21449D01*
X32556Y21311D01*
X32800Y21263D01*
X36596D01*
X39117Y18741D01*
X39054Y18631D01*
X38985Y18650D01*
X38655D01*
X38338Y18565D01*
X38052Y18400D01*
X37820Y18168D01*
X37655Y17882D01*
X37616Y17735D01*
X37484D01*
X37445Y17882D01*
X37280Y18168D01*
X37048Y18400D01*
X36762Y18565D01*
X36445Y18650D01*
X36115D01*
X35798Y18565D01*
X35512Y18400D01*
X35280Y18168D01*
X35115Y17882D01*
X35076Y17735D01*
X34944D01*
X34905Y17882D01*
X34740Y18168D01*
X34508Y18400D01*
X34222Y18565D01*
X33905Y18650D01*
X33575D01*
X33258Y18565D01*
X32972Y18400D01*
X32740Y18168D01*
X32575Y17882D01*
X32536Y17735D01*
X32404D01*
X32365Y17882D01*
X32200Y18168D01*
X31968Y18400D01*
X31682Y18565D01*
X31365Y18650D01*
X31035D01*
X30718Y18565D01*
X30432Y18400D01*
X30200Y18168D01*
X30035Y17882D01*
X29950Y17565D01*
Y17235D01*
X29953Y17223D01*
X29565Y16835D01*
X29445Y16678D01*
X29369Y16496D01*
X29344Y16300D01*
Y16250D01*
X29200D01*
Y16106D01*
X28884D01*
X28050Y16941D01*
X27894Y17061D01*
X27711Y17136D01*
X27516Y17162D01*
X22017D01*
X21670Y17509D01*
Y17729D01*
X21797Y17763D01*
X21820Y17725D01*
X22025Y17520D01*
X22275Y17375D01*
X22555Y17300D01*
X22845D01*
X23125Y17375D01*
X23375Y17520D01*
X23580Y17725D01*
X23725Y17975D01*
X23800Y18255D01*
Y18545D01*
X23725Y18825D01*
X23580Y19075D01*
X23375Y19280D01*
X23278Y19337D01*
Y19463D01*
X23375Y19520D01*
X23580Y19725D01*
X23725Y19975D01*
X23800Y20255D01*
Y20545D01*
X23725Y20825D01*
X23580Y21075D01*
X23375Y21280D01*
X23125Y21425D01*
X22845Y21500D01*
X22555D01*
X22275Y21425D01*
X22025Y21280D01*
X21820Y21075D01*
X21764Y20978D01*
X21636D01*
X21580Y21075D01*
X21375Y21280D01*
X21125Y21425D01*
X20845Y21500D01*
X20555D01*
X20275Y21425D01*
X20025Y21280D01*
X19820Y21075D01*
X19764Y20978D01*
X19636D01*
X19580Y21075D01*
X19375Y21280D01*
X19125Y21425D01*
X18845Y21500D01*
X18555D01*
X18275Y21425D01*
X18025Y21280D01*
X17820Y21075D01*
X17764Y20978D01*
X17636D01*
X17580Y21075D01*
X17375Y21280D01*
X17125Y21425D01*
X16845Y21500D01*
X16555D01*
X16275Y21425D01*
X16025Y21280D01*
X15820Y21075D01*
X15675Y20825D01*
X15600Y20545D01*
Y20255D01*
X15615Y20200D01*
X15510Y20100D01*
X15350D01*
Y20700D01*
X14300D01*
X13250D01*
Y20100D01*
X13050D01*
Y18561D01*
X12923Y18509D01*
X11807Y19624D01*
Y21400D01*
X11778Y21694D01*
X11693Y21977D01*
X11553Y22237D01*
X11366Y22466D01*
X9877Y23954D01*
Y24493D01*
X10004Y24546D01*
X10176Y24374D01*
X10449Y24216D01*
X10753Y24135D01*
X11067D01*
X11371Y24216D01*
X11644Y24374D01*
X11866Y24596D01*
X12024Y24869D01*
X12105Y25173D01*
Y25487D01*
X12024Y25791D01*
X11866Y26064D01*
X11644Y26286D01*
X11371Y26444D01*
X11067Y26525D01*
X10753D01*
X10449Y26444D01*
X10176Y26286D01*
X9954Y26064D01*
X9878Y25932D01*
X9740Y25948D01*
X9623Y26167D01*
X9436Y26396D01*
X9250Y26548D01*
X9296Y26675D01*
X9565D01*
Y26861D01*
X10267D01*
X10449Y26756D01*
X10753Y26675D01*
X11067D01*
X11371Y26756D01*
X11644Y26914D01*
X11866Y27136D01*
X12024Y27409D01*
X12105Y27713D01*
Y28027D01*
X12024Y28331D01*
X11866Y28604D01*
X11644Y28826D01*
X11371Y28984D01*
X11067Y29065D01*
X10753D01*
X10449Y28984D01*
X10267Y28879D01*
X9565D01*
Y29065D01*
X7175D01*
Y26675D01*
X7444D01*
X7490Y26548D01*
X7304Y26396D01*
X7117Y26167D01*
X6977Y25907D01*
X6892Y25624D01*
X6863Y25330D01*
Y23330D01*
X6892Y23036D01*
X6977Y22753D01*
X7117Y22493D01*
X7304Y22264D01*
X8793Y20776D01*
Y19000D01*
X8822Y18706D01*
X8907Y18423D01*
X9047Y18163D01*
X9234Y17934D01*
X10834Y16334D01*
X11063Y16147D01*
X11323Y16007D01*
X11606Y15922D01*
X11900Y15893D01*
X12043Y15907D01*
X12239Y15826D01*
X12500Y15791D01*
X13050D01*
Y15500D01*
X13250D01*
Y14900D01*
X15350D01*
Y15500D01*
X15550D01*
Y15591D01*
X20100D01*
X20361Y15626D01*
X20604Y15726D01*
X20813Y15887D01*
X20983Y16056D01*
X21169Y15871D01*
X21169Y15871D01*
X21325Y15750D01*
X21508Y15675D01*
X21704Y15649D01*
X27202D01*
X28036Y14815D01*
X28036Y14815D01*
X28193Y14695D01*
X28375Y14619D01*
X28571Y14594D01*
X28571Y14594D01*
X29200D01*
Y14450D01*
X29400D01*
Y14000D01*
X30100D01*
Y13700D01*
X29400D01*
Y13412D01*
X26790D01*
X26141Y14061D01*
X25934Y14199D01*
X25690Y14247D01*
X25185D01*
X25110Y14378D01*
X24878Y14610D01*
X24592Y14775D01*
X24275Y14860D01*
X23945D01*
X23628Y14775D01*
X23342Y14610D01*
X23110Y14378D01*
X22945Y14092D01*
X22860Y13775D01*
Y13445D01*
X22945Y13128D01*
X23110Y12842D01*
X23342Y12610D01*
X23628Y12445D01*
X23775Y12406D01*
Y12274D01*
X23628Y12235D01*
X23342Y12070D01*
X23110Y11838D01*
X23103Y11826D01*
X22420D01*
X22224Y11801D01*
X22042Y11725D01*
X21885Y11605D01*
X21885Y11605D01*
X21730Y11450D01*
X21000D01*
Y9650D01*
X21200D01*
Y9200D01*
X21900D01*
X22600D01*
Y9650D01*
X22800D01*
Y10314D01*
X23103D01*
X23110Y10302D01*
X23342Y10070D01*
X23628Y9905D01*
X23945Y9820D01*
X24275D01*
X24592Y9905D01*
X24878Y10070D01*
X25110Y10302D01*
X25275Y10588D01*
X25360Y10905D01*
Y11235D01*
X25275Y11552D01*
X25110Y11838D01*
X24878Y12070D01*
X24592Y12235D01*
X24445Y12274D01*
Y12406D01*
X24592Y12445D01*
X24878Y12610D01*
X25110Y12842D01*
X25185Y12973D01*
X25426D01*
X26075Y12324D01*
X26282Y12186D01*
X26526Y12137D01*
X30982D01*
X31100Y12021D01*
Y11900D01*
X31800D01*
Y11600D01*
X31100D01*
Y11050D01*
X30981Y11030D01*
X29950D01*
Y9431D01*
X27146Y6627D01*
X25360D01*
Y7240D01*
X22860D01*
Y4740D01*
X25360D01*
Y5353D01*
X27410D01*
X27654Y5401D01*
X27861Y5539D01*
X30851Y8530D01*
X32450D01*
Y9274D01*
X32575Y9298D01*
X32740Y9012D01*
X32972Y8780D01*
X33258Y8615D01*
X33575Y8530D01*
X33905D01*
X34222Y8615D01*
X34508Y8780D01*
X34740Y9012D01*
X34905Y9298D01*
X34944Y9445D01*
X35076D01*
X35115Y9298D01*
X35280Y9012D01*
X35512Y8780D01*
X35798Y8615D01*
X36115Y8530D01*
X36445D01*
X36762Y8615D01*
X37048Y8780D01*
X37280Y9012D01*
X37445Y9298D01*
X37484Y9445D01*
X37616D01*
X37655Y9298D01*
X37820Y9012D01*
X38052Y8780D01*
X38338Y8615D01*
X38655Y8530D01*
X38985D01*
X39302Y8615D01*
X39588Y8780D01*
X39820Y9012D01*
X39985Y9298D01*
X40024Y9445D01*
X40156D01*
X40195Y9298D01*
X40360Y9012D01*
X40592Y8780D01*
X40878Y8615D01*
X41195Y8530D01*
X41525D01*
X41842Y8615D01*
X42128Y8780D01*
X42360Y9012D01*
X42525Y9298D01*
X42564Y9445D01*
X42696D01*
X42735Y9298D01*
X42900Y9012D01*
X43132Y8780D01*
X43418Y8615D01*
X43735Y8530D01*
X44065D01*
X44382Y8615D01*
X44668Y8780D01*
X44900Y9012D01*
X45065Y9298D01*
X45104Y9445D01*
X45236D01*
X45275Y9298D01*
X45440Y9012D01*
X45672Y8780D01*
X45803Y8705D01*
Y7044D01*
X45209Y6450D01*
X44010D01*
Y4350D01*
X44044D01*
X44150Y4300D01*
Y4100D01*
X43700D01*
Y3400D01*
Y2700D01*
X44150D01*
Y2500D01*
X45950D01*
Y4300D01*
X46056Y4350D01*
X46110D01*
Y5549D01*
X46891Y6329D01*
X47029Y6536D01*
X47077Y6780D01*
Y8705D01*
X47208Y8780D01*
X47440Y9012D01*
X47605Y9298D01*
X47644Y9445D01*
X47776D01*
X47815Y9298D01*
X47980Y9012D01*
X48212Y8780D01*
X48343Y8705D01*
Y6360D01*
X48391Y6116D01*
X48529Y5909D01*
X48892Y5547D01*
X48890Y5538D01*
Y5262D01*
X48962Y4995D01*
X49100Y4755D01*
X49295Y4560D01*
X49303Y4555D01*
Y4300D01*
X48850D01*
Y2500D01*
X50650D01*
Y2700D01*
X51100D01*
Y3400D01*
Y4100D01*
X50650D01*
Y4300D01*
X50577D01*
Y4555D01*
X50585Y4560D01*
X50780Y4755D01*
X50918Y4995D01*
X50990Y5262D01*
Y5538D01*
X50918Y5805D01*
X50780Y6045D01*
X50585Y6240D01*
X50345Y6378D01*
X50078Y6450D01*
X49802D01*
X49793Y6448D01*
X49617Y6624D01*
Y8705D01*
X49748Y8780D01*
X49980Y9012D01*
X50145Y9298D01*
X50230Y9615D01*
Y9945D01*
X50145Y10262D01*
X49980Y10548D01*
X49748Y10780D01*
X49462Y10945D01*
X49145Y11030D01*
X48815D01*
X48498Y10945D01*
X48212Y10780D01*
X47980Y10548D01*
X47815Y10262D01*
X47776Y10115D01*
X47644D01*
X47605Y10262D01*
X47440Y10548D01*
X47208Y10780D01*
X46922Y10945D01*
X46605Y11030D01*
X46275D01*
X45958Y10945D01*
X45672Y10780D01*
X45440Y10548D01*
X45275Y10262D01*
X45236Y10115D01*
X45104D01*
X45065Y10262D01*
X44900Y10548D01*
X44668Y10780D01*
X44382Y10945D01*
X44065Y11030D01*
X43735D01*
X43418Y10945D01*
X43132Y10780D01*
X42900Y10548D01*
X42735Y10262D01*
X42696Y10115D01*
X42564D01*
X42525Y10262D01*
X42360Y10548D01*
X42128Y10780D01*
X41842Y10945D01*
X41525Y11030D01*
X41195D01*
X40878Y10945D01*
X40592Y10780D01*
X40360Y10548D01*
X40195Y10262D01*
X40156Y10115D01*
X40024D01*
X39985Y10262D01*
X39820Y10548D01*
X39588Y10780D01*
X39302Y10945D01*
X38985Y11030D01*
X38655D01*
X38338Y10945D01*
X38052Y10780D01*
X37820Y10548D01*
X37655Y10262D01*
X37616Y10115D01*
X37484D01*
X37445Y10262D01*
X37280Y10548D01*
X37048Y10780D01*
X36762Y10945D01*
X36445Y11030D01*
X36115D01*
X35798Y10945D01*
X35512Y10780D01*
X35280Y10548D01*
X35115Y10262D01*
X35076Y10115D01*
X34944D01*
X34905Y10262D01*
X34740Y10548D01*
X34508Y10780D01*
X34222Y10945D01*
X34200Y10951D01*
Y12600D01*
Y14400D01*
X34250Y14400D01*
Y15513D01*
X34262Y15575D01*
Y16258D01*
X34508Y16400D01*
X34740Y16632D01*
X34905Y16918D01*
X34944Y17065D01*
X35076D01*
X35115Y16918D01*
X35280Y16632D01*
X35512Y16400D01*
X35798Y16235D01*
X36115Y16150D01*
X36445D01*
X36762Y16235D01*
X37048Y16400D01*
X37280Y16632D01*
X37445Y16918D01*
X37484Y17065D01*
X37616D01*
X37655Y16918D01*
X37820Y16632D01*
X38052Y16400D01*
X38338Y16235D01*
X38655Y16150D01*
X38985D01*
X39302Y16235D01*
X39588Y16400D01*
X39820Y16632D01*
X39985Y16918D01*
X40024Y17065D01*
X40156D01*
X40195Y16918D01*
X40360Y16632D01*
X40592Y16400D01*
X40878Y16235D01*
X41195Y16150D01*
X41525D01*
X41842Y16235D01*
X42128Y16400D01*
X42360Y16632D01*
X42525Y16918D01*
X42564Y17065D01*
X42696D01*
X42735Y16918D01*
X42900Y16632D01*
X43132Y16400D01*
X43418Y16235D01*
X43735Y16150D01*
X44065D01*
X44382Y16235D01*
X44668Y16400D01*
X44900Y16632D01*
X45065Y16918D01*
X45104Y17065D01*
X45236D01*
X45275Y16918D01*
X45440Y16632D01*
X45672Y16400D01*
X45958Y16235D01*
X46275Y16150D01*
X46605D01*
X46922Y16235D01*
X47208Y16400D01*
X47440Y16632D01*
X47605Y16918D01*
X47644Y17065D01*
X47776D01*
X47815Y16918D01*
X47980Y16632D01*
X48212Y16400D01*
X48498Y16235D01*
X48815Y16150D01*
X49145D01*
X49462Y16235D01*
X49748Y16400D01*
X49980Y16632D01*
X50145Y16918D01*
X50184Y17065D01*
X50316D01*
X50355Y16918D01*
X50520Y16632D01*
X50752Y16400D01*
X51038Y16235D01*
X51355Y16150D01*
X51685D01*
X52002Y16235D01*
X52288Y16400D01*
X52520Y16632D01*
X52685Y16918D01*
X52770Y17235D01*
Y17565D01*
X52685Y17882D01*
X52520Y18168D01*
X52288Y18400D01*
X52002Y18565D01*
X51685Y18650D01*
X51355D01*
X51038Y18565D01*
X50752Y18400D01*
X50520Y18168D01*
X50355Y17882D01*
X50316Y17735D01*
X50184D01*
X50145Y17882D01*
X49980Y18168D01*
X49748Y18400D01*
X49462Y18565D01*
X49145Y18650D01*
X48815D01*
X48498Y18565D01*
X48212Y18400D01*
X47980Y18168D01*
X47815Y17882D01*
X47776Y17735D01*
X47644D01*
X47605Y17882D01*
X47440Y18168D01*
X47208Y18400D01*
X47077Y18475D01*
Y18560D01*
X47029Y18804D01*
X46891Y19011D01*
X43151Y22751D01*
X42944Y22889D01*
X42700Y22937D01*
X40588D01*
X39240Y24285D01*
X39277Y24428D01*
X39461Y24534D01*
X39646Y24719D01*
X39777Y24946D01*
X39840Y25180D01*
X38850D01*
Y25330D01*
X38700D01*
Y26320D01*
X38466Y26257D01*
X38354Y26192D01*
X38211Y26257D01*
X38195Y26337D01*
X38057Y26544D01*
X37554Y27047D01*
X37347Y27185D01*
X37324Y27236D01*
X37424Y27409D01*
X37505Y27713D01*
Y28027D01*
X37424Y28331D01*
X37266Y28604D01*
X37044Y28826D01*
X36771Y28984D01*
X36467Y29065D01*
D02*
G37*
G36*
X50000Y27720D02*
X49160D01*
Y26880D01*
X49394Y26943D01*
X49621Y27074D01*
X49806Y27259D01*
X49937Y27486D01*
X50000Y27720D01*
D02*
G37*
G36*
X48860D02*
X48020D01*
X48083Y27486D01*
X48214Y27259D01*
X48399Y27074D01*
X48626Y26943D01*
X48860Y26880D01*
Y27720D01*
D02*
G37*
G36*
X44920D02*
X44080D01*
Y26880D01*
X44314Y26943D01*
X44541Y27074D01*
X44726Y27259D01*
X44857Y27486D01*
X44920Y27720D01*
D02*
G37*
G36*
X43780D02*
X42940D01*
X43003Y27486D01*
X43134Y27259D01*
X43319Y27074D01*
X43546Y26943D01*
X43780Y26880D01*
Y27720D01*
D02*
G37*
G36*
X32220D02*
X31380D01*
Y26880D01*
X31614Y26943D01*
X31841Y27074D01*
X32026Y27259D01*
X32157Y27486D01*
X32220Y27720D01*
D02*
G37*
G36*
X31080D02*
X30240D01*
X30303Y27486D01*
X30434Y27259D01*
X30619Y27074D01*
X30846Y26943D01*
X31080Y26880D01*
Y27720D01*
D02*
G37*
G36*
X24600D02*
X23760D01*
Y26880D01*
X23994Y26943D01*
X24221Y27074D01*
X24406Y27259D01*
X24537Y27486D01*
X24600Y27720D01*
D02*
G37*
G36*
X23460D02*
X22620D01*
X22683Y27486D01*
X22814Y27259D01*
X22999Y27074D01*
X23226Y26943D01*
X23460Y26880D01*
Y27720D01*
D02*
G37*
G36*
X14440D02*
X13600D01*
Y26880D01*
X13834Y26943D01*
X14061Y27074D01*
X14246Y27259D01*
X14377Y27486D01*
X14440Y27720D01*
D02*
G37*
G36*
X13300D02*
X12460D01*
X12523Y27486D01*
X12654Y27259D01*
X12839Y27074D01*
X13066Y26943D01*
X13300Y26880D01*
Y27720D01*
D02*
G37*
G36*
X61836Y29100D02*
X61750D01*
Y26850D01*
X64000D01*
Y26936D01*
X63908Y27400D01*
X63727Y27837D01*
X63464Y28230D01*
X63130Y28564D01*
X62737Y28827D01*
X62300Y29008D01*
X61836Y29100D01*
D02*
G37*
G36*
X61450D02*
X61364D01*
X60900Y29008D01*
X60463Y28827D01*
X60070Y28564D01*
X59736Y28230D01*
X59473Y27837D01*
X59292Y27400D01*
X59200Y26936D01*
Y26850D01*
X61450D01*
Y29100D01*
D02*
G37*
G36*
X3836D02*
X3750D01*
Y26850D01*
X6000D01*
Y26936D01*
X5908Y27400D01*
X5727Y27837D01*
X5464Y28230D01*
X5130Y28564D01*
X4737Y28827D01*
X4300Y29008D01*
X3836Y29100D01*
D02*
G37*
G36*
X3450D02*
X3364D01*
X2900Y29008D01*
X2463Y28827D01*
X2070Y28564D01*
X1736Y28230D01*
X1473Y27837D01*
X1292Y27400D01*
X1200Y26936D01*
Y26850D01*
X3450D01*
Y29100D01*
D02*
G37*
G36*
X56787Y29065D02*
X56473D01*
X56169Y28984D01*
X55896Y28826D01*
X55674Y28604D01*
X55516Y28331D01*
X55435Y28027D01*
Y27713D01*
X55516Y27409D01*
X55674Y27136D01*
X55896Y26914D01*
X56169Y26756D01*
X56473Y26675D01*
X56787D01*
X57091Y26756D01*
X57364Y26914D01*
X57586Y27136D01*
X57744Y27409D01*
X57825Y27713D01*
Y28027D01*
X57744Y28331D01*
X57586Y28604D01*
X57364Y28826D01*
X57091Y28984D01*
X56787Y29065D01*
D02*
G37*
G36*
X54247D02*
X53933D01*
X53629Y28984D01*
X53356Y28826D01*
X53134Y28604D01*
X52976Y28331D01*
X52895Y28027D01*
Y27713D01*
X52976Y27409D01*
X53134Y27136D01*
X53356Y26914D01*
X53629Y26756D01*
X53933Y26675D01*
X54247D01*
X54551Y26756D01*
X54824Y26914D01*
X55046Y27136D01*
X55204Y27409D01*
X55285Y27713D01*
Y28027D01*
X55204Y28331D01*
X55046Y28604D01*
X54824Y28826D01*
X54551Y28984D01*
X54247Y29065D01*
D02*
G37*
G36*
X51707D02*
X51393D01*
X51089Y28984D01*
X50816Y28826D01*
X50594Y28604D01*
X50436Y28331D01*
X50355Y28027D01*
Y27713D01*
X50436Y27409D01*
X50594Y27136D01*
X50816Y26914D01*
X51089Y26756D01*
X51393Y26675D01*
X51707D01*
X52011Y26756D01*
X52284Y26914D01*
X52506Y27136D01*
X52664Y27409D01*
X52745Y27713D01*
Y28027D01*
X52664Y28331D01*
X52506Y28604D01*
X52284Y28826D01*
X52011Y28984D01*
X51707Y29065D01*
D02*
G37*
G36*
X41547D02*
X41233D01*
X40929Y28984D01*
X40656Y28826D01*
X40434Y28604D01*
X40276Y28331D01*
X40195Y28027D01*
Y27713D01*
X40276Y27409D01*
X40434Y27136D01*
X40656Y26914D01*
X40929Y26756D01*
X41233Y26675D01*
X41547D01*
X41851Y26756D01*
X42124Y26914D01*
X42346Y27136D01*
X42504Y27409D01*
X42585Y27713D01*
Y28027D01*
X42504Y28331D01*
X42346Y28604D01*
X42124Y28826D01*
X41851Y28984D01*
X41547Y29065D01*
D02*
G37*
G36*
X39007D02*
X38693D01*
X38389Y28984D01*
X38116Y28826D01*
X37894Y28604D01*
X37736Y28331D01*
X37655Y28027D01*
Y27713D01*
X37736Y27409D01*
X37894Y27136D01*
X38116Y26914D01*
X38389Y26756D01*
X38693Y26675D01*
X39007D01*
X39311Y26756D01*
X39584Y26914D01*
X39806Y27136D01*
X39964Y27409D01*
X40045Y27713D01*
Y28027D01*
X39964Y28331D01*
X39806Y28604D01*
X39584Y28826D01*
X39311Y28984D01*
X39007Y29065D01*
D02*
G37*
G36*
X28847D02*
X28533D01*
X28229Y28984D01*
X27956Y28826D01*
X27734Y28604D01*
X27576Y28331D01*
X27495Y28027D01*
Y27713D01*
X27576Y27409D01*
X27734Y27136D01*
X27956Y26914D01*
X28229Y26756D01*
X28533Y26675D01*
X28847D01*
X29151Y26756D01*
X29424Y26914D01*
X29646Y27136D01*
X29804Y27409D01*
X29885Y27713D01*
Y28027D01*
X29804Y28331D01*
X29646Y28604D01*
X29424Y28826D01*
X29151Y28984D01*
X28847Y29065D01*
D02*
G37*
G36*
X26307D02*
X25993D01*
X25689Y28984D01*
X25416Y28826D01*
X25194Y28604D01*
X25036Y28331D01*
X24955Y28027D01*
Y27713D01*
X25036Y27409D01*
X25194Y27136D01*
X25416Y26914D01*
X25689Y26756D01*
X25993Y26675D01*
X26307D01*
X26611Y26756D01*
X26884Y26914D01*
X27106Y27136D01*
X27264Y27409D01*
X27345Y27713D01*
Y28027D01*
X27264Y28331D01*
X27106Y28604D01*
X26884Y28826D01*
X26611Y28984D01*
X26307Y29065D01*
D02*
G37*
G36*
X21227D02*
X20913D01*
X20609Y28984D01*
X20336Y28826D01*
X20114Y28604D01*
X19956Y28331D01*
X19875Y28027D01*
Y27713D01*
X19956Y27409D01*
X20114Y27136D01*
X20336Y26914D01*
X20609Y26756D01*
X20913Y26675D01*
X21227D01*
X21531Y26756D01*
X21804Y26914D01*
X22026Y27136D01*
X22184Y27409D01*
X22265Y27713D01*
Y28027D01*
X22184Y28331D01*
X22026Y28604D01*
X21804Y28826D01*
X21531Y28984D01*
X21227Y29065D01*
D02*
G37*
G36*
X18687D02*
X18373D01*
X18069Y28984D01*
X17796Y28826D01*
X17574Y28604D01*
X17416Y28331D01*
X17335Y28027D01*
Y27713D01*
X17416Y27409D01*
X17574Y27136D01*
X17796Y26914D01*
X18069Y26756D01*
X18373Y26675D01*
X18687D01*
X18991Y26756D01*
X19264Y26914D01*
X19486Y27136D01*
X19644Y27409D01*
X19725Y27713D01*
Y28027D01*
X19644Y28331D01*
X19486Y28604D01*
X19264Y28826D01*
X18991Y28984D01*
X18687Y29065D01*
D02*
G37*
G36*
X16147D02*
X15833D01*
X15529Y28984D01*
X15256Y28826D01*
X15034Y28604D01*
X14876Y28331D01*
X14795Y28027D01*
Y27713D01*
X14876Y27409D01*
X15034Y27136D01*
X15256Y26914D01*
X15529Y26756D01*
X15833Y26675D01*
X16147D01*
X16451Y26756D01*
X16724Y26914D01*
X16946Y27136D01*
X17104Y27409D01*
X17185Y27713D01*
Y28027D01*
X17104Y28331D01*
X16946Y28604D01*
X16724Y28826D01*
X16451Y28984D01*
X16147Y29065D01*
D02*
G37*
G36*
X46627D02*
X46313D01*
X46009Y28984D01*
X45736Y28826D01*
X45514Y28604D01*
X45356Y28331D01*
X45275Y28027D01*
Y27713D01*
X45356Y27409D01*
X45514Y27136D01*
X45736Y26914D01*
X46009Y26756D01*
X46313Y26675D01*
X46627D01*
X46735Y26704D01*
X46839Y26600D01*
X46773Y26486D01*
X46627Y26525D01*
X46313D01*
X46009Y26444D01*
X45736Y26286D01*
X45514Y26064D01*
X45356Y25791D01*
X45275Y25487D01*
Y25173D01*
X45356Y24869D01*
X45514Y24596D01*
X45736Y24374D01*
X46009Y24216D01*
X46313Y24135D01*
X46627D01*
X46931Y24216D01*
X47053Y24287D01*
X47163Y24223D01*
Y22902D01*
X47125Y22880D01*
X46920Y22675D01*
X46775Y22425D01*
X46700Y22145D01*
Y21855D01*
X46775Y21575D01*
X46920Y21325D01*
X47125Y21120D01*
X47375Y20975D01*
X47655Y20900D01*
X47945D01*
X48225Y20975D01*
X48475Y21120D01*
X48680Y21325D01*
X48825Y21575D01*
X48900Y21855D01*
Y22145D01*
X48825Y22425D01*
X48680Y22675D01*
X48475Y22880D01*
X48437Y22902D01*
Y24154D01*
X48490Y24184D01*
X48564Y24212D01*
X48853Y24135D01*
X49167D01*
X49471Y24216D01*
X49744Y24374D01*
X49966Y24596D01*
X50124Y24869D01*
X50205Y25173D01*
Y25487D01*
X50124Y25791D01*
X49966Y26064D01*
X49744Y26286D01*
X49471Y26444D01*
X49167Y26525D01*
X48853D01*
X48564Y26448D01*
X48490Y26476D01*
X48437Y26506D01*
Y26540D01*
X48389Y26784D01*
X48251Y26991D01*
X47636Y27605D01*
X47665Y27713D01*
Y28027D01*
X47584Y28331D01*
X47426Y28604D01*
X47204Y28826D01*
X46931Y28984D01*
X46627Y29065D01*
D02*
G37*
G36*
X56780Y26320D02*
Y25480D01*
X57620D01*
X57557Y25714D01*
X57426Y25941D01*
X57241Y26126D01*
X57014Y26257D01*
X56780Y26320D01*
D02*
G37*
G36*
X56480D02*
X56246Y26257D01*
X56019Y26126D01*
X55834Y25941D01*
X55703Y25714D01*
X55640Y25480D01*
X56480D01*
Y26320D01*
D02*
G37*
G36*
X39000D02*
Y25480D01*
X39840D01*
X39777Y25714D01*
X39646Y25941D01*
X39461Y26126D01*
X39234Y26257D01*
X39000Y26320D01*
D02*
G37*
G36*
X18680D02*
Y25480D01*
X19520D01*
X19457Y25714D01*
X19326Y25941D01*
X19141Y26126D01*
X18914Y26257D01*
X18680Y26320D01*
D02*
G37*
G36*
X18380D02*
X18146Y26257D01*
X17919Y26126D01*
X17734Y25941D01*
X17603Y25714D01*
X17540Y25480D01*
X18380D01*
Y26320D01*
D02*
G37*
G36*
X57620Y25180D02*
X56780D01*
Y24340D01*
X57014Y24403D01*
X57241Y24534D01*
X57426Y24719D01*
X57557Y24946D01*
X57620Y25180D01*
D02*
G37*
G36*
X56480D02*
X55640D01*
X55703Y24946D01*
X55834Y24719D01*
X56019Y24534D01*
X56246Y24403D01*
X56480Y24340D01*
Y25180D01*
D02*
G37*
G36*
X19520D02*
X18680D01*
Y24340D01*
X18914Y24403D01*
X19141Y24534D01*
X19326Y24719D01*
X19457Y24946D01*
X19520Y25180D01*
D02*
G37*
G36*
X18380D02*
X17540D01*
X17603Y24946D01*
X17734Y24719D01*
X17919Y24534D01*
X18146Y24403D01*
X18380Y24340D01*
Y25180D01*
D02*
G37*
G36*
X64000Y26550D02*
X61750D01*
Y24300D01*
X61836D01*
X62300Y24392D01*
X62737Y24573D01*
X63130Y24836D01*
X63464Y25170D01*
X63727Y25563D01*
X63908Y26000D01*
X64000Y26464D01*
Y26550D01*
D02*
G37*
G36*
X61450D02*
X59200D01*
Y26464D01*
X59292Y26000D01*
X59473Y25563D01*
X59736Y25170D01*
X60070Y24836D01*
X60463Y24573D01*
X60900Y24392D01*
X61364Y24300D01*
X61450D01*
Y26550D01*
D02*
G37*
G36*
X6000D02*
X3750D01*
Y24300D01*
X3836D01*
X4300Y24392D01*
X4737Y24573D01*
X5130Y24836D01*
X5464Y25170D01*
X5727Y25563D01*
X5908Y26000D01*
X6000Y26464D01*
Y26550D01*
D02*
G37*
G36*
X3450D02*
X1200D01*
Y26464D01*
X1292Y26000D01*
X1473Y25563D01*
X1736Y25170D01*
X2070Y24836D01*
X2463Y24573D01*
X2900Y24392D01*
X3364Y24300D01*
X3450D01*
Y26550D01*
D02*
G37*
G36*
X54247Y26525D02*
X53933D01*
X53629Y26444D01*
X53356Y26286D01*
X53134Y26064D01*
X52976Y25791D01*
X52895Y25487D01*
Y25173D01*
X52976Y24869D01*
X53134Y24596D01*
X53356Y24374D01*
X53629Y24216D01*
X53933Y24135D01*
X54247D01*
X54551Y24216D01*
X54824Y24374D01*
X55046Y24596D01*
X55204Y24869D01*
X55285Y25173D01*
Y25487D01*
X55204Y25791D01*
X55046Y26064D01*
X54824Y26286D01*
X54551Y26444D01*
X54247Y26525D01*
D02*
G37*
G36*
X51707D02*
X51393D01*
X51089Y26444D01*
X50816Y26286D01*
X50594Y26064D01*
X50436Y25791D01*
X50355Y25487D01*
Y25173D01*
X50436Y24869D01*
X50594Y24596D01*
X50816Y24374D01*
X51089Y24216D01*
X51393Y24135D01*
X51707D01*
X52011Y24216D01*
X52284Y24374D01*
X52506Y24596D01*
X52664Y24869D01*
X52745Y25173D01*
Y25487D01*
X52664Y25791D01*
X52506Y26064D01*
X52284Y26286D01*
X52011Y26444D01*
X51707Y26525D01*
D02*
G37*
G36*
X44087D02*
X43773D01*
X43469Y26444D01*
X43196Y26286D01*
X42974Y26064D01*
X42816Y25791D01*
X42735Y25487D01*
Y25173D01*
X42816Y24869D01*
X42974Y24596D01*
X43196Y24374D01*
X43469Y24216D01*
X43773Y24135D01*
X44087D01*
X44391Y24216D01*
X44664Y24374D01*
X44886Y24596D01*
X45044Y24869D01*
X45125Y25173D01*
Y25487D01*
X45044Y25791D01*
X44886Y26064D01*
X44664Y26286D01*
X44391Y26444D01*
X44087Y26525D01*
D02*
G37*
G36*
X41547D02*
X41233D01*
X40929Y26444D01*
X40656Y26286D01*
X40434Y26064D01*
X40276Y25791D01*
X40195Y25487D01*
Y25173D01*
X40276Y24869D01*
X40434Y24596D01*
X40656Y24374D01*
X40929Y24216D01*
X41233Y24135D01*
X41547D01*
X41851Y24216D01*
X42124Y24374D01*
X42346Y24596D01*
X42504Y24869D01*
X42585Y25173D01*
Y25487D01*
X42504Y25791D01*
X42346Y26064D01*
X42124Y26286D01*
X41851Y26444D01*
X41547Y26525D01*
D02*
G37*
G36*
X28847D02*
X28533D01*
X28229Y26444D01*
X27956Y26286D01*
X27734Y26064D01*
X27576Y25791D01*
X27495Y25487D01*
Y25173D01*
X27576Y24869D01*
X27734Y24596D01*
X27956Y24374D01*
X28229Y24216D01*
X28533Y24135D01*
X28847D01*
X29151Y24216D01*
X29424Y24374D01*
X29646Y24596D01*
X29804Y24869D01*
X29885Y25173D01*
Y25487D01*
X29804Y25791D01*
X29646Y26064D01*
X29424Y26286D01*
X29151Y26444D01*
X28847Y26525D01*
D02*
G37*
G36*
X26307D02*
X25993D01*
X25689Y26444D01*
X25416Y26286D01*
X25194Y26064D01*
X25036Y25791D01*
X24955Y25487D01*
Y25173D01*
X25036Y24869D01*
X25194Y24596D01*
X25416Y24374D01*
X25689Y24216D01*
X25993Y24135D01*
X26307D01*
X26611Y24216D01*
X26884Y24374D01*
X27106Y24596D01*
X27264Y24869D01*
X27345Y25173D01*
Y25487D01*
X27264Y25791D01*
X27106Y26064D01*
X26884Y26286D01*
X26611Y26444D01*
X26307Y26525D01*
D02*
G37*
G36*
X23767D02*
X23453D01*
X23149Y26444D01*
X22876Y26286D01*
X22654Y26064D01*
X22496Y25791D01*
X22415Y25487D01*
Y25173D01*
X22496Y24869D01*
X22654Y24596D01*
X22876Y24374D01*
X23149Y24216D01*
X23453Y24135D01*
X23767D01*
X24071Y24216D01*
X24344Y24374D01*
X24566Y24596D01*
X24724Y24869D01*
X24805Y25173D01*
Y25487D01*
X24724Y25791D01*
X24566Y26064D01*
X24344Y26286D01*
X24071Y26444D01*
X23767Y26525D01*
D02*
G37*
G36*
X21227D02*
X20913D01*
X20609Y26444D01*
X20336Y26286D01*
X20114Y26064D01*
X19956Y25791D01*
X19875Y25487D01*
Y25173D01*
X19956Y24869D01*
X20114Y24596D01*
X20336Y24374D01*
X20609Y24216D01*
X20913Y24135D01*
X21227D01*
X21531Y24216D01*
X21804Y24374D01*
X22026Y24596D01*
X22184Y24869D01*
X22265Y25173D01*
Y25487D01*
X22184Y25791D01*
X22026Y26064D01*
X21804Y26286D01*
X21531Y26444D01*
X21227Y26525D01*
D02*
G37*
G36*
X16147D02*
X15833D01*
X15529Y26444D01*
X15256Y26286D01*
X15034Y26064D01*
X14876Y25791D01*
X14795Y25487D01*
Y25173D01*
X14876Y24869D01*
X15034Y24596D01*
X15256Y24374D01*
X15529Y24216D01*
X15833Y24135D01*
X16147D01*
X16451Y24216D01*
X16724Y24374D01*
X16946Y24596D01*
X17104Y24869D01*
X17185Y25173D01*
Y25487D01*
X17104Y25791D01*
X16946Y26064D01*
X16724Y26286D01*
X16451Y26444D01*
X16147Y26525D01*
D02*
G37*
G36*
X13607D02*
X13293D01*
X12989Y26444D01*
X12716Y26286D01*
X12494Y26064D01*
X12336Y25791D01*
X12255Y25487D01*
Y25173D01*
X12336Y24869D01*
X12494Y24596D01*
X12716Y24374D01*
X12989Y24216D01*
X13293Y24135D01*
X13607D01*
X13911Y24216D01*
X14184Y24374D01*
X14406Y24596D01*
X14564Y24869D01*
X14645Y25173D01*
Y25487D01*
X14564Y25791D01*
X14406Y26064D01*
X14184Y26286D01*
X13911Y26444D01*
X13607Y26525D01*
D02*
G37*
G36*
X15350Y21800D02*
X14450D01*
Y21000D01*
X15350D01*
Y21800D01*
D02*
G37*
G36*
X14150D02*
X13250D01*
Y21000D01*
X14150D01*
Y21800D01*
D02*
G37*
G36*
X6453Y21350D02*
X6450D01*
Y19950D01*
X7850D01*
Y19953D01*
X7790Y20252D01*
X7674Y20534D01*
X7504Y20788D01*
X7288Y21004D01*
X7034Y21174D01*
X6752Y21290D01*
X6453Y21350D01*
D02*
G37*
G36*
X6150D02*
X6147D01*
X5848Y21290D01*
X5566Y21174D01*
X5312Y21004D01*
X5096Y20788D01*
X4926Y20534D01*
X4810Y20252D01*
X4750Y19953D01*
Y19950D01*
X6150D01*
Y21350D01*
D02*
G37*
G36*
X7850Y19650D02*
X6450D01*
Y18250D01*
X6453D01*
X6752Y18310D01*
X7034Y18426D01*
X7288Y18596D01*
X7504Y18812D01*
X7674Y19066D01*
X7790Y19348D01*
X7850Y19647D01*
Y19650D01*
D02*
G37*
G36*
X6150D02*
X4750D01*
Y19647D01*
X4810Y19348D01*
X4926Y19066D01*
X5096Y18812D01*
X5312Y18596D01*
X5566Y18426D01*
X5848Y18310D01*
X6147Y18250D01*
X6150D01*
Y19650D01*
D02*
G37*
G36*
X14150Y14600D02*
X13250D01*
Y13800D01*
X14150D01*
Y14600D01*
D02*
G37*
G36*
X51670Y10827D02*
Y9930D01*
X52567D01*
X52498Y10185D01*
X52360Y10425D01*
X52165Y10620D01*
X51925Y10758D01*
X51670Y10827D01*
D02*
G37*
G36*
X51370D02*
X51115Y10758D01*
X50875Y10620D01*
X50680Y10425D01*
X50542Y10185D01*
X50473Y9930D01*
X51370D01*
Y10827D01*
D02*
G37*
G36*
Y9630D02*
X50473D01*
X50542Y9375D01*
X50680Y9135D01*
X50875Y8940D01*
X51115Y8802D01*
X51370Y8733D01*
Y9630D01*
D02*
G37*
G36*
X52567D02*
X51670D01*
Y8733D01*
X51925Y8802D01*
X52165Y8940D01*
X52360Y9135D01*
X52498Y9375D01*
X52567Y9630D01*
D02*
G37*
G36*
X24260Y9577D02*
Y8680D01*
X25157D01*
X25088Y8935D01*
X24950Y9175D01*
X24755Y9370D01*
X24515Y9508D01*
X24260Y9577D01*
D02*
G37*
G36*
X23960D02*
X23705Y9508D01*
X23465Y9370D01*
X23270Y9175D01*
X23132Y8935D01*
X23063Y8680D01*
X23960D01*
Y9577D01*
D02*
G37*
G36*
X22600Y8900D02*
X22050D01*
Y8350D01*
X22600D01*
Y8900D01*
D02*
G37*
G36*
X21750D02*
X21200D01*
Y8350D01*
X21750D01*
Y8900D01*
D02*
G37*
G36*
X19500Y8750D02*
X18950D01*
Y8200D01*
X19500D01*
Y8750D01*
D02*
G37*
G36*
X18650D02*
X18100D01*
Y8200D01*
X18650D01*
Y8750D01*
D02*
G37*
G36*
X25157Y8380D02*
X24260D01*
Y7483D01*
X24515Y7552D01*
X24755Y7690D01*
X24950Y7885D01*
X25088Y8125D01*
X25157Y8380D01*
D02*
G37*
G36*
X23960D02*
X23063D01*
X23132Y8125D01*
X23270Y7885D01*
X23465Y7690D01*
X23705Y7552D01*
X23960Y7483D01*
Y8380D01*
D02*
G37*
G36*
X6472Y16550D02*
X6128D01*
X5790Y16483D01*
X5471Y16351D01*
X5184Y16159D01*
X4941Y15916D01*
X4749Y15629D01*
X4617Y15310D01*
X4550Y14972D01*
Y14628D01*
X4617Y14290D01*
X4749Y13971D01*
X4941Y13684D01*
X5184Y13441D01*
X5471Y13249D01*
X5697Y13156D01*
X5735Y12966D01*
X5867Y12767D01*
X6335Y12300D01*
X5867Y11833D01*
X5735Y11634D01*
X5697Y11444D01*
X5471Y11351D01*
X5184Y11159D01*
X4941Y10916D01*
X4749Y10629D01*
X4617Y10310D01*
X4550Y9972D01*
Y9628D01*
X4617Y9290D01*
X4749Y8971D01*
X4941Y8684D01*
X5184Y8441D01*
X5471Y8249D01*
X5790Y8117D01*
X6128Y8050D01*
X6472D01*
X6810Y8117D01*
X7129Y8249D01*
X7416Y8441D01*
X7659Y8684D01*
X7851Y8971D01*
X7983Y9290D01*
X8050Y9628D01*
Y9972D01*
X7983Y10310D01*
X7851Y10629D01*
X7659Y10916D01*
X7416Y11159D01*
X7259Y11264D01*
X7244Y11401D01*
X7324Y11488D01*
X8581D01*
X10902Y9167D01*
X11100Y9035D01*
X11334Y8988D01*
X11488D01*
Y8900D01*
X11500Y8841D01*
Y7200D01*
X14300D01*
Y8841D01*
X14312Y8900D01*
Y8988D01*
X15214D01*
X15292Y8887D01*
X15240Y8695D01*
Y8365D01*
X15325Y8048D01*
X15490Y7762D01*
X15722Y7530D01*
X16008Y7365D01*
X16155Y7326D01*
Y7194D01*
X16008Y7155D01*
X15722Y6990D01*
X15490Y6758D01*
X15325Y6472D01*
X15240Y6155D01*
Y5825D01*
X15325Y5508D01*
X15490Y5222D01*
X15722Y4990D01*
X16008Y4825D01*
X16325Y4740D01*
X16655D01*
X16972Y4825D01*
X17258Y4990D01*
X17490Y5222D01*
X17565Y5353D01*
X18240D01*
X18484Y5401D01*
X18691Y5539D01*
X18801Y5650D01*
X19700D01*
Y7450D01*
X19500D01*
Y7900D01*
X18800D01*
X18100D01*
Y7450D01*
X17900D01*
Y6627D01*
X17565D01*
X17490Y6758D01*
X17258Y6990D01*
X16972Y7155D01*
X16825Y7194D01*
Y7326D01*
X16972Y7365D01*
X17258Y7530D01*
X17490Y7762D01*
X17655Y8048D01*
X17740Y8365D01*
Y8695D01*
X17655Y9012D01*
X17490Y9298D01*
X17258Y9530D01*
X17071Y9638D01*
X17055Y9717D01*
X17000Y9800D01*
X17055Y9883D01*
X17071Y9962D01*
X17258Y10070D01*
X17490Y10302D01*
X17655Y10588D01*
X17740Y10905D01*
Y11235D01*
X17655Y11552D01*
X17490Y11838D01*
X17258Y12070D01*
X16972Y12235D01*
X16825Y12274D01*
Y12406D01*
X16972Y12445D01*
X17258Y12610D01*
X17490Y12842D01*
X17655Y13128D01*
X17740Y13445D01*
Y13775D01*
X17655Y14092D01*
X17490Y14378D01*
X17258Y14610D01*
X16972Y14775D01*
X16655Y14860D01*
X16325D01*
X16008Y14775D01*
X15722Y14610D01*
X15490Y14378D01*
X15473Y14348D01*
X15350Y14381D01*
Y14600D01*
X14450D01*
Y13800D01*
X15220D01*
X15240Y13775D01*
Y13445D01*
X15325Y13128D01*
X15490Y12842D01*
X15722Y12610D01*
X16008Y12445D01*
X16155Y12406D01*
Y12274D01*
X16008Y12235D01*
X15722Y12070D01*
X15490Y11838D01*
X15325Y11552D01*
X15240Y11235D01*
Y10905D01*
X15292Y10713D01*
X15214Y10612D01*
X14312D01*
Y10700D01*
X14300Y10759D01*
Y12400D01*
X11500D01*
Y11031D01*
X11383Y10982D01*
X9433Y12933D01*
X9234Y13065D01*
X9000Y13112D01*
X7324D01*
X7244Y13199D01*
X7259Y13336D01*
X7416Y13441D01*
X7659Y13684D01*
X7851Y13971D01*
X7983Y14290D01*
X8050Y14628D01*
Y14972D01*
X7983Y15310D01*
X7851Y15629D01*
X7659Y15916D01*
X7416Y16159D01*
X7129Y16351D01*
X6810Y16483D01*
X6472Y16550D01*
D02*
G37*
G36*
X61836Y6100D02*
X61750D01*
Y3850D01*
X64000D01*
Y3936D01*
X63908Y4400D01*
X63727Y4837D01*
X63464Y5230D01*
X63130Y5564D01*
X62737Y5827D01*
X62300Y6008D01*
X61836Y6100D01*
D02*
G37*
G36*
X61450D02*
X61364D01*
X60900Y6008D01*
X60463Y5827D01*
X60070Y5564D01*
X59736Y5230D01*
X59473Y4837D01*
X59292Y4400D01*
X59200Y3936D01*
Y3850D01*
X61450D01*
Y6100D01*
D02*
G37*
G36*
X3836D02*
X3750D01*
Y3850D01*
X6000D01*
Y3936D01*
X5908Y4400D01*
X5727Y4837D01*
X5464Y5230D01*
X5130Y5564D01*
X4737Y5827D01*
X4300Y6008D01*
X3836Y6100D01*
D02*
G37*
G36*
X3450D02*
X3364D01*
X2900Y6008D01*
X2463Y5827D01*
X2070Y5564D01*
X1736Y5230D01*
X1473Y4837D01*
X1292Y4400D01*
X1200Y3936D01*
Y3850D01*
X3450D01*
Y6100D01*
D02*
G37*
G36*
X51950Y4100D02*
X51400D01*
Y3550D01*
X51950D01*
Y4100D01*
D02*
G37*
G36*
X43400D02*
X42850D01*
Y3550D01*
X43400D01*
Y4100D01*
D02*
G37*
G36*
X51950Y3250D02*
X51400D01*
Y2700D01*
X51950D01*
Y3250D01*
D02*
G37*
G36*
X43400D02*
X42850D01*
Y2700D01*
X43400D01*
Y3250D01*
D02*
G37*
G36*
X64000Y3550D02*
X61750D01*
Y1300D01*
X61836D01*
X62300Y1392D01*
X62737Y1573D01*
X63130Y1836D01*
X63464Y2170D01*
X63727Y2563D01*
X63908Y3000D01*
X64000Y3464D01*
Y3550D01*
D02*
G37*
G36*
X61450D02*
X59200D01*
Y3464D01*
X59292Y3000D01*
X59473Y2563D01*
X59736Y2170D01*
X60070Y1836D01*
X60463Y1573D01*
X60900Y1392D01*
X61364Y1300D01*
X61450D01*
Y3550D01*
D02*
G37*
G36*
X6000D02*
X3750D01*
Y1300D01*
X3836D01*
X4300Y1392D01*
X4737Y1573D01*
X5130Y1836D01*
X5464Y2170D01*
X5727Y2563D01*
X5908Y3000D01*
X6000Y3464D01*
Y3550D01*
D02*
G37*
G36*
X3450D02*
X1200D01*
Y3464D01*
X1292Y3000D01*
X1473Y2563D01*
X1736Y2170D01*
X2070Y1836D01*
X2463Y1573D01*
X2900Y1392D01*
X3364Y1300D01*
X3450D01*
Y3550D01*
D02*
G37*
%LPD*%
D10*
X6300Y13200D02*
X7000Y12500D01*
X9000D01*
X6300Y13200D02*
Y14800D01*
X7000Y12100D02*
X8834D01*
X6300Y9800D02*
Y11400D01*
X7000Y12100D01*
X9000Y12500D02*
X11500Y10000D01*
X8834Y12100D02*
X11334Y9600D01*
X11983D01*
X11500Y10000D02*
X11983D01*
Y9600D02*
X12100Y9483D01*
X12650Y11250D02*
X12900D01*
X12100Y10700D02*
X12650Y11250D01*
Y8350D02*
X12900D01*
X12100Y8900D02*
Y9483D01*
Y10117D02*
Y10700D01*
X11983Y10000D02*
X12100Y10117D01*
Y8900D02*
X12650Y8350D01*
X12900D02*
X13150D01*
X13700Y8900D01*
Y9300D01*
X14000Y9600D01*
X12900Y11250D02*
X13150D01*
X13700Y10700D01*
Y10300D02*
Y10700D01*
Y10300D02*
X14000Y10000D01*
Y9600D02*
X16373D01*
X14000Y10000D02*
X16373D01*
X16490Y8530D02*
Y9483D01*
X16373Y9600D02*
X16490Y9483D01*
Y10117D02*
Y11070D01*
X16373Y10000D02*
X16490Y10117D01*
D11*
X25690Y13610D02*
X26526Y12774D01*
X31074D02*
X31800Y13500D01*
X26526Y12774D02*
X31074D01*
X33300Y10558D02*
X33740Y10118D01*
Y9780D02*
Y10118D01*
X33300Y10558D02*
Y11750D01*
Y13500D01*
X36310Y25160D02*
X43900Y17570D01*
X36310Y25160D02*
Y25330D01*
X43900Y17400D02*
Y17570D01*
X30150Y15300D02*
X31850D01*
X30100Y15350D02*
X30150Y15300D01*
X24110Y5990D02*
X27410D01*
X31200Y9780D01*
X24110Y13610D02*
X25690D01*
X37607Y25018D02*
X40324Y22300D01*
X42700D01*
X37607Y25018D02*
Y26093D01*
X37103Y26597D02*
X37607Y26093D01*
X35043Y26597D02*
X37103D01*
X33770Y27870D02*
X35043Y26597D01*
X31230Y23470D02*
Y25330D01*
Y23470D02*
X32800Y21900D01*
X36860D01*
X41360Y17400D01*
X42700Y22300D02*
X46440Y18560D01*
Y17400D02*
Y18560D01*
X47800Y22000D02*
Y26540D01*
X46470Y27870D02*
X47800Y26540D01*
X33350Y15300D02*
X33625Y15575D01*
Y17285D01*
X33740Y17400D01*
X48980Y6360D02*
Y9780D01*
Y6360D02*
X49940Y5400D01*
Y3590D02*
Y5400D01*
X49750Y3400D02*
X49940Y3590D01*
X46440Y6780D02*
Y9780D01*
X45060Y5400D02*
X46440Y6780D01*
X45050Y3400D02*
Y5390D01*
X45060Y5400D01*
X18240Y5990D02*
X18800Y6550D01*
X16490Y5990D02*
X18240D01*
D14*
X20700Y17409D02*
X21704Y16406D01*
X30100Y16300D02*
X31200Y17400D01*
X21704Y16406D02*
X27516D01*
X30100Y15350D02*
Y16300D01*
X28571Y15350D02*
X30100D01*
X27516Y16406D02*
X28571Y15350D01*
X21900Y10550D02*
X22420Y11070D01*
X24110D01*
X0Y3700D02*
G03*
X3700Y0I3700J0D01*
G01*
Y30400D02*
G03*
X0Y26700I0J-3700D01*
G01*
X65200D02*
G03*
X61500Y30400I-3700J0D01*
G01*
Y0D02*
G03*
X65200Y3700I0J3700D01*
G01*
X0D02*
G03*
X3700Y0I3700J0D01*
G01*
X61500D02*
G03*
X65200Y3700I0J3700D01*
G01*
Y26700D02*
G03*
X61500Y30400I-3700J0D01*
G01*
X3700D02*
G03*
X0Y26700I0J-3700D01*
G01*
Y3700D02*
G03*
X3700Y0I3700J0D01*
G01*
X0Y3700D02*
G03*
X3700Y0I3700J0D01*
G01*
X61500D02*
G03*
X65200Y3700I0J3700D01*
G01*
X61500Y0D02*
G03*
X65200Y3700I0J3700D01*
G01*
Y26700D02*
G03*
X61500Y30400I-3700J0D01*
G01*
X65200Y26700D02*
G03*
X61500Y30400I-3700J0D01*
G01*
X3700D02*
G03*
X0Y26700I0J-3700D01*
G01*
X3700Y30400D02*
G03*
X0Y26700I0J-3700D01*
G01*
Y3700D02*
Y26700D01*
X3700Y30400D02*
X61500D01*
X65200Y3700D02*
Y26700D01*
X3700Y0D02*
X61500D01*
X3700D02*
X61500D01*
X65200Y3700D02*
Y26700D01*
X3700Y30400D02*
X61500D01*
X0Y3700D02*
Y26700D01*
X3700Y0D02*
X61500D01*
X3700D02*
X61500D01*
X65200Y3700D02*
Y26700D01*
Y3700D02*
Y26700D01*
X3700Y30400D02*
X61500D01*
X3700D02*
X61500D01*
X0Y3700D02*
Y26700D01*
Y3700D02*
Y26700D01*
D17*
X36310Y25330D02*
D03*
X8370D02*
D03*
X49010Y27870D02*
D03*
X43930D02*
D03*
X56630Y25330D02*
D03*
X38850D02*
D03*
X23610Y27870D02*
D03*
X31230D02*
D03*
X18530Y25330D02*
D03*
X13450Y27870D02*
D03*
X10910Y25330D02*
D03*
X13450D02*
D03*
X15990D02*
D03*
X21070D02*
D03*
X23610D02*
D03*
X26150D02*
D03*
X28690D02*
D03*
X31230D02*
D03*
X33770D02*
D03*
X41390D02*
D03*
X43930D02*
D03*
X46470D02*
D03*
X49010D02*
D03*
X51550D02*
D03*
X54090D02*
D03*
X10910Y27870D02*
D03*
X15990D02*
D03*
X18530D02*
D03*
X21070D02*
D03*
X26150D02*
D03*
X28690D02*
D03*
X33770D02*
D03*
X36310D02*
D03*
X38850D02*
D03*
X41390D02*
D03*
X46470D02*
D03*
X51550D02*
D03*
X54090D02*
D03*
X56630D02*
D03*
D22*
X8370D02*
D03*
D23*
X49940Y5400D02*
D03*
D24*
X45060D02*
D03*
D25*
X20662Y18362D02*
X20700Y18400D01*
X20662Y17162D02*
Y18362D01*
X11900Y17400D02*
X12500Y16800D01*
X20100Y16600D02*
X20662Y17162D01*
X14350Y16600D02*
X20100D01*
X14300Y16650D02*
X14350Y16600D01*
X14150Y16800D02*
X14300Y16650D01*
X12500Y16800D02*
X14150D01*
X14275Y14725D02*
X14300Y14750D01*
X4400Y19800D02*
X6300D01*
X3600Y20600D02*
Y26700D01*
Y20600D02*
X4400Y19800D01*
X11876Y29400D02*
X13406Y27870D01*
X6300Y29400D02*
X11876D01*
X13406Y27870D02*
X13450D01*
X3600Y26700D02*
X6300Y29400D01*
Y19800D02*
X6325Y19825D01*
X8370Y27870D02*
X10910D01*
D27*
X31200Y9780D02*
D03*
D28*
X33740D02*
D03*
X36280D02*
D03*
X38820D02*
D03*
X41360D02*
D03*
X43900D02*
D03*
X46440D02*
D03*
X48980D02*
D03*
X51520D02*
D03*
X31200Y17400D02*
D03*
X33740D02*
D03*
X36280D02*
D03*
X38820D02*
D03*
X41360D02*
D03*
X43900D02*
D03*
X46440D02*
D03*
X48980D02*
D03*
X51520D02*
D03*
X24110Y13610D02*
D03*
Y8530D02*
D03*
Y11070D02*
D03*
X16490Y5990D02*
D03*
Y8530D02*
D03*
Y11070D02*
D03*
Y13610D02*
D03*
D29*
X20700Y18400D02*
D03*
X18700D02*
D03*
X22700D02*
D03*
X16700Y20400D02*
D03*
X22700D02*
D03*
X20700D02*
D03*
X16700Y18400D02*
D03*
X18700Y20400D02*
D03*
X47800Y22000D02*
D03*
D30*
X24110Y5990D02*
D03*
D31*
X3600Y3700D02*
D03*
X61600D02*
D03*
Y26700D02*
D03*
X3600D02*
D03*
D32*
X6300Y19800D02*
D03*
Y14800D02*
D03*
Y9800D02*
D03*
D33*
X33300Y11750D02*
D03*
X31800D02*
D03*
X33300Y13500D02*
D03*
X31800D02*
D03*
X31850Y15300D02*
D03*
X33350D02*
D03*
X43550Y3400D02*
D03*
X51250D02*
D03*
X49750D02*
D03*
X45050D02*
D03*
D34*
X30100Y15350D02*
D03*
Y13850D02*
D03*
X21900Y9050D02*
D03*
X18800Y8050D02*
D03*
Y6550D02*
D03*
X21900Y10550D02*
D03*
D35*
X14300Y16650D02*
D03*
Y14750D02*
D03*
Y20850D02*
D03*
Y18950D02*
D03*
D36*
X12900Y8350D02*
D03*
Y11250D02*
D03*
D37*
X10300Y19000D02*
Y21400D01*
Y19000D02*
X11900Y17400D01*
X8370Y23330D02*
Y25330D01*
Y23330D02*
X10300Y21400D01*
D38*
X14900Y18450D02*
X16650D01*
X14300Y18950D02*
X14400D01*
X16650Y18450D02*
X16700Y18400D01*
X14400Y18950D02*
X14900Y18450D01*
M02*
