G04*
G04 #@! TF.GenerationSoftware,Altium Limited,Altium Designer,25.5.2 (35)*
G04*
G04 Layer_Color=8388736*
%FSLAX43Y43*%
%MOMM*%
G71*
G04*
G04 #@! TF.SameCoordinates,00E1866A-524C-438D-B9AB-9AB39CCCA5DC*
G04*
G04*
G04 #@! TF.FilePolarity,Negative*
G04*
G01*
G75*
%ADD14C,0.500*%
%ADD15R,1.700X1.700*%
%ADD16C,1.700*%
%ADD17C,1.390*%
%ADD18C,1.400*%
%ADD19R,1.700X1.700*%
%ADD20C,4.400*%
%ADD21C,2.700*%
%ADD22R,1.390X1.390*%
%ADD23C,1.100*%
%ADD24R,1.100X1.100*%
D14*
X0Y3700D02*
G03*
X3700Y0I3700J0D01*
G01*
Y30400D02*
G03*
X0Y26700I0J-3700D01*
G01*
X65200D02*
G03*
X61500Y30400I-3700J0D01*
G01*
Y0D02*
G03*
X65200Y3700I0J3700D01*
G01*
X0D02*
G03*
X3700Y0I3700J0D01*
G01*
X61500D02*
G03*
X65200Y3700I0J3700D01*
G01*
Y26700D02*
G03*
X61500Y30400I-3700J0D01*
G01*
X3700D02*
G03*
X0Y26700I0J-3700D01*
G01*
Y3700D02*
G03*
X3700Y0I3700J0D01*
G01*
X0Y3700D02*
G03*
X3700Y0I3700J0D01*
G01*
X61500D02*
G03*
X65200Y3700I0J3700D01*
G01*
X61500Y0D02*
G03*
X65200Y3700I0J3700D01*
G01*
Y26700D02*
G03*
X61500Y30400I-3700J0D01*
G01*
X65200Y26700D02*
G03*
X61500Y30400I-3700J0D01*
G01*
X3700D02*
G03*
X0Y26700I0J-3700D01*
G01*
X3700Y30400D02*
G03*
X0Y26700I0J-3700D01*
G01*
Y3700D02*
Y26700D01*
X3700Y30400D02*
X61500D01*
X65200Y3700D02*
Y26700D01*
X3700Y0D02*
X61500D01*
X3700D02*
X61500D01*
X65200Y3700D02*
Y26700D01*
X3700Y30400D02*
X61500D01*
X0Y3700D02*
Y26700D01*
X3700Y0D02*
X61500D01*
X3700D02*
X61500D01*
X65200Y3700D02*
Y26700D01*
Y3700D02*
Y26700D01*
X3700Y30400D02*
X61500D01*
X3700D02*
X61500D01*
X0Y3700D02*
Y26700D01*
Y3700D02*
Y26700D01*
D15*
X31200Y9780D02*
D03*
D16*
X33740D02*
D03*
X36280D02*
D03*
X38820D02*
D03*
X41360D02*
D03*
X43900D02*
D03*
X46440D02*
D03*
X48980D02*
D03*
X51520D02*
D03*
X31200Y17400D02*
D03*
X33740D02*
D03*
X36280D02*
D03*
X38820D02*
D03*
X41360D02*
D03*
X43900D02*
D03*
X46440D02*
D03*
X48980D02*
D03*
X51520D02*
D03*
X24110Y13610D02*
D03*
Y8530D02*
D03*
Y11070D02*
D03*
X16490Y5990D02*
D03*
Y8530D02*
D03*
Y11070D02*
D03*
Y13610D02*
D03*
D17*
X36310Y25330D02*
D03*
X8370D02*
D03*
X49010Y27870D02*
D03*
X43930D02*
D03*
X56630Y25330D02*
D03*
X38850D02*
D03*
X23610Y27870D02*
D03*
X31230D02*
D03*
X18530Y25330D02*
D03*
X13450Y27870D02*
D03*
X10910Y25330D02*
D03*
X13450D02*
D03*
X15990D02*
D03*
X21070D02*
D03*
X23610D02*
D03*
X26150D02*
D03*
X28690D02*
D03*
X31230D02*
D03*
X33770D02*
D03*
X41390D02*
D03*
X43930D02*
D03*
X46470D02*
D03*
X49010D02*
D03*
X51550D02*
D03*
X54090D02*
D03*
X10910Y27870D02*
D03*
X15990D02*
D03*
X18530D02*
D03*
X21070D02*
D03*
X26150D02*
D03*
X28690D02*
D03*
X33770D02*
D03*
X36310D02*
D03*
X38850D02*
D03*
X41390D02*
D03*
X46470D02*
D03*
X51550D02*
D03*
X54090D02*
D03*
X56630D02*
D03*
D18*
X20700Y18400D02*
D03*
X18700D02*
D03*
X22700D02*
D03*
X16700Y20400D02*
D03*
X22700D02*
D03*
X20700D02*
D03*
X16700Y18400D02*
D03*
X18700Y20400D02*
D03*
X47800Y22000D02*
D03*
D19*
X24110Y5990D02*
D03*
D20*
X3600Y3700D02*
D03*
X61600D02*
D03*
Y26700D02*
D03*
X3600D02*
D03*
D21*
X6300Y19800D02*
D03*
Y14800D02*
D03*
Y9800D02*
D03*
D22*
X8370Y27870D02*
D03*
D23*
X49940Y5400D02*
D03*
D24*
X45060D02*
D03*
M02*
