G04*
G04 #@! TF.GenerationSoftware,Altium Limited,Altium Designer,25.5.2 (35)*
G04*
G04 Layer_Color=32896*
%FSLAX43Y43*%
%MOMM*%
G71*
G04*
G04 #@! TF.SameCoordinates,CFA53FE8-2CEA-4254-AB80-7BFC7C870A83*
G04*
G04*
G04 #@! TF.FilePolarity,Positive*
G04*
G01*
G75*
%ADD10C,0.250*%
%ADD13C,0.200*%
%ADD14C,0.150*%
%ADD15C,0.500*%
G36*
X27674Y9220D02*
X27546D01*
Y9646D01*
X27383D01*
X27367Y9645D01*
X27356D01*
X27347Y9643D01*
X27340Y9642D01*
X27334D01*
X27331Y9640D01*
X27330D01*
X27308Y9633D01*
X27298Y9629D01*
X27290Y9625D01*
X27281Y9621D01*
X27276Y9618D01*
X27273Y9617D01*
X27272Y9615D01*
X27261Y9607D01*
X27249Y9597D01*
X27229Y9577D01*
X27219Y9567D01*
X27212Y9559D01*
X27208Y9553D01*
X27206Y9552D01*
X27193Y9532D01*
X27177Y9511D01*
X27162Y9489D01*
X27147Y9468D01*
X27134Y9449D01*
X27125Y9434D01*
X27121Y9428D01*
X27118Y9424D01*
X27115Y9421D01*
Y9420D01*
X26989Y9220D01*
X26831D01*
X26996Y9481D01*
X27015Y9509D01*
X27033Y9534D01*
X27051Y9554D01*
X27066Y9574D01*
X27080Y9588D01*
X27091Y9599D01*
X27098Y9606D01*
X27101Y9608D01*
X27112Y9617D01*
X27125Y9627D01*
X27150Y9642D01*
X27161Y9647D01*
X27169Y9653D01*
X27175Y9656D01*
X27177Y9657D01*
X27152Y9661D01*
X27129Y9665D01*
X27108Y9672D01*
X27087Y9678D01*
X27069Y9685D01*
X27053Y9693D01*
X27037Y9700D01*
X27023Y9707D01*
X27012Y9715D01*
X27001Y9722D01*
X26993Y9728D01*
X26986Y9733D01*
X26980Y9737D01*
X26976Y9742D01*
X26975Y9743D01*
X26973Y9744D01*
X26962Y9758D01*
X26951Y9772D01*
X26935Y9801D01*
X26924Y9830D01*
X26915Y9858D01*
X26910Y9882D01*
X26908Y9891D01*
Y9901D01*
X26907Y9908D01*
Y9914D01*
Y9916D01*
Y9918D01*
X26908Y9947D01*
X26912Y9973D01*
X26919Y9998D01*
X26926Y10019D01*
X26935Y10037D01*
X26940Y10051D01*
X26946Y10059D01*
X26947Y10061D01*
Y10062D01*
X26964Y10084D01*
X26980Y10104D01*
X26998Y10120D01*
X27015Y10133D01*
X27030Y10142D01*
X27043Y10148D01*
X27051Y10152D01*
X27053Y10153D01*
X27054D01*
X27066Y10158D01*
X27082Y10162D01*
X27112Y10169D01*
X27145Y10173D01*
X27176Y10177D01*
X27205Y10178D01*
X27218D01*
X27229Y10180D01*
X27674D01*
Y9220D01*
D02*
G37*
G36*
X26747Y10054D02*
X26277D01*
X26311Y10013D01*
X26342Y9970D01*
X26370Y9929D01*
X26397Y9889D01*
X26408Y9871D01*
X26417Y9854D01*
X26427Y9839D01*
X26434Y9826D01*
X26440Y9815D01*
X26444Y9808D01*
X26447Y9803D01*
X26448Y9801D01*
X26476Y9746D01*
X26501Y9690D01*
X26521Y9638D01*
X26530Y9614D01*
X26538Y9590D01*
X26546Y9570D01*
X26552Y9550D01*
X26557Y9534D01*
X26562Y9520D01*
X26566Y9507D01*
X26569Y9499D01*
X26570Y9493D01*
Y9492D01*
X26584Y9435D01*
X26589Y9407D01*
X26594Y9382D01*
X26598Y9359D01*
X26602Y9335D01*
X26605Y9316D01*
X26607Y9296D01*
X26609Y9280D01*
X26610Y9265D01*
X26612Y9251D01*
Y9240D01*
X26613Y9231D01*
Y9226D01*
Y9222D01*
Y9220D01*
X26492D01*
X26488Y9273D01*
X26481Y9321D01*
X26474Y9366D01*
X26470Y9387D01*
X26466Y9406D01*
X26463Y9423D01*
X26459Y9438D01*
X26456Y9452D01*
X26453Y9463D01*
X26451Y9471D01*
X26449Y9478D01*
X26448Y9482D01*
Y9484D01*
X26427Y9547D01*
X26405Y9607D01*
X26394Y9636D01*
X26383Y9664D01*
X26370Y9689D01*
X26359Y9714D01*
X26349Y9736D01*
X26340Y9755D01*
X26331Y9772D01*
X26324Y9787D01*
X26318Y9800D01*
X26313Y9808D01*
X26311Y9814D01*
X26309Y9815D01*
X26293Y9844D01*
X26276Y9873D01*
X26259Y9900D01*
X26243Y9925D01*
X26227Y9947D01*
X26212Y9969D01*
X26197Y9988D01*
X26184Y10005D01*
X26172Y10022D01*
X26161Y10036D01*
X26150Y10047D01*
X26141Y10056D01*
X26136Y10065D01*
X26130Y10070D01*
X26128Y10073D01*
X26126Y10074D01*
Y10167D01*
X26747D01*
Y10054D01*
D02*
G37*
G36*
X32044Y11489D02*
X32070Y11486D01*
X32095Y11481D01*
X32119Y11474D01*
X32139Y11464D01*
X32160Y11456D01*
X32178Y11444D01*
X32195Y11435D01*
X32209Y11425D01*
X32223Y11414D01*
X32234Y11406D01*
X32242Y11397D01*
X32249Y11389D01*
X32255Y11383D01*
X32257Y11381D01*
X32259Y11379D01*
X32277Y11354D01*
X32292Y11325D01*
X32306Y11295D01*
X32318Y11263D01*
X32328Y11230D01*
X32336Y11196D01*
X32343Y11162D01*
X32349Y11130D01*
X32353Y11098D01*
X32356Y11069D01*
X32359Y11042D01*
X32360Y11020D01*
Y11001D01*
X32361Y10987D01*
Y10981D01*
Y10977D01*
Y10976D01*
Y10974D01*
X32360Y10930D01*
X32357Y10888D01*
X32353Y10850D01*
X32346Y10813D01*
X32339Y10782D01*
X32332Y10752D01*
X32324Y10726D01*
X32314Y10703D01*
X32306Y10683D01*
X32298Y10665D01*
X32291Y10651D01*
X32282Y10639D01*
X32277Y10629D01*
X32273Y10623D01*
X32270Y10619D01*
X32268Y10618D01*
X32250Y10599D01*
X32231Y10582D01*
X32212Y10568D01*
X32192Y10556D01*
X32171Y10544D01*
X32152Y10536D01*
X32132Y10529D01*
X32113Y10524D01*
X32096Y10519D01*
X32080Y10515D01*
X32066Y10513D01*
X32053Y10511D01*
X32042D01*
X32035Y10510D01*
X32028D01*
X31997Y10511D01*
X31967Y10517D01*
X31941Y10522D01*
X31918Y10531D01*
X31899Y10537D01*
X31886Y10544D01*
X31880Y10546D01*
X31876Y10549D01*
X31875Y10550D01*
X31873D01*
X31850Y10567D01*
X31827Y10586D01*
X31809Y10605D01*
X31794Y10625D01*
X31782Y10643D01*
X31773Y10657D01*
X31771Y10662D01*
X31768Y10666D01*
X31766Y10668D01*
Y10669D01*
X31752Y10698D01*
X31743Y10729D01*
X31736Y10757D01*
X31732Y10783D01*
X31728Y10805D01*
Y10813D01*
X31726Y10822D01*
Y10829D01*
Y10833D01*
Y10836D01*
Y10837D01*
X31728Y10862D01*
X31730Y10886D01*
X31734Y10909D01*
X31739Y10930D01*
X31746Y10949D01*
X31752Y10969D01*
X31759Y10985D01*
X31768Y11001D01*
X31776Y11015D01*
X31783Y11027D01*
X31790Y11037D01*
X31797Y11046D01*
X31801Y11053D01*
X31805Y11058D01*
X31808Y11060D01*
X31809Y11062D01*
X31825Y11077D01*
X31841Y11091D01*
X31859Y11102D01*
X31876Y11112D01*
X31893Y11121D01*
X31909Y11128D01*
X31941Y11138D01*
X31955Y11142D01*
X31969Y11145D01*
X31980Y11146D01*
X31991Y11148D01*
X31999Y11149D01*
X32010D01*
X32035Y11148D01*
X32059Y11144D01*
X32081Y11139D01*
X32101Y11134D01*
X32117Y11127D01*
X32130Y11123D01*
X32138Y11119D01*
X32139Y11117D01*
X32141D01*
X32163Y11103D01*
X32182Y11088D01*
X32200Y11073D01*
X32214Y11056D01*
X32227Y11042D01*
X32236Y11031D01*
X32242Y11023D01*
X32243Y11021D01*
Y11046D01*
X32242Y11071D01*
X32241Y11094D01*
X32238Y11116D01*
X32236Y11135D01*
X32234Y11153D01*
X32231Y11170D01*
X32227Y11185D01*
X32224Y11199D01*
X32221Y11210D01*
X32218Y11220D01*
X32217Y11228D01*
X32214Y11234D01*
X32213Y11238D01*
X32212Y11241D01*
Y11242D01*
X32198Y11270D01*
X32184Y11295D01*
X32169Y11314D01*
X32155Y11331D01*
X32142Y11345D01*
X32132Y11354D01*
X32126Y11360D01*
X32123Y11361D01*
X32106Y11372D01*
X32090Y11379D01*
X32073Y11385D01*
X32056Y11389D01*
X32044Y11392D01*
X32033Y11393D01*
X32023D01*
X31998Y11390D01*
X31974Y11385D01*
X31955Y11377D01*
X31937Y11368D01*
X31923Y11358D01*
X31913Y11350D01*
X31908Y11345D01*
X31905Y11342D01*
X31895Y11329D01*
X31886Y11314D01*
X31877Y11297D01*
X31872Y11281D01*
X31866Y11266D01*
X31862Y11253D01*
X31861Y11245D01*
X31859Y11243D01*
Y11242D01*
X31741Y11252D01*
X31750Y11291D01*
X31762Y11325D01*
X31776Y11356D01*
X31791Y11381D01*
X31807Y11400D01*
X31812Y11408D01*
X31819Y11415D01*
X31823Y11420D01*
X31827Y11424D01*
X31829Y11425D01*
X31830Y11426D01*
X31844Y11438D01*
X31859Y11447D01*
X31890Y11464D01*
X31920Y11475D01*
X31949Y11482D01*
X31976Y11487D01*
X31987Y11489D01*
X31997D01*
X32005Y11490D01*
X32016D01*
X32044Y11489D01*
D02*
G37*
G36*
X33274Y10526D02*
X33146D01*
Y10952D01*
X32983D01*
X32967Y10951D01*
X32956D01*
X32947Y10949D01*
X32940Y10948D01*
X32934D01*
X32931Y10947D01*
X32930D01*
X32908Y10940D01*
X32898Y10936D01*
X32890Y10931D01*
X32881Y10927D01*
X32876Y10924D01*
X32873Y10923D01*
X32872Y10922D01*
X32861Y10913D01*
X32849Y10904D01*
X32829Y10883D01*
X32819Y10873D01*
X32812Y10865D01*
X32808Y10859D01*
X32806Y10858D01*
X32793Y10838D01*
X32777Y10818D01*
X32762Y10795D01*
X32747Y10775D01*
X32734Y10755D01*
X32725Y10740D01*
X32721Y10734D01*
X32718Y10730D01*
X32715Y10727D01*
Y10726D01*
X32589Y10526D01*
X32431D01*
X32596Y10787D01*
X32615Y10815D01*
X32633Y10840D01*
X32651Y10861D01*
X32666Y10880D01*
X32680Y10894D01*
X32691Y10905D01*
X32698Y10912D01*
X32701Y10915D01*
X32712Y10923D01*
X32725Y10933D01*
X32750Y10948D01*
X32761Y10954D01*
X32769Y10959D01*
X32775Y10962D01*
X32777Y10963D01*
X32752Y10967D01*
X32729Y10972D01*
X32708Y10979D01*
X32687Y10984D01*
X32669Y10991D01*
X32653Y10999D01*
X32637Y11006D01*
X32623Y11013D01*
X32612Y11021D01*
X32601Y11028D01*
X32593Y11034D01*
X32586Y11040D01*
X32580Y11044D01*
X32576Y11048D01*
X32575Y11049D01*
X32574Y11051D01*
X32562Y11064D01*
X32551Y11078D01*
X32535Y11107D01*
X32524Y11137D01*
X32515Y11164D01*
X32510Y11188D01*
X32508Y11198D01*
Y11207D01*
X32507Y11214D01*
Y11220D01*
Y11223D01*
Y11224D01*
X32508Y11253D01*
X32512Y11279D01*
X32519Y11304D01*
X32526Y11325D01*
X32535Y11343D01*
X32540Y11357D01*
X32546Y11365D01*
X32547Y11367D01*
Y11368D01*
X32564Y11390D01*
X32580Y11410D01*
X32598Y11426D01*
X32615Y11439D01*
X32630Y11449D01*
X32643Y11454D01*
X32651Y11458D01*
X32653Y11460D01*
X32654D01*
X32666Y11464D01*
X32682Y11468D01*
X32712Y11475D01*
X32745Y11479D01*
X32776Y11483D01*
X32805Y11485D01*
X32818D01*
X32829Y11486D01*
X33274D01*
Y10526D01*
D02*
G37*
G36*
X57575Y4293D02*
X57604Y4287D01*
X57631Y4279D01*
X57653Y4270D01*
X57671Y4262D01*
X57685Y4254D01*
X57693Y4248D01*
X57695Y4247D01*
X57696D01*
X57718Y4227D01*
X57738Y4207D01*
X57753Y4184D01*
X57767Y4164D01*
X57776Y4144D01*
X57783Y4128D01*
X57786Y4122D01*
X57787Y4118D01*
X57789Y4115D01*
Y4114D01*
X57800Y4139D01*
X57812Y4159D01*
X57825Y4177D01*
X57837Y4193D01*
X57848Y4204D01*
X57857Y4212D01*
X57862Y4218D01*
X57865Y4219D01*
X57885Y4232D01*
X57904Y4240D01*
X57923Y4247D01*
X57943Y4251D01*
X57958Y4254D01*
X57971Y4255D01*
X57979D01*
X57980D01*
X57982D01*
X58001Y4254D01*
X58019Y4252D01*
X58054Y4243D01*
X58084Y4230D01*
X58111Y4216D01*
X58131Y4202D01*
X58140Y4195D01*
X58148Y4190D01*
X58154Y4184D01*
X58158Y4180D01*
X58159Y4179D01*
X58160Y4177D01*
X58173Y4162D01*
X58185Y4147D01*
X58195Y4130D01*
X58203Y4114D01*
X58216Y4080D01*
X58224Y4047D01*
X58228Y4033D01*
X58230Y4019D01*
X58231Y4007D01*
X58233Y3996D01*
X58234Y3987D01*
Y3975D01*
X58233Y3953D01*
X58231Y3931D01*
X58223Y3892D01*
X58217Y3874D01*
X58212Y3857D01*
X58205Y3842D01*
X58198Y3828D01*
X58191Y3817D01*
X58184Y3806D01*
X58179Y3796D01*
X58173Y3789D01*
X58169Y3784D01*
X58165Y3779D01*
X58163Y3777D01*
X58162Y3775D01*
X58148Y3763D01*
X58134Y3750D01*
X58119Y3741D01*
X58104Y3732D01*
X58075Y3718D01*
X58047Y3710D01*
X58023Y3705D01*
X58012Y3703D01*
X58004Y3702D01*
X57995Y3700D01*
X57990D01*
X57987D01*
X57986D01*
X57961Y3702D01*
X57937Y3706D01*
X57916Y3711D01*
X57898Y3718D01*
X57885Y3724D01*
X57873Y3730D01*
X57868Y3734D01*
X57865Y3735D01*
X57848Y3750D01*
X57833Y3767D01*
X57819Y3785D01*
X57808Y3803D01*
X57800Y3820D01*
X57794Y3832D01*
X57792Y3838D01*
X57790Y3842D01*
X57789Y3843D01*
Y3845D01*
X57779Y3813D01*
X57767Y3786D01*
X57751Y3763D01*
X57738Y3743D01*
X57724Y3728D01*
X57713Y3717D01*
X57706Y3711D01*
X57704Y3709D01*
X57703D01*
X57678Y3693D01*
X57652Y3681D01*
X57627Y3673D01*
X57602Y3667D01*
X57579Y3664D01*
X57570Y3663D01*
X57561D01*
X57556Y3662D01*
X57550D01*
X57548D01*
X57546D01*
X57524Y3663D01*
X57502Y3666D01*
X57481Y3670D01*
X57460Y3675D01*
X57425Y3689D01*
X57409Y3696D01*
X57395Y3705D01*
X57381Y3713D01*
X57370Y3720D01*
X57360Y3728D01*
X57352Y3734D01*
X57345Y3739D01*
X57341Y3743D01*
X57338Y3746D01*
X57337Y3748D01*
X57321Y3764D01*
X57309Y3782D01*
X57298Y3802D01*
X57288Y3821D01*
X57281Y3839D01*
X57274Y3859D01*
X57265Y3896D01*
X57260Y3913D01*
X57258Y3928D01*
X57256Y3942D01*
X57255Y3954D01*
X57254Y3964D01*
Y3978D01*
X57255Y4004D01*
X57258Y4028D01*
X57262Y4051D01*
X57266Y4073D01*
X57273Y4093D01*
X57280Y4112D01*
X57287Y4130D01*
X57295Y4146D01*
X57303Y4159D01*
X57310Y4172D01*
X57317Y4182D01*
X57324Y4191D01*
X57328Y4198D01*
X57333Y4202D01*
X57335Y4205D01*
X57337Y4207D01*
X57353Y4222D01*
X57370Y4236D01*
X57387Y4247D01*
X57405Y4257D01*
X57421Y4266D01*
X57439Y4273D01*
X57471Y4283D01*
X57486Y4287D01*
X57500Y4290D01*
X57513Y4291D01*
X57523Y4293D01*
X57531Y4294D01*
X57538D01*
X57542D01*
X57543D01*
X57575Y4293D01*
D02*
G37*
G36*
X57606Y3427D02*
X57584Y3422D01*
X57563Y3415D01*
X57543Y3408D01*
X57525Y3401D01*
X57509Y3393D01*
X57495Y3384D01*
X57481Y3374D01*
X57468Y3366D01*
X57457Y3359D01*
X57449Y3351D01*
X57441Y3344D01*
X57434Y3338D01*
X57430Y3333D01*
X57425Y3329D01*
X57424Y3327D01*
X57423Y3326D01*
X57412Y3312D01*
X57403Y3297D01*
X57388Y3266D01*
X57377Y3237D01*
X57370Y3208D01*
X57364Y3183D01*
X57363Y3173D01*
Y3164D01*
X57362Y3155D01*
Y3146D01*
X57363Y3114D01*
X57369Y3083D01*
X57376Y3056D01*
X57384Y3031D01*
X57392Y3011D01*
X57396Y3003D01*
X57399Y2996D01*
X57402Y2990D01*
X57405Y2986D01*
X57406Y2983D01*
Y2982D01*
X57425Y2956D01*
X57446Y2933D01*
X57470Y2914D01*
X57492Y2899D01*
X57511Y2886D01*
X57528Y2878D01*
X57535Y2875D01*
X57539Y2872D01*
X57542Y2871D01*
X57543D01*
X57579Y2860D01*
X57615Y2852D01*
X57652Y2845D01*
X57685Y2841D01*
X57700Y2839D01*
X57714Y2838D01*
X57726D01*
X57736Y2836D01*
X57744D01*
X57751D01*
X57756D01*
X57757D01*
X57793Y2838D01*
X57826Y2841D01*
X57857Y2846D01*
X57885Y2852D01*
X57908Y2856D01*
X57918Y2859D01*
X57926Y2861D01*
X57933Y2863D01*
X57937Y2864D01*
X57940Y2866D01*
X57941D01*
X57973Y2879D01*
X58002Y2895D01*
X58026Y2911D01*
X58047Y2929D01*
X58063Y2945D01*
X58075Y2957D01*
X58081Y2967D01*
X58084Y2968D01*
Y2970D01*
X58102Y2999D01*
X58116Y3031D01*
X58126Y3061D01*
X58131Y3090D01*
X58136Y3117D01*
X58137Y3128D01*
Y3137D01*
X58138Y3144D01*
Y3155D01*
X58137Y3190D01*
X58131Y3222D01*
X58123Y3248D01*
X58115Y3272D01*
X58105Y3290D01*
X58098Y3304D01*
X58093Y3312D01*
X58090Y3315D01*
X58069Y3337D01*
X58045Y3358D01*
X58020Y3374D01*
X57995Y3388D01*
X57973Y3399D01*
X57962Y3404D01*
X57954Y3406D01*
X57947Y3409D01*
X57941Y3412D01*
X57939Y3413D01*
X57937D01*
X57966Y3538D01*
X57991Y3530D01*
X58014Y3521D01*
X58034Y3510D01*
X58055Y3501D01*
X58073Y3490D01*
X58090Y3477D01*
X58106Y3466D01*
X58120Y3455D01*
X58131Y3444D01*
X58142Y3434D01*
X58152Y3424D01*
X58159Y3417D01*
X58166Y3411D01*
X58170Y3405D01*
X58172Y3402D01*
X58173Y3401D01*
X58185Y3381D01*
X58198Y3362D01*
X58208Y3343D01*
X58216Y3322D01*
X58228Y3280D01*
X58237Y3243D01*
X58241Y3225D01*
X58242Y3209D01*
X58244Y3194D01*
X58245Y3182D01*
X58246Y3172D01*
Y3158D01*
X58244Y3112D01*
X58237Y3068D01*
X58228Y3029D01*
X58223Y3011D01*
X58217Y2994D01*
X58212Y2979D01*
X58206Y2965D01*
X58202Y2954D01*
X58198Y2943D01*
X58194Y2936D01*
X58191Y2931D01*
X58190Y2927D01*
X58188Y2925D01*
X58165Y2888D01*
X58137Y2856D01*
X58109Y2828D01*
X58081Y2805D01*
X58056Y2786D01*
X58045Y2780D01*
X58036Y2774D01*
X58029Y2768D01*
X58023Y2766D01*
X58019Y2764D01*
X58018Y2763D01*
X57975Y2743D01*
X57930Y2730D01*
X57886Y2720D01*
X57846Y2713D01*
X57828Y2710D01*
X57810Y2709D01*
X57796Y2707D01*
X57782D01*
X57772Y2706D01*
X57764D01*
X57758D01*
X57757D01*
X57707Y2709D01*
X57658Y2714D01*
X57615Y2721D01*
X57595Y2727D01*
X57577Y2731D01*
X57560Y2735D01*
X57545Y2741D01*
X57531Y2745D01*
X57520Y2748D01*
X57511Y2752D01*
X57505Y2753D01*
X57500Y2756D01*
X57499D01*
X57457Y2777D01*
X57420Y2800D01*
X57388Y2825D01*
X57376Y2838D01*
X57363Y2849D01*
X57352Y2860D01*
X57342Y2871D01*
X57334Y2881D01*
X57328Y2889D01*
X57323Y2895D01*
X57319Y2900D01*
X57317Y2903D01*
X57316Y2904D01*
X57305Y2924D01*
X57295Y2943D01*
X57280Y2985D01*
X57269Y3026D01*
X57262Y3067D01*
X57259Y3086D01*
X57256Y3103D01*
X57255Y3118D01*
Y3130D01*
X57254Y3141D01*
Y3157D01*
X57255Y3184D01*
X57258Y3211D01*
X57260Y3236D01*
X57266Y3259D01*
X57273Y3282D01*
X57280Y3302D01*
X57287Y3322D01*
X57295Y3340D01*
X57302Y3355D01*
X57309Y3370D01*
X57316Y3381D01*
X57323Y3393D01*
X57328Y3399D01*
X57331Y3406D01*
X57334Y3409D01*
X57335Y3411D01*
X57352Y3430D01*
X57369Y3447D01*
X57388Y3462D01*
X57407Y3477D01*
X57446Y3502D01*
X57485Y3521D01*
X57503Y3530D01*
X57520Y3537D01*
X57535Y3542D01*
X57548Y3546D01*
X57559Y3551D01*
X57567Y3553D01*
X57572Y3555D01*
X57574D01*
X57606Y3427D01*
D02*
G37*
G36*
X31078Y15539D02*
X30966Y15524D01*
X30956Y15539D01*
X30943Y15552D01*
X30932Y15565D01*
X30920Y15574D01*
X30909Y15581D01*
X30901Y15588D01*
X30895Y15591D01*
X30894Y15593D01*
X30875Y15601D01*
X30857Y15608D01*
X30840Y15612D01*
X30823Y15617D01*
X30809Y15618D01*
X30798Y15619D01*
X30771D01*
X30754Y15617D01*
X30724Y15610D01*
X30699Y15600D01*
X30677Y15590D01*
X30660Y15579D01*
X30647Y15569D01*
X30640Y15562D01*
X30637Y15560D01*
Y15559D01*
X30617Y15535D01*
X30603Y15510D01*
X30593Y15483D01*
X30586Y15456D01*
X30582Y15433D01*
X30581Y15424D01*
Y15415D01*
X30579Y15408D01*
Y15402D01*
Y15400D01*
Y15398D01*
Y15378D01*
X30582Y15360D01*
X30589Y15325D01*
X30599Y15295D01*
X30609Y15271D01*
X30620Y15252D01*
X30630Y15236D01*
X30634Y15232D01*
X30637Y15228D01*
X30638Y15226D01*
X30640Y15225D01*
X30651Y15213D01*
X30662Y15204D01*
X30688Y15187D01*
X30712Y15175D01*
X30736Y15168D01*
X30756Y15163D01*
X30772Y15161D01*
X30778Y15160D01*
X30787D01*
X30813Y15161D01*
X30837Y15167D01*
X30858Y15174D01*
X30875Y15182D01*
X30891Y15191D01*
X30902Y15198D01*
X30908Y15204D01*
X30911Y15205D01*
X30927Y15225D01*
X30942Y15246D01*
X30953Y15270D01*
X30961Y15291D01*
X30967Y15312D01*
X30971Y15328D01*
X30973Y15335D01*
X30974Y15339D01*
Y15342D01*
Y15343D01*
X31099Y15333D01*
X31097Y15311D01*
X31092Y15290D01*
X31080Y15250D01*
X31064Y15216D01*
X31056Y15201D01*
X31047Y15188D01*
X31040Y15175D01*
X31032Y15164D01*
X31025Y15156D01*
X31018Y15149D01*
X31012Y15143D01*
X31009Y15137D01*
X31006Y15136D01*
X31005Y15135D01*
X30988Y15122D01*
X30971Y15111D01*
X30953Y15101D01*
X30935Y15092D01*
X30899Y15080D01*
X30864Y15071D01*
X30849Y15067D01*
X30833Y15065D01*
X30820Y15064D01*
X30809Y15063D01*
X30799Y15061D01*
X30787D01*
X30757Y15063D01*
X30729Y15067D01*
X30702Y15073D01*
X30678Y15080D01*
X30655Y15089D01*
X30634Y15099D01*
X30615Y15109D01*
X30598Y15120D01*
X30582Y15132D01*
X30568Y15142D01*
X30557Y15153D01*
X30547Y15161D01*
X30540Y15168D01*
X30534Y15174D01*
X30531Y15178D01*
X30530Y15180D01*
X30516Y15198D01*
X30505Y15218D01*
X30493Y15236D01*
X30485Y15256D01*
X30471Y15294D01*
X30462Y15330D01*
X30459Y15346D01*
X30457Y15362D01*
X30455Y15374D01*
X30454Y15385D01*
X30452Y15395D01*
Y15402D01*
Y15407D01*
Y15408D01*
X30454Y15433D01*
X30457Y15457D01*
X30461Y15481D01*
X30467Y15502D01*
X30474Y15522D01*
X30481Y15542D01*
X30489Y15559D01*
X30496Y15574D01*
X30505Y15588D01*
X30513Y15601D01*
X30520Y15611D01*
X30527Y15621D01*
X30533Y15628D01*
X30537Y15632D01*
X30540Y15635D01*
X30541Y15636D01*
X30558Y15652D01*
X30575Y15666D01*
X30593Y15677D01*
X30612Y15687D01*
X30630Y15697D01*
X30648Y15704D01*
X30682Y15714D01*
X30698Y15718D01*
X30712Y15721D01*
X30724Y15722D01*
X30736Y15724D01*
X30744Y15725D01*
X30775D01*
X30792Y15722D01*
X30826Y15715D01*
X30857Y15705D01*
X30885Y15694D01*
X30908Y15683D01*
X30918Y15677D01*
X30926Y15673D01*
X30933Y15669D01*
X30937Y15666D01*
X30940Y15665D01*
X30942Y15663D01*
X30889Y15927D01*
X30499D01*
Y16041D01*
X30984D01*
X31078Y15539D01*
D02*
G37*
G36*
X32033Y15078D02*
X31903D01*
Y15511D01*
X31737D01*
X31721Y15510D01*
X31710D01*
X31700Y15508D01*
X31693Y15507D01*
X31687D01*
X31684Y15505D01*
X31683D01*
X31661Y15498D01*
X31651Y15494D01*
X31642Y15490D01*
X31634Y15486D01*
X31628Y15483D01*
X31625Y15481D01*
X31624Y15480D01*
X31613Y15471D01*
X31601Y15462D01*
X31580Y15440D01*
X31570Y15431D01*
X31563Y15422D01*
X31559Y15416D01*
X31558Y15415D01*
X31544Y15395D01*
X31528Y15374D01*
X31513Y15352D01*
X31497Y15330D01*
X31484Y15311D01*
X31474Y15295D01*
X31470Y15290D01*
X31467Y15285D01*
X31465Y15283D01*
Y15281D01*
X31336Y15078D01*
X31176D01*
X31343Y15343D01*
X31363Y15371D01*
X31381Y15397D01*
X31400Y15418D01*
X31415Y15438D01*
X31429Y15452D01*
X31441Y15463D01*
X31448Y15470D01*
X31450Y15473D01*
X31462Y15481D01*
X31474Y15491D01*
X31500Y15507D01*
X31511Y15512D01*
X31520Y15518D01*
X31525Y15521D01*
X31528Y15522D01*
X31503Y15526D01*
X31479Y15531D01*
X31458Y15538D01*
X31436Y15543D01*
X31418Y15550D01*
X31401Y15559D01*
X31386Y15566D01*
X31372Y15573D01*
X31360Y15581D01*
X31349Y15588D01*
X31341Y15594D01*
X31333Y15600D01*
X31328Y15604D01*
X31324Y15608D01*
X31322Y15610D01*
X31321Y15611D01*
X31310Y15625D01*
X31298Y15639D01*
X31281Y15669D01*
X31270Y15698D01*
X31262Y15727D01*
X31256Y15751D01*
X31255Y15760D01*
Y15770D01*
X31253Y15777D01*
Y15783D01*
Y15786D01*
Y15787D01*
X31255Y15817D01*
X31259Y15844D01*
X31266Y15869D01*
X31273Y15890D01*
X31281Y15908D01*
X31287Y15923D01*
X31293Y15931D01*
X31294Y15932D01*
Y15934D01*
X31311Y15956D01*
X31328Y15976D01*
X31346Y15993D01*
X31363Y16006D01*
X31379Y16016D01*
X31391Y16021D01*
X31400Y16025D01*
X31401Y16027D01*
X31403D01*
X31415Y16031D01*
X31431Y16035D01*
X31462Y16042D01*
X31496Y16047D01*
X31527Y16051D01*
X31556Y16052D01*
X31569D01*
X31580Y16054D01*
X32033D01*
Y15078D01*
D02*
G37*
G36*
X32084Y16812D02*
X31955D01*
Y17245D01*
X31788D01*
X31773Y17244D01*
X31762D01*
X31752Y17242D01*
X31745Y17241D01*
X31739D01*
X31736Y17239D01*
X31735D01*
X31712Y17232D01*
X31702Y17228D01*
X31694Y17224D01*
X31686Y17220D01*
X31680Y17217D01*
X31677Y17215D01*
X31676Y17214D01*
X31664Y17206D01*
X31653Y17196D01*
X31632Y17175D01*
X31622Y17165D01*
X31615Y17156D01*
X31611Y17151D01*
X31609Y17149D01*
X31595Y17129D01*
X31580Y17108D01*
X31564Y17086D01*
X31549Y17065D01*
X31536Y17045D01*
X31526Y17029D01*
X31522Y17024D01*
X31519Y17019D01*
X31516Y17017D01*
Y17015D01*
X31388Y16812D01*
X31227D01*
X31395Y17077D01*
X31415Y17105D01*
X31433Y17131D01*
X31452Y17152D01*
X31467Y17172D01*
X31481Y17186D01*
X31492Y17197D01*
X31499Y17204D01*
X31502Y17207D01*
X31514Y17215D01*
X31526Y17225D01*
X31552Y17241D01*
X31563Y17246D01*
X31571Y17252D01*
X31577Y17255D01*
X31580Y17256D01*
X31554Y17261D01*
X31530Y17265D01*
X31509Y17272D01*
X31488Y17277D01*
X31470Y17284D01*
X31453Y17293D01*
X31437Y17300D01*
X31423Y17307D01*
X31412Y17316D01*
X31401Y17323D01*
X31392Y17328D01*
X31385Y17334D01*
X31380Y17338D01*
X31375Y17342D01*
X31374Y17344D01*
X31373Y17345D01*
X31361Y17359D01*
X31350Y17373D01*
X31333Y17403D01*
X31322Y17433D01*
X31313Y17461D01*
X31308Y17485D01*
X31306Y17495D01*
Y17504D01*
X31305Y17511D01*
Y17517D01*
Y17520D01*
Y17521D01*
X31306Y17551D01*
X31311Y17578D01*
X31318Y17603D01*
X31325Y17624D01*
X31333Y17643D01*
X31339Y17657D01*
X31344Y17665D01*
X31346Y17667D01*
Y17668D01*
X31363Y17690D01*
X31380Y17710D01*
X31398Y17727D01*
X31415Y17740D01*
X31430Y17750D01*
X31443Y17755D01*
X31452Y17760D01*
X31453Y17761D01*
X31454D01*
X31467Y17765D01*
X31483Y17769D01*
X31514Y17776D01*
X31547Y17781D01*
X31578Y17785D01*
X31608Y17786D01*
X31621D01*
X31632Y17788D01*
X32084D01*
Y16812D01*
D02*
G37*
G36*
X31192Y17156D02*
Y17046D01*
X30768D01*
Y16812D01*
X30648D01*
Y17046D01*
X30515D01*
Y17156D01*
X30648D01*
Y17788D01*
X30745D01*
X31192Y17156D01*
D02*
G37*
G36*
X30988Y19595D02*
X31025Y19588D01*
X31057Y19577D01*
X31085Y19566D01*
X31097Y19559D01*
X31107Y19553D01*
X31117Y19548D01*
X31124Y19542D01*
X31129Y19538D01*
X31133Y19535D01*
X31136Y19534D01*
X31137Y19533D01*
X31164Y19506D01*
X31185Y19477D01*
X31201Y19447D01*
X31215Y19416D01*
X31223Y19390D01*
X31228Y19379D01*
X31230Y19369D01*
X31232Y19361D01*
X31233Y19355D01*
X31234Y19351D01*
Y19349D01*
X31117Y19329D01*
X31111Y19359D01*
X31103Y19386D01*
X31093Y19408D01*
X31083Y19426D01*
X31074Y19440D01*
X31065Y19449D01*
X31060Y19456D01*
X31058Y19458D01*
X31040Y19472D01*
X31021Y19483D01*
X31003Y19490D01*
X30985Y19495D01*
X30968Y19498D01*
X30956Y19501D01*
X30945D01*
X30920Y19499D01*
X30897Y19494D01*
X30878Y19487D01*
X30861Y19480D01*
X30849Y19472D01*
X30839Y19465D01*
X30832Y19459D01*
X30831Y19458D01*
X30816Y19441D01*
X30805Y19423D01*
X30798Y19405D01*
X30792Y19388D01*
X30789Y19373D01*
X30787Y19362D01*
Y19354D01*
Y19352D01*
Y19351D01*
Y19336D01*
X30789Y19322D01*
X30796Y19298D01*
X30806Y19277D01*
X30817Y19259D01*
X30828Y19247D01*
X30838Y19237D01*
X30845Y19232D01*
X30846Y19230D01*
X30848D01*
X30871Y19218D01*
X30893Y19208D01*
X30917Y19201D01*
X30938Y19197D01*
X30956Y19194D01*
X30971Y19191D01*
X30989D01*
X30995Y19193D01*
X31001D01*
X31015Y19089D01*
X30997Y19093D01*
X30981Y19096D01*
X30967Y19098D01*
X30954Y19100D01*
X30945Y19101D01*
X30932D01*
X30903Y19098D01*
X30877Y19093D01*
X30853Y19085D01*
X30834Y19075D01*
X30818Y19065D01*
X30807Y19057D01*
X30800Y19051D01*
X30798Y19049D01*
X30780Y19028D01*
X30766Y19006D01*
X30756Y18983D01*
X30750Y18961D01*
X30746Y18943D01*
X30745Y18928D01*
X30743Y18922D01*
Y18918D01*
Y18915D01*
Y18914D01*
X30746Y18883D01*
X30753Y18856D01*
X30762Y18832D01*
X30773Y18811D01*
X30784Y18795D01*
X30792Y18782D01*
X30799Y18774D01*
X30802Y18771D01*
X30824Y18752D01*
X30848Y18738D01*
X30871Y18728D01*
X30893Y18721D01*
X30913Y18717D01*
X30928Y18716D01*
X30934Y18714D01*
X30942D01*
X30967Y18716D01*
X30990Y18721D01*
X31011Y18728D01*
X31028Y18736D01*
X31042Y18743D01*
X31053Y18750D01*
X31058Y18756D01*
X31061Y18757D01*
X31078Y18777D01*
X31092Y18799D01*
X31104Y18822D01*
X31114Y18847D01*
X31121Y18868D01*
X31124Y18878D01*
X31125Y18886D01*
X31126Y18893D01*
X31128Y18899D01*
X31129Y18902D01*
Y18903D01*
X31247Y18888D01*
X31244Y18865D01*
X31240Y18845D01*
X31228Y18806D01*
X31212Y18773D01*
X31204Y18759D01*
X31196Y18745D01*
X31187Y18732D01*
X31179Y18723D01*
X31172Y18713D01*
X31165Y18706D01*
X31161Y18700D01*
X31157Y18696D01*
X31154Y18693D01*
X31153Y18692D01*
X31136Y18680D01*
X31119Y18667D01*
X31103Y18657D01*
X31085Y18649D01*
X31050Y18635D01*
X31017Y18627D01*
X31001Y18624D01*
X30988Y18621D01*
X30975Y18620D01*
X30964Y18619D01*
X30956Y18617D01*
X30943D01*
X30917Y18619D01*
X30893Y18621D01*
X30870Y18626D01*
X30848Y18631D01*
X30827Y18638D01*
X30809Y18645D01*
X30791Y18653D01*
X30775Y18662D01*
X30760Y18669D01*
X30748Y18677D01*
X30737Y18684D01*
X30728Y18691D01*
X30721Y18696D01*
X30716Y18700D01*
X30713Y18703D01*
X30712Y18705D01*
X30695Y18721D01*
X30681Y18739D01*
X30669Y18757D01*
X30658Y18775D01*
X30649Y18792D01*
X30641Y18810D01*
X30630Y18843D01*
X30627Y18859D01*
X30624Y18872D01*
X30621Y18885D01*
X30620Y18896D01*
X30619Y18904D01*
Y18911D01*
Y18915D01*
Y18917D01*
X30620Y18950D01*
X30626Y18981D01*
X30634Y19007D01*
X30642Y19029D01*
X30651Y19047D01*
X30659Y19061D01*
X30664Y19069D01*
X30666Y19072D01*
X30685Y19093D01*
X30706Y19111D01*
X30728Y19125D01*
X30750Y19136D01*
X30770Y19144D01*
X30785Y19150D01*
X30791Y19151D01*
X30795Y19153D01*
X30798Y19154D01*
X30799D01*
X30775Y19166D01*
X30756Y19179D01*
X30739Y19193D01*
X30725Y19205D01*
X30714Y19216D01*
X30706Y19226D01*
X30702Y19232D01*
X30701Y19234D01*
X30689Y19254D01*
X30681Y19273D01*
X30674Y19293D01*
X30670Y19311D01*
X30667Y19326D01*
X30666Y19337D01*
Y19345D01*
Y19348D01*
X30667Y19372D01*
X30671Y19395D01*
X30677Y19416D01*
X30684Y19434D01*
X30691Y19449D01*
X30696Y19462D01*
X30701Y19469D01*
X30702Y19472D01*
X30716Y19492D01*
X30732Y19510D01*
X30749Y19526D01*
X30766Y19539D01*
X30780Y19549D01*
X30792Y19557D01*
X30800Y19562D01*
X30802Y19563D01*
X30803D01*
X30828Y19574D01*
X30853Y19582D01*
X30878Y19589D01*
X30900Y19594D01*
X30918Y19596D01*
X30934Y19598D01*
X30968D01*
X30988Y19595D01*
D02*
G37*
G36*
X32166Y18634D02*
X32039D01*
Y19060D01*
X31875D01*
X31860Y19058D01*
X31849D01*
X31839Y19057D01*
X31832Y19055D01*
X31827D01*
X31824Y19054D01*
X31822D01*
X31800Y19047D01*
X31791Y19043D01*
X31782Y19039D01*
X31774Y19035D01*
X31768Y19032D01*
X31766Y19030D01*
X31764Y19029D01*
X31753Y19021D01*
X31742Y19011D01*
X31721Y18990D01*
X31712Y18981D01*
X31705Y18972D01*
X31700Y18967D01*
X31699Y18965D01*
X31685Y18946D01*
X31670Y18925D01*
X31655Y18903D01*
X31639Y18882D01*
X31627Y18863D01*
X31617Y18847D01*
X31613Y18842D01*
X31610Y18838D01*
X31608Y18835D01*
Y18834D01*
X31481Y18634D01*
X31323D01*
X31488Y18895D01*
X31508Y18922D01*
X31526Y18947D01*
X31544Y18968D01*
X31559Y18987D01*
X31573Y19001D01*
X31584Y19012D01*
X31591Y19019D01*
X31594Y19022D01*
X31605Y19030D01*
X31617Y19040D01*
X31642Y19055D01*
X31653Y19061D01*
X31662Y19067D01*
X31667Y19069D01*
X31670Y19071D01*
X31645Y19075D01*
X31621Y19079D01*
X31601Y19086D01*
X31580Y19092D01*
X31562Y19098D01*
X31545Y19107D01*
X31530Y19114D01*
X31516Y19121D01*
X31505Y19129D01*
X31494Y19136D01*
X31485Y19141D01*
X31479Y19147D01*
X31473Y19151D01*
X31469Y19155D01*
X31467Y19157D01*
X31466Y19158D01*
X31455Y19172D01*
X31444Y19186D01*
X31427Y19215D01*
X31416Y19244D01*
X31408Y19272D01*
X31402Y19295D01*
X31401Y19305D01*
Y19315D01*
X31399Y19322D01*
Y19327D01*
Y19330D01*
Y19331D01*
X31401Y19361D01*
X31405Y19387D01*
X31412Y19412D01*
X31419Y19433D01*
X31427Y19451D01*
X31433Y19465D01*
X31438Y19473D01*
X31440Y19474D01*
Y19476D01*
X31456Y19498D01*
X31473Y19517D01*
X31491Y19534D01*
X31508Y19546D01*
X31523Y19556D01*
X31535Y19562D01*
X31544Y19566D01*
X31545Y19567D01*
X31546D01*
X31559Y19571D01*
X31574Y19576D01*
X31605Y19582D01*
X31638Y19587D01*
X31669Y19591D01*
X31698Y19592D01*
X31710D01*
X31721Y19594D01*
X32166D01*
Y18634D01*
D02*
G37*
G36*
X12532Y6996D02*
X12555Y7013D01*
X12565Y7021D01*
X12575Y7028D01*
X12583Y7035D01*
X12589Y7040D01*
X12593Y7045D01*
X12594Y7046D01*
X12601Y7053D01*
X12608Y7061D01*
X12626Y7081D01*
X12647Y7103D01*
X12668Y7126D01*
X12686Y7149D01*
X12694Y7158D01*
X12702Y7167D01*
X12708Y7174D01*
X12712Y7179D01*
X12715Y7182D01*
X12716Y7183D01*
X12736Y7206D01*
X12754Y7228D01*
X12772Y7247D01*
X12787Y7265D01*
X12802Y7282D01*
X12816Y7296D01*
X12829Y7310D01*
X12840Y7321D01*
X12851Y7332D01*
X12859Y7340D01*
X12866Y7347D01*
X12873Y7354D01*
X12881Y7361D01*
X12884Y7364D01*
X12908Y7383D01*
X12928Y7400D01*
X12949Y7414D01*
X12966Y7425D01*
X12981Y7433D01*
X12992Y7438D01*
X12999Y7441D01*
X13002Y7443D01*
X13023Y7451D01*
X13044Y7457D01*
X13063Y7462D01*
X13080Y7465D01*
X13095Y7466D01*
X13106Y7468D01*
X13113D01*
X13116D01*
X13136Y7466D01*
X13156Y7463D01*
X13175Y7461D01*
X13192Y7455D01*
X13225Y7441D01*
X13252Y7427D01*
X13264Y7419D01*
X13274Y7412D01*
X13283Y7405D01*
X13290Y7398D01*
X13296Y7393D01*
X13301Y7390D01*
X13303Y7387D01*
X13304Y7386D01*
X13318Y7371D01*
X13331Y7354D01*
X13340Y7336D01*
X13349Y7318D01*
X13363Y7282D01*
X13372Y7246D01*
X13375Y7230D01*
X13378Y7215D01*
X13379Y7201D01*
X13381Y7190D01*
X13382Y7181D01*
Y7167D01*
X13381Y7142D01*
X13379Y7118D01*
X13375Y7096D01*
X13371Y7075D01*
X13365Y7056D01*
X13360Y7038D01*
X13353Y7021D01*
X13346Y7006D01*
X13339Y6992D01*
X13332Y6981D01*
X13326Y6971D01*
X13321Y6963D01*
X13317Y6956D01*
X13313Y6952D01*
X13311Y6949D01*
X13310Y6948D01*
X13296Y6934D01*
X13281Y6921D01*
X13264Y6909D01*
X13247Y6899D01*
X13214Y6882D01*
X13181Y6871D01*
X13166Y6867D01*
X13150Y6863D01*
X13138Y6860D01*
X13127Y6857D01*
X13117Y6856D01*
X13110D01*
X13106Y6855D01*
X13105D01*
X13092Y6975D01*
X13124Y6978D01*
X13152Y6984D01*
X13177Y6992D01*
X13196Y7002D01*
X13213Y7010D01*
X13224Y7018D01*
X13231Y7024D01*
X13234Y7027D01*
X13250Y7047D01*
X13263Y7070D01*
X13272Y7093D01*
X13278Y7114D01*
X13282Y7133D01*
X13283Y7150D01*
X13285Y7156D01*
Y7164D01*
X13283Y7193D01*
X13278Y7219D01*
X13270Y7242D01*
X13261Y7261D01*
X13252Y7276D01*
X13245Y7286D01*
X13239Y7293D01*
X13236Y7296D01*
X13217Y7312D01*
X13197Y7325D01*
X13178Y7334D01*
X13159Y7340D01*
X13143Y7344D01*
X13130Y7346D01*
X13121Y7347D01*
X13120D01*
X13118D01*
X13093Y7344D01*
X13067Y7339D01*
X13044Y7329D01*
X13021Y7319D01*
X13003Y7308D01*
X12988Y7298D01*
X12983Y7296D01*
X12978Y7293D01*
X12977Y7290D01*
X12976D01*
X12960Y7279D01*
X12945Y7265D01*
X12928Y7250D01*
X12912Y7233D01*
X12878Y7199D01*
X12845Y7164D01*
X12830Y7146D01*
X12816Y7131D01*
X12804Y7115D01*
X12793Y7103D01*
X12784Y7093D01*
X12777Y7085D01*
X12773Y7079D01*
X12772Y7078D01*
X12743Y7043D01*
X12715Y7011D01*
X12690Y6985D01*
X12669Y6964D01*
X12651Y6946D01*
X12639Y6934D01*
X12630Y6927D01*
X12629Y6924D01*
X12627D01*
X12604Y6905D01*
X12582Y6889D01*
X12560Y6875D01*
X12540Y6864D01*
X12523Y6856D01*
X12511Y6850D01*
X12503Y6848D01*
X12501Y6846D01*
X12500D01*
X12485Y6841D01*
X12471Y6838D01*
X12457Y6835D01*
X12444Y6834D01*
X12433Y6832D01*
X12425D01*
X12419D01*
X12418D01*
Y7469D01*
X12532D01*
Y6996D01*
D02*
G37*
G36*
X12679Y6609D02*
X12707Y6590D01*
X12731Y6572D01*
X12752Y6554D01*
X12772Y6538D01*
X12786Y6525D01*
X12797Y6513D01*
X12804Y6507D01*
X12806Y6504D01*
X12815Y6493D01*
X12824Y6480D01*
X12840Y6455D01*
X12845Y6444D01*
X12851Y6436D01*
X12854Y6430D01*
X12855Y6427D01*
X12859Y6452D01*
X12863Y6476D01*
X12870Y6497D01*
X12876Y6518D01*
X12883Y6536D01*
X12891Y6552D01*
X12898Y6568D01*
X12905Y6581D01*
X12913Y6593D01*
X12920Y6604D01*
X12926Y6612D01*
X12931Y6619D01*
X12935Y6624D01*
X12940Y6629D01*
X12941Y6630D01*
X12942Y6631D01*
X12956Y6642D01*
X12970Y6654D01*
X12999Y6670D01*
X13028Y6681D01*
X13056Y6690D01*
X13080Y6695D01*
X13089Y6697D01*
X13099D01*
X13106Y6698D01*
X13111D01*
X13114D01*
X13116D01*
X13145Y6697D01*
X13171Y6692D01*
X13196Y6685D01*
X13217Y6679D01*
X13235Y6670D01*
X13249Y6665D01*
X13257Y6659D01*
X13259Y6658D01*
X13260D01*
X13282Y6641D01*
X13301Y6624D01*
X13318Y6606D01*
X13331Y6590D01*
X13340Y6574D01*
X13346Y6562D01*
X13350Y6554D01*
X13351Y6552D01*
Y6551D01*
X13356Y6538D01*
X13360Y6523D01*
X13367Y6493D01*
X13371Y6459D01*
X13375Y6429D01*
X13376Y6400D01*
Y6387D01*
X13378Y6376D01*
Y5931D01*
X12418D01*
Y6059D01*
X12844D01*
Y6222D01*
X12842Y6237D01*
Y6249D01*
X12841Y6258D01*
X12840Y6265D01*
Y6271D01*
X12838Y6274D01*
Y6275D01*
X12831Y6297D01*
X12827Y6307D01*
X12823Y6315D01*
X12819Y6323D01*
X12816Y6329D01*
X12815Y6332D01*
X12813Y6333D01*
X12805Y6344D01*
X12795Y6355D01*
X12774Y6376D01*
X12765Y6386D01*
X12756Y6393D01*
X12751Y6397D01*
X12750Y6398D01*
X12730Y6412D01*
X12709Y6427D01*
X12687Y6443D01*
X12666Y6458D01*
X12647Y6470D01*
X12632Y6480D01*
X12626Y6484D01*
X12622Y6487D01*
X12619Y6490D01*
X12618D01*
X12418Y6616D01*
Y6774D01*
X12679Y6609D01*
D02*
G37*
G36*
X19282Y5205D02*
X19258Y5191D01*
X19236Y5176D01*
X19214Y5158D01*
X19195Y5141D01*
X19178Y5124D01*
X19164Y5112D01*
X19160Y5106D01*
X19156Y5102D01*
X19154Y5101D01*
X19153Y5099D01*
X19129Y5070D01*
X19107Y5041D01*
X19088Y5013D01*
X19073Y4986D01*
X19059Y4962D01*
X19053Y4952D01*
X19049Y4944D01*
X19045Y4937D01*
X19043Y4931D01*
X19041Y4929D01*
Y4927D01*
X18927D01*
X18935Y4948D01*
X18945Y4969D01*
X18955Y4990D01*
X18964Y5009D01*
X18973Y5026D01*
X18980Y5040D01*
X18985Y5048D01*
X18987Y5049D01*
Y5051D01*
X19002Y5076D01*
X19017Y5098D01*
X19031Y5117D01*
X19043Y5133D01*
X19053Y5146D01*
X19061Y5155D01*
X19067Y5162D01*
X19068Y5163D01*
X18318D01*
Y5281D01*
X19282D01*
Y5205D01*
D02*
G37*
G36*
X18579Y4597D02*
X18607Y4578D01*
X18632Y4560D01*
X18652Y4542D01*
X18672Y4527D01*
X18686Y4513D01*
X18697Y4502D01*
X18704Y4495D01*
X18706Y4492D01*
X18715Y4481D01*
X18724Y4468D01*
X18740Y4443D01*
X18745Y4432D01*
X18751Y4424D01*
X18754Y4418D01*
X18755Y4416D01*
X18759Y4441D01*
X18763Y4464D01*
X18770Y4485D01*
X18776Y4506D01*
X18783Y4524D01*
X18791Y4540D01*
X18798Y4556D01*
X18805Y4569D01*
X18813Y4581D01*
X18820Y4592D01*
X18826Y4600D01*
X18831Y4607D01*
X18835Y4612D01*
X18840Y4617D01*
X18841Y4618D01*
X18842Y4619D01*
X18856Y4631D01*
X18870Y4642D01*
X18899Y4658D01*
X18928Y4669D01*
X18956Y4678D01*
X18980Y4683D01*
X18989Y4685D01*
X18999D01*
X19006Y4686D01*
X19011D01*
X19014D01*
X19016D01*
X19045Y4685D01*
X19071Y4680D01*
X19096Y4674D01*
X19117Y4667D01*
X19135Y4658D01*
X19149Y4653D01*
X19157Y4647D01*
X19159Y4646D01*
X19160D01*
X19182Y4629D01*
X19201Y4612D01*
X19218Y4594D01*
X19231Y4578D01*
X19240Y4563D01*
X19246Y4550D01*
X19250Y4542D01*
X19251Y4540D01*
Y4539D01*
X19256Y4527D01*
X19260Y4511D01*
X19267Y4481D01*
X19271Y4447D01*
X19275Y4417D01*
X19276Y4388D01*
Y4375D01*
X19278Y4364D01*
Y3919D01*
X18318D01*
Y4047D01*
X18744D01*
Y4210D01*
X18742Y4226D01*
Y4237D01*
X18741Y4246D01*
X18740Y4253D01*
Y4259D01*
X18738Y4262D01*
Y4263D01*
X18731Y4285D01*
X18727Y4295D01*
X18723Y4303D01*
X18719Y4312D01*
X18716Y4317D01*
X18715Y4320D01*
X18713Y4321D01*
X18705Y4332D01*
X18695Y4343D01*
X18674Y4364D01*
X18665Y4374D01*
X18656Y4381D01*
X18651Y4385D01*
X18650Y4386D01*
X18630Y4400D01*
X18609Y4416D01*
X18587Y4431D01*
X18566Y4446D01*
X18547Y4459D01*
X18532Y4468D01*
X18526Y4472D01*
X18522Y4475D01*
X18519Y4478D01*
X18518D01*
X18318Y4604D01*
Y4762D01*
X18579Y4597D01*
D02*
G37*
G36*
X6624Y23267D02*
X6640Y23244D01*
X6658Y23222D01*
X6674Y23203D01*
X6691Y23186D01*
X6703Y23172D01*
X6709Y23168D01*
X6713Y23164D01*
X6714Y23163D01*
X6716Y23161D01*
X6745Y23138D01*
X6774Y23116D01*
X6802Y23096D01*
X6830Y23081D01*
X6853Y23067D01*
X6863Y23061D01*
X6871Y23057D01*
X6878Y23053D01*
X6884Y23052D01*
X6886Y23049D01*
X6888D01*
Y22935D01*
X6867Y22944D01*
X6846Y22953D01*
X6825Y22963D01*
X6806Y22973D01*
X6789Y22981D01*
X6775Y22988D01*
X6767Y22993D01*
X6766Y22995D01*
X6764D01*
X6739Y23010D01*
X6717Y23025D01*
X6698Y23039D01*
X6683Y23052D01*
X6669Y23061D01*
X6660Y23070D01*
X6653Y23075D01*
X6652Y23077D01*
Y22326D01*
X6534D01*
Y23290D01*
X6610D01*
X6624Y23267D01*
D02*
G37*
G36*
X7265Y22625D02*
Y22595D01*
X7268Y22570D01*
X7269Y22550D01*
X7272Y22533D01*
X7275Y22521D01*
X7276Y22511D01*
X7279Y22505D01*
Y22504D01*
X7284Y22490D01*
X7291Y22479D01*
X7300Y22469D01*
X7307Y22460D01*
X7315Y22454D01*
X7321Y22448D01*
X7325Y22446D01*
X7326Y22444D01*
X7340Y22437D01*
X7354Y22432D01*
X7368Y22429D01*
X7380Y22426D01*
X7393Y22425D01*
X7401Y22423D01*
X7409D01*
X7431Y22425D01*
X7452Y22430D01*
X7469Y22436D01*
X7484Y22444D01*
X7495Y22451D01*
X7504Y22458D01*
X7509Y22462D01*
X7511Y22464D01*
X7517Y22472D01*
X7523Y22482D01*
X7531Y22504D01*
X7540Y22529D01*
X7544Y22554D01*
X7548Y22577D01*
Y22587D01*
X7549Y22595D01*
X7551Y22604D01*
Y22609D01*
Y22612D01*
Y22613D01*
X7666Y22597D01*
Y22570D01*
X7664Y22547D01*
X7660Y22523D01*
X7658Y22503D01*
X7652Y22483D01*
X7646Y22466D01*
X7641Y22450D01*
X7635Y22436D01*
X7628Y22423D01*
X7623Y22412D01*
X7617Y22403D01*
X7612Y22396D01*
X7608Y22390D01*
X7605Y22385D01*
X7603Y22383D01*
X7602Y22382D01*
X7588Y22369D01*
X7574Y22358D01*
X7559Y22349D01*
X7542Y22340D01*
X7511Y22328D01*
X7480Y22319D01*
X7451Y22314D01*
X7440Y22313D01*
X7429Y22311D01*
X7420Y22310D01*
X7408D01*
X7377Y22311D01*
X7350Y22315D01*
X7325Y22321D01*
X7302Y22328D01*
X7284Y22333D01*
X7272Y22339D01*
X7264Y22343D01*
X7261Y22344D01*
X7239Y22358D01*
X7219Y22375D01*
X7204Y22392D01*
X7190Y22407D01*
X7180Y22422D01*
X7174Y22433D01*
X7169Y22441D01*
X7168Y22443D01*
Y22444D01*
X7158Y22472D01*
X7150Y22501D01*
X7144Y22533D01*
X7142Y22564D01*
X7139Y22590D01*
Y22601D01*
X7137Y22612D01*
Y22620D01*
Y22626D01*
Y22630D01*
Y22632D01*
Y23286D01*
X7265D01*
Y22625D01*
D02*
G37*
G36*
X49963Y18399D02*
X49987Y18397D01*
X50010Y18392D01*
X50031Y18388D01*
X50051Y18381D01*
X50070Y18374D01*
X50087Y18367D01*
X50102Y18359D01*
X50116Y18351D01*
X50128Y18344D01*
X50138Y18337D01*
X50148Y18330D01*
X50155Y18326D01*
X50159Y18322D01*
X50162Y18319D01*
X50163Y18318D01*
X50178Y18302D01*
X50192Y18286D01*
X50203Y18268D01*
X50213Y18251D01*
X50223Y18234D01*
X50229Y18218D01*
X50239Y18186D01*
X50243Y18172D01*
X50246Y18158D01*
X50248Y18147D01*
X50249Y18136D01*
X50250Y18128D01*
Y18116D01*
X50249Y18091D01*
X50245Y18068D01*
X50241Y18046D01*
X50235Y18026D01*
X50228Y18010D01*
X50224Y17997D01*
X50220Y17989D01*
X50218Y17987D01*
Y17986D01*
X50205Y17964D01*
X50189Y17944D01*
X50174Y17926D01*
X50157Y17913D01*
X50144Y17900D01*
X50132Y17890D01*
X50124Y17885D01*
X50123Y17883D01*
X50148D01*
X50173Y17885D01*
X50195Y17886D01*
X50217Y17889D01*
X50236Y17890D01*
X50254Y17893D01*
X50271Y17896D01*
X50286Y17900D01*
X50300Y17903D01*
X50311Y17906D01*
X50321Y17908D01*
X50329Y17910D01*
X50335Y17913D01*
X50339Y17914D01*
X50342Y17915D01*
X50343D01*
X50371Y17929D01*
X50396Y17943D01*
X50415Y17958D01*
X50432Y17972D01*
X50446Y17985D01*
X50456Y17994D01*
X50461Y18001D01*
X50462Y18004D01*
X50474Y18021D01*
X50481Y18037D01*
X50486Y18054D01*
X50490Y18071D01*
X50493Y18083D01*
X50494Y18094D01*
Y18104D01*
X50492Y18129D01*
X50486Y18152D01*
X50478Y18172D01*
X50469Y18190D01*
X50460Y18204D01*
X50451Y18213D01*
X50446Y18219D01*
X50443Y18222D01*
X50431Y18232D01*
X50415Y18241D01*
X50399Y18250D01*
X50382Y18255D01*
X50367Y18261D01*
X50354Y18265D01*
X50346Y18266D01*
X50345Y18268D01*
X50343D01*
X50353Y18385D01*
X50392Y18377D01*
X50426Y18365D01*
X50457Y18351D01*
X50482Y18336D01*
X50501Y18320D01*
X50510Y18315D01*
X50517Y18308D01*
X50521Y18304D01*
X50525Y18299D01*
X50526Y18298D01*
X50528Y18297D01*
X50539Y18283D01*
X50548Y18268D01*
X50565Y18237D01*
X50576Y18207D01*
X50583Y18177D01*
X50589Y18151D01*
X50590Y18140D01*
Y18130D01*
X50591Y18122D01*
Y18111D01*
X50590Y18083D01*
X50587Y18057D01*
X50582Y18032D01*
X50575Y18008D01*
X50565Y17987D01*
X50557Y17967D01*
X50546Y17949D01*
X50536Y17932D01*
X50526Y17918D01*
X50515Y17904D01*
X50507Y17893D01*
X50499Y17885D01*
X50490Y17878D01*
X50485Y17872D01*
X50482Y17870D01*
X50481Y17868D01*
X50456Y17850D01*
X50426Y17835D01*
X50396Y17821D01*
X50364Y17809D01*
X50331Y17799D01*
X50297Y17791D01*
X50263Y17784D01*
X50231Y17778D01*
X50199Y17774D01*
X50170Y17771D01*
X50144Y17768D01*
X50121Y17767D01*
X50102D01*
X50088Y17766D01*
X50082D01*
X50078D01*
X50077D01*
X50076D01*
X50031Y17767D01*
X49990Y17770D01*
X49951Y17774D01*
X49915Y17781D01*
X49883Y17788D01*
X49854Y17795D01*
X49827Y17803D01*
X49804Y17813D01*
X49784Y17821D01*
X49766Y17829D01*
X49752Y17836D01*
X49740Y17845D01*
X49730Y17850D01*
X49725Y17854D01*
X49721Y17857D01*
X49719Y17858D01*
X49700Y17876D01*
X49683Y17896D01*
X49669Y17915D01*
X49657Y17935D01*
X49646Y17956D01*
X49637Y17975D01*
X49630Y17994D01*
X49625Y18014D01*
X49621Y18030D01*
X49617Y18047D01*
X49614Y18061D01*
X49612Y18073D01*
Y18085D01*
X49611Y18091D01*
Y18098D01*
X49612Y18130D01*
X49618Y18159D01*
X49623Y18186D01*
X49632Y18209D01*
X49639Y18227D01*
X49646Y18241D01*
X49647Y18247D01*
X49650Y18251D01*
X49651Y18252D01*
Y18254D01*
X49668Y18277D01*
X49687Y18299D01*
X49707Y18318D01*
X49726Y18333D01*
X49744Y18345D01*
X49758Y18354D01*
X49764Y18356D01*
X49768Y18359D01*
X49769Y18361D01*
X49770D01*
X49800Y18374D01*
X49830Y18384D01*
X49858Y18391D01*
X49884Y18395D01*
X49906Y18399D01*
X49915D01*
X49923Y18401D01*
X49930D01*
X49934D01*
X49937D01*
X49938D01*
X49963Y18399D01*
D02*
G37*
G36*
Y17535D02*
X49941Y17530D01*
X49920Y17523D01*
X49901Y17516D01*
X49883Y17509D01*
X49866Y17501D01*
X49852Y17492D01*
X49838Y17483D01*
X49826Y17474D01*
X49815Y17467D01*
X49807Y17459D01*
X49798Y17452D01*
X49791Y17447D01*
X49787Y17441D01*
X49783Y17437D01*
X49782Y17435D01*
X49780Y17434D01*
X49769Y17420D01*
X49761Y17405D01*
X49745Y17374D01*
X49734Y17345D01*
X49727Y17316D01*
X49722Y17291D01*
X49721Y17282D01*
Y17272D01*
X49719Y17264D01*
Y17254D01*
X49721Y17222D01*
X49726Y17191D01*
X49733Y17164D01*
X49741Y17139D01*
X49750Y17119D01*
X49754Y17111D01*
X49757Y17104D01*
X49759Y17098D01*
X49762Y17094D01*
X49764Y17092D01*
Y17090D01*
X49783Y17064D01*
X49804Y17042D01*
X49827Y17022D01*
X49849Y17007D01*
X49869Y16994D01*
X49886Y16986D01*
X49893Y16983D01*
X49897Y16981D01*
X49899Y16979D01*
X49901D01*
X49937Y16968D01*
X49973Y16960D01*
X50009Y16953D01*
X50042Y16949D01*
X50058Y16947D01*
X50071Y16946D01*
X50084D01*
X50094Y16945D01*
X50102D01*
X50109D01*
X50113D01*
X50114D01*
X50150Y16946D01*
X50184Y16949D01*
X50214Y16954D01*
X50242Y16960D01*
X50266Y16964D01*
X50275Y16967D01*
X50284Y16969D01*
X50291Y16971D01*
X50295Y16972D01*
X50297Y16974D01*
X50299D01*
X50331Y16988D01*
X50360Y17003D01*
X50383Y17019D01*
X50404Y17037D01*
X50421Y17053D01*
X50432Y17065D01*
X50439Y17075D01*
X50442Y17076D01*
Y17078D01*
X50460Y17107D01*
X50474Y17139D01*
X50483Y17169D01*
X50489Y17198D01*
X50493Y17225D01*
X50494Y17236D01*
Y17245D01*
X50496Y17252D01*
Y17264D01*
X50494Y17298D01*
X50489Y17330D01*
X50481Y17356D01*
X50472Y17380D01*
X50462Y17398D01*
X50456Y17412D01*
X50450Y17420D01*
X50447Y17423D01*
X50426Y17445D01*
X50403Y17466D01*
X50378Y17483D01*
X50353Y17497D01*
X50331Y17508D01*
X50320Y17512D01*
X50311Y17515D01*
X50304Y17517D01*
X50299Y17520D01*
X50296Y17521D01*
X50295D01*
X50324Y17646D01*
X50349Y17638D01*
X50371Y17630D01*
X50392Y17619D01*
X50413Y17609D01*
X50431Y17598D01*
X50447Y17585D01*
X50464Y17574D01*
X50478Y17563D01*
X50489Y17552D01*
X50500Y17542D01*
X50510Y17533D01*
X50517Y17526D01*
X50524Y17519D01*
X50528Y17513D01*
X50529Y17510D01*
X50530Y17509D01*
X50543Y17490D01*
X50555Y17470D01*
X50565Y17451D01*
X50573Y17430D01*
X50586Y17388D01*
X50594Y17351D01*
X50598Y17333D01*
X50600Y17318D01*
X50601Y17302D01*
X50603Y17290D01*
X50604Y17280D01*
Y17266D01*
X50601Y17221D01*
X50594Y17176D01*
X50586Y17137D01*
X50580Y17119D01*
X50575Y17103D01*
X50569Y17087D01*
X50564Y17074D01*
X50560Y17062D01*
X50555Y17051D01*
X50551Y17044D01*
X50548Y17039D01*
X50547Y17035D01*
X50546Y17033D01*
X50522Y16996D01*
X50494Y16964D01*
X50467Y16936D01*
X50439Y16913D01*
X50414Y16895D01*
X50403Y16888D01*
X50393Y16882D01*
X50386Y16877D01*
X50381Y16874D01*
X50376Y16872D01*
X50375Y16871D01*
X50332Y16852D01*
X50288Y16838D01*
X50243Y16828D01*
X50203Y16821D01*
X50185Y16818D01*
X50167Y16817D01*
X50153Y16816D01*
X50139D01*
X50130Y16814D01*
X50121D01*
X50116D01*
X50114D01*
X50064Y16817D01*
X50016Y16823D01*
X49973Y16829D01*
X49952Y16835D01*
X49934Y16839D01*
X49917Y16843D01*
X49902Y16849D01*
X49888Y16853D01*
X49877Y16856D01*
X49869Y16860D01*
X49862Y16861D01*
X49858Y16864D01*
X49856D01*
X49815Y16885D01*
X49777Y16908D01*
X49745Y16933D01*
X49733Y16946D01*
X49721Y16957D01*
X49709Y16968D01*
X49700Y16979D01*
X49691Y16989D01*
X49686Y16997D01*
X49680Y17003D01*
X49676Y17008D01*
X49675Y17011D01*
X49673Y17012D01*
X49662Y17032D01*
X49653Y17051D01*
X49637Y17093D01*
X49626Y17135D01*
X49619Y17175D01*
X49617Y17194D01*
X49614Y17211D01*
X49612Y17226D01*
Y17239D01*
X49611Y17250D01*
Y17265D01*
X49612Y17293D01*
X49615Y17319D01*
X49618Y17344D01*
X49623Y17368D01*
X49630Y17390D01*
X49637Y17411D01*
X49644Y17430D01*
X49653Y17448D01*
X49660Y17463D01*
X49666Y17478D01*
X49673Y17490D01*
X49680Y17501D01*
X49686Y17508D01*
X49689Y17515D01*
X49691Y17517D01*
X49693Y17519D01*
X49709Y17538D01*
X49726Y17555D01*
X49745Y17570D01*
X49765Y17585D01*
X49804Y17610D01*
X49843Y17630D01*
X49861Y17638D01*
X49877Y17645D01*
X49893Y17650D01*
X49905Y17655D01*
X49916Y17659D01*
X49924Y17662D01*
X49930Y17663D01*
X49931D01*
X49963Y17535D01*
D02*
G37*
G36*
X49977Y12203D02*
X50001Y12200D01*
X50024Y12196D01*
X50045Y12190D01*
X50064Y12183D01*
X50084Y12176D01*
X50101Y12168D01*
X50116Y12161D01*
X50130Y12153D01*
X50142Y12145D01*
X50152Y12138D01*
X50162Y12131D01*
X50168Y12125D01*
X50173Y12121D01*
X50175Y12118D01*
X50177Y12117D01*
X50192Y12100D01*
X50206Y12084D01*
X50217Y12066D01*
X50227Y12047D01*
X50236Y12029D01*
X50243Y12011D01*
X50253Y11978D01*
X50257Y11963D01*
X50260Y11949D01*
X50261Y11937D01*
X50263Y11925D01*
X50264Y11917D01*
Y11887D01*
X50261Y11870D01*
X50254Y11837D01*
X50245Y11806D01*
X50234Y11778D01*
X50223Y11756D01*
X50217Y11747D01*
X50213Y11738D01*
X50209Y11731D01*
X50206Y11727D01*
X50205Y11724D01*
X50203Y11723D01*
X50462Y11774D01*
Y12158D01*
X50575D01*
Y11681D01*
X50081Y11588D01*
X50066Y11699D01*
X50081Y11709D01*
X50094Y11722D01*
X50106Y11733D01*
X50116Y11744D01*
X50123Y11755D01*
X50130Y11763D01*
X50132Y11769D01*
X50134Y11770D01*
X50142Y11788D01*
X50149Y11806D01*
X50153Y11823D01*
X50157Y11839D01*
X50159Y11853D01*
X50160Y11864D01*
Y11891D01*
X50157Y11907D01*
X50150Y11937D01*
X50141Y11961D01*
X50131Y11984D01*
X50120Y12000D01*
X50110Y12013D01*
X50103Y12020D01*
X50102Y12023D01*
X50101D01*
X50077Y12042D01*
X50052Y12056D01*
X50026Y12066D01*
X49999Y12072D01*
X49977Y12077D01*
X49967Y12078D01*
X49959D01*
X49952Y12079D01*
X49947D01*
X49944D01*
X49942D01*
X49923D01*
X49905Y12077D01*
X49870Y12070D01*
X49841Y12060D01*
X49818Y12050D01*
X49798Y12039D01*
X49783Y12029D01*
X49779Y12025D01*
X49775Y12023D01*
X49773Y12021D01*
X49772Y12020D01*
X49761Y12009D01*
X49751Y11998D01*
X49734Y11973D01*
X49723Y11949D01*
X49716Y11925D01*
X49711Y11906D01*
X49709Y11889D01*
X49708Y11884D01*
Y11876D01*
X49709Y11849D01*
X49715Y11826D01*
X49722Y11805D01*
X49730Y11788D01*
X49739Y11773D01*
X49745Y11762D01*
X49751Y11756D01*
X49752Y11753D01*
X49772Y11737D01*
X49793Y11723D01*
X49816Y11712D01*
X49837Y11704D01*
X49858Y11698D01*
X49873Y11694D01*
X49880Y11692D01*
X49884Y11691D01*
X49887D01*
X49888D01*
X49879Y11568D01*
X49856Y11570D01*
X49836Y11575D01*
X49797Y11587D01*
X49764Y11602D01*
X49748Y11611D01*
X49736Y11619D01*
X49723Y11626D01*
X49712Y11634D01*
X49704Y11641D01*
X49697Y11648D01*
X49691Y11654D01*
X49686Y11656D01*
X49684Y11659D01*
X49683Y11661D01*
X49671Y11677D01*
X49660Y11694D01*
X49650Y11712D01*
X49641Y11730D01*
X49629Y11765D01*
X49621Y11799D01*
X49617Y11814D01*
X49615Y11830D01*
X49614Y11842D01*
X49612Y11853D01*
X49611Y11863D01*
Y11876D01*
X49612Y11905D01*
X49617Y11932D01*
X49622Y11959D01*
X49629Y11982D01*
X49639Y12004D01*
X49648Y12025D01*
X49658Y12045D01*
X49669Y12061D01*
X49680Y12077D01*
X49690Y12090D01*
X49701Y12102D01*
X49709Y12111D01*
X49716Y12118D01*
X49722Y12124D01*
X49726Y12127D01*
X49727Y12128D01*
X49745Y12142D01*
X49765Y12153D01*
X49783Y12164D01*
X49802Y12172D01*
X49840Y12186D01*
X49876Y12194D01*
X49891Y12197D01*
X49906Y12200D01*
X49919Y12201D01*
X49930Y12203D01*
X49940Y12204D01*
X49947D01*
X49951D01*
X49952D01*
X49977Y12203D01*
D02*
G37*
G36*
X49963Y11332D02*
X49941Y11326D01*
X49920Y11319D01*
X49901Y11312D01*
X49883Y11306D01*
X49866Y11297D01*
X49852Y11289D01*
X49838Y11279D01*
X49826Y11271D01*
X49815Y11264D01*
X49807Y11256D01*
X49798Y11249D01*
X49791Y11243D01*
X49787Y11238D01*
X49783Y11233D01*
X49782Y11232D01*
X49780Y11231D01*
X49769Y11217D01*
X49761Y11201D01*
X49745Y11171D01*
X49734Y11142D01*
X49727Y11113D01*
X49722Y11088D01*
X49721Y11078D01*
Y11068D01*
X49719Y11060D01*
Y11050D01*
X49721Y11018D01*
X49726Y10988D01*
X49733Y10960D01*
X49741Y10935D01*
X49750Y10916D01*
X49754Y10907D01*
X49757Y10901D01*
X49759Y10895D01*
X49762Y10891D01*
X49764Y10888D01*
Y10887D01*
X49783Y10860D01*
X49804Y10838D01*
X49827Y10819D01*
X49849Y10803D01*
X49869Y10791D01*
X49886Y10783D01*
X49893Y10780D01*
X49897Y10777D01*
X49899Y10776D01*
X49901D01*
X49937Y10765D01*
X49973Y10756D01*
X50009Y10749D01*
X50042Y10745D01*
X50058Y10744D01*
X50071Y10742D01*
X50084D01*
X50094Y10741D01*
X50102D01*
X50109D01*
X50113D01*
X50114D01*
X50150Y10742D01*
X50184Y10745D01*
X50214Y10751D01*
X50242Y10756D01*
X50266Y10760D01*
X50275Y10763D01*
X50284Y10766D01*
X50291Y10767D01*
X50295Y10769D01*
X50297Y10770D01*
X50299D01*
X50331Y10784D01*
X50360Y10799D01*
X50383Y10816D01*
X50404Y10834D01*
X50421Y10849D01*
X50432Y10862D01*
X50439Y10871D01*
X50442Y10873D01*
Y10874D01*
X50460Y10903D01*
X50474Y10935D01*
X50483Y10966D01*
X50489Y10995D01*
X50493Y11021D01*
X50494Y11032D01*
Y11042D01*
X50496Y11049D01*
Y11060D01*
X50494Y11095D01*
X50489Y11127D01*
X50481Y11153D01*
X50472Y11177D01*
X50462Y11195D01*
X50456Y11208D01*
X50450Y11217D01*
X50447Y11220D01*
X50426Y11242D01*
X50403Y11263D01*
X50378Y11279D01*
X50353Y11293D01*
X50331Y11304D01*
X50320Y11308D01*
X50311Y11311D01*
X50304Y11314D01*
X50299Y11317D01*
X50296Y11318D01*
X50295D01*
X50324Y11443D01*
X50349Y11434D01*
X50371Y11426D01*
X50392Y11415D01*
X50413Y11405D01*
X50431Y11394D01*
X50447Y11382D01*
X50464Y11371D01*
X50478Y11360D01*
X50489Y11349D01*
X50500Y11339D01*
X50510Y11329D01*
X50517Y11322D01*
X50524Y11315D01*
X50528Y11310D01*
X50529Y11307D01*
X50530Y11306D01*
X50543Y11286D01*
X50555Y11267D01*
X50565Y11247D01*
X50573Y11226D01*
X50586Y11185D01*
X50594Y11147D01*
X50598Y11129D01*
X50600Y11114D01*
X50601Y11099D01*
X50603Y11086D01*
X50604Y11077D01*
Y11063D01*
X50601Y11017D01*
X50594Y10973D01*
X50586Y10934D01*
X50580Y10916D01*
X50575Y10899D01*
X50569Y10884D01*
X50564Y10870D01*
X50560Y10859D01*
X50555Y10848D01*
X50551Y10841D01*
X50548Y10835D01*
X50547Y10831D01*
X50546Y10830D01*
X50522Y10792D01*
X50494Y10760D01*
X50467Y10733D01*
X50439Y10709D01*
X50414Y10691D01*
X50403Y10684D01*
X50393Y10679D01*
X50386Y10673D01*
X50381Y10670D01*
X50376Y10669D01*
X50375Y10668D01*
X50332Y10648D01*
X50288Y10634D01*
X50243Y10625D01*
X50203Y10618D01*
X50185Y10615D01*
X50167Y10613D01*
X50153Y10612D01*
X50139D01*
X50130Y10611D01*
X50121D01*
X50116D01*
X50114D01*
X50064Y10613D01*
X50016Y10619D01*
X49973Y10626D01*
X49952Y10632D01*
X49934Y10636D01*
X49917Y10640D01*
X49902Y10645D01*
X49888Y10650D01*
X49877Y10652D01*
X49869Y10656D01*
X49862Y10658D01*
X49858Y10661D01*
X49856D01*
X49815Y10681D01*
X49777Y10705D01*
X49745Y10730D01*
X49733Y10742D01*
X49721Y10754D01*
X49709Y10765D01*
X49700Y10776D01*
X49691Y10785D01*
X49686Y10794D01*
X49680Y10799D01*
X49676Y10805D01*
X49675Y10808D01*
X49673Y10809D01*
X49662Y10828D01*
X49653Y10848D01*
X49637Y10889D01*
X49626Y10931D01*
X49619Y10971D01*
X49617Y10991D01*
X49614Y11007D01*
X49612Y11023D01*
Y11035D01*
X49611Y11046D01*
Y11061D01*
X49612Y11089D01*
X49615Y11116D01*
X49618Y11140D01*
X49623Y11164D01*
X49630Y11186D01*
X49637Y11207D01*
X49644Y11226D01*
X49653Y11244D01*
X49660Y11260D01*
X49666Y11275D01*
X49673Y11286D01*
X49680Y11297D01*
X49686Y11304D01*
X49689Y11311D01*
X49691Y11314D01*
X49693Y11315D01*
X49709Y11335D01*
X49726Y11351D01*
X49745Y11367D01*
X49765Y11382D01*
X49804Y11407D01*
X49843Y11426D01*
X49861Y11434D01*
X49877Y11441D01*
X49893Y11447D01*
X49905Y11451D01*
X49916Y11455D01*
X49924Y11458D01*
X49930Y11459D01*
X49931D01*
X49963Y11332D01*
D02*
G37*
G36*
X12359Y16361D02*
X12980D01*
Y16265D01*
X12359Y15826D01*
X12250D01*
Y16243D01*
X12020D01*
Y16361D01*
X12250D01*
Y16491D01*
X12359D01*
Y16361D01*
D02*
G37*
G36*
X12356Y15630D02*
X12334Y15624D01*
X12313Y15617D01*
X12293Y15611D01*
X12275Y15604D01*
X12259Y15595D01*
X12245Y15587D01*
X12231Y15577D01*
X12218Y15569D01*
X12207Y15562D01*
X12199Y15554D01*
X12191Y15547D01*
X12184Y15541D01*
X12180Y15536D01*
X12175Y15531D01*
X12174Y15530D01*
X12173Y15529D01*
X12162Y15515D01*
X12153Y15500D01*
X12138Y15469D01*
X12127Y15440D01*
X12120Y15411D01*
X12114Y15386D01*
X12113Y15376D01*
Y15366D01*
X12112Y15358D01*
Y15348D01*
X12113Y15317D01*
X12119Y15286D01*
X12126Y15258D01*
X12134Y15233D01*
X12142Y15214D01*
X12146Y15206D01*
X12149Y15199D01*
X12152Y15193D01*
X12155Y15189D01*
X12156Y15186D01*
Y15185D01*
X12175Y15158D01*
X12196Y15136D01*
X12220Y15117D01*
X12242Y15102D01*
X12261Y15089D01*
X12278Y15081D01*
X12285Y15078D01*
X12289Y15075D01*
X12292Y15074D01*
X12293D01*
X12329Y15063D01*
X12365Y15054D01*
X12402Y15047D01*
X12435Y15043D01*
X12450Y15042D01*
X12464Y15041D01*
X12476D01*
X12486Y15039D01*
X12494D01*
X12501D01*
X12506D01*
X12507D01*
X12543Y15041D01*
X12576Y15043D01*
X12607Y15049D01*
X12635Y15054D01*
X12658Y15059D01*
X12668Y15061D01*
X12676Y15064D01*
X12683Y15066D01*
X12687Y15067D01*
X12690Y15068D01*
X12691D01*
X12723Y15082D01*
X12752Y15097D01*
X12776Y15114D01*
X12797Y15132D01*
X12813Y15147D01*
X12825Y15160D01*
X12831Y15170D01*
X12834Y15171D01*
Y15172D01*
X12852Y15201D01*
X12866Y15233D01*
X12876Y15264D01*
X12881Y15293D01*
X12886Y15319D01*
X12887Y15330D01*
Y15340D01*
X12888Y15347D01*
Y15358D01*
X12887Y15393D01*
X12881Y15425D01*
X12873Y15451D01*
X12865Y15475D01*
X12855Y15493D01*
X12848Y15507D01*
X12843Y15515D01*
X12840Y15518D01*
X12819Y15540D01*
X12795Y15561D01*
X12770Y15577D01*
X12745Y15591D01*
X12723Y15602D01*
X12712Y15606D01*
X12704Y15609D01*
X12697Y15612D01*
X12691Y15615D01*
X12689Y15616D01*
X12687D01*
X12716Y15741D01*
X12741Y15733D01*
X12764Y15724D01*
X12784Y15713D01*
X12805Y15703D01*
X12823Y15692D01*
X12840Y15680D01*
X12856Y15669D01*
X12870Y15658D01*
X12881Y15647D01*
X12892Y15637D01*
X12902Y15627D01*
X12909Y15620D01*
X12916Y15613D01*
X12920Y15608D01*
X12922Y15605D01*
X12923Y15604D01*
X12935Y15584D01*
X12948Y15565D01*
X12958Y15545D01*
X12966Y15525D01*
X12978Y15483D01*
X12987Y15446D01*
X12991Y15427D01*
X12992Y15412D01*
X12994Y15397D01*
X12995Y15384D01*
X12996Y15375D01*
Y15361D01*
X12994Y15315D01*
X12987Y15271D01*
X12978Y15232D01*
X12973Y15214D01*
X12967Y15197D01*
X12962Y15182D01*
X12956Y15168D01*
X12952Y15157D01*
X12948Y15146D01*
X12944Y15139D01*
X12941Y15133D01*
X12940Y15129D01*
X12938Y15128D01*
X12915Y15090D01*
X12887Y15059D01*
X12859Y15031D01*
X12831Y15007D01*
X12806Y14989D01*
X12795Y14982D01*
X12786Y14977D01*
X12779Y14971D01*
X12773Y14968D01*
X12769Y14967D01*
X12768Y14966D01*
X12725Y14946D01*
X12680Y14932D01*
X12636Y14923D01*
X12596Y14916D01*
X12578Y14913D01*
X12560Y14912D01*
X12546Y14910D01*
X12532D01*
X12522Y14909D01*
X12514D01*
X12508D01*
X12507D01*
X12457Y14912D01*
X12408Y14917D01*
X12365Y14924D01*
X12345Y14930D01*
X12327Y14934D01*
X12310Y14938D01*
X12295Y14943D01*
X12281Y14948D01*
X12270Y14950D01*
X12261Y14955D01*
X12255Y14956D01*
X12250Y14959D01*
X12249D01*
X12207Y14980D01*
X12170Y15003D01*
X12138Y15028D01*
X12126Y15041D01*
X12113Y15052D01*
X12102Y15063D01*
X12092Y15074D01*
X12084Y15084D01*
X12078Y15092D01*
X12073Y15097D01*
X12069Y15103D01*
X12067Y15106D01*
X12066Y15107D01*
X12055Y15127D01*
X12045Y15146D01*
X12030Y15188D01*
X12019Y15229D01*
X12012Y15269D01*
X12009Y15289D01*
X12006Y15305D01*
X12005Y15321D01*
Y15333D01*
X12004Y15344D01*
Y15360D01*
X12005Y15387D01*
X12008Y15414D01*
X12010Y15439D01*
X12016Y15462D01*
X12023Y15484D01*
X12030Y15505D01*
X12037Y15525D01*
X12045Y15543D01*
X12052Y15558D01*
X12059Y15573D01*
X12066Y15584D01*
X12073Y15595D01*
X12078Y15602D01*
X12081Y15609D01*
X12084Y15612D01*
X12085Y15613D01*
X12102Y15633D01*
X12119Y15649D01*
X12138Y15665D01*
X12157Y15680D01*
X12196Y15705D01*
X12235Y15724D01*
X12253Y15733D01*
X12270Y15740D01*
X12285Y15745D01*
X12298Y15749D01*
X12309Y15753D01*
X12317Y15756D01*
X12322Y15758D01*
X12324D01*
X12356Y15630D01*
D02*
G37*
G36*
X12436Y20692D02*
X12467Y20686D01*
X12493Y20678D01*
X12515Y20670D01*
X12533Y20661D01*
X12547Y20653D01*
X12556Y20648D01*
X12558Y20646D01*
X12579Y20627D01*
X12597Y20606D01*
X12611Y20584D01*
X12622Y20562D01*
X12631Y20542D01*
X12636Y20527D01*
X12637Y20521D01*
X12639Y20517D01*
X12640Y20514D01*
Y20513D01*
X12653Y20537D01*
X12665Y20556D01*
X12679Y20573D01*
X12692Y20586D01*
X12703Y20598D01*
X12712Y20606D01*
X12718Y20610D01*
X12721Y20611D01*
X12740Y20623D01*
X12759Y20631D01*
X12779Y20638D01*
X12797Y20642D01*
X12812Y20645D01*
X12823Y20646D01*
X12832D01*
X12834D01*
X12858Y20645D01*
X12882Y20641D01*
X12902Y20635D01*
X12920Y20628D01*
X12936Y20621D01*
X12948Y20616D01*
X12955Y20611D01*
X12958Y20610D01*
X12979Y20596D01*
X12997Y20580D01*
X13012Y20563D01*
X13026Y20546D01*
X13035Y20532D01*
X13044Y20520D01*
X13048Y20512D01*
X13049Y20510D01*
Y20509D01*
X13060Y20484D01*
X13069Y20459D01*
X13076Y20434D01*
X13080Y20412D01*
X13083Y20394D01*
X13084Y20378D01*
Y20344D01*
X13081Y20324D01*
X13074Y20287D01*
X13063Y20255D01*
X13052Y20227D01*
X13045Y20215D01*
X13040Y20205D01*
X13034Y20195D01*
X13029Y20188D01*
X13024Y20183D01*
X13022Y20179D01*
X13020Y20176D01*
X13019Y20175D01*
X12992Y20148D01*
X12963Y20127D01*
X12933Y20111D01*
X12902Y20097D01*
X12876Y20089D01*
X12865Y20084D01*
X12855Y20082D01*
X12847Y20080D01*
X12841Y20079D01*
X12837Y20078D01*
X12836D01*
X12815Y20195D01*
X12845Y20201D01*
X12872Y20209D01*
X12894Y20219D01*
X12912Y20229D01*
X12926Y20238D01*
X12936Y20247D01*
X12943Y20252D01*
X12944Y20254D01*
X12958Y20272D01*
X12969Y20291D01*
X12976Y20309D01*
X12981Y20327D01*
X12984Y20344D01*
X12987Y20356D01*
Y20367D01*
X12986Y20392D01*
X12980Y20415D01*
X12973Y20434D01*
X12966Y20451D01*
X12958Y20463D01*
X12951Y20473D01*
X12945Y20480D01*
X12944Y20481D01*
X12927Y20496D01*
X12909Y20507D01*
X12891Y20514D01*
X12875Y20520D01*
X12859Y20523D01*
X12848Y20525D01*
X12840D01*
X12839D01*
X12837D01*
X12822D01*
X12808Y20523D01*
X12784Y20516D01*
X12764Y20506D01*
X12746Y20495D01*
X12733Y20484D01*
X12723Y20474D01*
X12718Y20467D01*
X12716Y20466D01*
Y20464D01*
X12704Y20441D01*
X12694Y20419D01*
X12687Y20395D01*
X12683Y20374D01*
X12680Y20356D01*
X12678Y20341D01*
Y20323D01*
X12679Y20317D01*
Y20310D01*
X12575Y20297D01*
X12579Y20315D01*
X12582Y20331D01*
X12585Y20345D01*
X12586Y20358D01*
X12588Y20367D01*
Y20380D01*
X12585Y20409D01*
X12579Y20435D01*
X12571Y20459D01*
X12561Y20478D01*
X12551Y20494D01*
X12543Y20505D01*
X12538Y20512D01*
X12535Y20514D01*
X12514Y20532D01*
X12492Y20546D01*
X12470Y20556D01*
X12447Y20562D01*
X12429Y20566D01*
X12414Y20567D01*
X12409Y20568D01*
X12404D01*
X12402D01*
X12400D01*
X12370Y20566D01*
X12342Y20559D01*
X12318Y20550D01*
X12298Y20539D01*
X12281Y20528D01*
X12269Y20520D01*
X12260Y20513D01*
X12257Y20510D01*
X12238Y20488D01*
X12224Y20464D01*
X12214Y20441D01*
X12208Y20419D01*
X12203Y20399D01*
X12202Y20384D01*
X12201Y20378D01*
Y20370D01*
X12202Y20345D01*
X12208Y20322D01*
X12214Y20301D01*
X12223Y20284D01*
X12230Y20270D01*
X12237Y20259D01*
X12242Y20254D01*
X12244Y20251D01*
X12263Y20234D01*
X12285Y20220D01*
X12309Y20208D01*
X12334Y20198D01*
X12355Y20191D01*
X12364Y20188D01*
X12373Y20187D01*
X12379Y20186D01*
X12385Y20184D01*
X12388Y20183D01*
X12389D01*
X12374Y20065D01*
X12352Y20068D01*
X12331Y20072D01*
X12292Y20084D01*
X12259Y20100D01*
X12245Y20108D01*
X12231Y20116D01*
X12219Y20125D01*
X12209Y20133D01*
X12199Y20140D01*
X12192Y20147D01*
X12187Y20151D01*
X12183Y20155D01*
X12180Y20158D01*
X12178Y20159D01*
X12166Y20176D01*
X12153Y20193D01*
X12144Y20209D01*
X12135Y20227D01*
X12122Y20262D01*
X12113Y20295D01*
X12110Y20310D01*
X12108Y20324D01*
X12106Y20337D01*
X12105Y20348D01*
X12104Y20356D01*
Y20369D01*
X12105Y20395D01*
X12108Y20419D01*
X12112Y20442D01*
X12117Y20464D01*
X12124Y20485D01*
X12131Y20503D01*
X12140Y20521D01*
X12148Y20537D01*
X12155Y20552D01*
X12163Y20564D01*
X12170Y20575D01*
X12177Y20584D01*
X12183Y20591D01*
X12187Y20596D01*
X12189Y20599D01*
X12191Y20600D01*
X12208Y20617D01*
X12226Y20631D01*
X12244Y20643D01*
X12262Y20654D01*
X12278Y20663D01*
X12296Y20671D01*
X12330Y20682D01*
X12345Y20685D01*
X12359Y20688D01*
X12371Y20691D01*
X12382Y20692D01*
X12391Y20693D01*
X12398D01*
X12402D01*
X12403D01*
X12436Y20692D01*
D02*
G37*
G36*
X12456Y19828D02*
X12434Y19822D01*
X12413Y19815D01*
X12393Y19808D01*
X12375Y19802D01*
X12359Y19793D01*
X12345Y19785D01*
X12331Y19775D01*
X12318Y19767D01*
X12307Y19760D01*
X12299Y19752D01*
X12291Y19745D01*
X12284Y19739D01*
X12280Y19734D01*
X12275Y19729D01*
X12274Y19728D01*
X12273Y19727D01*
X12262Y19713D01*
X12253Y19698D01*
X12238Y19667D01*
X12227Y19638D01*
X12220Y19609D01*
X12214Y19584D01*
X12213Y19574D01*
Y19564D01*
X12212Y19556D01*
Y19546D01*
X12213Y19514D01*
X12219Y19484D01*
X12226Y19456D01*
X12234Y19431D01*
X12242Y19412D01*
X12246Y19404D01*
X12249Y19397D01*
X12252Y19391D01*
X12255Y19387D01*
X12256Y19384D01*
Y19383D01*
X12275Y19356D01*
X12296Y19334D01*
X12320Y19315D01*
X12342Y19299D01*
X12361Y19287D01*
X12378Y19279D01*
X12385Y19276D01*
X12389Y19273D01*
X12392Y19272D01*
X12393D01*
X12429Y19261D01*
X12465Y19252D01*
X12502Y19245D01*
X12535Y19241D01*
X12550Y19240D01*
X12564Y19238D01*
X12576D01*
X12586Y19237D01*
X12594D01*
X12601D01*
X12606D01*
X12607D01*
X12643Y19238D01*
X12676Y19241D01*
X12707Y19247D01*
X12735Y19252D01*
X12758Y19257D01*
X12768Y19259D01*
X12776Y19262D01*
X12783Y19263D01*
X12787Y19265D01*
X12790Y19266D01*
X12791D01*
X12823Y19280D01*
X12852Y19295D01*
X12876Y19312D01*
X12897Y19330D01*
X12913Y19345D01*
X12925Y19358D01*
X12931Y19367D01*
X12934Y19369D01*
Y19370D01*
X12952Y19399D01*
X12966Y19431D01*
X12976Y19462D01*
X12981Y19491D01*
X12986Y19517D01*
X12987Y19528D01*
Y19538D01*
X12988Y19545D01*
Y19556D01*
X12987Y19591D01*
X12981Y19623D01*
X12973Y19649D01*
X12965Y19673D01*
X12955Y19691D01*
X12948Y19704D01*
X12943Y19713D01*
X12940Y19716D01*
X12919Y19738D01*
X12895Y19759D01*
X12870Y19775D01*
X12845Y19789D01*
X12823Y19800D01*
X12812Y19804D01*
X12804Y19807D01*
X12797Y19810D01*
X12791Y19813D01*
X12789Y19814D01*
X12787D01*
X12816Y19939D01*
X12841Y19931D01*
X12863Y19922D01*
X12884Y19911D01*
X12905Y19901D01*
X12923Y19890D01*
X12940Y19878D01*
X12956Y19867D01*
X12970Y19856D01*
X12981Y19845D01*
X12992Y19835D01*
X13002Y19825D01*
X13009Y19818D01*
X13016Y19811D01*
X13020Y19806D01*
X13022Y19803D01*
X13023Y19802D01*
X13035Y19782D01*
X13048Y19763D01*
X13058Y19743D01*
X13066Y19722D01*
X13078Y19681D01*
X13087Y19643D01*
X13091Y19625D01*
X13092Y19610D01*
X13094Y19595D01*
X13095Y19582D01*
X13096Y19573D01*
Y19559D01*
X13094Y19513D01*
X13087Y19469D01*
X13078Y19430D01*
X13073Y19412D01*
X13067Y19395D01*
X13062Y19380D01*
X13056Y19366D01*
X13052Y19355D01*
X13048Y19344D01*
X13044Y19337D01*
X13041Y19331D01*
X13040Y19327D01*
X13038Y19326D01*
X13015Y19288D01*
X12987Y19257D01*
X12959Y19229D01*
X12931Y19205D01*
X12906Y19187D01*
X12895Y19180D01*
X12886Y19175D01*
X12879Y19169D01*
X12873Y19166D01*
X12869Y19165D01*
X12868Y19164D01*
X12825Y19144D01*
X12780Y19130D01*
X12736Y19121D01*
X12696Y19114D01*
X12678Y19111D01*
X12660Y19110D01*
X12646Y19108D01*
X12632D01*
X12622Y19107D01*
X12614D01*
X12608D01*
X12607D01*
X12557Y19110D01*
X12508Y19115D01*
X12465Y19122D01*
X12445Y19128D01*
X12427Y19132D01*
X12410Y19136D01*
X12395Y19141D01*
X12381Y19146D01*
X12370Y19148D01*
X12361Y19152D01*
X12355Y19154D01*
X12350Y19157D01*
X12349D01*
X12307Y19177D01*
X12270Y19201D01*
X12238Y19226D01*
X12226Y19238D01*
X12213Y19250D01*
X12202Y19261D01*
X12192Y19272D01*
X12184Y19281D01*
X12178Y19290D01*
X12173Y19295D01*
X12169Y19301D01*
X12167Y19304D01*
X12166Y19305D01*
X12155Y19324D01*
X12145Y19344D01*
X12130Y19385D01*
X12119Y19427D01*
X12112Y19467D01*
X12109Y19487D01*
X12106Y19503D01*
X12105Y19519D01*
Y19531D01*
X12104Y19542D01*
Y19557D01*
X12105Y19585D01*
X12108Y19612D01*
X12110Y19636D01*
X12116Y19660D01*
X12123Y19682D01*
X12130Y19703D01*
X12137Y19722D01*
X12145Y19741D01*
X12152Y19756D01*
X12159Y19771D01*
X12166Y19782D01*
X12173Y19793D01*
X12178Y19800D01*
X12181Y19807D01*
X12184Y19810D01*
X12185Y19811D01*
X12202Y19831D01*
X12219Y19847D01*
X12238Y19863D01*
X12257Y19878D01*
X12296Y19903D01*
X12335Y19922D01*
X12353Y19931D01*
X12370Y19937D01*
X12385Y19943D01*
X12398Y19947D01*
X12409Y19951D01*
X12417Y19954D01*
X12422Y19955D01*
X12424D01*
X12456Y19828D01*
D02*
G37*
G36*
X21534Y7516D02*
X21557Y7532D01*
X21567Y7540D01*
X21577Y7547D01*
X21585Y7554D01*
X21591Y7560D01*
X21595Y7564D01*
X21596Y7565D01*
X21603Y7572D01*
X21610Y7581D01*
X21628Y7600D01*
X21649Y7622D01*
X21670Y7646D01*
X21688Y7668D01*
X21696Y7678D01*
X21704Y7686D01*
X21710Y7693D01*
X21714Y7699D01*
X21717Y7701D01*
X21718Y7703D01*
X21738Y7725D01*
X21756Y7747D01*
X21774Y7767D01*
X21789Y7785D01*
X21804Y7801D01*
X21818Y7815D01*
X21831Y7829D01*
X21842Y7840D01*
X21853Y7851D01*
X21861Y7859D01*
X21868Y7866D01*
X21875Y7873D01*
X21883Y7880D01*
X21886Y7883D01*
X21910Y7902D01*
X21931Y7919D01*
X21951Y7933D01*
X21968Y7944D01*
X21983Y7952D01*
X21994Y7958D01*
X22001Y7961D01*
X22004Y7962D01*
X22025Y7970D01*
X22046Y7976D01*
X22065Y7981D01*
X22082Y7984D01*
X22097Y7986D01*
X22108Y7987D01*
X22115D01*
X22118D01*
X22139Y7986D01*
X22158Y7983D01*
X22177Y7980D01*
X22194Y7975D01*
X22227Y7961D01*
X22254Y7947D01*
X22266Y7938D01*
X22276Y7932D01*
X22286Y7925D01*
X22292Y7918D01*
X22298Y7912D01*
X22304Y7909D01*
X22305Y7907D01*
X22306Y7905D01*
X22320Y7890D01*
X22333Y7873D01*
X22342Y7855D01*
X22351Y7837D01*
X22365Y7801D01*
X22374Y7765D01*
X22377Y7750D01*
X22380Y7735D01*
X22381Y7721D01*
X22383Y7710D01*
X22384Y7700D01*
Y7686D01*
X22383Y7661D01*
X22381Y7638D01*
X22377Y7615D01*
X22373Y7595D01*
X22367Y7575D01*
X22362Y7557D01*
X22355Y7540D01*
X22348Y7525D01*
X22341Y7511D01*
X22334Y7500D01*
X22329Y7491D01*
X22323Y7482D01*
X22319Y7475D01*
X22315Y7471D01*
X22313Y7468D01*
X22312Y7467D01*
X22298Y7453D01*
X22283Y7441D01*
X22266Y7428D01*
X22249Y7418D01*
X22216Y7402D01*
X22183Y7391D01*
X22168Y7387D01*
X22152Y7382D01*
X22140Y7380D01*
X22129Y7377D01*
X22119Y7375D01*
X22112D01*
X22108Y7374D01*
X22107D01*
X22094Y7495D01*
X22126Y7497D01*
X22154Y7503D01*
X22179Y7511D01*
X22198Y7521D01*
X22215Y7529D01*
X22226Y7538D01*
X22233Y7543D01*
X22236Y7546D01*
X22252Y7567D01*
X22265Y7589D01*
X22274Y7613D01*
X22280Y7633D01*
X22284Y7653D01*
X22286Y7669D01*
X22287Y7675D01*
Y7683D01*
X22286Y7712D01*
X22280Y7739D01*
X22272Y7761D01*
X22263Y7780D01*
X22254Y7796D01*
X22247Y7805D01*
X22241Y7812D01*
X22238Y7815D01*
X22219Y7832D01*
X22200Y7844D01*
X22180Y7854D01*
X22161Y7859D01*
X22145Y7864D01*
X22132Y7865D01*
X22123Y7866D01*
X22122D01*
X22121D01*
X22096Y7864D01*
X22069Y7858D01*
X22046Y7848D01*
X22023Y7839D01*
X22005Y7828D01*
X21990Y7818D01*
X21985Y7815D01*
X21980Y7812D01*
X21979Y7810D01*
X21978D01*
X21962Y7798D01*
X21947Y7785D01*
X21931Y7769D01*
X21914Y7753D01*
X21881Y7718D01*
X21847Y7683D01*
X21832Y7665D01*
X21818Y7650D01*
X21806Y7635D01*
X21795Y7622D01*
X21786Y7613D01*
X21779Y7604D01*
X21775Y7599D01*
X21774Y7597D01*
X21745Y7563D01*
X21717Y7531D01*
X21692Y7504D01*
X21671Y7484D01*
X21653Y7466D01*
X21641Y7453D01*
X21632Y7446D01*
X21631Y7443D01*
X21630D01*
X21606Y7424D01*
X21584Y7409D01*
X21562Y7395D01*
X21542Y7384D01*
X21526Y7375D01*
X21513Y7370D01*
X21505Y7367D01*
X21503Y7366D01*
X21502D01*
X21487Y7360D01*
X21473Y7357D01*
X21459Y7355D01*
X21447Y7353D01*
X21435Y7352D01*
X21427D01*
X21422D01*
X21420D01*
Y7988D01*
X21534D01*
Y7516D01*
D02*
G37*
G36*
X21756Y7133D02*
X21734Y7127D01*
X21713Y7120D01*
X21693Y7113D01*
X21675Y7106D01*
X21659Y7098D01*
X21645Y7090D01*
X21631Y7080D01*
X21618Y7072D01*
X21607Y7065D01*
X21599Y7056D01*
X21591Y7050D01*
X21584Y7044D01*
X21580Y7038D01*
X21575Y7034D01*
X21574Y7033D01*
X21573Y7031D01*
X21562Y7018D01*
X21553Y7002D01*
X21538Y6972D01*
X21527Y6943D01*
X21520Y6914D01*
X21514Y6889D01*
X21513Y6879D01*
Y6869D01*
X21512Y6861D01*
Y6851D01*
X21513Y6819D01*
X21519Y6789D01*
X21526Y6761D01*
X21534Y6736D01*
X21542Y6717D01*
X21546Y6708D01*
X21549Y6701D01*
X21552Y6696D01*
X21555Y6692D01*
X21556Y6689D01*
Y6688D01*
X21575Y6661D01*
X21596Y6639D01*
X21620Y6620D01*
X21642Y6604D01*
X21661Y6592D01*
X21678Y6584D01*
X21685Y6581D01*
X21689Y6578D01*
X21692Y6577D01*
X21693D01*
X21729Y6566D01*
X21765Y6557D01*
X21802Y6550D01*
X21835Y6546D01*
X21850Y6545D01*
X21864Y6543D01*
X21876D01*
X21886Y6542D01*
X21894D01*
X21901D01*
X21906D01*
X21907D01*
X21943Y6543D01*
X21976Y6546D01*
X22007Y6552D01*
X22035Y6557D01*
X22058Y6561D01*
X22068Y6564D01*
X22076Y6567D01*
X22083Y6568D01*
X22087Y6570D01*
X22090Y6571D01*
X22091D01*
X22123Y6585D01*
X22152Y6600D01*
X22176Y6617D01*
X22197Y6635D01*
X22213Y6650D01*
X22225Y6663D01*
X22231Y6672D01*
X22234Y6674D01*
Y6675D01*
X22252Y6704D01*
X22266Y6736D01*
X22276Y6767D01*
X22281Y6796D01*
X22286Y6822D01*
X22287Y6833D01*
Y6843D01*
X22288Y6850D01*
Y6861D01*
X22287Y6896D01*
X22281Y6927D01*
X22273Y6954D01*
X22265Y6977D01*
X22255Y6995D01*
X22248Y7009D01*
X22243Y7018D01*
X22240Y7020D01*
X22219Y7043D01*
X22195Y7063D01*
X22170Y7080D01*
X22145Y7094D01*
X22123Y7105D01*
X22112Y7109D01*
X22104Y7112D01*
X22097Y7115D01*
X22091Y7117D01*
X22089Y7119D01*
X22087D01*
X22116Y7244D01*
X22141Y7235D01*
X22163Y7227D01*
X22184Y7216D01*
X22205Y7206D01*
X22223Y7195D01*
X22240Y7183D01*
X22256Y7172D01*
X22270Y7160D01*
X22281Y7149D01*
X22292Y7140D01*
X22302Y7130D01*
X22309Y7123D01*
X22316Y7116D01*
X22320Y7111D01*
X22322Y7108D01*
X22323Y7106D01*
X22335Y7087D01*
X22348Y7068D01*
X22358Y7048D01*
X22366Y7027D01*
X22378Y6986D01*
X22387Y6948D01*
X22391Y6930D01*
X22392Y6915D01*
X22394Y6900D01*
X22395Y6887D01*
X22396Y6878D01*
Y6864D01*
X22394Y6818D01*
X22387Y6774D01*
X22378Y6735D01*
X22373Y6717D01*
X22367Y6700D01*
X22362Y6685D01*
X22356Y6671D01*
X22352Y6660D01*
X22348Y6649D01*
X22344Y6642D01*
X22341Y6636D01*
X22340Y6632D01*
X22338Y6631D01*
X22315Y6593D01*
X22287Y6561D01*
X22259Y6534D01*
X22231Y6510D01*
X22206Y6492D01*
X22195Y6485D01*
X22186Y6480D01*
X22179Y6474D01*
X22173Y6471D01*
X22169Y6470D01*
X22168Y6468D01*
X22125Y6449D01*
X22080Y6435D01*
X22036Y6425D01*
X21996Y6419D01*
X21978Y6416D01*
X21960Y6414D01*
X21946Y6413D01*
X21932D01*
X21922Y6412D01*
X21914D01*
X21908D01*
X21907D01*
X21857Y6414D01*
X21808Y6420D01*
X21765Y6427D01*
X21745Y6432D01*
X21727Y6437D01*
X21710Y6441D01*
X21695Y6446D01*
X21681Y6450D01*
X21670Y6453D01*
X21661Y6457D01*
X21655Y6459D01*
X21650Y6462D01*
X21649D01*
X21607Y6482D01*
X21570Y6506D01*
X21538Y6531D01*
X21526Y6543D01*
X21513Y6554D01*
X21502Y6566D01*
X21492Y6577D01*
X21484Y6586D01*
X21478Y6595D01*
X21473Y6600D01*
X21469Y6606D01*
X21467Y6609D01*
X21466Y6610D01*
X21455Y6629D01*
X21445Y6649D01*
X21430Y6690D01*
X21419Y6732D01*
X21412Y6772D01*
X21409Y6792D01*
X21406Y6808D01*
X21405Y6823D01*
Y6836D01*
X21404Y6847D01*
Y6862D01*
X21405Y6890D01*
X21408Y6916D01*
X21410Y6941D01*
X21416Y6965D01*
X21423Y6987D01*
X21430Y7008D01*
X21437Y7027D01*
X21445Y7045D01*
X21452Y7061D01*
X21459Y7076D01*
X21466Y7087D01*
X21473Y7098D01*
X21478Y7105D01*
X21481Y7112D01*
X21484Y7115D01*
X21485Y7116D01*
X21502Y7136D01*
X21519Y7152D01*
X21538Y7167D01*
X21557Y7183D01*
X21596Y7208D01*
X21635Y7227D01*
X21653Y7235D01*
X21670Y7242D01*
X21685Y7248D01*
X21698Y7252D01*
X21709Y7256D01*
X21717Y7259D01*
X21722Y7260D01*
X21724D01*
X21756Y7133D01*
D02*
G37*
G36*
X26777Y16532D02*
X26753Y16518D01*
X26731Y16502D01*
X26709Y16484D01*
X26689Y16468D01*
X26673Y16451D01*
X26659Y16439D01*
X26655Y16433D01*
X26650Y16429D01*
X26649Y16428D01*
X26648Y16426D01*
X26624Y16397D01*
X26602Y16368D01*
X26582Y16340D01*
X26567Y16312D01*
X26553Y16289D01*
X26548Y16279D01*
X26544Y16271D01*
X26539Y16264D01*
X26538Y16258D01*
X26535Y16256D01*
Y16254D01*
X26422D01*
X26430Y16275D01*
X26440Y16296D01*
X26449Y16317D01*
X26459Y16336D01*
X26467Y16353D01*
X26474Y16367D01*
X26480Y16375D01*
X26481Y16376D01*
Y16378D01*
X26496Y16403D01*
X26512Y16425D01*
X26526Y16444D01*
X26538Y16459D01*
X26548Y16473D01*
X26556Y16482D01*
X26562Y16489D01*
X26563Y16490D01*
X25813D01*
Y16608D01*
X26777D01*
Y16532D01*
D02*
G37*
G36*
X26148Y15928D02*
X26126Y15923D01*
X26105Y15916D01*
X26086Y15909D01*
X26068Y15902D01*
X26051Y15894D01*
X26037Y15885D01*
X26024Y15876D01*
X26011Y15867D01*
X26000Y15860D01*
X25992Y15852D01*
X25983Y15845D01*
X25976Y15840D01*
X25972Y15834D01*
X25968Y15830D01*
X25967Y15828D01*
X25965Y15827D01*
X25954Y15813D01*
X25946Y15798D01*
X25931Y15767D01*
X25919Y15738D01*
X25913Y15709D01*
X25907Y15684D01*
X25906Y15674D01*
Y15665D01*
X25904Y15656D01*
Y15647D01*
X25906Y15615D01*
X25911Y15584D01*
X25918Y15557D01*
X25926Y15532D01*
X25935Y15512D01*
X25939Y15504D01*
X25942Y15497D01*
X25944Y15491D01*
X25947Y15487D01*
X25949Y15484D01*
Y15483D01*
X25968Y15457D01*
X25989Y15435D01*
X26012Y15415D01*
X26035Y15400D01*
X26054Y15387D01*
X26071Y15379D01*
X26078Y15376D01*
X26082Y15374D01*
X26085Y15372D01*
X26086D01*
X26122Y15361D01*
X26158Y15353D01*
X26194Y15346D01*
X26227Y15342D01*
X26243Y15340D01*
X26256Y15339D01*
X26269D01*
X26279Y15337D01*
X26287D01*
X26294D01*
X26298D01*
X26299D01*
X26336Y15339D01*
X26369Y15342D01*
X26399Y15347D01*
X26427Y15353D01*
X26451Y15357D01*
X26460Y15360D01*
X26469Y15362D01*
X26476Y15364D01*
X26480Y15365D01*
X26483Y15367D01*
X26484D01*
X26516Y15380D01*
X26545Y15396D01*
X26569Y15412D01*
X26589Y15430D01*
X26606Y15446D01*
X26617Y15458D01*
X26624Y15468D01*
X26627Y15469D01*
Y15471D01*
X26645Y15500D01*
X26659Y15532D01*
X26668Y15562D01*
X26674Y15591D01*
X26678Y15618D01*
X26679Y15629D01*
Y15638D01*
X26681Y15645D01*
Y15656D01*
X26679Y15691D01*
X26674Y15723D01*
X26666Y15749D01*
X26657Y15773D01*
X26648Y15791D01*
X26641Y15805D01*
X26635Y15813D01*
X26632Y15816D01*
X26612Y15838D01*
X26588Y15859D01*
X26563Y15876D01*
X26538Y15889D01*
X26516Y15901D01*
X26505Y15905D01*
X26496Y15907D01*
X26489Y15910D01*
X26484Y15913D01*
X26481Y15914D01*
X26480D01*
X26509Y16039D01*
X26534Y16031D01*
X26556Y16023D01*
X26577Y16011D01*
X26598Y16002D01*
X26616Y15991D01*
X26632Y15978D01*
X26649Y15967D01*
X26663Y15956D01*
X26674Y15945D01*
X26685Y15935D01*
X26695Y15925D01*
X26702Y15919D01*
X26709Y15912D01*
X26713Y15906D01*
X26714Y15903D01*
X26716Y15902D01*
X26728Y15882D01*
X26740Y15863D01*
X26750Y15844D01*
X26759Y15823D01*
X26771Y15781D01*
X26779Y15744D01*
X26783Y15726D01*
X26785Y15711D01*
X26786Y15695D01*
X26788Y15683D01*
X26789Y15673D01*
Y15659D01*
X26786Y15613D01*
X26779Y15569D01*
X26771Y15530D01*
X26765Y15512D01*
X26760Y15496D01*
X26754Y15480D01*
X26749Y15466D01*
X26745Y15455D01*
X26740Y15444D01*
X26736Y15437D01*
X26734Y15432D01*
X26732Y15428D01*
X26731Y15426D01*
X26707Y15389D01*
X26679Y15357D01*
X26652Y15329D01*
X26624Y15306D01*
X26599Y15288D01*
X26588Y15281D01*
X26578Y15275D01*
X26571Y15270D01*
X26566Y15267D01*
X26562Y15265D01*
X26560Y15264D01*
X26517Y15245D01*
X26473Y15231D01*
X26428Y15221D01*
X26388Y15214D01*
X26370Y15211D01*
X26352Y15210D01*
X26338Y15208D01*
X26324D01*
X26315Y15207D01*
X26306D01*
X26301D01*
X26299D01*
X26250Y15210D01*
X26201Y15215D01*
X26158Y15222D01*
X26137Y15228D01*
X26119Y15232D01*
X26103Y15236D01*
X26087Y15242D01*
X26073Y15246D01*
X26062Y15249D01*
X26054Y15253D01*
X26047Y15254D01*
X26043Y15257D01*
X26042D01*
X26000Y15278D01*
X25962Y15301D01*
X25931Y15326D01*
X25918Y15339D01*
X25906Y15350D01*
X25895Y15361D01*
X25885Y15372D01*
X25876Y15382D01*
X25871Y15390D01*
X25865Y15396D01*
X25861Y15401D01*
X25860Y15404D01*
X25858Y15405D01*
X25847Y15425D01*
X25838Y15444D01*
X25822Y15486D01*
X25811Y15527D01*
X25804Y15568D01*
X25802Y15587D01*
X25799Y15604D01*
X25797Y15619D01*
Y15631D01*
X25796Y15643D01*
Y15658D01*
X25797Y15686D01*
X25800Y15712D01*
X25803Y15737D01*
X25809Y15760D01*
X25815Y15783D01*
X25822Y15803D01*
X25829Y15823D01*
X25838Y15841D01*
X25845Y15856D01*
X25852Y15871D01*
X25858Y15882D01*
X25865Y15894D01*
X25871Y15901D01*
X25874Y15907D01*
X25876Y15910D01*
X25878Y15912D01*
X25895Y15931D01*
X25911Y15948D01*
X25931Y15963D01*
X25950Y15978D01*
X25989Y16003D01*
X26028Y16023D01*
X26046Y16031D01*
X26062Y16038D01*
X26078Y16043D01*
X26090Y16048D01*
X26101Y16052D01*
X26109Y16054D01*
X26115Y16056D01*
X26116D01*
X26148Y15928D01*
D02*
G37*
%LPC*%
G36*
X27546Y10073D02*
X27244D01*
X27206Y10072D01*
X27175Y10066D01*
X27147Y10059D01*
X27126Y10051D01*
X27108Y10043D01*
X27097Y10036D01*
X27090Y10030D01*
X27087Y10029D01*
X27071Y10011D01*
X27058Y9993D01*
X27050Y9973D01*
X27043Y9957D01*
X27040Y9940D01*
X27039Y9927D01*
X27037Y9919D01*
Y9918D01*
Y9916D01*
X27039Y9900D01*
X27041Y9883D01*
X27046Y9869D01*
X27050Y9857D01*
X27055Y9846D01*
X27059Y9837D01*
X27062Y9832D01*
X27064Y9830D01*
X27073Y9816D01*
X27086Y9804D01*
X27098Y9794D01*
X27111Y9786D01*
X27122Y9780D01*
X27130Y9776D01*
X27136Y9774D01*
X27139Y9772D01*
X27158Y9767D01*
X27180Y9762D01*
X27202Y9760D01*
X27225Y9758D01*
X27244Y9757D01*
X27261Y9755D01*
X27546D01*
Y10073D01*
D02*
G37*
G36*
X32042Y11045D02*
X32034D01*
X32005Y11042D01*
X31979Y11035D01*
X31956Y11027D01*
X31937Y11016D01*
X31922Y11005D01*
X31911Y10997D01*
X31904Y10990D01*
X31901Y10987D01*
X31883Y10963D01*
X31869Y10938D01*
X31859Y10912D01*
X31854Y10887D01*
X31850Y10865D01*
X31848Y10855D01*
Y10847D01*
X31847Y10840D01*
Y10834D01*
Y10832D01*
Y10830D01*
X31850Y10793D01*
X31855Y10761D01*
X31863Y10733D01*
X31873Y10709D01*
X31884Y10691D01*
X31893Y10678D01*
X31898Y10669D01*
X31901Y10668D01*
Y10666D01*
X31911Y10655D01*
X31922Y10647D01*
X31944Y10632D01*
X31966Y10622D01*
X31985Y10614D01*
X32004Y10610D01*
X32017Y10608D01*
X32023Y10607D01*
X32030D01*
X32049Y10608D01*
X32067Y10611D01*
X32084Y10617D01*
X32098Y10622D01*
X32110Y10626D01*
X32120Y10632D01*
X32126Y10635D01*
X32128Y10636D01*
X32145Y10648D01*
X32159Y10661D01*
X32171Y10676D01*
X32181Y10689D01*
X32189Y10701D01*
X32195Y10711D01*
X32199Y10718D01*
X32200Y10721D01*
X32209Y10741D01*
X32214Y10762D01*
X32220Y10782D01*
X32223Y10800D01*
X32224Y10815D01*
X32225Y10827D01*
Y10834D01*
Y10837D01*
X32223Y10870D01*
X32217Y10899D01*
X32207Y10926D01*
X32198Y10947D01*
X32188Y10965D01*
X32178Y10977D01*
X32173Y10984D01*
X32170Y10987D01*
X32148Y11006D01*
X32126Y11020D01*
X32102Y11031D01*
X32081Y11038D01*
X32062Y11042D01*
X32048Y11044D01*
X32042Y11045D01*
D02*
G37*
G36*
X33146Y11379D02*
X32844D01*
X32806Y11378D01*
X32775Y11372D01*
X32747Y11365D01*
X32726Y11357D01*
X32708Y11349D01*
X32697Y11342D01*
X32690Y11336D01*
X32687Y11335D01*
X32671Y11317D01*
X32658Y11299D01*
X32650Y11279D01*
X32643Y11263D01*
X32640Y11246D01*
X32639Y11234D01*
X32637Y11225D01*
Y11224D01*
Y11223D01*
X32639Y11206D01*
X32641Y11189D01*
X32646Y11175D01*
X32650Y11163D01*
X32655Y11152D01*
X32659Y11144D01*
X32662Y11138D01*
X32664Y11137D01*
X32673Y11123D01*
X32686Y11110D01*
X32698Y11101D01*
X32711Y11092D01*
X32722Y11087D01*
X32730Y11083D01*
X32736Y11080D01*
X32739Y11078D01*
X32758Y11073D01*
X32780Y11069D01*
X32802Y11066D01*
X32825Y11064D01*
X32844Y11063D01*
X32861Y11062D01*
X33146D01*
Y11379D01*
D02*
G37*
G36*
X57994Y4134D02*
X57986D01*
X57984D01*
X57983D01*
X57961Y4133D01*
X57940Y4128D01*
X57922Y4121D01*
X57907Y4112D01*
X57894Y4104D01*
X57886Y4097D01*
X57879Y4091D01*
X57878Y4090D01*
X57864Y4073D01*
X57853Y4054D01*
X57846Y4036D01*
X57840Y4018D01*
X57837Y4001D01*
X57836Y3989D01*
X57835Y3981D01*
Y3978D01*
X57836Y3953D01*
X57842Y3931D01*
X57848Y3911D01*
X57857Y3895D01*
X57864Y3882D01*
X57871Y3872D01*
X57876Y3865D01*
X57878Y3864D01*
X57894Y3850D01*
X57914Y3839D01*
X57932Y3832D01*
X57950Y3827D01*
X57965Y3824D01*
X57977Y3822D01*
X57986Y3821D01*
X57987D01*
X57989D01*
X58011Y3822D01*
X58030Y3828D01*
X58048Y3835D01*
X58063Y3843D01*
X58076Y3850D01*
X58086Y3857D01*
X58091Y3863D01*
X58093Y3864D01*
X58108Y3882D01*
X58119Y3900D01*
X58126Y3920D01*
X58131Y3938D01*
X58134Y3954D01*
X58137Y3967D01*
Y3978D01*
X58136Y4001D01*
X58130Y4024D01*
X58123Y4042D01*
X58115Y4058D01*
X58106Y4071D01*
X58099Y4080D01*
X58094Y4087D01*
X58093Y4089D01*
X58075Y4104D01*
X58056Y4115D01*
X58038Y4123D01*
X58022Y4129D01*
X58007Y4132D01*
X57994Y4134D01*
D02*
G37*
G36*
X57550Y4173D02*
X57546D01*
X57543D01*
X57542D01*
X57513Y4171D01*
X57485Y4165D01*
X57462Y4155D01*
X57442Y4146D01*
X57427Y4136D01*
X57414Y4126D01*
X57407Y4121D01*
X57405Y4118D01*
X57387Y4096D01*
X57373Y4073D01*
X57364Y4050D01*
X57358Y4028D01*
X57353Y4008D01*
X57352Y3992D01*
X57351Y3986D01*
Y3978D01*
X57352Y3958D01*
X57355Y3939D01*
X57359Y3921D01*
X57363Y3906D01*
X57367Y3893D01*
X57371Y3883D01*
X57374Y3878D01*
X57376Y3875D01*
X57387Y3859D01*
X57398Y3845D01*
X57410Y3832D01*
X57423Y3822D01*
X57432Y3814D01*
X57441Y3809D01*
X57448Y3806D01*
X57449Y3804D01*
X57467Y3797D01*
X57484Y3792D01*
X57500Y3788D01*
X57516Y3785D01*
X57528Y3784D01*
X57538Y3782D01*
X57543D01*
X57546D01*
X57575Y3785D01*
X57602Y3791D01*
X57625Y3799D01*
X57646Y3810D01*
X57661Y3820D01*
X57674Y3828D01*
X57681Y3834D01*
X57683Y3836D01*
X57701Y3857D01*
X57715Y3881D01*
X57725Y3903D01*
X57732Y3925D01*
X57736Y3944D01*
X57738Y3960D01*
X57739Y3965D01*
Y3974D01*
X57736Y4004D01*
X57731Y4032D01*
X57721Y4057D01*
X57711Y4078D01*
X57700Y4094D01*
X57690Y4107D01*
X57685Y4114D01*
X57682Y4116D01*
X57660Y4136D01*
X57636Y4150D01*
X57613Y4159D01*
X57592Y4166D01*
X57571Y4171D01*
X57556Y4172D01*
X57550Y4173D01*
D02*
G37*
G36*
X31903Y15945D02*
X31596D01*
X31558Y15944D01*
X31525Y15938D01*
X31497Y15931D01*
X31476Y15923D01*
X31458Y15914D01*
X31446Y15907D01*
X31439Y15901D01*
X31436Y15900D01*
X31419Y15882D01*
X31407Y15863D01*
X31398Y15844D01*
X31391Y15827D01*
X31388Y15810D01*
X31387Y15797D01*
X31386Y15789D01*
Y15787D01*
Y15786D01*
X31387Y15769D01*
X31390Y15752D01*
X31394Y15738D01*
X31398Y15725D01*
X31404Y15714D01*
X31408Y15705D01*
X31411Y15700D01*
X31412Y15698D01*
X31422Y15684D01*
X31435Y15672D01*
X31448Y15662D01*
X31460Y15653D01*
X31472Y15648D01*
X31480Y15643D01*
X31486Y15641D01*
X31489Y15639D01*
X31508Y15634D01*
X31531Y15629D01*
X31553Y15627D01*
X31576Y15625D01*
X31596Y15624D01*
X31613Y15622D01*
X31903D01*
Y15945D01*
D02*
G37*
G36*
X31955Y17679D02*
X31647D01*
X31609Y17678D01*
X31577Y17672D01*
X31549Y17665D01*
X31528Y17657D01*
X31509Y17648D01*
X31498Y17641D01*
X31491Y17636D01*
X31488Y17634D01*
X31471Y17616D01*
X31459Y17597D01*
X31450Y17578D01*
X31443Y17561D01*
X31440Y17544D01*
X31439Y17531D01*
X31437Y17523D01*
Y17521D01*
Y17520D01*
X31439Y17503D01*
X31442Y17486D01*
X31446Y17472D01*
X31450Y17459D01*
X31456Y17448D01*
X31460Y17440D01*
X31463Y17434D01*
X31464Y17433D01*
X31474Y17418D01*
X31487Y17406D01*
X31499Y17396D01*
X31512Y17387D01*
X31523Y17382D01*
X31532Y17378D01*
X31538Y17375D01*
X31540Y17373D01*
X31560Y17368D01*
X31583Y17363D01*
X31605Y17361D01*
X31628Y17359D01*
X31647Y17358D01*
X31664Y17356D01*
X31955D01*
Y17679D01*
D02*
G37*
G36*
X30768Y17593D02*
Y17156D01*
X31075D01*
X30768Y17593D01*
D02*
G37*
G36*
X32039Y19487D02*
X31736D01*
X31699Y19485D01*
X31667Y19480D01*
X31639Y19473D01*
X31619Y19465D01*
X31601Y19456D01*
X31589Y19449D01*
X31583Y19444D01*
X31580Y19442D01*
X31563Y19424D01*
X31551Y19406D01*
X31542Y19387D01*
X31535Y19370D01*
X31533Y19354D01*
X31531Y19341D01*
X31530Y19333D01*
Y19331D01*
Y19330D01*
X31531Y19313D01*
X31534Y19297D01*
X31538Y19283D01*
X31542Y19270D01*
X31548Y19259D01*
X31552Y19251D01*
X31555Y19245D01*
X31556Y19244D01*
X31566Y19230D01*
X31578Y19218D01*
X31591Y19208D01*
X31603Y19200D01*
X31614Y19194D01*
X31623Y19190D01*
X31628Y19187D01*
X31631Y19186D01*
X31650Y19180D01*
X31673Y19176D01*
X31695Y19173D01*
X31717Y19172D01*
X31736Y19171D01*
X31753Y19169D01*
X32039D01*
Y19487D01*
D02*
G37*
G36*
X13117Y6568D02*
X13116D01*
X13114D01*
X13098Y6566D01*
X13081Y6563D01*
X13067Y6559D01*
X13055Y6555D01*
X13044Y6550D01*
X13035Y6545D01*
X13030Y6543D01*
X13028Y6541D01*
X13014Y6531D01*
X13002Y6519D01*
X12992Y6507D01*
X12984Y6494D01*
X12978Y6483D01*
X12974Y6475D01*
X12971Y6469D01*
X12970Y6466D01*
X12964Y6447D01*
X12960Y6425D01*
X12958Y6403D01*
X12956Y6380D01*
X12955Y6361D01*
X12953Y6344D01*
Y6059D01*
X13271D01*
Y6361D01*
X13270Y6398D01*
X13264Y6430D01*
X13257Y6458D01*
X13249Y6479D01*
X13240Y6497D01*
X13234Y6508D01*
X13228Y6515D01*
X13227Y6518D01*
X13209Y6534D01*
X13191Y6547D01*
X13171Y6555D01*
X13154Y6562D01*
X13138Y6565D01*
X13125Y6566D01*
X13117Y6568D01*
D02*
G37*
G36*
X19017Y4556D02*
X19016D01*
X19014D01*
X18998Y4554D01*
X18981Y4551D01*
X18967Y4547D01*
X18955Y4543D01*
X18944Y4538D01*
X18935Y4533D01*
X18930Y4531D01*
X18928Y4529D01*
X18914Y4520D01*
X18902Y4507D01*
X18892Y4495D01*
X18884Y4482D01*
X18878Y4471D01*
X18874Y4463D01*
X18871Y4457D01*
X18870Y4454D01*
X18864Y4435D01*
X18860Y4413D01*
X18858Y4391D01*
X18856Y4368D01*
X18855Y4349D01*
X18853Y4332D01*
Y4047D01*
X19171D01*
Y4349D01*
X19170Y4386D01*
X19164Y4418D01*
X19157Y4446D01*
X19149Y4467D01*
X19140Y4485D01*
X19134Y4496D01*
X19128Y4503D01*
X19127Y4506D01*
X19109Y4522D01*
X19091Y4535D01*
X19071Y4543D01*
X19054Y4550D01*
X19038Y4553D01*
X19025Y4554D01*
X19017Y4556D01*
D02*
G37*
G36*
X49941Y18280D02*
X49935D01*
X49933D01*
X49931D01*
X49894Y18277D01*
X49862Y18272D01*
X49834Y18263D01*
X49811Y18254D01*
X49793Y18243D01*
X49779Y18234D01*
X49770Y18229D01*
X49769Y18226D01*
X49768D01*
X49757Y18216D01*
X49748Y18205D01*
X49733Y18183D01*
X49723Y18161D01*
X49715Y18141D01*
X49711Y18123D01*
X49709Y18109D01*
X49708Y18104D01*
Y18097D01*
X49709Y18078D01*
X49712Y18060D01*
X49718Y18043D01*
X49723Y18029D01*
X49727Y18017D01*
X49733Y18007D01*
X49736Y18001D01*
X49737Y17999D01*
X49750Y17982D01*
X49762Y17968D01*
X49777Y17956D01*
X49790Y17946D01*
X49802Y17938D01*
X49812Y17932D01*
X49819Y17928D01*
X49822Y17926D01*
X49843Y17918D01*
X49863Y17913D01*
X49883Y17907D01*
X49901Y17904D01*
X49916Y17903D01*
X49929Y17901D01*
X49935D01*
X49938D01*
X49972Y17904D01*
X50001Y17910D01*
X50027Y17919D01*
X50048Y17929D01*
X50066Y17939D01*
X50078Y17949D01*
X50085Y17954D01*
X50088Y17957D01*
X50107Y17979D01*
X50121Y18001D01*
X50132Y18025D01*
X50139Y18046D01*
X50144Y18065D01*
X50145Y18079D01*
X50146Y18085D01*
Y18093D01*
X50144Y18122D01*
X50137Y18148D01*
X50128Y18170D01*
X50117Y18190D01*
X50106Y18205D01*
X50098Y18216D01*
X50091Y18223D01*
X50088Y18226D01*
X50064Y18244D01*
X50040Y18258D01*
X50013Y18268D01*
X49988Y18273D01*
X49966Y18277D01*
X49956Y18279D01*
X49948D01*
X49941Y18280D01*
D02*
G37*
G36*
X12788Y16243D02*
X12359D01*
Y15941D01*
X12788Y16243D01*
D02*
G37*
%LPD*%
D10*
X6560Y27870D02*
G03*
X6560Y27870I-125J0D01*
G01*
D13*
X13700Y9400D02*
Y10200D01*
X12100Y9400D02*
Y10200D01*
X7035Y24020D02*
X57965D01*
Y29180D01*
X7035D02*
X57965D01*
X7035Y24020D02*
Y29180D01*
D14*
X18150Y5875D02*
Y6259D01*
Y5875D02*
X19450D01*
Y6259D01*
X18150Y8725D02*
X19450D01*
Y8341D02*
Y8725D01*
X18150Y8341D02*
Y8725D01*
X22535Y11025D02*
Y11175D01*
X21265D02*
X22535D01*
X21265Y11025D02*
Y11175D01*
X22535Y8425D02*
Y8575D01*
X21265Y8425D02*
X22535D01*
X21265D02*
Y8575D01*
X27979Y11638D02*
X28362Y11638D01*
X27979Y10337D02*
X28362D01*
Y11638D01*
X25513Y10337D02*
X25896D01*
X25513D02*
Y11637D01*
X25896D01*
X28775Y10350D02*
X29159D01*
X28775Y11650D02*
X29159Y11650D01*
X28775Y10350D02*
Y11650D01*
X31241Y11650D02*
X31625D01*
Y10350D02*
Y11650D01*
X31241Y10350D02*
X31625D01*
X27318Y14907D02*
X27701D01*
X27318Y16207D02*
X27701D01*
X27318Y14907D02*
Y16207D01*
X29784D02*
X30168D01*
Y14907D02*
Y16207D01*
X29784Y14907D02*
X30168D01*
X27318Y16657D02*
X27701D01*
X27318Y17957D02*
X27701D01*
X27318Y16657D02*
Y17957D01*
X29784D02*
X30168D01*
Y16657D02*
Y17957D01*
X29784Y16657D02*
X30168D01*
X27368Y19757D02*
X27751D01*
X27368Y18457D02*
Y19757D01*
Y18457D02*
X27751D01*
X30218Y18457D02*
Y19757D01*
X29834Y18457D02*
X30218D01*
X29834Y19757D02*
X30218D01*
X49472Y12532D02*
Y12682D01*
Y12532D02*
X50742Y12532D01*
Y12682D01*
X49472Y15282D02*
X49472Y15132D01*
X49472Y15282D02*
X50742Y15282D01*
Y15132D02*
Y15282D01*
X26928Y19632D02*
Y19782D01*
X25658D02*
X26928D01*
X25658Y19632D02*
Y19782D01*
X26928Y17032D02*
Y17182D01*
X25658Y17032D02*
X26928D01*
X25658D02*
Y17182D01*
X50742Y21332D02*
Y21482D01*
X49472D02*
X50742D01*
X49472D02*
X49472Y21332D01*
X50742Y18732D02*
Y18882D01*
X49472Y18732D02*
X50742Y18732D01*
X49472Y18882D02*
X49472Y18732D01*
X55250Y5225D02*
Y5325D01*
X57250Y5225D02*
Y5325D01*
X55250Y5325D02*
X57250Y5325D01*
Y1675D02*
Y1775D01*
X55250Y1675D02*
X57250D01*
X55250D02*
Y1775D01*
X13300Y17525D02*
X13300Y17425D01*
X15300Y17525D02*
X15300Y17425D01*
X13300Y17525D02*
X15300Y17525D01*
Y13875D02*
X15300Y13975D01*
X13300Y13875D02*
X15300D01*
X13300D02*
X13300Y13975D01*
X15300Y18075D02*
Y18175D01*
X13300Y18075D02*
Y18175D01*
Y18075D02*
X15300Y18075D01*
X13300Y21625D02*
Y21725D01*
X15300D01*
Y21625D02*
Y21725D01*
D15*
X0Y3700D02*
G03*
X3700Y0I3700J0D01*
G01*
Y30400D02*
G03*
X0Y26700I0J-3700D01*
G01*
X65200D02*
G03*
X61500Y30400I-3700J0D01*
G01*
Y0D02*
G03*
X65200Y3700I0J3700D01*
G01*
X0D02*
G03*
X3700Y0I3700J0D01*
G01*
X61500D02*
G03*
X65200Y3700I0J3700D01*
G01*
Y26700D02*
G03*
X61500Y30400I-3700J0D01*
G01*
X3700D02*
G03*
X0Y26700I0J-3700D01*
G01*
Y3700D02*
G03*
X3700Y0I3700J0D01*
G01*
X0Y3700D02*
G03*
X3700Y0I3700J0D01*
G01*
X61500D02*
G03*
X65200Y3700I0J3700D01*
G01*
X61500Y0D02*
G03*
X65200Y3700I0J3700D01*
G01*
Y26700D02*
G03*
X61500Y30400I-3700J0D01*
G01*
X65200Y26700D02*
G03*
X61500Y30400I-3700J0D01*
G01*
X3700D02*
G03*
X0Y26700I0J-3700D01*
G01*
X3700Y30400D02*
G03*
X0Y26700I0J-3700D01*
G01*
Y3700D02*
Y26700D01*
X3700Y30400D02*
X61500D01*
X65200Y3700D02*
Y26700D01*
X3700Y0D02*
X61500D01*
X3700D02*
X61500D01*
X65200Y3700D02*
Y26700D01*
X3700Y30400D02*
X61500D01*
X0Y3700D02*
Y26700D01*
X3700Y0D02*
X61500D01*
X3700D02*
X61500D01*
X65200Y3700D02*
Y26700D01*
Y3700D02*
Y26700D01*
X3700Y30400D02*
X61500D01*
X3700D02*
X61500D01*
X0Y3700D02*
Y26700D01*
Y3700D02*
Y26700D01*
M02*
