M48
;Layer_Color=9474304
;FILE_FORMAT=4:3
METRIC,LZ
;TYPE=PLATED
T01F00S00C0.300
T02F00S00C0.600
T03F00S00C0.900
T04F00S00C1.000
T05F00S00C1.300
T06F00S00C3.100
%
T01
X004475Y0018
X0047625Y0016375
X0049Y00185
X004825Y0022625
X004525
X005275
X0055Y0020875
Y0017125
X0055125Y0012375
X0061625Y0015875
Y002075
X0061875Y00085
X004Y0007875
X0038Y000925
X003825Y0011875
X0040354Y001316
X0038Y00165
X0037875Y0018
X0037Y00195
X0038Y00215
X0041726Y0021989
X0042375Y0023
X003375Y00235
X00315Y0022875
X003325Y0021
X0031625Y00185
X0033375Y0015125
Y0013875
X0034Y0009
X0033256Y0008371
X0034Y0007
X00345Y0006
X0032625Y0005875
X003225Y00095
X0028875Y00085
X0028375Y001125
X002475Y001
X0024365Y0007115
X002475Y000625
X0024375Y00045
X002575Y0003866
X00215Y0004
X002Y00035
X0015
X00095Y0003375
X00115Y0006375
X0011875Y0012375
X0012Y001775
X001325Y0019125
X0011375Y002125
X001225Y00235
X001525Y002275
X002225
X0026625
X0026Y0017125
X0019533Y0019028
X000625Y002275
X003506Y000113
X0039125Y0002375
X0002625Y00125
Y00175
T02
X0029Y00025
X00315
X0034
X00365
T03
X004647Y002533
Y002787
X004901
X005155
X005409
X005663
Y002533
X005409
X005155
X004901
X004393
Y002787
X004139
X003885
Y002533
X003631
Y002787
X003377
X003123
Y002533
X002869
Y002787
X002615
X002361
X002107
X001853
Y002533
X002107
X002361
X002615
X003377
X004139
X001599
X001345
Y002787
X001599
X001091
Y002533
X000837
Y002787
T04
X004495Y000296
Y00055
Y000804
X00482
Y00055
Y000296
X005145
Y00055
Y000804
X00547
Y00055
Y000296
X00417
Y00055
Y000804
X003048Y001524
X002794
X00254
X002286
X002032
X001778
Y002032
X002032
X002286
X00254
X002794
X003048
X0014Y000827
Y000573
T05
X0058Y00145
Y00195
X00063Y00198
Y00148
Y00098
T06
X00616Y00037
Y00267
X00036
Y00037
M30
