M48
;Layer_Color=9474304
;FILE_FORMAT=4:3
METRIC,LZ
;TYPE=PLATED
T01F00S00C0.600
T02F00S00C0.900
T03F00S00C1.300
T04F00S00C3.000
%
T01
X004506Y00054
X004994
X00478Y0022
X00227Y00204
Y00184
X00207
X00187
X00167
Y00204
X00187
X00207
T02
X004644Y000978
X004898
X005152
Y00174
X004898
X004644
X004647Y002533
X004901
Y002787
X004647
X005155
Y002533
X005409
X005663
Y002787
X005409
X004393
Y002533
X004139
X003885
X003631
X003377
X003123
Y002787
X002869
Y002533
X002615
X002361
Y002787
X002107
Y002533
X001853
X001599
X001345
Y002787
X001091
Y002533
X000837
Y002787
X001599
X001853
X002615
X003377
X003631
X003885
X004139
X004136Y00174
X003882
X003628
X003374
X00312
Y000978
X003374
X003628
X003882
X004136
X00439
Y00174
X002411Y001361
Y001107
Y000853
Y000599
X001649
Y000853
Y001107
Y001361
T03
X00063Y00098
Y00148
Y00198
T04
X00616Y00037
Y00267
X00036
Y00037
M30
