M48
;Layer_Color=9474304
;FILE_FORMAT=4:3
METRIC,LZ
;TYPE=PLATED
T01F00S00C0.300
T02F00S00C0.600
T04F00S00C0.900
T05F00S00C1.100
T06F00S00C1.300
T07F00S00C3.100
%
T01
X0049Y0012
X0048Y00175
X0045
X00501Y00221
X00625Y00225
Y00175
X0035
X0030796Y0012325
X0027785Y0012204
X00256Y00122
X00271Y00152
X00253Y00177
X00216Y00149
X00205Y00085
X0026Y0008
X00278Y00077
X00298
X00296Y00094
X00281
X0028Y00015
X0023
X0018
X0013
X0008
X00144Y00143
X00385Y00115
X00372Y00036
X00325
X00314
X0002Y00125
Y00175
T02
X0058Y00061
X0052107Y0014467
Y0019347
X00485Y00231
X00465
X00227Y00204
Y00184
X00207
X00187
X00167
Y00204
X00187
X00207
X0033Y0002
X0035
X0037
T04
X0045173Y0013587
X0047713
Y0021207
X0045173
X004647Y002533
X004901
Y002787
X004647
X005155
Y002533
X005409
X005663
Y002787
X005409
X004393
Y002533
X004139
X003885
X003631
X003377
X003123
Y002787
X003377
X003631
X003885
X004139
X0042633Y0021207
X0040093
X0037553
X0035013
X0032473
X0029933
X0027393
X002615Y002533
X002361
Y002787
X002107
Y002533
X001853
X001599
X001345
Y002787
X001091
X000837
Y002533
X001091
X001599Y002787
X001853
X002615
X002869
Y002533
X0029933Y0013587
X0027393
X002411Y001361
Y001107
Y000853
Y000599
X001649
Y000853
Y001107
Y001361
X0032473Y0013587
X0035013
X0037553
X0040093
X0042633
T05
X004625Y000246
Y0005
Y000754
X00495
Y0005
Y000246
X005275
Y0005
Y000754
X0043
Y0005
Y000246
X003975
Y0005
Y000754
X00141Y000843
Y001097
T06
X00063Y00098
Y00148
Y00198
T07
X00616Y00037
Y00267
X00036
Y00037
M30
